<svg xmlns="http://www.w3.org/2000/svg" viewBox="0 0 513.77 39.61"><defs><style>.cls-1,.cls-2{fill:#222;}.cls-1{fill-rule:evenodd;}</style></defs><title>icon-synth-xl</title><g id="Layer_2" data-name="Layer 2"><g id="Layer_1-2" data-name="Layer 1"><path class="cls-1" d="M266.47,8.78a.33.33,0,0,1,.25.12.28.28,0,0,0-.15,0,.32.32,0,0,0-.32.32.28.28,0,0,0,.08.2.32.32,0,0,1-.17-.28.32.32,0,0,1,.31-.32Zm-11.58,13H253v.36h1.88v-.36ZM226.78,8.23l.14,0-.29.49-.14,0a.71.71,0,0,0-.2,1.4.7.7,0,0,0,.8-.6.68.68,0,0,0-.23-.62l.29-.49.11.09a.22.22,0,0,0,0,.24h0a.24.24,0,0,0,.22.1,1.34,1.34,0,0,1,.14.53.23.23,0,0,0-.15.19v0a.23.23,0,0,0,.09.23,1.31,1.31,0,0,1-.28.47.26.26,0,0,0-.24,0h0a.25.25,0,0,0-.09.22,1.1,1.1,0,0,1-.53.14.31.31,0,0,0-.2-.15h0a.26.26,0,0,0-.22.09,1.18,1.18,0,0,1-.47-.28.26.26,0,0,0,0-.24h0a.24.24,0,0,0-.22-.1,1.34,1.34,0,0,1-.14-.53.23.23,0,0,0,.15-.19v0a.23.23,0,0,0-.09-.23,1.31,1.31,0,0,1,.28-.47.26.26,0,0,0,.24,0h0a.25.25,0,0,0,.09-.22,1.11,1.11,0,0,1,.54-.14.27.27,0,0,0,.19.15h0a.25.25,0,0,0,.22-.09Zm.18.07h0Zm-2.05,2-.27.15.06.1.29-.17h0l.08-.05a1.48,1.48,0,0,1-.25-.83h0a1.6,1.6,0,0,1,.46-1.11,1.56,1.56,0,0,1,1.11-.45h0a1.55,1.55,0,0,1,1.1.45A1.6,1.6,0,0,1,228,9.46h0a1.58,1.58,0,0,1-.16.68.41.41,0,0,1,0,.09l0,0,.1.06h0l.29.17.06-.1-.29-.17,0-.05c0-.09.07-.18.1-.27h.06l.13,0V9.92l-.13,0-.06,0a1.34,1.34,0,0,0,.05-.35h.34V9.41h-.34a1.34,1.34,0,0,0-.05-.35l.06,0,.13,0,0,0-.12,0H228a1.51,1.51,0,0,0-.13-.33l.29-.16-.06-.1-.28.16a3,3,0,0,0-.22-.28l0,0,.1-.09,0,0-.1.09,0,0a2,2,0,0,0-.28-.23l.16-.27-.1-.06-.16.28a1.43,1.43,0,0,0-.34-.14l0,0,0-.14h0l0,.13v0a2,2,0,0,0-.35-.06V7.47h-.12v.31a2.23,2.23,0,0,0-.36,0v0l0-.13h-.05l0,.14v0a2,2,0,0,0-.34.13l-.15-.26-.1.06.15.26a1.56,1.56,0,0,0-.28.23l0,0-.1-.1,0,0,.1.09,0,0a2.09,2.09,0,0,0-.22.28l-.26-.15-.06.1.27.15a1.43,1.43,0,0,0-.14.34h0l-.13,0V9l.13,0h0a1.42,1.42,0,0,0,0,.36h-.31v.11h.31a1.49,1.49,0,0,0,0,.36h0l-.13,0V10l.13,0h0a2,2,0,0,0,.14.34Zm44.58,0a2,2,0,0,1-.14-.34h0l-.13,0V9.92l.13,0h0a1.49,1.49,0,0,1,0-.36H269V9.41h.31a1.42,1.42,0,0,1,0-.36h0l-.13,0V9l.13,0h0a2,2,0,0,1,.13-.34l-.26-.15.06-.1.26.15a1.51,1.51,0,0,1,.22-.28l0,0-.1-.09,0,0,.1.1,0,0a2.09,2.09,0,0,1,.29-.23l-.15-.26.1-.06.15.26a2.26,2.26,0,0,1,.33-.13v0l0-.14h0l0,.13v0a2.08,2.08,0,0,1,.36,0V7.47H271v.31a2.08,2.08,0,0,1,.36.06v0l0-.13h.05l0,.14v0a1.43,1.43,0,0,1,.34.14l.16-.28.09.06-.15.27a1.49,1.49,0,0,1,.27.23l0,0,.09-.09,0,0-.1.09,0,0a1.86,1.86,0,0,1,.21.28l.29-.16.05.1-.28.16a2.26,2.26,0,0,1,.13.33h.06l.12,0V9l-.12,0-.06,0a1.34,1.34,0,0,1,.05.35H273v.11h-.33a1.34,1.34,0,0,1-.05.35l.06,0,.12,0V10l-.12,0h-.06c0,.09-.06.18-.1.27l0,.05.28.17-.05.1-.29-.17h0l-.1-.06,0,0a.41.41,0,0,0,.05-.09,1.58,1.58,0,0,0,.16-.68h0a1.6,1.6,0,0,0-.46-1.11A1.56,1.56,0,0,0,271,7.9h0a1.55,1.55,0,0,0-1.1.45,1.6,1.6,0,0,0-.46,1.11h0a1.55,1.55,0,0,0,.24.83l-.07.05h0l-.29.17-.06-.1.27-.15Zm18.82,11.48h1.89v.36h-1.89v-.36ZM270,11.22h1.89v.36H270v-.36Zm-35.19,0h1.89v.36H234.8v-.36Zm9.06,0h1.89v.36h-1.89v-.36Zm-4.52,0h1.89v.36h-1.89v-.36Zm26.13,0h1.89v.36h-1.89v-.36Zm22.62,0H290v.36h-1.89v-.36Zm-4.5,0h1.88v.36h-1.88v-.36Zm-4.54,0h1.89v.36h-1.89v-.36Zm-4.52,0h1.89v.36h-1.89v-.36Zm-40.25-1a2,2,0,0,1-.14-.34h0L234,10V9.92l.13,0h0a1.49,1.49,0,0,1,0-.36h-.31V9.41h.31a1.42,1.42,0,0,1,0-.36h0L234,9V9l.13,0h0a2,2,0,0,1,.13-.34L234,8.52l.06-.1.26.15a1.51,1.51,0,0,1,.22-.28l0,0-.1-.09,0,0,.1.1,0,0a1.56,1.56,0,0,1,.28-.23l-.15-.26.1-.06L235,8a2.26,2.26,0,0,1,.33-.13v0l0-.14h0l0,.13v0a2.23,2.23,0,0,1,.36,0V7.47h.12v.31a2,2,0,0,1,.35.06v0l0-.13h0l0,.14v0a1.43,1.43,0,0,1,.34.14l.16-.28.1.06-.16.27a1.49,1.49,0,0,1,.27.23l0,0,.09-.09,0,0-.1.09,0,0a1.86,1.86,0,0,1,.21.28l.29-.16.05.1-.28.16a1.51,1.51,0,0,1,.13.33h.06l.12,0V9l-.12,0-.06,0a1.34,1.34,0,0,1,.05.35h.33v.11h-.33a1.34,1.34,0,0,1-.05.35l.06,0,.13,0,0,.05-.12,0h-.06c0,.09-.06.18-.1.27l0,.05.28.17-.05.1-.29-.17h0l-.1-.06,0,0a.41.41,0,0,0,0-.09,1.58,1.58,0,0,0,.16-.68h0a1.6,1.6,0,0,0-.46-1.11,1.56,1.56,0,0,0-1.11-.45h0a1.55,1.55,0,0,0-1.1.45,1.6,1.6,0,0,0-.46,1.11h0a1.55,1.55,0,0,0,.24.83l-.07.05h0l-.29.17-.06-.1.27-.15Zm10.38-2.09h.15l-.07.56a.35.35,0,0,0-.14,0,.69.69,0,0,0-.48.87.71.71,0,1,0,.89-.87l.06-.56.14,0a.22.22,0,0,0,.12.21h0a.23.23,0,0,0,.24,0,1.47,1.47,0,0,1,.35.43.23.23,0,0,0-.06.24v0a.28.28,0,0,0,.18.17,1.24,1.24,0,0,1-.06.54.25.25,0,0,0-.21.13v0a.23.23,0,0,0,0,.24,1.3,1.3,0,0,1-.43.34.25.25,0,0,0-.24-.05h0a.26.26,0,0,0-.16.18,1.44,1.44,0,0,1-.55-.06.23.23,0,0,0-.13-.21h0a.25.25,0,0,0-.24,0,1.2,1.2,0,0,1-.34-.43.24.24,0,0,0,.06-.23v0a.23.23,0,0,0-.17-.17A1.09,1.09,0,0,1,243.6,9a.25.25,0,0,0,.2-.13v0a.23.23,0,0,0,0-.24,1.2,1.2,0,0,1,.43-.34.24.24,0,0,0,.23,0h0a.26.26,0,0,0,.17-.18Zm.2,0h0Zm-1.54,2.09-.27.15.06.1.29-.17h0l.07-.05a1.55,1.55,0,0,1-.24-.83h0a1.6,1.6,0,0,1,.46-1.11,1.55,1.55,0,0,1,1.1-.45h0a1.55,1.55,0,0,1,1.57,1.56h0a1.58,1.58,0,0,1-.16.68.41.41,0,0,1,0,.09l0,0,.1.06h0l.29.17.05-.1-.29-.17,0-.05a1.53,1.53,0,0,0,.11-.27h.06l.12,0V9.92l-.12,0-.06,0a2,2,0,0,0,.05-.35h.33V9.41h-.33a1.34,1.34,0,0,0-.05-.35l.06,0,.12,0V9l-.12,0h-.06a2.26,2.26,0,0,0-.13-.33l.28-.16-.05-.1-.29.16A1.42,1.42,0,0,0,246,8.3l0,0,.1-.09,0,0-.09.09,0,0a1.56,1.56,0,0,0-.28-.23l.16-.27-.1-.06L245.6,8a1.43,1.43,0,0,0-.34-.14v0l0-.14h-.05l0,.13v0a2.08,2.08,0,0,0-.36-.06V7.47h-.11v.31a2,2,0,0,0-.36,0v0l0-.13h0l0,.14v0A2.26,2.26,0,0,0,244,8l-.15-.26-.1.06.15.26a2.09,2.09,0,0,0-.29.23l0,0-.1-.1,0,0,.1.09,0,0a1.51,1.51,0,0,0-.22.28l-.26-.15-.06.1.26.15a2,2,0,0,0-.13.34h0L243,9V9l.13,0h0a1.42,1.42,0,0,0,0,.36h-.31v.11h.31a1.49,1.49,0,0,0,0,.36h0l-.13,0V10l.13,0h0a1.43,1.43,0,0,0,.14.34ZM239,9.4c0-.05,0-.1,0-.15l.56.14a.38.38,0,0,0,0,.15.71.71,0,0,0,.8.59.7.7,0,1,0-.74-1L239.07,9l.06-.12a.24.24,0,0,0,.22-.1v0a.26.26,0,0,0,0-.24,1.31,1.31,0,0,1,.47-.28.24.24,0,0,0,.23.09h0a.29.29,0,0,0,.19-.15,1.19,1.19,0,0,1,.53.13.22.22,0,0,0,.1.22h0a.21.21,0,0,0,.24,0,1.17,1.17,0,0,1,.29.48.21.21,0,0,0-.09.22v0a.23.23,0,0,0,.15.19,1.19,1.19,0,0,1-.13.53.26.26,0,0,0-.23.1v0a.26.26,0,0,0,0,.24,1.31,1.31,0,0,1-.47.28.23.23,0,0,0-.22-.09h0a.27.27,0,0,0-.19.15,1.26,1.26,0,0,1-.54-.13.24.24,0,0,0-.09-.22h0a.21.21,0,0,0-.24,0,1.18,1.18,0,0,1-.28-.47.28.28,0,0,0,.09-.23v0A.23.23,0,0,0,239,9.4Zm0-.2v0h0v0Zm-.23,1.06-.27.15.06.1.29-.17h0l.08-.05a1.48,1.48,0,0,1-.25-.83h0a1.6,1.6,0,0,1,.46-1.11,1.57,1.57,0,0,1,1.11-.45h0a1.55,1.55,0,0,1,1.1.45,1.6,1.6,0,0,1,.46,1.11h0a1.73,1.73,0,0,1-.15.68l-.06.09,0,0,.1.06h0l.29.17.06-.1-.29-.17,0-.05c0-.09.07-.18.1-.27h.06l.13,0V9.92l-.13,0-.06,0a1.34,1.34,0,0,0,.05-.35h.34V9.41h-.34a1.34,1.34,0,0,0-.05-.35l.06,0,.13,0V9l-.13,0h-.06a1.51,1.51,0,0,0-.13-.33l.29-.16-.06-.1-.28.16a3,3,0,0,0-.22-.28l0,0,.1-.09,0,0-.1.09,0,0a2,2,0,0,0-.28-.23l.16-.27-.1-.06-.16.28a1.56,1.56,0,0,0-.33-.14v0l0-.14h0l0,.13v0a2,2,0,0,0-.35-.06V7.47h-.12v.31a2.23,2.23,0,0,0-.36,0v0l0-.13h-.05l0,.14v0a2,2,0,0,0-.34.13l-.15-.26-.1.06.15.26a1.56,1.56,0,0,0-.28.23l0,0-.09-.1,0,0,.1.09,0,0a1.56,1.56,0,0,0-.23.28l-.26-.15-.06.1.27.15a1.43,1.43,0,0,0-.14.34h0l-.13,0V9l.13,0h0a1.42,1.42,0,0,0,0,.36h-.31v.11h.31a2.23,2.23,0,0,0,0,.36h0l-.13,0V10l.13,0h0a2,2,0,0,0,.14.34Zm-1.9-1.42a.26.26,0,0,1-.23-.09v0a.26.26,0,0,1,0-.24,1.35,1.35,0,0,0-.48-.27.23.23,0,0,1-.22.1h0a.27.27,0,0,1-.2-.14,1.27,1.27,0,0,0-.53.14.25.25,0,0,1-.09.23h0a.23.23,0,0,1-.24,0,1.21,1.21,0,0,0-.27.48.27.27,0,0,1,.09.23v0a.24.24,0,0,1-.15.19,1.28,1.28,0,0,0,.15.53.24.24,0,0,1,.22.09l0,0a.26.26,0,0,1,0,.24,1.42,1.42,0,0,0,.48.27.23.23,0,0,1,.22-.1h0a.22.22,0,0,1,.19.14,1.34,1.34,0,0,0,.53-.14.25.25,0,0,1,.09-.23h0a.24.24,0,0,1,.24,0,1.18,1.18,0,0,0,.27-.47.27.27,0,0,1-.09-.23v0a.23.23,0,0,1,.15-.19s0-.09,0-.14l-.55.15a.68.68,0,0,1-.27.61.7.7,0,0,1-1-.12A.71.71,0,0,1,236.32,9a.75.75,0,0,1,.07.12l.55-.15-.06-.13ZM237,9V9h0V9Zm23.19-1.25h-8.68a.45.45,0,0,0-.27.12.37.37,0,0,0-.11.27h0v3h0a.38.38,0,0,0,.38.38h8.68a.37.37,0,0,0,.27-.11.39.39,0,0,0,.11-.27h0v-3h0a.37.37,0,0,0-.11-.27.42.42,0,0,0-.27-.12Zm-8.68-.26h8.68a.65.65,0,0,1,.64.64h0v3h0a.63.63,0,0,1-.64.63h-8.68a.62.62,0,0,1-.63-.63h0v-3h0a.63.63,0,0,1,.63-.64Zm7.46,2.06-.12-.12V8.8l.13-.12.13.13v.65l-.14.11Zm-.94-1,.12-.12h.65l.13.12-.13.13h-.65L258,8.62Zm-5.25,0,.13-.12h.65l.12.12-.13.13h-.65l-.12-.13Zm-.07,1-.11-.12V8.8l.12-.12.13.13v.65l-.14.11Zm.07.06.13-.12h.65l.12.13-.13.12h-.65l-.12-.13Zm-.07,1-.11-.13V9.81l.12-.12.13.13v.65l-.14.12Zm.07.05.13-.12h.65l.12.13-.13.13h-.65l-.12-.14Zm2.27,0,.12-.12h.65l.13.13-.13.13h-.65l-.12-.14Zm-.07-.05-.11-.13V9.81l.12-.12.13.13v.65l-.14.12Zm1,0-.12-.13V9.81l.13-.12.13.13v.65l-.14.12Zm-.93-1,.12-.12h.65l.13.13-.13.12h-.65L255,9.63Zm-.08-.06-.11-.12V8.8l.12-.12.13.13v.65l-.14.11Zm.07-1,.12-.12h.65l.13.12-.13.13h-.65L255,8.62Zm1.49,0,.13-.12h.65l.12.12-.13.13h-.65l-.12-.13Zm-.06,1-.12-.12V8.8l.13-.12.12.13v.65l-.13.11Zm1,0-.11-.12V8.8l.12-.12.13.13v.65l-.14.11Zm0,1-.11-.13V9.81l.12-.12.13.13v.65l-.14.12Zm-1,0-.12-.13V9.81l.13-.12.12.13v.65l-.13.12Zm.06.05.13-.12h.65l.12.13-.13.13h-.65l-.12-.14Zm1.49,0,.12-.12h.65l.13.13-.13.13h-.65l-.12-.14Zm-.07-.05-.11-.13V9.81l.12-.12.13.13v.65l-.14.12Zm1,0-.12-.13V9.81l.13-.12.13.13v.65l-.14.12Zm-.94-1,.12-.12h.65l.13.13-.13.12h-.65L258,9.63Zm-.07-.06-.11-.12V8.8l.12-.12.13.13v.65l-.14.11Zm4.52-2.39h0a.39.39,0,0,0-.25.1h0a.37.37,0,0,0-.1.25h0a.36.36,0,0,0,.1.25.34.34,0,0,0,.25.11h0a.38.38,0,0,0,.36-.36h0a.34.34,0,0,0-.11-.25h0a.36.36,0,0,0-.25-.1Zm0,14.05h0a.39.39,0,0,0-.25.1h0a.39.39,0,0,0-.1.25h0a.36.36,0,0,0,.1.25.34.34,0,0,0,.25.11h0a.38.38,0,0,0,.36-.36h0a.36.36,0,0,0-.11-.25h0a.36.36,0,0,0-.25-.1Zm-13-14h0a.37.37,0,0,0-.25.1h0a.37.37,0,0,0-.1.25h0a.36.36,0,0,0,.1.25.33.33,0,0,0,.25.11h0a.33.33,0,0,0,.25-.11.36.36,0,0,0,.1-.25h0a.37.37,0,0,0-.1-.25h0a.36.36,0,0,0-.25-.1Zm17,13.73h2v.2h-2v-.2Zm22.08-5.32h1.4a.51.51,0,0,1,.36.14.54.54,0,0,1,.15.29h.9v.08h-.9v.61h0v0h.9v.08h-.91a.51.51,0,0,1-.14.26h0a.51.51,0,0,1-.36.14h-1.4a.49.49,0,0,1-.5-.4h-1v-.08h1v0h0V16.1h-1V16h1a.53.53,0,0,1,.14-.29h0a.51.51,0,0,1,.36-.14Zm-22.9.66H267v.28h-1.41v-.28Zm0-.68h0a.51.51,0,0,0-.36.15h0a.54.54,0,0,0-.15.3h-1v.08h1v.6h0v0h-1v.08h1a.53.53,0,0,0,.14.24.51.51,0,0,0,.36.15H267a.51.51,0,0,0,.36-.15h0a.51.51,0,0,0,.13-.24h.92v-.08h-.9v0h0v-.6h.9V16h-.91a.47.47,0,0,0-.14-.3.51.51,0,0,0-.36-.15h-1.4Zm1.4.26h-1.4a.29.29,0,0,0-.18.07h0a.24.24,0,0,0-.07.18h0v.62h0a.22.22,0,0,0,.07.17.24.24,0,0,0,.18.07H267a.24.24,0,0,0,.18-.07h0a.26.26,0,0,0,.07-.17h0v-.62h0a.24.24,0,0,0-.25-.25Zm16.92,3.28h1.42v.28h-1.42v-.28Zm0-.67h0a.51.51,0,0,0-.36.14h0a.54.54,0,0,0-.14.27h-1v.08h1v.62h-1v.08h1a.5.5,0,0,0,.14.27.48.48,0,0,0,.36.15h1.4a.51.51,0,0,0,.36-.14h0a.57.57,0,0,0,.14-.28h.91v-.08h-.9v-.62h.9v-.08h-.91a.54.54,0,0,0-.14-.27.51.51,0,0,0-.36-.14H284Zm1.4.25H284a.29.29,0,0,0-.18.07h0a.24.24,0,0,0-.07.17h0v.62h0a.24.24,0,0,0,.07.17.25.25,0,0,0,.18.08h1.4a.25.25,0,0,0,.18-.08h0a.21.21,0,0,0,.07-.17h0v-.62h0a.24.24,0,0,0-.07-.18.29.29,0,0,0-.18-.07Zm-6-1.7h1.42v.28h-1.42V17Zm0-.68h0a.51.51,0,0,0-.36.15h0a.5.5,0,0,0-.14.27h-1v.08h1v.56h-1v.2h1a.57.57,0,0,0,.13.21.51.51,0,0,0,.36.15h1.4a.51.51,0,0,0,.36-.15h0a.57.57,0,0,0,.13-.21h.92v-.2h-.9v-.56h.9v-.08h-.91a.5.5,0,0,0-.14-.27.51.51,0,0,0-.36-.15h-1.4Zm1.4.26h-1.4a.29.29,0,0,0-.18.07h0a.24.24,0,0,0-.07.18h0v.62h0a.22.22,0,0,0,.07.17.3.3,0,0,0,.18.08h1.4a.3.3,0,0,0,.18-.08h0a.22.22,0,0,0,.07-.17h0v-.62h0a.24.24,0,0,0-.07-.18.29.29,0,0,0-.18-.07Zm-6-1h1.41v.28h-1.41v-.28Zm0-.67h0a.51.51,0,0,0-.36.14h0a.59.59,0,0,0-.14.27h-1v.09h1V16h-1v.08h1a.5.5,0,0,0,.14.28.51.51,0,0,0,.36.14h1.4a.51.51,0,0,0,.36-.14h0a.57.57,0,0,0,.14-.28h.9V16h-.89V15.4h.89v-.09h-.9a.59.59,0,0,0-.14-.27.51.51,0,0,0-.36-.14h-1.4Zm1.4.25h-1.4a.23.23,0,0,0-.18.08h0a.21.21,0,0,0-.08.17h0V16h0a.21.21,0,0,0,.08.17.23.23,0,0,0,.18.08h1.4a.25.25,0,0,0,.18-.08h0a.24.24,0,0,0,.07-.17h0V15.4h0a.24.24,0,0,0-.07-.17.25.25,0,0,0-.18-.08Zm-6,3.28h1.41v.28h-1.41v-.28Zm0-.68h0a.56.56,0,0,0-.35.15h0a.49.49,0,0,0-.14.24h-1v.09h1v0h0v.59h-1v.08h1a.48.48,0,0,0,.15.3.51.51,0,0,0,.35.15h1.41a.53.53,0,0,0,.36-.15h0a.46.46,0,0,0,.15-.3h.9v-.08h-.9v-.59h0v0h.9v-.09h-.91a.56.56,0,0,0-.13-.24.58.58,0,0,0-.36-.15h-1.4Zm1.4.26h-1.41a.26.26,0,0,0-.17.07h0a.25.25,0,0,0-.08.18h0v.62h0a.21.21,0,0,0,.08.17.23.23,0,0,0,.17.08h1.41a.25.25,0,0,0,.18-.08h0a.24.24,0,0,0,.07-.17h0v-.62h0a.24.24,0,0,0-.25-.25Zm16.92-1.75v.28h1.41v-.28Zm1.4-.42h-1.4a.25.25,0,0,0-.18.08h0a.24.24,0,0,0-.07.17h0v.62h0a.24.24,0,0,0,.07.17.25.25,0,0,0,.18.08h1.4a.23.23,0,0,0,.18-.08h0a.21.21,0,0,0,.08-.17h0v-.62h0a.21.21,0,0,0-.08-.17.23.23,0,0,0-.18-.08Zm-.59,5.07h2v.2h-2v-.2Zm-2.32,0h2v.2h-2v-.2Zm0-7.07h2V14h-2v-.2Zm0,.76h2v.09h-2V14.6Zm0,.71h2v.09h-2v-.09Zm0,2.07h2v.2h-2v-.2Zm0,.76h2v.09h-2v-.09Zm0,2.12h2v.09h-2v-.09Zm0-.7h2v.08h-2v-.08Zm0-.71h2v.08h-2v-.08Zm2.32-5h2V14h-2v-.2Zm0,.76h2v.09h-2V14.6Zm0,.71h2v.09h-2v-.09Zm0,2.07h2v.2h-2v-.2Zm0,.76h2v.09h-2v-.09Zm0,2.12h2v.09h-2v-.09Zm0-.7h2v.08h-2v-.08Zm0-.71h2v.08h-2v-.08Zm-4.56,2.06h2v.2h-2v-.2Zm-2.32,0h2v.2h-2v-.2Zm0-7.07h2V14h-2v-.2Zm0,.76h2v.09h-2V14.6Zm0,.71h2v.09h-2v-.09Zm0,.71h2v.08h-2V16Zm0,.71h2v.08h-2v-.08Zm0,.65h2v.2h-2v-.2Zm0,.76h2v.09h-2v-.09Zm0,2.12h2v.09h-2v-.09Zm2.32-6.42h2V14h-2v-.2Zm0,.76h2v.09h-2V14.6Zm0,.71h2v.09h-2v-.09Zm0,.71h2v.08h-2V16Zm0,.71h2v.08h-2v-.08Zm0,.65h2v.2h-2v-.2Zm0,.76h2v.09h-2v-.09Zm0,2.12h2v.09h-2v-.09Zm-4.58.65h2v.2h-2v-.2Zm-2.32,0h2v.2h-2v-.2Zm0-7.07h2V14h-2v-.2Zm0,.76h2v.09h-2V14.6Zm0,.71h2v.09h-2v-.09Zm0,.71h2v.08h-2V16Zm0,2.12h2v.09h-2v-.09Zm0,2.12h2v.09h-2v-.09Zm0-.7h2v.08h-2v-.08Zm0-.71h2v.08h-2v-.08Zm2.32-5h2V14h-2v-.2Zm0,.76h2v.09h-2V14.6Zm0,.71h2v.09h-2v-.09Zm0,.71h2v.08h-2V16Zm0,2.12h2v.09h-2v-.09Zm0,2.12h2v.09h-2v-.09Zm0-.7h2v.08h-2v-.08Zm0-.71h2v.08h-2v-.08Zm-4.59,2.06h2v.2h-2v-.2Zm-2.32,0h2v.2h-2v-.2Zm0-7.07h2V14h-2v-.2Zm0,.76h2v.09h-2V14.6Zm0,2.13h2v.08h-2v-.08Zm0,.65h2v.2h-2v-.2Zm0,.76h2v.09h-2v-.09Zm0,2.12h2v.09h-2v-.09Zm0-.7h2v.08h-2v-.08Zm0-.71h2v.08h-2v-.08Zm2.32-5h2V14h-2v-.2Zm0,.76h2v.09h-2V14.6Zm0,2.13h2v.08h-2v-.08Zm0,.65h2v.2h-2v-.2Zm0,.76h2v.09h-2v-.09Zm0,2.12h2v.09h-2v-.09Zm0-.7h2v.08h-2v-.08Zm0-.71h2v.08h-2v-.08ZM271,20.91h2v.2h-2v-.2Zm-2.32,0h2v.2h-2v-.2Zm0-7.07h2V14h-2v-.2Zm0,.76h2v.09h-2V14.6Zm0,.71h2v.09h-2v-.09Zm0,.71h2v.08h-2V16Zm0,.71h2v.08h-2v-.08Zm0,.65h2v.2h-2v-.2Zm0,2.88h2v.09h-2v-.09Zm0-.7h2v.08h-2v-.08ZM271,13.84h2V14h-2v-.2Zm0,.76h2v.09h-2V14.6Zm0,.71h2v.09h-2v-.09Zm0,.71h2v.08h-2V16Zm0,.71h2v.08h-2v-.08Zm0,.65h2v.2h-2v-.2Zm0,2.88h2v.09h-2v-.09Zm0-.7h2v.08h-2v-.08Zm-6.88,1.35h2v.2h-2v-.2Zm0-7.07h2V14h-2v-.2Zm0,.76h2v.09h-2V14.6Zm0,.71h2v.09h-2v-.09Zm0,2.07h2v.2h-2v-.2Zm0,.76h2v.09h-2v-.09Zm0,2.12h2v.09h-2v-.09Zm0-.7h2v.08h-2v-.08Zm0-.71h2v.08h-2v-.08Zm2.32-5h2V14h-2v-.2Zm0,.76h2v.09h-2V14.6Zm0,.71h2v.09h-2v-.09Zm0,2.07h2v.2h-2v-.2Zm0,.76h2v.09h-2v-.09Zm0,2.12h2v.09h-2v-.09Zm0-.7h2v.08h-2v-.08Zm0-.71h2v.08h-2v-.08Zm-1,2.89h1.89v.36h-1.89v-.36Zm18.34,0h1.88v.36h-1.88v-.36Zm-4.58,0h1.88v.36h-1.88v-.36Zm-4.6,0h1.89v.36h-1.89v-.36Zm-4.59,0h1.89v.36H270v-.36ZM289,8.17h.14l-.06.56a.32.32,0,0,0-.14,0,.69.69,0,1,0,.41,0l.06-.56.13,0a.25.25,0,0,0,.13.21h0a.23.23,0,0,0,.24,0,1.3,1.3,0,0,1,.34.43.25.25,0,0,0-.05.24v0a.28.28,0,0,0,.18.17,1.24,1.24,0,0,1-.06.54.25.25,0,0,0-.21.13v0a.23.23,0,0,0,0,.24,1.3,1.3,0,0,1-.43.34.26.26,0,0,0-.24-.05h0a.28.28,0,0,0-.17.18,1.38,1.38,0,0,1-.54-.06.25.25,0,0,0-.13-.21h0a.25.25,0,0,0-.24,0A1.2,1.2,0,0,1,288,10a.23.23,0,0,0,.05-.23v0a.26.26,0,0,0-.18-.17A1.38,1.38,0,0,1,288,9a.25.25,0,0,0,.21-.13v0a.25.25,0,0,0,0-.24,1.17,1.17,0,0,1,.42-.34.26.26,0,0,0,.24,0h0a.28.28,0,0,0,.17-.18Zm.2,0h0Zm-1.55,2.09-.26.15,0,.1.29-.17h0l.08-.05a1.55,1.55,0,0,1-.24-.83h0a1.55,1.55,0,0,1,1.56-1.56h0a1.54,1.54,0,0,1,1.56,1.56h0a1.57,1.57,0,0,1-.15.68l-.05.09,0,0,.09.06h0l.29.17.06-.1-.29-.17,0-.05a1.48,1.48,0,0,0,.1-.27h.06l.13,0V9.92l-.12,0-.06,0c0-.11,0-.23.05-.35h.33V9.41h-.33a2,2,0,0,0-.05-.35l.06,0L291,9V9l-.13,0h-.05a2.26,2.26,0,0,0-.13-.33l.28-.16-.06-.1-.28.16a1.93,1.93,0,0,0-.22-.28l0,0,.09-.09,0,0-.09.09,0,0a1.56,1.56,0,0,0-.28-.23l.16-.27-.1-.06L290,8a1.22,1.22,0,0,0-.33-.14v0l0-.14h-.05l0,.13,0,0a2,2,0,0,0-.35-.06V7.47h-.11v.31a2,2,0,0,0-.36,0v0l0-.13h0l0,.14v0a1.62,1.62,0,0,0-.33.13l-.15-.26-.1.06.15.26a1.63,1.63,0,0,0-.29.23l0,0-.1-.1,0,0,.09.09,0,0a1.51,1.51,0,0,0-.22.28l-.27-.15,0,.1.26.15a1.4,1.4,0,0,0-.13.34h0l-.13,0V9l.13,0h0a2.08,2.08,0,0,0,0,.36h-.3v.11h.3a2.25,2.25,0,0,0,.06.36h0l-.13,0V10l.13,0h0a2,2,0,0,0,.13.34Zm-4.32-.86c0-.05,0-.1,0-.15l.55.14a.76.76,0,0,0,0,.15.71.71,0,0,0,.8.59.7.7,0,1,0-.74-1L283.43,9l.05-.12a.26.26,0,0,0,.23-.1v0a.26.26,0,0,0,0-.24,1.31,1.31,0,0,1,.47-.28.24.24,0,0,0,.22.09h0a.27.27,0,0,0,.19-.15,1.23,1.23,0,0,1,.54.13.24.24,0,0,0,.09.22h0a.21.21,0,0,0,.24,0,1.15,1.15,0,0,1,.28.48.25.25,0,0,0-.09.22v0a.23.23,0,0,0,.15.19,1.19,1.19,0,0,1-.14.53.24.24,0,0,0-.22.1v0a.26.26,0,0,0,0,.24,1.31,1.31,0,0,1-.47.28.24.24,0,0,0-.23-.09h0a.27.27,0,0,0-.18.15,1.23,1.23,0,0,1-.54-.13.22.22,0,0,0-.1-.22h0a.21.21,0,0,0-.24,0,1.2,1.2,0,0,1-.29-.47.23.23,0,0,0,.09-.23v0a.23.23,0,0,0-.15-.19Zm0-.2v0h0v0Zm-.23,1.06-.27.15.06.1.29-.17h0l.07-.05a1.55,1.55,0,0,1-.24-.83h0a1.6,1.6,0,0,1,.46-1.11,1.55,1.55,0,0,1,1.1-.45h0a1.56,1.56,0,0,1,1.11.45,1.6,1.6,0,0,1,.46,1.11h0a1.58,1.58,0,0,1-.16.68.41.41,0,0,1,0,.09l0,0,.1.06h0l.29.17.05-.1-.28-.17,0-.05c0-.09.07-.18.1-.27h.06l.12,0,0-.05-.13,0-.06,0a1.34,1.34,0,0,0,.05-.35h.33V9.41h-.33a1.34,1.34,0,0,0-.05-.35l.06,0,.13,0,0,0-.12,0h-.06a1.51,1.51,0,0,0-.13-.33l.28-.16-.05-.1-.29.16a1.86,1.86,0,0,0-.21-.28l0,0,.1-.09,0,0-.09.09,0,0a1.49,1.49,0,0,0-.27-.23l.16-.27-.1-.06-.16.28a1.43,1.43,0,0,0-.34-.14v0l0-.14h0l0,.13v0a2,2,0,0,0-.35-.06V7.47h-.12v.31a2.23,2.23,0,0,0-.36,0v0l0-.13h0l0,.14v0a2,2,0,0,0-.34.13l-.15-.26-.1.06.15.26a1.56,1.56,0,0,0-.28.23l0,0-.1-.1,0,0,.1.09,0,0a2.09,2.09,0,0,0-.22.28l-.26-.15-.06.1.26.15A2,2,0,0,0,283,9h0l-.13,0V9L283,9h0a1.42,1.42,0,0,0-.05.36h-.31v.11h.31a1.49,1.49,0,0,0,.05.36h0l-.13,0V10l.13,0h0a2,2,0,0,0,.14.34Zm-3.27-2.09H280l-.07.56a.35.35,0,0,0-.14,0,.7.7,0,0,0,.39,1.35.7.7,0,0,0,0-1.35l.06-.56.14,0a.22.22,0,0,0,.12.21h0a.23.23,0,0,0,.24,0,1.47,1.47,0,0,1,.35.43.23.23,0,0,0-.06.24v0a.28.28,0,0,0,.18.17,1.24,1.24,0,0,1-.06.54A.25.25,0,0,0,281,10v0a.23.23,0,0,0,0,.24,1.3,1.3,0,0,1-.43.34.25.25,0,0,0-.24-.05h0a.3.3,0,0,0-.17.18,1.41,1.41,0,0,1-.54-.06.23.23,0,0,0-.13-.21h0a.25.25,0,0,0-.24,0,1.2,1.2,0,0,1-.34-.43.24.24,0,0,0,.06-.23v0a.23.23,0,0,0-.17-.17,1.09,1.09,0,0,1,.06-.54.25.25,0,0,0,.2-.13v0a.23.23,0,0,0,0-.24,1.2,1.2,0,0,1,.43-.34.24.24,0,0,0,.23,0h0a.26.26,0,0,0,.17-.18Zm.2,0h0Zm-1.54,2.09-.27.15.06.1.29-.17h0l.07-.05a1.55,1.55,0,0,1-.24-.83h0A1.55,1.55,0,0,1,280,7.9h0a1.54,1.54,0,0,1,1.56,1.56h0a1.57,1.57,0,0,1-.15.68l-.05.09,0,0,.1.06h0l.29.17,0-.1-.29-.17,0-.05a1.53,1.53,0,0,0,.11-.27h.06l.12,0V9.92l-.12,0-.06,0a2,2,0,0,0,.05-.35H282V9.41h-.33a2,2,0,0,0-.05-.35l.06,0,.12,0V9l-.12,0h-.06a2.26,2.26,0,0,0-.13-.33l.28-.16,0-.1-.29.16a1.42,1.42,0,0,0-.22-.28l0,0,.09-.09,0,0-.09.09,0,0A1.56,1.56,0,0,0,280.9,8l.16-.27-.1-.06-.15.28a1.43,1.43,0,0,0-.34-.14v0l0-.14h0l0,.13v0a2.25,2.25,0,0,0-.36-.06V7.47H280v.31a2,2,0,0,0-.36,0v0l0-.13h0l0,.14v0a1.89,1.89,0,0,0-.33.13l-.15-.26-.1.06.15.26a2.09,2.09,0,0,0-.29.23l0,0-.1-.1,0,0,.09.09,0,0a1.51,1.51,0,0,0-.22.28l-.26-.15-.06.1.26.15a2,2,0,0,0-.13.34h0l-.13,0V9l.13,0h0a1.42,1.42,0,0,0-.05.36H278v.11h.31a1.49,1.49,0,0,0,.05.36h0l-.13,0V10l.13,0h0a1.43,1.43,0,0,0,.14.34ZM274.2,9.4c0-.05,0-.1,0-.15l.55.14a.76.76,0,0,0,0,.15.71.71,0,0,0,.8.59.7.7,0,1,0-.74-1L274.28,9l.06-.12a.24.24,0,0,0,.22-.1v0a.26.26,0,0,0,0-.24,1.31,1.31,0,0,1,.47-.28.24.24,0,0,0,.23.09h0a.32.32,0,0,0,.19-.15,1.22,1.22,0,0,1,.53.13.22.22,0,0,0,.1.22h0a.21.21,0,0,0,.24,0,1.17,1.17,0,0,1,.29.48.21.21,0,0,0-.09.22v0a.23.23,0,0,0,.15.19,1.33,1.33,0,0,1-.13.53.26.26,0,0,0-.23.1v0a.26.26,0,0,0,0,.24,1.31,1.31,0,0,1-.47.28.24.24,0,0,0-.22-.09h0a.27.27,0,0,0-.19.15,1.26,1.26,0,0,1-.54-.13.24.24,0,0,0-.09-.22h0a.21.21,0,0,0-.24,0,1.18,1.18,0,0,1-.28-.47.28.28,0,0,0,.09-.23v0a.23.23,0,0,0-.15-.19Zm0-.2v0h0v0ZM274,10.26l-.27.15.06.1.29-.17h0l.08-.05a1.48,1.48,0,0,1-.25-.83h0a1.6,1.6,0,0,1,.46-1.11,1.56,1.56,0,0,1,1.11-.45h0a1.55,1.55,0,0,1,1.1.45A1.6,1.6,0,0,1,277,9.46h0a1.58,1.58,0,0,1-.16.68.41.41,0,0,1-.05.09l0,0,.1.06h0l.29.17.06-.1-.29-.17,0-.05c0-.09.07-.18.1-.27h.06l.12,0,0-.05-.13,0-.06,0a1.34,1.34,0,0,0,.05-.35h.34V9.41h-.34a1.34,1.34,0,0,0-.05-.35l.06,0,.13,0,0,0-.12,0h-.06a1.51,1.51,0,0,0-.13-.33l.29-.16-.06-.1-.28.16a3,3,0,0,0-.22-.28l0,0,.1-.09,0,0-.1.09,0,0a2,2,0,0,0-.28-.23l.16-.27-.1-.06-.16.28a1.43,1.43,0,0,0-.34-.14l0,0,0-.14h0l0,.13v0a2,2,0,0,0-.35-.06V7.47h-.12v.31a2.23,2.23,0,0,0-.36,0v0l0-.13h0l0,.14v0a2,2,0,0,0-.34.13l-.15-.26-.1.06.15.26a1.56,1.56,0,0,0-.28.23l0,0-.1-.1,0,0,.1.09,0,0a2.09,2.09,0,0,0-.22.28l-.26-.15-.06.1.27.15a1.43,1.43,0,0,0-.14.34h0l-.13,0V9l.13,0h0a1.42,1.42,0,0,0,0,.36h-.31v.11h.31a1.49,1.49,0,0,0,0,.36h0l-.13,0V10l.13,0h0a2,2,0,0,0,.14.34Zm-1.9-1.42a.26.26,0,0,1-.23-.09v0a.26.26,0,0,1,0-.24,1.35,1.35,0,0,0-.48-.27.23.23,0,0,1-.22.1h0a.27.27,0,0,1-.2-.14,1.27,1.27,0,0,0-.53.14.25.25,0,0,1-.09.23h0a.23.23,0,0,1-.24,0,1.38,1.38,0,0,0-.28.48.25.25,0,0,1,.1.23v0a.24.24,0,0,1-.15.19,1.28,1.28,0,0,0,.15.53.24.24,0,0,1,.22.09v0a.24.24,0,0,1,0,.24,1.42,1.42,0,0,0,.48.27.23.23,0,0,1,.22-.1h0a.22.22,0,0,1,.19.14,1.34,1.34,0,0,0,.53-.14.25.25,0,0,1,.09-.23h0a.24.24,0,0,1,.24,0,1.18,1.18,0,0,0,.27-.47.27.27,0,0,1-.09-.23v0a.23.23,0,0,1,.15-.19s0-.09,0-.14l-.55.15a.68.68,0,0,1-.27.61.7.7,0,0,1-1-.12A.71.71,0,0,1,271.53,9a.75.75,0,0,1,.07.12l.55-.15-.06-.13Zm.08.18V9h0V9ZM250.3,21.74h-1.89v.36h1.89v-.36Zm-4.59,0h-1.89v.36h1.89v-.36Zm-4.58,0h-1.89v.36h1.89v-.36Zm18.33,0h-1.89v.36h1.89v-.36Zm-1-2.89h-2v.08h2v-.08Zm0,.71h-2v.08h2v-.08Zm0,.7h-2v.09h2v-.09Zm0-2.12h-2v.09h2v-.09Zm0-.76h-2v.2h2v-.2Zm0-2.07h-2v.09h2v-.09Zm0-.71h-2v.09h2V14.6Zm0-.76h-2V14h2v-.2Zm2.32,5h-2v.08h2v-.08Zm0,.71h-2v.08h2v-.08Zm0,.7h-2v.09h2v-.09Zm0-2.12h-2v.09h2v-.09Zm0-.76h-2v.2h2v-.2Zm0-2.07h-2v.09h2v-.09Zm0-.71h-2v.09h2V14.6Zm0-.76h-2V14h2v-.2Zm0,7.07h-2v.2h2v-.2Zm-6.89-1.35h-2v.08h2v-.08Zm0,.7h-2v.09h2v-.09Zm0-2.88h-2v.2h2v-.2Zm0-.65h-2v.08h2v-.08Zm0-.71h-2v.08h2V16Zm0-.71h-2v.09h2v-.09Zm0-.71h-2v.09h2V14.6Zm0-.76h-2V14h2v-.2Zm2.32,5.72h-2v.08h2v-.08Zm0,.7h-2v.09h2v-.09Zm0-2.88h-2v.2h2v-.2Zm0-.65h-2v.08h2v-.08Zm0-.71h-2v.08h2V16Zm0-.71h-2v.09h2v-.09Zm0-.71h-2v.09h2V14.6Zm0-.76h-2V14h2v-.2Zm0,7.07h-2v.2h2v-.2Zm-2.32,0h-2v.2h2v-.2Zm-4.59-2.06h-2v.08h2v-.08Zm0,.71h-2v.08h2v-.08Zm0,.7h-2v.09h2v-.09Zm0-2.12h-2v.09h2v-.09Zm0-.76h-2v.2h2v-.2Zm0-.65h-2v.08h2v-.08Zm0-2.13h-2v.09h2V14.6Zm0-.76h-2V14h2v-.2Zm2.32,5h-2v.08h2v-.08Zm0,.71h-2v.08h2v-.08Zm0,.7h-2v.09h2v-.09Zm0-2.12h-2v.09h2v-.09Zm0-.76h-2v.2h2v-.2Zm0-.65h-2v.08h2v-.08Zm0-2.13h-2v.09h2V14.6Zm0-.76h-2V14h2v-.2Zm0,7.07h-2v.2h2v-.2Zm-2.32,0h-2v.2h2v-.2Zm-4.59-2.06h-2v.08h2v-.08Zm0,.71h-2v.08h2v-.08Zm0,.7h-2v.09h2v-.09Zm0-2.12h-2v.09h2v-.09Zm0-2.12h-2v.08h2V16Zm0-.71h-2v.09h2v-.09Zm0-.71h-2v.09h2V14.6Zm0-.76h-2V14h2v-.2Zm2.32,5h-2v.08h2v-.08Zm0,.71h-2v.08h2v-.08Zm0,.7h-2v.09h2v-.09Zm0-2.12h-2v.09h2v-.09ZM247,16h-2v.08h2V16Zm0-.71h-2v.09h2v-.09Zm0-.71h-2v.09h2V14.6Zm0-.76h-2V14h2v-.2Zm0,7.07h-2v.2h2v-.2Zm-2.32,0h-2v.2h2v-.2Zm-4.58-.65h-2v.09h2v-.09Zm0-2.12h-2v.09h2v-.09Zm0-.76h-2v.2h2v-.2Zm0-.65h-2v.08h2v-.08Zm0-.71h-2v.08h2V16Zm0-.71h-2v.09h2v-.09Zm0-.71h-2v.09h2V14.6Zm0-.76h-2V14h2v-.2Zm2.32,6.42h-2v.09h2v-.09Zm0-2.12h-2v.09h2v-.09Zm0-.76h-2v.2h2v-.2Zm0-.65h-2v.08h2v-.08Zm0-.71h-2v.08h2V16Zm0-.71h-2v.09h2v-.09Zm0-.71h-2v.09h2V14.6Zm0-.76h-2V14h2v-.2Zm0,7.07h-2v.2h2v-.2Zm-2.32,0h-2v.2h2v-.2Zm-4.57-2.06h-2v.08h2v-.08Zm0,.71h-2v.08h2v-.08Zm0,.7h-2v.09h2v-.09Zm0-2.12h-2v.09h2v-.09Zm0-.76h-2v.2h2v-.2Zm0-2.07h-2v.09h2v-.09Zm0-.71h-2v.09h2V14.6Zm0-.76h-2V14h2v-.2Zm2.33,5h-2v.08h2v-.08Zm0,.71h-2v.08h2v-.08Zm0,.7h-2v.09h2v-.09Zm0-2.12h-2v.09h2v-.09Zm0-.76h-2v.2h2v-.2Zm0-2.07h-2v.09h2v-.09Zm0-.71h-2v.09h2V14.6Zm0-.76h-2V14h2v-.2Zm0,7.07h-2v.2h2v-.2Zm-2.33,0h-2v.2h2v-.2ZM235,15.84h1.4a.23.23,0,0,1,.18.08h0a.21.21,0,0,1,.08.17h0v.62h0a.21.21,0,0,1-.08.17.23.23,0,0,1-.18.08H235a.25.25,0,0,1-.18-.08h0a.24.24,0,0,1-.07-.17h0v-.62h0a.24.24,0,0,1,.07-.17.25.25,0,0,1,.18-.08Zm1.41.42H235v.28h1.41v-.28ZM253.29,18h1.4a.29.29,0,0,1,.18.07h0a.29.29,0,0,1,.07.18h0v.62h0a.24.24,0,0,1-.07.17.25.25,0,0,1-.18.08h-1.4a.25.25,0,0,1-.18-.08h0a.21.21,0,0,1-.07-.17h0v-.62h0a.24.24,0,0,1,.07-.18.29.29,0,0,1,.18-.07Zm1.4-.26h-1.4a.56.56,0,0,0-.36.15.47.47,0,0,0-.13.24h-.92v.09h.9v0h0v.59h-.9v.08h.9a.51.51,0,0,0,.15.3h0a.51.51,0,0,0,.36.15h1.4a.51.51,0,0,0,.36-.15.47.47,0,0,0,.14-.3h1v-.08h-1v-.59h0v0h1v-.09h-1a.56.56,0,0,0-.13-.24h0a.56.56,0,0,0-.36-.15Zm0,.68h-1.42v.28h1.42v-.28Zm-6-3.28h1.4a.25.25,0,0,1,.18.08h0a.24.24,0,0,1,.07.17h0V16h0a.24.24,0,0,1-.07.17.25.25,0,0,1-.18.08h-1.4a.23.23,0,0,1-.18-.08h0a.21.21,0,0,1-.08-.17h0V15.4h0a.21.21,0,0,1,.08-.17.23.23,0,0,1,.18-.08Zm1.4-.25h-1.4a.51.51,0,0,0-.36.14.59.59,0,0,0-.14.27h-.91v.09h.9V16h-.9v.08h.91a.5.5,0,0,0,.14.28h0a.51.51,0,0,0,.36.14h1.4a.51.51,0,0,0,.36-.14.57.57,0,0,0,.14-.28h1V16h-1V15.4h1v-.09h-1a.59.59,0,0,0-.14-.27h0a.52.52,0,0,0-.36-.14Zm0,.67h-1.41v.28h1.41v-.28Zm-6,1h1.41a.29.29,0,0,1,.18.07h0a.29.29,0,0,1,.07.18h0v.62h0a.26.26,0,0,1-.07.17.3.3,0,0,1-.18.08H244.1a.27.27,0,0,1-.17-.08h0a.23.23,0,0,1-.08-.17h0v-.62h0a.25.25,0,0,1,.08-.18.26.26,0,0,1,.17-.07Zm1.41-.26H244.1a.51.51,0,0,0-.35.15.4.4,0,0,0-.14.27h-.91v.08h.9v.56h-.9v.2h.92a.46.46,0,0,0,.13.21h0a.49.49,0,0,0,.35.15h1.41a.53.53,0,0,0,.36-.15.55.55,0,0,0,.12-.21h1v-.2h-1v-.56h1v-.08h-1a.46.46,0,0,0-.15-.27h0a.49.49,0,0,0-.35-.15Zm0,.68H244.1v.28h1.41V17Zm-6,1.7h1.41a.24.24,0,0,1,.17.07h0a.21.21,0,0,1,.08.17h0v.62h0a.28.28,0,0,1-.25.25h-1.41a.21.21,0,0,1-.17-.08h0a.21.21,0,0,1-.08-.17h0v-.62h0a.25.25,0,0,1,.08-.18.24.24,0,0,1,.17-.07Zm1.41-.25h-1.41a.48.48,0,0,0-.35.14.42.42,0,0,0-.14.27h-.91v.08h.9v.62h-.9v.08h.9a.51.51,0,0,0,.15.28h0a.48.48,0,0,0,.35.14h1.41a.53.53,0,0,0,.5-.42h1v-.08h-1v-.62h1v-.08h-1a.49.49,0,0,0-.15-.27h0a.48.48,0,0,0-.35-.14Zm0,.67h-1.41v.28h1.41v-.28Zm16.93-3.28h1.4a.29.29,0,0,1,.18.07h0a.29.29,0,0,1,.07.18h0v.62h0a.26.26,0,0,1-.07.17.24.24,0,0,1-.18.07h-1.41a.22.22,0,0,1-.17-.07h0a.23.23,0,0,1-.08-.17h0v-.62h0a.25.25,0,0,1,.08-.18.27.27,0,0,1,.18-.07Zm1.4-.26h-1.4a.51.51,0,0,0-.36.15.48.48,0,0,0-.15.3h-.9v.08h.9v.6h0v0h-.9v.08h.91a.45.45,0,0,0,.14.24h0a.51.51,0,0,0,.35.15h1.41a.53.53,0,0,0,.36-.15.51.51,0,0,0,.13-.24h1v-.08h-1v0h0v-.6h1V16h-1a.53.53,0,0,0-.14-.3h0a.49.49,0,0,0-.35-.15Zm0,.68h-1.41v.28h1.41v-.28Zm-22.9-.66H235a.52.52,0,0,0-.36.14.61.61,0,0,0-.14.29h-.9v.08h.89v.61h0v0h-.9v.08h.91a.58.58,0,0,0,.13.26h0a.52.52,0,0,0,.36.14h1.4a.49.49,0,0,0,.5-.4h1v-.08h-1v0h0V16.1h1V16h-1a.54.54,0,0,0-.15-.29h0a.51.51,0,0,0-.36-.14Zm22.09,5.32h-2v.2h2v-.2Zm-21.88.83h-1.89v.36h1.89v-.36ZM219.83.9V39.61h2.45v-.44h69.51v.44h2.59V.9h-2.59v.31h1V23.68H221.4V1.21h.88V.9h-2.45Zm3.62.31V1a.34.34,0,0,1,.34-.34h.85A.34.34,0,0,1,225,1v.19Zm3,0h0a.35.35,0,0,1,.35-.34h1.61a.35.35,0,0,1,.35.34h-2.31Zm7.71,0h0a.34.34,0,0,1,.34-.34h1.61a.34.34,0,0,1,.35.34h-2.3Zm6.6,0h0a.35.35,0,0,1,.35-.34h1.61a.34.34,0,0,1,.34.34h-2.3Zm43.2,0V1a.35.35,0,0,1,.35-.34h.85a.34.34,0,0,1,.34.34v.19ZM234.11,32.26v5.68a.3.3,0,0,1-.28.31h-2a.3.3,0,0,1-.29-.31V24.26h1.84v8Zm57.41-8V37.94a.29.29,0,0,1-.28.31h-2a.3.3,0,0,1-.28-.31V24.26Zm-2.73,0V37.94a.3.3,0,0,1-.28.31h-2a.29.29,0,0,1-.28-.31V32.26h.86v-8Zm-2.73,8v5.68a.3.3,0,0,1-.28.31h-2a.3.3,0,0,1-.28-.31V32.26h.81v-8h1v8Zm-2.74,0v5.68a.29.29,0,0,1-.28.31h-2a.29.29,0,0,1-.28-.31V32.26h.83v-8h.94v8Zm-2.73,0v5.68a.3.3,0,0,1-.28.31h-2a.3.3,0,0,1-.28-.31V24.26h1.81v8Zm-2.74-8V37.94a.29.29,0,0,1-.28.31h-2a.3.3,0,0,1-.28-.31V32.26h.86v-8Zm-2.73,8v5.68a.3.3,0,0,1-.28.31h-2a.29.29,0,0,1-.28-.31V32.26h.88v-8h.94v8Zm-2.73,0v5.68a.3.3,0,0,1-.28.31h-2a.3.3,0,0,1-.28-.31V24.26h1.85v8Zm-2.74-8V37.94a.29.29,0,0,1-.28.31h-2a.29.29,0,0,1-.28-.31V32.26h.84v-8Zm-2.73,8v5.68a.3.3,0,0,1-.28.31h-2a.3.3,0,0,1-.28-.31V32.26h.79v-8h1v8Zm-2.74,0v5.68a.29.29,0,0,1-.28.31h-2a.3.3,0,0,1-.28-.31V32.26h.82v-8h.94v8Zm-2.73,0v5.68a.3.3,0,0,1-.28.31h-2a.3.3,0,0,1-.29-.31V24.26h1.79v8Zm-2.73-8V37.94a.3.3,0,0,1-.29.31h-2a.3.3,0,0,1-.28-.31V32.26H257v-8Zm-2.74,8v5.68a.29.29,0,0,1-.28.31h-2a.29.29,0,0,1-.28-.31V32.26h.86v-8h.94v8Zm-2.73,0v5.68a.3.3,0,0,1-.28.31h-2a.3.3,0,0,1-.28-.31V24.26h1.84v8Zm-2.74-8V37.94a.29.29,0,0,1-.28.31h-2a.29.29,0,0,1-.28-.31V32.26h.84v-8Zm-2.73,8v5.68a.3.3,0,0,1-.28.31h-2a.3.3,0,0,1-.29-.31V32.26h.8v-8h1v8Zm-2.73,0v5.68a.3.3,0,0,1-.29.31h-2a.3.3,0,0,1-.28-.31V32.26h.82v-8h.94v8Zm-2.74,0v5.68a.3.3,0,0,1-.28.31h-2a.29.29,0,0,1-.28-.31V24.26h1.78v8Zm-2.73-8V37.94a.3.3,0,0,1-.28.31h-2a.3.3,0,0,1-.28-.31V32.26h.84v-8Zm-2.74,8v5.68a.29.29,0,0,1-.28.31h-2a.29.29,0,0,1-.28-.31V32.26h.86v-8h.94v8Zm-13.72-5.73H226v8.62h-2.89V26.53Zm3.59,0h2.89v8.62h-2.89V26.53Zm.86,4.95h1.18v.1h-1.18v-.1Zm0-.5a.14.14,0,0,1,0-.28h1.25a.14.14,0,0,1,0,.28Zm0,.21h1.18v.1h-1.18v-.1Zm0-.8h1.18v.1h-1.18v-.1Zm0-.29h1.18v.1h-1.18v-.1Zm0-.28h1.18v.1h-1.18v-.1Zm0-.28h1.18v.1h-1.18v-.1Zm0-.29h1.18v.1h-1.18v-.1Zm0-.28h1.18v.1h-1.18V29Zm0-.28h1.18v.1h-1.18v-.1Zm0-.29h1.18v.1h-1.18v-.1Zm0-.28h1.18v.1h-1.18v-.1Zm0-.29h1.18v.1h-1.18v-.1Zm0,5.92h1.18v.1h-1.18v-.1Zm0-.29h1.18v.1h-1.18v-.1Zm0-.28h1.18v.1h-1.18v-.1Zm0-.28h1.18V33h-1.18v-.1Zm0-.29h1.18v.1h-1.18v-.1Zm0-.28h1.18v.1h-1.18v-.1Zm0-.29h1.18v.1h-1.18V32Zm0-.28h1.18v.1h-1.18v-.1Zm-.44-4.82h2.06v7.81h-2.06V26.94ZM224,31.48h1.18v.1H224v-.1Zm0-.5a.14.14,0,0,1,0-.28h1.24a.14.14,0,0,1,0,.28Zm0,.21h1.18v.1H224v-.1Zm0-.8h1.18v.1H224v-.1Zm0-.29h1.18v.1H224v-.1Zm0-.28h1.18v.1H224v-.1Zm0-.28h1.18v.1H224v-.1Zm0-.29h1.18v.1H224v-.1Zm0-.28h1.18v.1H224V29Zm0-.28h1.18v.1H224v-.1Zm0-.29h1.18v.1H224v-.1Zm0-.28h1.18v.1H224v-.1Zm0-.29h1.18v.1H224v-.1Zm0,5.92h1.18v.1H224v-.1Zm0-.29h1.18v.1H224v-.1Zm0-.28h1.18v.1H224v-.1Zm0-.28h1.18V33H224v-.1Zm0-.29h1.18v.1H224v-.1Zm0-.28h1.18v.1H224v-.1Zm0-.29h1.18v.1H224V32Zm0-.28h1.18v.1H224v-.1Zm-.45-4.82h2.06v7.81h-2.06V26.94Zm.35-8.45H226a.17.17,0,0,1,.17.17v2.11a.18.18,0,0,1-.17.17h-2.11a.18.18,0,0,1-.18-.17V18.66a.17.17,0,0,1,.18-.17Zm-2.23-5.22h9.54v3.54h-9.54V13.27Zm2.51-9.85V2.8h-.68V2.08h1.4V3.42Zm-2.51,2.82v5.9h9.54V8.09a.52.52,0,0,1-.29-.16.53.53,0,0,1-.17-.4h0a.54.54,0,0,1,.17-.4h0a.57.57,0,0,1,.4-.17h0a.59.59,0,0,1,.4.17h0a.57.57,0,0,1,.17.4h0a.57.57,0,0,1-.17.4.56.56,0,0,1-.29.16V12.6H249.3V8.09a.56.56,0,0,1-.29-.16.57.57,0,0,1-.17-.4h0a.59.59,0,0,1,.17-.4h0a.57.57,0,0,1,.4-.17h0a.57.57,0,0,1,.4.17h0a.53.53,0,0,1,.17.4h0a.57.57,0,0,1-.17.4.56.56,0,0,1-.29.16V12.6h12.82V8.09a.55.55,0,0,1-.3-.16.57.57,0,0,1-.17-.4h0a.59.59,0,0,1,.17-.4h0a.59.59,0,0,1,.4-.17h0a.57.57,0,0,1,.4.17h0a.53.53,0,0,1,.17.4h0a.53.53,0,0,1-.17.4.52.52,0,0,1-.29.16V12.6h30V6.24Zm70.91,6.53V23.42H221.65V17.94h9.54V21a.51.51,0,0,0-.29.15h0a.54.54,0,0,0-.17.4h0a.57.57,0,0,0,.17.41.56.56,0,0,0,.4.16h0a.58.58,0,0,0,.4-.16.61.61,0,0,0,.17-.41h0a.59.59,0,0,0-.17-.4h0a.54.54,0,0,0-.29-.15V12.77h30.93V21a.54.54,0,0,0-.3.15h0a.59.59,0,0,0-.17.4h0A.61.61,0,0,0,262,22a.58.58,0,0,0,.4.16h0a.56.56,0,0,0,.4-.16.57.57,0,0,0,.17-.41h0a.54.54,0,0,0-.17-.4h0a.51.51,0,0,0-.29-.15V12.77h30Zm0-8.65H221.65V1.47h70.91V4.12Zm-4.31,1h1.89v.36h-1.89V5.1Zm-62.76.07h1.89v.35h-1.89V5.17Zm40.13-.07h1.89v.36h-1.89V5.1Zm18.12,0h1.89v.36h-1.89V5.1Zm-4.54,0h1.89v.36H279.2V5.1Zm-4.52,0h1.89v.36h-1.89V5.1Zm-4.54,0H272v.36h-1.89V5.1Zm13.55-2h6.48v.16h-6.48V3.13ZM286.2,3V2.55h-.44V3H284.1V2.55h-.44V2.06h1.17v.41h.44V2.05h1.43v.41h.39V2.05h1.67V3h-.5V2.55h-.44V3H286.2Zm3.5-.92v.42h.47V3h-1V2.05ZM230,2.07v.61h.68v.73h-1.41V2.07Zm-3.68,0v.61h.65V2.07h1.71V2.8H228v.61h-2.43V2.07Zm0,15.13h2.87v.35h-2.87V17.2Zm-2.24,0h1.75v.35H224V17.2Zm3-3.31h2.1a.18.18,0,0,1,.18.18v2.11a.18.18,0,0,1-.18.17H227a.18.18,0,0,1-.18-.17V14.07a.18.18,0,0,1,.18-.18Zm-2,.84a.29.29,0,0,1,.24.11.32.32,0,0,0-.14,0,.31.31,0,0,0-.32.31.32.32,0,0,0,.08.21.31.31,0,0,1-.18-.28.32.32,0,0,1,.32-.32Zm0-.64a1,1,0,1,1,0,1.91,1,1,0,0,1,0-1.91Zm0,.36a.6.6,0,0,1,.6.6.6.6,0,0,1-1.2,0,.6.6,0,0,1,.6-.6Zm.25,7-.33.39-.33-.39Zm3.15.39h-.66l.33-.39.33.39ZM227,18.49h2.1a.17.17,0,0,1,.18.17v2.11a.18.18,0,0,1-.18.17H227a.18.18,0,0,1-.18-.17V18.66a.17.17,0,0,1,.18-.17Zm.14.22H229a.1.1,0,0,1,.1.1v1.81a.1.1,0,0,1-.1.1h-1.82a.1.1,0,0,1-.1-.1V18.81a.1.1,0,0,1,.1-.1Zm0-4.6H229a.11.11,0,0,1,.1.1V16a.1.1,0,0,1-.1.1h-1.82a.1.1,0,0,1-.1-.1V14.21a.11.11,0,0,1,.1-.1ZM224,12.53h5.11v.35H224v-.35Zm7.31-5.35a.37.37,0,0,1,.25.1h0a.37.37,0,0,1,.1.25h0a.36.36,0,0,1-.1.25.34.34,0,0,1-.25.11h0a.38.38,0,0,1-.36-.36h0a.34.34,0,0,1,.11-.25h0a.36.36,0,0,1,.25-.1Zm0,14.05a.37.37,0,0,1,.25.1h0a.39.39,0,0,1,.1.25h0a.36.36,0,0,1-.1.25.34.34,0,0,1-.25.11h0a.38.38,0,0,1-.36-.36h0a.36.36,0,0,1,.11-.25h0a.36.36,0,0,1,.25-.1ZM224,18.71h1.82a.09.09,0,0,1,.1.1v1.81a.09.09,0,0,1-.1.1H224a.1.1,0,0,1-.1-.1V18.81a.1.1,0,0,1,.1-.1ZM266.47,8.15a1,1,0,0,0,0,1.91,1,1,0,1,0,0-1.91Zm0,.35a.6.6,0,0,0,0,1.2.6.6,0,1,0,0-1.2ZM231.17,0h.12V.05h.22V0h.13V.05h.22V0H232V.05h.23V0h.12V.05h.22V0h.13V.05h.22V0H233V.05h.22V1.21h-2.31V.05h.24V0Zm6.29,0h.13V.05h.22V0h.12V.05h.23V0h.12V.05h.22V0h.13V.05h.22V0H239V.05h.23V0h.12V.05h.21V1.21h-2.3V.05h.23Z"/><path class="cls-2" d="M175.66,15.69l5.55-.28c3.32-.19,7.76-.33,12.2-.5l3.31-.16c1.09-.06,2.16-.11,3.2-.12s2.05,0,3,.09,1.85.11,2.69.19a45.08,45.08,0,0,1,5.54.78v.23a46.1,46.1,0,0,1-5.54.79c-.84.07-1.74.14-2.69.18s-2,.09-3,.09-2.11-.06-3.2-.12l-3.31-.15c-4.44-.18-8.88-.32-12.2-.5l-5.55-.29Z"/><path class="cls-2" d="M161.91,19.69l7.7-.29c4.61-.18,10.77-.32,16.92-.49l4.59-.16c1.52-.06,3-.11,4.45-.12s2.84,0,4.16.09,2.57.11,3.73.19c4.61.28,7.69.78,7.69.78v.23s-3.08.5-7.69.78c-1.16.08-2.41.15-3.73.19S197,21,195.57,21s-2.93-.06-4.45-.12l-4.59-.16c-6.15-.17-12.31-.31-16.92-.49l-7.7-.29Z"/><path class="cls-2" d="M175.66,23.69l5.55-.29c3.32-.18,7.76-.32,12.2-.5l3.31-.15c1.09-.06,2.16-.11,3.2-.12s2.05,0,3,.09,1.85.11,2.69.18a46.1,46.1,0,0,1,5.54.79v.23a45.08,45.08,0,0,1-5.54.78c-.84.08-1.74.15-2.69.19s-2,.08-3,.09-2.11-.06-3.2-.12l-3.31-.16c-4.44-.17-8.88-.31-12.2-.5l-5.55-.28Z"/><path class="cls-2" d="M337.27,23.92l-5.54.28c-3.33.19-7.77.33-12.2.5l-3.31.16c-1.09.06-2.17.11-3.21.12s-2,0-3-.09-1.85-.11-2.68-.19a45.08,45.08,0,0,1-5.55-.78v-.23a46.09,46.09,0,0,1,5.55-.79c.83-.07,1.73-.14,2.68-.18s2-.09,3-.09,2.12.06,3.21.12l3.31.15c4.43.18,8.87.32,12.2.5l5.54.29Z"/><path class="cls-2" d="M351,19.92l-7.69.29c-4.62.18-10.77.32-16.93.49l-4.59.16c-1.52.06-3,.11-4.45.12s-2.84,0-4.16-.09-2.57-.11-3.72-.19c-4.62-.28-7.7-.78-7.7-.78v-.23s3.08-.5,7.7-.78c1.15-.08,2.4-.15,3.72-.19s2.72-.08,4.16-.09,2.93.06,4.45.12l4.59.16c6.16.17,12.31.31,16.93.49l7.69.29Z"/><path class="cls-2" d="M337.27,15.92l-5.54.29c-3.33.18-7.77.32-12.2.5l-3.31.15c-1.09.06-2.17.11-3.21.12s-2,0-3-.09-1.85-.11-2.68-.18a46.09,46.09,0,0,1-5.55-.79v-.23a45.08,45.08,0,0,1,5.55-.78c.83-.08,1.73-.14,2.68-.19s2-.08,3-.09,2.12.06,3.21.12l3.31.16c4.43.17,8.87.31,12.2.5l5.54.28Z"/><rect class="cls-2" x="360.6" y="19.3" width="151.38" height="1"/><circle class="cls-2" cx="511.89" cy="19.81" r="1.88"/><rect class="cls-2" x="1.79" y="19.3" width="151.41" height="1"/><circle class="cls-2" cx="1.88" cy="19.81" r="1.88"/></g></g></svg>