<svg xmlns="http://www.w3.org/2000/svg" viewBox="0 0 513.77 34.36"><defs><style>.cls-1{fill:#222;}</style></defs><title>icon-xlr-xl</title><g id="Layer_2" data-name="Layer 2"><g id="Layer_1-2" data-name="Layer 1"><path class="cls-1" d="M256.72,34.36A17.18,17.18,0,1,1,273.9,17.18,17.2,17.2,0,0,1,256.72,34.36Zm0-33.69a16.52,16.52,0,1,0,16.52,16.51A16.54,16.54,0,0,0,256.72.67Zm0,32.05a15.69,15.69,0,0,1-7.8-29.31l.29-.17,1.67,2.92-.29.17a12.34,12.34,0,1,0,12.25,0l-.28-.17,1.68-2.92.28.17a15.69,15.69,0,0,1-7.8,29.31ZM249,4.16a15,15,0,1,0,15.51,0l-1,1.76a13,13,0,1,1-13.49,0Zm7.75,23.23A10.38,10.38,0,0,1,249.05,10l.1-.11h15.14l.1.11a10.38,10.38,0,0,1-7.67,17.39Zm-7.28-16.83a9.73,9.73,0,1,0,14.56,0Z"/><path class="cls-1" d="M251.42,18.78A1.79,1.79,0,1,1,253.21,17,1.78,1.78,0,0,1,251.42,18.78Z"/><path class="cls-1" d="M256.72,24a1.79,1.79,0,1,1,1.79-1.79A1.79,1.79,0,0,1,256.72,24Z"/><path class="cls-1" d="M262,18.78A1.79,1.79,0,1,1,263.8,17,1.78,1.78,0,0,1,262,18.78Z"/><path class="cls-1" d="M256.72,32.72a15.69,15.69,0,0,1-7.8-29.31l.29-.17,1.67,2.92-.29.17a12.34,12.34,0,1,0,12.25,0l-.28-.17,1.68-2.92.28.17a15.69,15.69,0,0,1-7.8,29.31ZM249,4.16a15,15,0,1,0,15.51,0l-1,1.76a13,13,0,1,1-13.49,0Z"/><path class="cls-1" d="M256.72,27.39A10.38,10.38,0,0,1,249.05,10l.1-.11h15.14l.1.11a10.38,10.38,0,0,1-7.67,17.39Zm-7.28-16.83a9.73,9.73,0,1,0,14.56,0Z"/><path class="cls-1" d="M198.16,13.07l5.55-.29c3.32-.18,7.76-.32,12.2-.5l3.31-.15c1.09-.06,2.16-.11,3.2-.12s2.05,0,3,.09,1.85.11,2.69.18a46.1,46.1,0,0,1,5.54.79v.23a45.08,45.08,0,0,1-5.54.78c-.84.08-1.74.14-2.69.19s-2,.08-3,.09-2.11-.06-3.2-.12l-3.31-.16c-4.44-.17-8.88-.31-12.2-.5l-5.55-.28Z"/><path class="cls-1" d="M184.41,17.07l7.7-.29c4.61-.18,10.77-.32,16.92-.5l4.59-.15c1.52-.06,3-.11,4.45-.12s2.84,0,4.16.08,2.57.12,3.73.19c4.61.28,7.69.79,7.69.79v.22s-3.08.51-7.69.79c-1.16.08-2.41.14-3.73.19s-2.72.08-4.16.08-2.93-.05-4.45-.11L209,18.08c-6.15-.17-12.31-.32-16.92-.5l-7.7-.29Z"/><path class="cls-1" d="M198.16,21.07l5.55-.29c3.32-.18,7.76-.32,12.2-.5l3.31-.15c1.09-.06,2.16-.11,3.2-.12s2.05,0,3,.08,1.85.11,2.69.19a43.73,43.73,0,0,1,5.54.79v.22a43.73,43.73,0,0,1-5.54.79c-.84.08-1.74.14-2.69.19s-2,.08-3,.08-2.11-.05-3.2-.12l-3.31-.15c-4.44-.17-8.88-.32-12.2-.5l-5.55-.29Z"/><path class="cls-1" d="M314.77,21.29l-5.54.29c-3.33.18-7.77.33-12.2.5l-3.31.15c-1.09.07-2.17.11-3.21.12s-2,0-3-.08-1.85-.11-2.68-.19a43.73,43.73,0,0,1-5.55-.79v-.22a43.73,43.73,0,0,1,5.55-.79c.83-.08,1.73-.14,2.68-.19s2-.08,3-.08,2.12.06,3.21.12l3.31.15c4.43.18,8.87.32,12.2.5l5.54.29Z"/><path class="cls-1" d="M328.52,17.29l-7.69.29c-4.62.18-10.77.33-16.93.5l-4.59.16c-1.52.06-3,.1-4.45.11s-2.84,0-4.16-.08-2.57-.11-3.72-.19c-4.62-.28-7.7-.79-7.7-.79v-.22s3.08-.51,7.7-.79c1.15-.07,2.4-.14,3.72-.19s2.72-.08,4.16-.08,2.93.06,4.45.12l4.59.15c6.16.18,12.31.32,16.93.5l7.69.29Z"/><path class="cls-1" d="M314.77,13.3l-5.54.28c-3.33.19-7.77.33-12.2.5l-3.31.16c-1.09.06-2.17.11-3.21.12s-2,0-3-.09-1.85-.11-2.68-.19a45.08,45.08,0,0,1-5.55-.78v-.23a46.09,46.09,0,0,1,5.55-.79c.83-.07,1.73-.14,2.68-.18s2-.09,3-.09,2.12.06,3.21.12l3.31.15c4.43.18,8.87.32,12.2.5l5.54.29Z"/><rect class="cls-1" x="338.1" y="16.68" width="173.88" height="1"/><circle class="cls-1" cx="511.89" cy="17.18" r="1.88"/><rect class="cls-1" x="1.79" y="16.68" width="173.91" height="1"/><circle class="cls-1" cx="1.88" cy="17.18" r="1.88"/></g></g></svg>