<svg xmlns="http://www.w3.org/2000/svg" viewBox="0 0 513.77 40.49"><defs><style>.cls-1{fill:#222;}</style></defs><title>icon-tambourine-xl</title><g id="Layer_2" data-name="Layer 2"><g id="Layer_1-2" data-name="Layer 1"><path class="cls-1" d="M242.52,35.87c-2.25,0-4.16-1.33-4.16-2.91v0l0,0a2.42,2.42,0,0,0,.46-.86,2,2,0,0,1,.52-.87l.07-.06.08.05.48.29.34.19a26.75,26.75,0,0,0,4.81,2.29l.76.26.36.12-.11.13A4.77,4.77,0,0,1,242.52,35.87ZM238.59,33c0,1.43,1.82,2.63,3.93,2.63a4.69,4.69,0,0,0,3.33-1.23h0c-.26-.09-.53-.17-.77-.27a27.18,27.18,0,0,1-4.85-2.3l-.33-.2-.43-.25a1.94,1.94,0,0,0-.39.72A2.9,2.9,0,0,1,238.59,33Z"/><path class="cls-1" d="M242.64,35.14c-1.66,0-3-1-3-2.18a1.79,1.79,0,0,1,.62-1.32l.06-.06.08,0a26,26,0,0,0,4.78,2.29l.16.06-.11.13A3.4,3.4,0,0,1,242.64,35.14Zm-2.29-3.27a1.56,1.56,0,0,0-.49,1.09c0,1.07,1.25,1.94,2.78,1.94a3.26,3.26,0,0,0,2.28-.83A25.73,25.73,0,0,1,240.35,31.87Z"/><path class="cls-1" d="M246.57,34.51l-.53-.15a4.68,4.68,0,0,1-3.52,1.39c-2.17,0-4.05-1.25-4.05-2.79v2.12c0,1.54,1.88,2.79,4.05,2.79s4.06-1.25,4.06-2.79Z"/><path class="cls-1" d="M260.53,35.73h0Z"/><path class="cls-1" d="M256.42,38.49a5.29,5.29,0,0,1-1.19-.13l-.18,0-.19,0a3.13,3.13,0,0,1-2.47-2.52l0-.14.15,0,1,.1a35.36,35.36,0,0,0,5.73,0l1-.11h.14v.14a2.38,2.38,0,0,1-.06.37s0,.09,0,.14a1.8,1.8,0,0,1-.08.21l-.07.14-.11.2-.09.12a2.11,2.11,0,0,1-.31.36,3.44,3.44,0,0,1-.88.64l-.24.12-.25.11-.17.06A5.35,5.35,0,0,1,256.42,38.49Zm-3.78-2.61A3,3,0,0,0,254.93,38l.17.05.18,0a5.45,5.45,0,0,0,1.14.12,5.36,5.36,0,0,0,1.67-.26l.17-.06.24-.1.22-.11a3.76,3.76,0,0,0,.83-.6,2.73,2.73,0,0,0,.28-.33l.08-.12a1.62,1.62,0,0,0,.1-.18.31.31,0,0,0,.06-.13l.08-.18,0-.13a1.06,1.06,0,0,0,0-.19c-.3,0-.6.07-.91.09a34.74,34.74,0,0,1-5.77,0Z"/><path class="cls-1" d="M256.43,37.76c-1.51,0-2.8-.82-3-1.89l0-.15h.15a35.36,35.36,0,0,0,5.73,0l.16,0,0,.15C259.23,36.94,258,37.76,256.43,37.76ZM253.7,36a2.74,2.74,0,0,0,2.73,1.54A2.71,2.71,0,0,0,259.15,36,35.41,35.41,0,0,1,253.7,36Z"/><path class="cls-1" d="M260.35,35.73c0,.38,0,1.4,0,2,0,1.54-1.79,2.79-4,2.79s-3.95-1.25-3.95-2.79v-2h0a3,3,0,0,0,2.4,2.41l.19.05.18,0a5.59,5.59,0,0,0,1.17.12,5.52,5.52,0,0,0,1.71-.27l.17-.06.24-.11.24-.11a3.65,3.65,0,0,0,.85-.62,3.27,3.27,0,0,0,.3-.35l.08-.12a1.18,1.18,0,0,0,.11-.19l.06-.13a1.19,1.19,0,0,0,.08-.2.65.65,0,0,1,0-.13c0-.12,0-.23.05-.35Z"/><path class="cls-1" d="M270,35.86h-.29a4.39,4.39,0,0,1-3.07-1.47l-.1-.13.16-.06.92-.32a26.44,26.44,0,0,0,4.75-2.3c.26-.16.52-.32.77-.49l.07,0,.07.06a2.49,2.49,0,0,1,.95,1.87c0,.1,0,.21,0,.31l0,.14,0,.14s0,.08,0,.12l0,.06h0a3.58,3.58,0,0,1-3.35,2,.8.8,0,0,0-.15,0l-.19,0H270ZM267,34.36a4.23,4.23,0,0,0,2.79,1.25h.35l.18,0h.11l.14,0a.71.71,0,0,1,.21,0,3.36,3.36,0,0,0,3.15-1.92l0-.06s0,0,0-.07l0-.12a.51.51,0,0,0,0-.13,1.23,1.23,0,0,0,0-.27,2.23,2.23,0,0,0-.8-1.64l-.69.45a27,27,0,0,1-4.8,2.32C267.49,34.19,267.24,34.28,267,34.36Z"/><path class="cls-1" d="M270.22,35.14a3.41,3.41,0,0,1-2.61-1.08l-.1-.13.15-.06a26.44,26.44,0,0,0,4.75-2.3l.08-.05.06.06a1.87,1.87,0,0,1,.69,1.38C273.24,34.16,271.88,35.14,270.22,35.14ZM267.9,34a3.26,3.26,0,0,0,2.32.87C271.75,34.9,273,34,273,33a1.54,1.54,0,0,0-.54-1.14A27.12,27.12,0,0,1,267.9,34Z"/><path class="cls-1" d="M274.15,33v2.12c0,1.54-1.83,2.79-4,2.79s-4-1.25-4-2.79v-.61s.47-.1.63-.16A4.24,4.24,0,0,0,270,35.75h.42A3.86,3.86,0,0,0,274,33.64h0l0-.11s0,0,0-.06a.64.64,0,0,1,0-.07s0-.1,0-.14A1.42,1.42,0,0,0,274.15,33Z"/><polygon class="cls-1" points="275.07 22.99 275.07 22.98 275.3 22.98 275.07 22.99"/><path class="cls-1" d="M279.25,25.89h-.71l.14-.18c.15-.24.3-.47.43-.71l.21.12c-.11.19-.23.37-.34.55a5.28,5.28,0,0,0,1,0,4,4,0,0,0,.52-.1l.17-.05a4.07,4.07,0,0,0,1.49-.78l.17-.15a2.88,2.88,0,0,0,.28-.33,1.58,1.58,0,0,0,.15-.24l.09-.18a2,2,0,0,0,.17-.78,2.75,2.75,0,0,0-2-2.36c-.05.21-.09.43-.15.64l-.23-.06c.07-.25.12-.5.17-.76l0-.13.13,0A3,3,0,0,1,283.3,23a2.19,2.19,0,0,1-.18.87l-.1.21c0,.09-.11.17-.17.26a3.31,3.31,0,0,1-.31.36,1.45,1.45,0,0,1-.18.16,4.28,4.28,0,0,1-1.57.83l-.18.05-.55.11A5.34,5.34,0,0,1,279.25,25.89Z"/><path class="cls-1" d="M279.26,25.16h-.05l0-.23h0c1.53,0,2.78-.87,2.78-1.94a1.91,1.91,0,0,0-1.3-1.64l.1-.22A2.13,2.13,0,0,1,282.27,23C282.27,24.19,280.92,25.16,279.26,25.16Z"/><path class="cls-1" d="M283.19,24.24V23a2.13,2.13,0,0,1-.18.83,1.74,1.74,0,0,1-.1.19c0,.08-.1.17-.15.25a3.17,3.17,0,0,1-.3.34,1.29,1.29,0,0,1-.17.16,4.18,4.18,0,0,1-1.54.81l-.17,0a4.29,4.29,0,0,1-.54.11,5.06,5.06,0,0,1-.79.06l-.4,0h-.08l-1.37,1.8a5.39,5.39,0,0,0,2.67.27,3.71,3.71,0,0,0,3-2A4.41,4.41,0,0,0,283.19,24.24Z"/><path class="cls-1" d="M233.44,25.9h-.09l-.61,0c-2-.22-3.44-1.43-3.44-2.88a3,3,0,0,1,2.42-2.66l.13,0,0,.13c0,.24.1.49.16.75A14.46,14.46,0,0,0,233.6,25l.18.29c.08.14.17.27.26.43l-.1.06v.12h-.5Zm-1.78-5.31a2.77,2.77,0,0,0-2.12,2.4c0,1.31,1.39,2.44,3.23,2.64a4.24,4.24,0,0,0,.58,0h.38l-.15-.24-.18-.3a14.59,14.59,0,0,1-1.6-3.89C231.75,21,231.7,20.8,231.66,20.59Z"/><path class="cls-1" d="M233.35,25.16c-1.66,0-3-1-3-2.17a2.19,2.19,0,0,1,1.53-1.9L232,21l0,.13A14.08,14.08,0,0,0,233.6,25l.1.17h-.35Zm-1.51-3.8A1.9,1.9,0,0,0,230.57,23c0,1.05,1.22,1.91,2.73,1.94A14.21,14.21,0,0,1,231.84,21.36Z"/><path class="cls-1" d="M233.94,25.78a7.36,7.36,0,0,0,1.35,1.76,5.14,5.14,0,0,1-2,.36c-2.17,0-4-1.26-4-2.8,0-.73,0-2.11,0-2.11,0,1.39,1.42,2.55,3.31,2.76.2,0,.41,0,.61,0a4.34,4.34,0,0,0,.51,0Z"/><path class="cls-1" d="M232.37,25.81h0a4.52,4.52,0,0,1-.91-.25l-.08,0v-.25l.16.06a4.31,4.31,0,0,0,.87.24h0Z"/><path class="cls-1" d="M273.07,35l-.14-.19a2.83,2.83,0,0,0,1-1.22l0-.06.11,0,0,0,.1,0-.05.1A2.86,2.86,0,0,1,273.07,35Z"/><path class="cls-1" d="M233.94,25.9h-.09v-.13l0-.09h0a.21.21,0,0,1,.08,0l0,.12v.11Z"/><path class="cls-1" d="M253.47,39.44l-.32,0a35.93,35.93,0,0,1-8.76-1.77l-.31-.11.31-.11a2.76,2.76,0,0,0,2.07-2.34V34.6l-.17,0-.28-.08-.17-.06h0l-.76-.26-.16,0h0a26.93,26.93,0,0,1-4.58-2.21h0l-.09,0,0-.13-.06.11-.33-.2-.43-.25a1.94,1.94,0,0,0-.39.72,2.9,2.9,0,0,1-.47.9v1.91l-.18-.11a16.13,16.13,0,0,1-6.33-7l-.09-.21.23,0a5.43,5.43,0,0,0,2.87-.17l-.23-.25a5.69,5.69,0,0,1-1-1.39h0c-.09-.16-.18-.29-.26-.42l-.18-.3-.1-.17h0a14.48,14.48,0,0,1-1.51-3.72c-.05-.21-.1-.43-.14-.64l-.26.11-.17.07V16.05h.24a7.73,7.73,0,0,0,1,3.73c2.87,6.8,12.69,11.56,23.88,11.57h.07c13.45,0,24.56-6.86,24.77-15.31h.24s0,1.52,0,4.55v.18l-.17-.07-.18-.08c-.05.21-.09.43-.15.64l-1.57,3.82q-.22.38-.45.72l-1.29,1.7a5.22,5.22,0,0,0,2.46.2h0a2.41,2.41,0,0,0,.37-.07l.22-.05-.08.21a16.08,16.08,0,0,1-6.35,7l-.18.11V33a2.23,2.23,0,0,0-.8-1.64l-.69.45a27,27,0,0,1-4.8,2.32c-.25.1-.5.19-.76.27a4.23,4.23,0,0,0,2.79,1.25h.35l.18,0h.11l.14,0a.71.71,0,0,1,.21,0,3.78,3.78,0,0,0,1.3-.23l.09.22a5.55,5.55,0,0,1-1.74.35H270a4.43,4.43,0,0,1-3.24-1.42l-.48.12v.51a2.74,2.74,0,0,0,2,2.33l.3.11-.31.11a36,36,0,0,1-8.6,1.77l-.31,0,.22-.22a2.15,2.15,0,0,0,.67-1.5V35.86l-.93.09a34.74,34.74,0,0,1-5.77,0l-.9-.08A3,3,0,0,0,254.93,38l.17.05.18,0a5.45,5.45,0,0,0,1.14.12v.24h-.09a5.61,5.61,0,0,1-1.1-.13l-.19,0-.19,0a3.63,3.63,0,0,1-2.29-1.76V37.7a2.14,2.14,0,0,0,.69,1.51Zm-8.7-1.93a35.78,35.78,0,0,0,8.11,1.64,2.28,2.28,0,0,1-.55-1.45V35.62h0l.22,0,1,.09a35.36,35.36,0,0,0,5.73,0l1-.11.15,0,0,.16v2a2.24,2.24,0,0,1-.53,1.43,35,35,0,0,0,7.95-1.63A2.84,2.84,0,0,1,266,35.08v-.7l.09,0,.49-.12.13-.05.92-.32a26.44,26.44,0,0,0,4.75-2.3c.26-.16.52-.32.77-.49l.07,0,.07.06a2.49,2.49,0,0,1,.95,1.87v1.52a15.8,15.8,0,0,0,6-6.56l-.16,0h0a5.45,5.45,0,0,1-2.73-.28l-.15-.05,1.47-1.94c.15-.23.3-.46.43-.7l1.57-3.78c.06-.24.11-.49.16-.75l0-.13.13,0,.16.06c0-.93,0-1.71,0-2.35-.78,3.41-3.28,6.54-7.22,9a33.7,33.7,0,0,1-17.54,4.53h-.09c-11.28,0-21.17-4.84-24.07-11.71a8,8,0,0,1-.79-2v2.5l.25-.08.13,0,0,.13c0,.25.1.5.16.75A14.08,14.08,0,0,0,233.6,25l.11.18h0l.08.13.23.37h0l0,.07a5.29,5.29,0,0,0,1,1.35c.12.12.23.25.35.39l.11.12-.15.06a5.59,5.59,0,0,1-3,.29,15.86,15.86,0,0,0,6,6.54V32.92l0,0a2.42,2.42,0,0,0,.46-.86,2,2,0,0,1,.52-.87l.07-.06.08.05.48.29.3.17h0l.1,0a26,26,0,0,0,4.78,2.29l.15.06h0l.6.2.34.11h0l.1,0,.26.07.08,0v.65A2.84,2.84,0,0,1,244.77,37.51Z"/><path class="cls-1" d="M256.42,31.59c-13.79,0-25-7.09-25-15.79S242.63,0,256.42,0s25,7.09,25,15.8S270.21,31.59,256.42,31.59Zm0-31.35c-13.66,0-24.77,7-24.77,15.56s11.11,15.55,24.77,15.55,24.78-7,24.78-15.55S270.08.24,256.42.24Zm0,29.66a31.88,31.88,0,0,1-16.76-4.35c-4.23-2.66-6.56-6.13-6.56-9.75s2.33-7.1,6.56-9.76a34.48,34.48,0,0,1,33.53,0c4.22,2.66,6.55,6.13,6.55,9.76s-2.33,7.09-6.55,9.75l-.07-.1.07.1A31.91,31.91,0,0,1,256.42,29.9Zm0-28a31.58,31.58,0,0,0-16.63,4.31c-4.16,2.62-6.45,6-6.45,9.56s2.29,6.93,6.45,9.55a31.58,31.58,0,0,0,16.63,4.31,31.61,31.61,0,0,0,16.64-4.31h0c4.16-2.62,6.45-6,6.45-9.55s-2.29-6.94-6.45-9.56A31.61,31.61,0,0,0,256.42,1.93Z"/><path class="cls-1" d="M184.81,17.37l5.55-.28c3.33-.19,7.76-.33,12.2-.5l3.31-.16c1.09-.06,2.17-.1,3.2-.11s2.05,0,3,.08,1.86.11,2.69.19a44.68,44.68,0,0,1,5.54.78v.23a45.68,45.68,0,0,1-5.54.79c-.83.07-1.73.14-2.69.19s-2,.08-3,.08-2.11-.06-3.2-.12l-3.31-.15c-4.44-.18-8.87-.32-12.2-.5l-5.55-.29Z"/><path class="cls-1" d="M171.07,21.37l7.69-.28c4.62-.19,10.77-.33,16.93-.5l4.59-.16c1.51-.06,3-.11,4.45-.12s2.83,0,4.15.09,2.58.11,3.73.19c4.62.28,7.69.78,7.69.78v.23s-3.07.5-7.69.79c-1.15.07-2.4.14-3.73.18s-2.71.09-4.15.09-2.94-.06-4.45-.12l-4.59-.15c-6.16-.18-12.31-.32-16.93-.5l-7.69-.29Z"/><path class="cls-1" d="M184.81,25.37l5.55-.29c3.33-.18,7.76-.32,12.2-.49l3.31-.16c1.09-.06,2.17-.11,3.2-.12s2.05,0,3,.09,1.86.11,2.69.19a44.68,44.68,0,0,1,5.54.78v.23a44.68,44.68,0,0,1-5.54.78c-.83.08-1.73.15-2.69.19s-2,.08-3,.09-2.11-.06-3.2-.12l-3.31-.16c-4.44-.17-8.87-.31-12.2-.49l-5.55-.29Z"/><path class="cls-1" d="M327.79,25.6l-5.54.29c-3.33.18-7.76.32-12.2.49l-3.31.16c-1.09.06-2.17.11-3.21.12s-2,0-3-.09-1.86-.11-2.69-.19a45.08,45.08,0,0,1-5.55-.78v-.23a45.08,45.08,0,0,1,5.55-.78c.83-.08,1.73-.15,2.69-.19s1.95-.08,3-.09,2.12.06,3.21.12l3.31.16c4.44.17,8.87.31,12.2.49l5.54.29Z"/><path class="cls-1" d="M341.54,21.6l-7.69.29c-4.62.18-10.77.32-16.93.5l-4.59.15c-1.51.06-3,.11-4.45.12s-2.83,0-4.16-.09-2.57-.11-3.72-.18c-4.62-.29-7.7-.79-7.7-.79v-.23s3.08-.5,7.7-.78c1.15-.08,2.4-.15,3.72-.19s2.72-.08,4.16-.09,2.94.06,4.45.12l4.59.16c6.16.17,12.31.31,16.93.5l7.69.28Z"/><path class="cls-1" d="M327.79,17.6l-5.54.29c-3.33.18-7.76.32-12.2.5l-3.31.15c-1.09.06-2.17.11-3.21.12s-2,0-3-.08-1.86-.12-2.69-.19a46.09,46.09,0,0,1-5.55-.79v-.23a45.08,45.08,0,0,1,5.55-.78c.83-.08,1.73-.14,2.69-.19s1.95-.08,3-.08,2.12.05,3.21.11l3.31.16c4.44.17,8.87.31,12.2.5l5.54.28Z"/><rect class="cls-1" x="351.12" y="20.99" width="160.86" height="1"/><circle class="cls-1" cx="511.89" cy="21.49" r="1.88"/><rect class="cls-1" x="1.79" y="20.99" width="160.56" height="1"/><circle class="cls-1" cx="1.88" cy="21.49" r="1.88"/></g></g></svg>