<svg xmlns="http://www.w3.org/2000/svg" viewBox="0 0 513.77 42.01"><defs><style>.cls-1{fill:#fff;}</style></defs><title>icon-radio-box-xl-white</title><g id="Layer_2" data-name="Layer 2"><g id="Layer_1-2" data-name="Layer 1"><path class="cls-1" d="M175.66,15.65l5.55-.29c3.32-.18,7.76-.32,12.2-.5l3.31-.15c1.09-.07,2.16-.11,3.2-.12s2.05,0,3,.08,1.85.11,2.69.19a43.73,43.73,0,0,1,5.54.79v.22a43.73,43.73,0,0,1-5.54.79c-.84.08-1.74.14-2.69.19s-2,.08-3,.08-2.11-.05-3.2-.12l-3.31-.15c-4.44-.18-8.88-.32-12.2-.5l-5.55-.29Z"/><path class="cls-1" d="M161.91,19.65l7.7-.29c4.61-.18,10.77-.33,16.92-.5l4.59-.16c1.52-.06,3-.1,4.45-.11s2.84,0,4.16.08,2.57.11,3.73.19c4.61.28,7.69.79,7.69.79v.22s-3.08.51-7.69.79c-1.16.08-2.41.14-3.73.19s-2.72.08-4.16.08-2.93-.06-4.45-.12l-4.59-.15c-6.15-.18-12.31-.32-16.92-.5l-7.7-.29Z"/><path class="cls-1" d="M175.66,23.65l5.55-.29c3.32-.19,7.76-.33,12.2-.5l3.31-.16c1.09-.06,2.16-.1,3.2-.11s2.05,0,3,.08,1.85.11,2.69.19a43.73,43.73,0,0,1,5.54.79v.22a46.1,46.1,0,0,1-5.54.79c-.84.07-1.74.14-2.69.19s-2,.08-3,.08-2.11-.06-3.2-.12l-3.31-.15c-4.44-.18-8.88-.32-12.2-.5l-5.55-.29Z"/><path class="cls-1" d="M337.27,23.87l-5.54.29c-3.33.18-7.77.32-12.2.5l-3.31.15c-1.09.06-2.17.11-3.21.12s-2,0-3-.08-1.85-.12-2.68-.19a46.09,46.09,0,0,1-5.55-.79v-.22a43.73,43.73,0,0,1,5.55-.79c.83-.08,1.73-.14,2.68-.19s2-.08,3-.08,2.12.05,3.21.11l3.31.16c4.43.17,8.87.31,12.2.5l5.54.29Z"/><path class="cls-1" d="M351,19.87l-7.69.29c-4.62.18-10.77.32-16.93.5l-4.59.15c-1.52.06-3,.11-4.45.12s-2.84,0-4.16-.08-2.57-.11-3.72-.19c-4.62-.28-7.7-.79-7.7-.79v-.22s3.08-.51,7.7-.79c1.15-.08,2.4-.14,3.72-.19s2.72-.08,4.16-.08,2.93.05,4.45.11l4.59.16c6.16.17,12.31.32,16.93.5l7.69.29Z"/><path class="cls-1" d="M337.27,15.87l-5.54.29c-3.33.18-7.77.32-12.2.5l-3.31.15c-1.09.07-2.17.11-3.21.12s-2,0-3-.08-1.85-.11-2.68-.19a43.73,43.73,0,0,1-5.55-.79v-.22a43.73,43.73,0,0,1,5.55-.79c.83-.08,1.73-.14,2.68-.19s2-.08,3-.08,2.12.05,3.21.12l3.31.15c4.43.18,8.87.32,12.2.5l5.54.29Z"/><path class="cls-1" d="M288.84,42c-3.49,0-19.84-.78-57.87-2.76-7.19-.38-12.39-.65-12.64-.65a.35.35,0,0,1-.33-.27c-.84-2-1.94-36.31-1.19-37.06h0c.36-.35,27.33-.82,35.59-1s35.45-.54,37-.12a.28.28,0,0,1,.23.21c.1.41.3,11.13.39,20.84.18,20.43-.2,20.62-.43,20.74A4,4,0,0,1,288.84,42ZM218.45,38.1l12.55.65c18.23,1,55.84,2.9,58.28,2.78.63-2.49-.07-38.37-.16-40.88-3.35-.39-68.29.52-71.94,1C216.68,4.27,217.79,36.23,218.45,38.1Z"/><path class="cls-1" d="M289.51,42l-.12-.49a59.33,59.33,0,0,0,6.45-5.64v-.33c0-15.81,0-32.9-.14-35-1,.08-4.41.14-6,.16V.21c2.22,0,5.83-.11,6.12-.17L296,0l.1.08c.16.11.35.25.28,35.46v.39C296.33,36.66,289.58,42,289.51,42Z"/><path class="cls-1" d="M218.89,38.14c0-.16-.16-4.14-.54-16.84-.26-9-.56-19.3-.62-19.72l.24,0-.25-.05.27-.21c.09,0,.15,0,.2.3h0c.08.52.13,2,.26,6.22.12,3.74.26,8.68.4,13.49.24,8.06.48,16.4.53,16.75Z"/><path class="cls-1" d="M288,41.61l-.49-.07c.17-1.09-.17-40.42-.18-40.81h0l.13-.23.26,0s.05,0,.07.2h0c.07.7.09,3.92.19,20C288.06,34.09,288.07,41.12,288,41.61Z"/><path class="cls-1" d="M221.12,6.12c-.15,0-.38-.27-1.35-1.48-.68-.83-1.81-2.22-2-2.36l.13-.18v0h-.26l.17-.24c.23-.09.25-.1,2.36,2.5.47.58,1,1.25,1.1,1.33l-.16.18h0l.23-.12-.08.35A.27.27,0,0,1,221.12,6.12Z"/><path class="cls-1" d="M219.18,38l-.34,0c-.16-.18-.16-.18.56-1.08a19.71,19.71,0,0,0,2.45-3.56l.48.15a19.44,19.44,0,0,1-2.54,3.72c-.25.31-.5.63-.54.7l-.2-.12h0Z"/><path class="cls-1" d="M272,11.21a9.39,9.39,0,0,0-9.05,9.67c.14,3.09,2.22,8.43,7.48,9.49a1.77,1.77,0,0,1,.72-.13,2.43,2.43,0,0,1,1.06.3l.42,0c.33,0,.65,0,1-.08A3.43,3.43,0,0,0,271,29.17l-.35,0v0c-.13,0,1.84-.17,2.33-.14a2.61,2.61,0,0,1,1.8,1.25,9.21,9.21,0,0,0,7.11-9C281.87,17.48,279.32,11,272,11.21ZM272.34,29c-1.88-.09-7.52-1.89-7.44-8a7.24,7.24,0,0,1,7.44-7.52,7.51,7.51,0,0,1,7.7,7.88C279.89,27.15,274.22,29,272.34,29Z"/><path class="cls-1" d="M271.53,18.11a3.53,3.53,0,0,0-3.22,3.67,3.38,3.38,0,0,0,3.4,3.31A3.2,3.2,0,0,0,275,21.6,3.54,3.54,0,0,0,271.53,18.11Z"/><path class="cls-1" d="M271.88,25.23h-.17a3.52,3.52,0,0,1-3.54-3.44A3.91,3.91,0,0,1,269.26,19a3.13,3.13,0,0,1,2.27-1,3.67,3.67,0,0,1,3.63,3.63,3.78,3.78,0,0,1-1.08,2.78A3.12,3.12,0,0,1,271.88,25.23Zm-.35-7a2.84,2.84,0,0,0-2.07,1,3.6,3.6,0,0,0-1,2.58A3.25,3.25,0,0,0,271.72,25h.16a2.82,2.82,0,0,0,2-.78,3.47,3.47,0,0,0,1-2.58A3.4,3.4,0,0,0,271.53,18.24Z"/><path class="cls-1" d="M270.86,16.67s.05-3,.49-3,.9,2.6.9,2.86A13,13,0,0,1,270.86,16.67Z"/><path class="cls-1" d="M270.86,16.81v-.14h-.13c.07-3.09.49-3.09.62-3.09.66,0,1,3,1,3s0,.18-1.51.23Zm.49-3a7,7,0,0,0-.35,2.69l1.11-.06C272.05,15.9,271.63,13.93,271.35,13.85Z"/><path class="cls-1" d="M271,29.17a3.34,3.34,0,0,0-3.18,3.31A3.42,3.42,0,0,0,271,35.89a3.29,3.29,0,0,0,3.23-3.5A3.36,3.36,0,0,0,271,29.17Zm.18,5.55A2.29,2.29,0,0,1,269,32.39a2.15,2.15,0,0,1,2.15-2.15,2.17,2.17,0,0,1,2.15,2.24A2,2,0,0,1,271.22,34.72Z"/><path class="cls-1" d="M224.3,11.35a4.67,4.67,0,0,1-1.6-.14l0,0V11.1c0-.2.06-2.4.06-2.49V8.48l3.9.07-.08,2.74h-.12C225.72,11.33,225,11.35,224.3,11.35ZM222.92,11a27.88,27.88,0,0,0,3.36,0l.06-2.23L223,8.75C223,9.2,222.93,10.64,222.92,11Z"/><path class="cls-1" d="M229.14,11.35a4.67,4.67,0,0,1-1.6-.14l0,0V11.1c0-.2.06-2.4.07-2.49V8.48l3.9.07-.08,2.74h-.12C230.56,11.33,229.8,11.35,229.14,11.35ZM227.76,11a27.88,27.88,0,0,0,3.36,0l.06-2.23-3.36-.06C227.81,9.2,227.77,10.64,227.76,11Z"/><path class="cls-1" d="M233.72,11.35a4.75,4.75,0,0,1-1.61-.14l0,0V11.1c0-.2.07-2.4.07-2.49V8.48l3.9.07L236,11.29h-.12C235.13,11.33,234.37,11.35,233.72,11.35ZM232.33,11a27.88,27.88,0,0,0,3.36,0l.06-2.23-3.36-.06C232.38,9.2,232.34,10.64,232.33,11Z"/><path class="cls-1" d="M238.29,11.35a4.79,4.79,0,0,1-1.61-.14l0,0V11.1c0-.2.07-2.4.07-2.49V8.48l3.9.07-.07,2.74h-.13C239.7,11.33,238.94,11.35,238.29,11.35ZM236.9,11a27.88,27.88,0,0,0,3.36,0l.06-2.23L237,8.75C237,9.2,236.91,10.64,236.9,11Z"/><path class="cls-1" d="M242.59,11.35a4.79,4.79,0,0,1-1.61-.14l0,0V11.1c0-.2.06-2.4.06-2.49V8.48l3.89.07-.07,2.74h-.13C244,11.33,243.24,11.35,242.59,11.35ZM241.21,11a27.84,27.84,0,0,0,3.36,0l.06-2.23-3.36-.06C241.25,9.2,241.21,10.64,241.21,11Z"/><path class="cls-1" d="M247.16,11.35a4.67,4.67,0,0,1-1.6-.14l-.05,0V11.1c0-.2.06-2.4.06-2.49V8.48l3.89.07-.07,2.74h-.13C248.58,11.33,247.82,11.35,247.16,11.35ZM245.78,11a27.84,27.84,0,0,0,3.36,0l.06-2.23-3.36-.06C245.83,9.2,245.78,10.64,245.78,11Z"/><path class="cls-1" d="M252,11.35a4.67,4.67,0,0,1-1.6-.14l0,0V11.1c0-.2.06-2.4.07-2.49V8.48l3.89.07-.07,2.74h-.12C253.42,11.33,252.66,11.35,252,11.35ZM250.62,11A27.88,27.88,0,0,0,254,11L254,8.81l-3.36-.06C250.67,9.2,250.63,10.64,250.62,11Z"/><path class="cls-1" d="M256.84,11.35a4.67,4.67,0,0,1-1.6-.14l0,0V11.1c0-.2.06-2.4.07-2.49V8.48l3.9.07-.08,2.74H259C258.26,11.33,257.5,11.35,256.84,11.35ZM255.46,11a27.88,27.88,0,0,0,3.36,0l.06-2.23-3.36-.06C255.51,9.2,255.47,10.64,255.46,11Z"/><path class="cls-1" d="M224.93,15.48a6.65,6.65,0,0,1-2-.15l0,0v-.08c0-.2.09-2.39.09-2.49v-.13h.14l3.76.11-.1,2.75h-.13C226.1,15.47,225.49,15.48,224.93,15.48Zm-1.75-.34a30.21,30.21,0,0,0,3.36,0l.08-2.23-3.36-.09C223.25,13.31,223.19,14.76,223.18,15.14Z"/><path class="cls-1" d="M229.76,15.53a6.56,6.56,0,0,1-2-.15l0-.05v-.07c0-.2.09-2.39.09-2.49v-.13H228l3.76.11-.1,2.75h-.13C230.94,15.52,230.33,15.53,229.76,15.53ZM228,15.19a30.21,30.21,0,0,0,3.36.05l.08-2.23-3.36-.09C228.09,13.37,228,14.81,228,15.19Z"/><path class="cls-1" d="M234.34,15.58a6.09,6.09,0,0,1-2-.16l0,0v-.07c0-.2.09-2.4.09-2.49v-.13h.13l3.76.11-.1,2.75h-.13C235.52,15.57,234.9,15.58,234.34,15.58Zm-1.75-.35a27.19,27.19,0,0,0,3.36.06l.08-2.23-3.36-.1C232.66,13.41,232.6,14.86,232.59,15.23Z"/><path class="cls-1" d="M238.91,15.62a6.22,6.22,0,0,1-2-.15l0,0v-.07c0-.2.09-2.4.09-2.49v-.13h.13l3.76.11-.1,2.74h-.12Zm-1.75-.34a25.86,25.86,0,0,0,3.36.05l.08-2.22-3.35-.1C237.23,13.46,237.17,14.9,237.16,15.28Z"/><path class="cls-1" d="M243.22,15.67a6.17,6.17,0,0,1-2-.16l0,0V15.4c0-.2.09-2.39.1-2.49v-.13h.13l3.77.11-.11,2.75H245C244.39,15.66,243.78,15.67,243.22,15.67Zm-1.76-.34a30.28,30.28,0,0,0,3.36.05l.09-2.23-3.36-.09C241.53,13.5,241.47,15,241.46,15.33Z"/><path class="cls-1" d="M247.79,15.72a6.12,6.12,0,0,1-2-.16l0,0v-.07c0-.2.09-2.4.1-2.49v-.13H246l3.76.11-.1,2.75h-.13ZM246,15.45Zm0-.08a26,26,0,0,0,3.37.05l.08-2.22-3.36-.1C246.1,13.55,246.05,15,246,15.37Z"/><path class="cls-1" d="M252.63,15.77a6.12,6.12,0,0,1-2-.16l0,0V15.5c0-.2.09-2.4.1-2.49v-.13h.14l3.76.11-.1,2.75h-.13Zm-1.76-.35a26,26,0,0,0,3.37.05l.08-2.22-3.36-.1C250.94,13.6,250.89,15,250.87,15.42Z"/><path class="cls-1" d="M257.47,15.82a6.17,6.17,0,0,1-2-.16l0,0v-.07c0-.2.09-2.4.1-2.49v-.13h.14l3.76.11-.1,2.75h-.13Zm-1.76-.35a26,26,0,0,0,3.37,0l.08-2.22-3.36-.1C255.78,13.65,255.73,15.09,255.71,15.47Z"/><path class="cls-1" d="M224.94,19.51a6.2,6.2,0,0,1-2-.16l0,0v-.07c0-.2.09-2.39.09-2.49v-.13h.14l3.76.11-.1,2.75h-.13C226.11,19.5,225.5,19.51,224.94,19.51Zm-1.76-.34a30.21,30.21,0,0,0,3.36,0l.08-2.23-3.36-.09C223.25,17.34,223.19,18.79,223.18,19.17Z"/><path class="cls-1" d="M229.77,19.56a6.65,6.65,0,0,1-2-.15l0,0v-.08c0-.2.09-2.39.09-2.49v-.13H228l3.76.12-.1,2.74h-.13C230.94,19.55,230.33,19.56,229.77,19.56ZM228,19.22a30.21,30.21,0,0,0,3.36.05l.08-2.23L228.1,17C228.09,17.4,228,18.84,228,19.22Z"/><path class="cls-1" d="M234.35,19.61a6.17,6.17,0,0,1-2-.16l0,0v-.07c0-.2.09-2.39.09-2.49v-.13h.13l3.76.11-.1,2.75h-.13C235.52,19.6,234.91,19.61,234.35,19.61Zm-1.76-.34a30.28,30.28,0,0,0,3.36.05l.08-2.23L232.67,17C232.66,17.44,232.6,18.89,232.59,19.27Z"/><path class="cls-1" d="M238.92,19.66a6.12,6.12,0,0,1-2-.16l0,0v-.07c0-.2.09-2.4.09-2.49v-.13h.13l3.76.11-.1,2.75h-.13C240.09,19.65,239.48,19.66,238.92,19.66Zm-1.76-.35a27.19,27.19,0,0,0,3.36.06l.08-2.23-3.35-.1C237.23,17.49,237.17,18.94,237.16,19.31Z"/><path class="cls-1" d="M243.22,19.7a6.3,6.3,0,0,1-2-.15l0,0v-.07c0-.21.09-2.4.1-2.49v-.14h.13l3.77.11-.11,2.74H245Zm-1.76-.34a25.86,25.86,0,0,0,3.36.05l.09-2.22-3.36-.1C241.53,17.54,241.47,19,241.46,19.36Z"/><path class="cls-1" d="M247.79,19.75a6.65,6.65,0,0,1-2-.15l0,0v-.08c0-.2.09-2.39.1-2.49v-.13H246l3.76.11-.11,2.74h-.12C249,19.74,248.35,19.75,247.79,19.75ZM246,19.48h0Zm0-.07a28,28,0,0,0,3.36.05l.09-2.22-3.36-.1C246.1,17.59,246.05,19,246,19.41Z"/><path class="cls-1" d="M252.64,19.8a6.34,6.34,0,0,1-2-.15l0,0v-.07c0-.21.09-2.4.1-2.49v-.14h.14l3.76.11-.1,2.74h-.13Zm-1.77-.34a26,26,0,0,0,3.37.05l.08-2.22-3.36-.1C250.94,17.64,250.89,19.08,250.87,19.46Z"/><path class="cls-1" d="M257.47,19.85a6.3,6.3,0,0,1-2-.15l0,0v-.07c0-.21.1-2.4.1-2.49V17h.14l3.76.11-.1,2.74h-.13Zm-1.76-.34a26,26,0,0,0,3.37,0l.08-2.22-3.36-.1C255.78,17.69,255.73,19.13,255.71,19.51Z"/><path class="cls-1" d="M225.73,23.64a8.79,8.79,0,0,1-2.52-.18l0,0v-.07c0-.2.12-2.4.13-2.49v-.13l3.9.15-.14,2.75h-1.32Zm-2.29-.37a27,27,0,0,0,3.36.09l.1-2.22L223.55,21C223.52,21.45,223.45,22.9,223.44,23.27Z"/><path class="cls-1" d="M230.57,23.74a8.79,8.79,0,0,1-2.52-.18l0,0v-.07c0-.2.12-2.39.13-2.49v-.13L232,21l-.14,2.74h-1.32Zm-2.29-.36a25.72,25.72,0,0,0,3.36.08l.1-2.22-3.35-.13C228.36,21.56,228.29,23,228.28,23.38Z"/><path class="cls-1" d="M235.15,23.84a8.88,8.88,0,0,1-2.53-.18l0,0v-.07c0-.2.12-2.4.13-2.49v-.13l3.9.15-.14,2.75h-1.31Zm-2.3-.36a25.8,25.8,0,0,0,3.36.08l.1-2.22L233,21.21C232.93,21.65,232.86,23.1,232.85,23.48Z"/><path class="cls-1" d="M239.72,23.94a8.88,8.88,0,0,1-2.53-.18l0,0v-.07c0-.2.11-2.4.12-2.49V21l3.9.15L241,23.93h-1.31Zm-2.3-.37a25.19,25.19,0,0,0,3.36.09l.11-2.22-3.36-.14C237.5,21.75,237.43,23.2,237.42,23.57Zm0,.08Z"/><path class="cls-1" d="M244,24a8.84,8.84,0,0,1-2.52-.18l0,0v-.07c0-.2.11-2.4.12-2.49v-.13l3.89.15L245.34,24H244Zm-2.29-.36a25.72,25.72,0,0,0,3.36.08l.11-2.22-3.36-.13C241.81,21.84,241.73,23.29,241.72,23.67Zm0,.07Z"/><path class="cls-1" d="M248.59,24.13a8.88,8.88,0,0,1-2.53-.18l0,0v-.07c0-.2.11-2.4.12-2.49v-.13l3.89.15-.13,2.75h-1.32Zm-2.3-.37a25.19,25.19,0,0,0,3.36.09l.11-2.22-3.36-.13C246.38,21.94,246.3,23.39,246.29,23.76Z"/><path class="cls-1" d="M253.43,24.23a8.88,8.88,0,0,1-2.53-.18l0,0v-.07c0-.2.11-2.39.12-2.49v-.13l3.89.16-.13,2.74h-1.32Zm-2.3-.36a27.21,27.21,0,0,0,3.36.09l.11-2.23-3.36-.13C251.22,22.05,251.14,23.49,251.13,23.87Z"/><path class="cls-1" d="M258.26,24.34a8.84,8.84,0,0,1-2.52-.18l0,0V24c0-.2.11-2.39.12-2.48v-.14l3.9.16-.13,2.74h-1.33ZM256,24a27.12,27.12,0,0,0,3.36.09l.11-2.22-3.36-.14C256.06,22.15,256,23.59,256,24Z"/><path class="cls-1" d="M225.54,27.73a8,8,0,0,1-2.33-.17l0,0v-.08c0-.2.11-2.39.11-2.49v-.13l3.89.14-.12,2.75h-.13Zm-2.1-.36a27.91,27.91,0,0,0,3.36.08l.1-2.23-3.36-.12C223.52,25.55,223.45,27,223.44,27.37Z"/><path class="cls-1" d="M230.39,27.81a7.75,7.75,0,0,1-2.34-.17l0,0v-.07c0-.2.11-2.39.11-2.49v-.13l3.89.14-.12,2.75h-1.51Zm-2.11-.35a26.51,26.51,0,0,0,3.36.07l.1-2.22-3.36-.12C228.36,25.63,228.29,27.08,228.28,27.46Z"/><path class="cls-1" d="M235,27.9a7.9,7.9,0,0,1-2.32-.17l0,0v-.08c0-.2.11-2.39.11-2.49V25l3.89.14-.12,2.75h-.13Zm-2.1-.36a27.91,27.91,0,0,0,3.36.08l.1-2.23L233,25.27C232.93,25.72,232.86,27.16,232.85,27.54Zm0,.08Z"/><path class="cls-1" d="M239.54,28a8,8,0,0,1-2.34-.17l0,0v-.08c0-.2.11-2.39.11-2.48v-.14l3.89.15L241,28h-.13Zm-2.12-.36a27.91,27.91,0,0,0,3.36.08l.1-2.23-3.36-.12C237.5,25.8,237.43,27.24,237.42,27.62Zm0,.08Z"/><path class="cls-1" d="M243.83,28.06a7.48,7.48,0,0,1-2.33-.18l0,0v-.07c0-.2.11-2.39.11-2.49v-.13l3.89.14L245.34,28h-.13Zm-2.11-.36a28,28,0,0,0,3.36.08l.1-2.23-3.35-.12C241.8,25.88,241.74,27.32,241.72,27.7Z"/><path class="cls-1" d="M248.41,28.14a8,8,0,0,1-2.34-.17l0,0v-.07c0-.21.11-2.4.11-2.49v-.14l3.9.15-.13,2.74h-.12Zm-2.12-.36a27.91,27.91,0,0,0,3.36.08l.1-2.23-3.35-.12C246.38,26,246.31,27.4,246.29,27.78Z"/><path class="cls-1" d="M253.24,28.23a7.48,7.48,0,0,1-2.33-.18l0,0v-.07c0-.2.11-2.39.11-2.49v-.13l3.9.14-.13,2.75h-.12Zm-2.11-.36a28,28,0,0,0,3.36.08l.1-2.23-3.35-.12C251.21,26.05,251.15,27.49,251.13,27.87Zm0,.08Z"/><path class="cls-1" d="M258.09,28.31a7.66,7.66,0,0,1-2.34-.17l0,0V28c0-.2.11-2.4.12-2.49v-.13l3.9.14-.13,2.75h-1.5ZM256,28a26.59,26.59,0,0,0,3.36.07l.1-2.22-3.35-.12C256.06,26.13,256,27.58,256,28Z"/><path class="cls-1" d="M225.91,31.66a9.51,9.51,0,0,1-2.7-.19l0,0v-.07c0-.2.13-2.39.13-2.49v-.13l3.89.17-.14,2.74h-1.14Zm-2.48-.37a28.68,28.68,0,0,0,3.36.1l.12-2.22L223.55,29C223.53,29.47,223.45,30.91,223.43,31.29Z"/><path class="cls-1" d="M230.75,31.78a9.51,9.51,0,0,1-2.7-.19l0,0v-.07c0-.2.12-2.4.13-2.49v-.13L232,29l-.14,2.74h-1.14Zm-2.48-.37a27.21,27.21,0,0,0,3.36.09l.12-2.22-3.36-.14C228.37,29.59,228.29,31,228.27,31.41Z"/><path class="cls-1" d="M235.32,31.89a9.51,9.51,0,0,1-2.7-.19l0,0v-.07c0-.2.12-2.39.13-2.49V29l3.89.17-.14,2.74h-1.14Zm-2.48-.37a28.68,28.68,0,0,0,3.36.1l.12-2.23L233,29.25C232.94,29.7,232.86,31.14,232.84,31.52Z"/><path class="cls-1" d="M239.89,32a10.17,10.17,0,0,1-2.7-.18l0-.05V31.7c0-.2.13-2.39.13-2.49v-.13l3.89.17L241,32h-1.14Zm-2.47-.37a26.26,26.26,0,0,0,3.35.1l.12-2.22-3.36-.15C237.51,29.81,237.43,31.25,237.42,31.63Z"/><path class="cls-1" d="M244.19,32.11a9.6,9.6,0,0,1-2.7-.19l0,0v-.07c0-.2.13-2.4.13-2.49v-.13l3.89.16-.14,2.75h-1.14Zm-2.47-.37a27,27,0,0,0,3.36.09l.11-2.22-3.36-.14C241.81,29.91,241.73,31.36,241.72,31.74Z"/><path class="cls-1" d="M248.76,32.22a9.6,9.6,0,0,1-2.7-.19l0,0v-.07c0-.2.13-2.4.13-2.49V29.3l3.89.16-.14,2.75h-1.14Zm-2.47-.37a27.12,27.12,0,0,0,3.36.09l.11-2.22-3.36-.14C246.38,30,246.3,31.47,246.29,31.85Z"/><path class="cls-1" d="M253.61,32.34a9.65,9.65,0,0,1-2.71-.19l0,0V32c0-.21.13-2.4.13-2.49v-.13l3.89.16-.14,2.75h-1.13ZM251.13,32a24.61,24.61,0,0,0,3.36.1l.11-2.22-3.36-.14C251.22,30.14,251.14,31.59,251.13,32Z"/><path class="cls-1" d="M258.43,32.45a10.07,10.07,0,0,1-2.69-.18l0,0v-.08c0-.2.13-2.39.13-2.48v-.14l3.89.17-.14,2.74h-1.15ZM256,32.08a26.54,26.54,0,0,0,3.36.1l.12-2.22-3.36-.15C256.06,30.26,256,31.7,256,32.08Z"/><path class="cls-1" d="M272.87,29.3H273c1.09.08,2.14,1.61,2.22,2.75a3.23,3.23,0,0,1-1.64,3l0,0a3.7,3.7,0,0,0,1-2.69,3.52,3.52,0,0,0-2-3.08h.31m0-.27c-.57,0-2,.15-2.17.15h0v0l.32,0h0a3.37,3.37,0,0,1,.93,6.57v.06a5.39,5.39,0,0,0,1.7-.49A3.5,3.5,0,0,0,275.47,32c-.07-1.26-1.2-2.92-2.46-3Zm-2.19.14Z"/><path class="cls-1" d="M273.52,34.66c-17.29-.57-47.34-1.78-51.48-2.15,0,.31,0,.51.05.56.12.43,31.33,1.73,50.5,2.39A3.09,3.09,0,0,0,273.52,34.66Z"/><path class="cls-1" d="M287,5.66c0-.09-65.3.18-65.66.44a3.09,3.09,0,0,0-.07.88c4.55-.16,64.21-.14,64.39.29s.89,27.41,0,27.68c-.24.07-4.71-.05-11.19-.26a2.82,2.82,0,0,1-.82.62l-.44.18c8.08.27,13.86.43,14,.35C287.57,35.57,287.39,6.55,287,5.66Z"/><path class="cls-1" d="M285.18,35.09c-1.06,0-3.72-.05-10.58-.27l-.52,0,.34-.4a3.31,3.31,0,0,0,.8-2.35c-.07-1.15-1.13-2.69-2.23-2.77h-.49a3.53,3.53,0,0,1,2,3.1,3.7,3.7,0,0,1-.68,2.29l-.08.11h-.13c-9.29-.31-22.2-.79-32.89-1.24-19.1-.8-19.16-.93-19.26-1.12S220.64,7,221,6.7c.06-.06.24-.24,31.77-.18,9.52,0,31.78.09,33.08.36l.13,0,.11.15c.06.15,1,25.89.06,27.8a.4.4,0,0,1-.22.21A3.52,3.52,0,0,1,285.18,35.09Zm-10.08-.76c8.34.27,10.21.27,10.6.25.57-1.59.22-24.8-.09-27.23-3.4-.42-60.67-.3-64.23-.24-.1,2.19.35,23,.54,25,2.46.31,33.7,1.57,51.58,2.17A3.31,3.31,0,0,0,274,32.4a3.1,3.1,0,0,0-3-3,1.2,1.2,0,0,0-.3,0l-.24,0,0-.18a.64.64,0,0,1,0-.09l0-.21.49-.17v.07l.39,0a15.51,15.51,0,0,1,1.75-.09c1.39.09,2.61,1.85,2.69,3.23A3.82,3.82,0,0,1,275.1,34.33Z"/><rect class="cls-1" x="360.6" y="19.26" width="151.38" height="1"/><circle class="cls-1" cx="511.89" cy="19.76" r="1.88"/><rect class="cls-1" x="1.79" y="19.26" width="151.41" height="1"/><circle class="cls-1" cx="1.88" cy="19.76" r="1.88"/></g></g></svg>