<svg xmlns="http://www.w3.org/2000/svg" viewBox="0 0 155.53 91.55"><defs><style>.cls-1{fill:#222;}</style></defs><title>icon-tune-med</title><g id="Layer_2" data-name="Layer 2"><g id="Layer_1-2" data-name="Layer 1"><path class="cls-1" d="M81.88,84.74H73.8A13.11,13.11,0,0,1,60.67,71.67L60.56,15a12.53,12.53,0,0,1,3.83-9,15.06,15.06,0,0,1,9.25-4.08c1.11-.09,3.93-1,3.93-1.91h.23c0,.88,2.83,1.81,3.94,1.9a15,15,0,0,1,9.25,4,12.51,12.51,0,0,1,3.87,9L95,71.61A13.11,13.11,0,0,1,81.88,84.74ZM77.68.37c-.56,1-3.14,1.69-4,1.77-7.46.63-12.88,6-12.86,12.9l.1,56.63A12.9,12.9,0,0,0,73.8,84.53l8.08,0a12.9,12.9,0,0,0,12.86-12.9L94.64,15c0-6.85-5.45-12.26-12.92-12.86C80.83,2.05,78.25,1.33,77.68.37Z"/><path class="cls-1" d="M73,19.9l.07,39H74a.89.89,0,0,1,.5-.15,1,1,0,0,1,.51.14H76.2a.93.93,0,0,1,1,0h1.23a1,1,0,0,1,.51-.15.89.89,0,0,1,.5.15h1.23a1,1,0,0,1,1,0h.87l-.07-39Zm1.51,38.47a.95.95,0,1,1,1-.95A.94.94,0,0,1,74.46,58.37Zm0-2.24a.95.95,0,1,1,0-1.89.95.95,0,0,1,0,1.89Zm0-2.24a1,1,0,0,1-.95-1,.95.95,0,0,1,1.89,0A1,1,0,0,1,74.46,53.89Zm0-2.24a1,1,0,0,1-1-.95.95.95,0,1,1,1,.95Zm0-2.25a.94.94,0,1,1,.94-.94A.94.94,0,0,1,74.45,49.4Zm0-2.24a.94.94,0,0,1,0-1.88.94.94,0,1,1,0,1.88Zm0-2.24a.95.95,0,1,1,.94-.94A.95.95,0,0,1,74.44,44.92Zm0-2.24a.94.94,0,0,1-.94-.94.95.95,0,1,1,1.89,0A.94.94,0,0,1,74.43,42.68Zm0-2.24a.95.95,0,1,1,.94-.94A.94.94,0,0,1,74.43,40.44Zm0-2.24a.95.95,0,1,1,.94-.94A.94.94,0,0,1,74.43,38.2Zm0-2.24a.95.95,0,0,1,0-1.89.95.95,0,1,1,0,1.89Zm0-2.24a.95.95,0,1,1,.94-.94A.95.95,0,0,1,74.42,33.72Zm0-2.24a.95.95,0,1,1,1-.95A.94.94,0,0,1,74.41,31.48Zm0-2.24a.95.95,0,1,1,.94-.95A.95.95,0,0,1,74.41,29.24Zm0-2.24a.95.95,0,1,1,.94-.95A.94.94,0,0,1,74.41,27Zm0-2.24a.95.95,0,1,1,.94-1A.94.94,0,0,1,74.4,24.76Zm0-2.24a.95.95,0,1,1,.94-.95A.95.95,0,0,1,74.4,22.52Zm2.3,35.84a.95.95,0,0,1,0-1.89.95.95,0,1,1,0,1.89Zm0-2.24a.95.95,0,1,1,.94-.94A.95.95,0,0,1,76.7,56.12Zm0-2.24a.95.95,0,1,1,.94-.94A.94.94,0,0,1,76.7,53.88Zm0-2.24a.95.95,0,1,1,.94-1A.94.94,0,0,1,76.69,51.64Zm0-2.24a.95.95,0,1,1,.94-.95A.95.95,0,0,1,76.69,49.4Zm0-2.24a.95.95,0,1,1,.95-.95A.94.94,0,0,1,76.68,47.16Zm0-2.24a.95.95,0,1,1,.94-1A.95.95,0,0,1,76.68,44.92Zm0-2.24a.95.95,0,1,1,.94-1A.94.94,0,0,1,76.68,42.68Zm0-2.24a.95.95,0,1,1,.94-.95A.94.94,0,0,1,76.67,40.44Zm0-2.24a.95.95,0,1,1,.94-1A.95.95,0,0,1,76.67,38.2Zm0-2.24a.95.95,0,0,1,0-1.89.95.95,0,1,1,0,1.89Zm0-2.24a.95.95,0,1,1,0-1.89.95.95,0,0,1,0,1.89Zm0-2.24a.95.95,0,1,1,.95-.95A.94.94,0,0,1,76.65,31.48Zm0-2.24a.95.95,0,1,1,0-1.89.95.95,0,0,1,0,1.89Zm0-2.24a.95.95,0,1,1,.94-.95A.94.94,0,0,1,76.65,27Zm0-2.24a.95.95,0,1,1,1-1A1,1,0,0,1,76.64,24.76Zm0-2.24a1,1,0,0,1-1-.95.95.95,0,0,1,1.89,0A1,1,0,0,1,76.64,22.52Zm2.3,35.84a.95.95,0,1,1,1-1A1,1,0,0,1,78.94,58.36Zm0-2.24a.95.95,0,1,1,0-1.89.95.95,0,0,1,0,1.89Zm0-2.24a.95.95,0,1,1,.94-1A.94.94,0,0,1,78.94,53.88Zm0-2.24a.95.95,0,1,1,.94-1A.94.94,0,0,1,78.93,51.64Zm0-2.24a1,1,0,0,1-1-.95.95.95,0,1,1,1,.95Zm0-2.24a.95.95,0,1,1,1-.95A.94.94,0,0,1,78.92,47.16Zm0-2.24a1,1,0,0,1-1-1,.95.95,0,0,1,1.89,0A1,1,0,0,1,78.92,44.92Zm0-2.24a1,1,0,0,1-1-1,.95.95,0,0,1,1.89,0A1,1,0,0,1,78.92,42.68Zm0-2.25a.94.94,0,1,1,.94-.94A.93.93,0,0,1,78.91,40.43Zm0-2.24a.94.94,0,1,1,.94-.94A.94.94,0,0,1,78.91,38.19Zm0-2.24a.94.94,0,1,1,.95-.94A.94.94,0,0,1,78.9,36Zm0-2.24a.95.95,0,1,1,.94-.94A.95.95,0,0,1,78.9,33.71Zm0-2.24a.95.95,0,1,1,.94-.94A.94.94,0,0,1,78.9,31.47Zm0-2.24a.95.95,0,1,1,0-1.89.95.95,0,0,1,0,1.89Zm0-2.24a.95.95,0,1,1,.94-.94A.95.95,0,0,1,78.89,27Zm0-2.24a.95.95,0,0,1,0-1.89.95.95,0,1,1,0,1.89Zm0-2.24a.95.95,0,1,1,.94-1A.95.95,0,0,1,78.88,22.51Zm2.3,35.84a.94.94,0,1,1,.95-.94A.93.93,0,0,1,81.18,58.35Zm0-2.24a.95.95,0,1,1,.94-.94A.94.94,0,0,1,81.18,56.11Zm0-2.24a.94.94,0,0,1-1-.94.95.95,0,1,1,1.89,0A.94.94,0,0,1,81.18,53.87Zm0-2.24a.94.94,0,0,1-.94-.94.95.95,0,1,1,.94.94Zm0-2.24a.95.95,0,1,1,.94-.94A.95.95,0,0,1,81.17,49.39Zm0-2.24a.95.95,0,0,1,0-1.89.95.95,0,1,1,0,1.89Zm0-2.24a.95.95,0,1,1,0-1.89.95.95,0,0,1,0,1.89Zm0-2.24a.95.95,0,1,1,.94-.94A.94.94,0,0,1,81.16,42.67Zm0-2.24a.95.95,0,1,1,.94-1A.94.94,0,0,1,81.15,40.43Zm0-2.24a.95.95,0,1,1,.94-.95A.95.95,0,0,1,81.15,38.19Zm0-2.24a.95.95,0,1,1,1-1A.94.94,0,0,1,81.14,36Zm0-2.24a.95.95,0,1,1,.94-1A.95.95,0,0,1,81.14,33.71Zm0-2.24a.95.95,0,1,1,.94-.95A.94.94,0,0,1,81.14,31.47Zm0-2.24a.95.95,0,1,1,.94-.95A.94.94,0,0,1,81.13,29.23Zm0-2.24a1,1,0,0,1-.95-.95.95.95,0,1,1,.95.95Zm0-2.24a.95.95,0,1,1,.95-.95A.94.94,0,0,1,81.12,24.75Zm0-2.24a.95.95,0,1,1,0-1.89.95.95,0,0,1,0,1.89Z"/><path class="cls-1" d="M65.07,17.55l.07,39,.72.23a.49.49,0,0,1,.38,0,.81.81,0,0,1,.38.27l.93.3a.54.54,0,0,1,.38,0,.89.89,0,0,1,.38.27l.94.31a.49.49,0,0,1,.38,0,.89.89,0,0,1,.38.27l.94.31a.49.49,0,0,1,.38,0,1,1,0,0,1,.37.27l.67.22-.07-39Zm1.17,38.83a1.27,1.27,0,0,1-.72-1.18c0-.52.32-.84.71-.71A1.26,1.26,0,0,1,67,55.67C67,56.19,66.63,56.51,66.24,56.38Zm0-2.24A1.28,1.28,0,0,1,65.52,53c0-.52.31-.84.71-.71A1.27,1.27,0,0,1,67,53.43C67,54,66.63,54.27,66.23,54.14Zm0-2.24a1.27,1.27,0,0,1-.72-1.18c0-.52.32-.84.72-.71a1.26,1.26,0,0,1,.71,1.17C66.94,51.71,66.62,52,66.23,51.9Zm0-2.24a1.28,1.28,0,0,1-.71-1.18c0-.52.32-.84.71-.71a1.25,1.25,0,0,1,.72,1.17C66.94,49.47,66.62,49.78,66.22,49.66Zm0-2.24a1.28,1.28,0,0,1-.72-1.18c0-.52.32-.84.72-.71a1.26,1.26,0,0,1,.71,1.17C66.93,47.23,66.62,47.54,66.22,47.42Zm0-2.24A1.27,1.27,0,0,1,65.5,44c0-.52.32-.84.71-.71a1.24,1.24,0,0,1,.72,1.17C66.93,45,66.61,45.3,66.22,45.18Zm0-2.24a1.28,1.28,0,0,1-.71-1.18c0-.52.31-.84.71-.71a1.27,1.27,0,0,1,.72,1.17C66.93,42.74,66.61,43.06,66.21,42.94Zm0-2.25a1.24,1.24,0,0,1-.72-1.17c0-.52.32-.84.71-.71A1.24,1.24,0,0,1,66.92,40C66.92,40.5,66.6,40.82,66.21,40.69Zm0-2.24a1.25,1.25,0,0,1-.71-1.17c0-.52.32-.84.71-.71a1.24,1.24,0,0,1,.72,1.17C66.92,38.26,66.6,38.58,66.2,38.45Zm0-2.24A1.24,1.24,0,0,1,65.48,35c0-.52.32-.84.72-.72a1.28,1.28,0,0,1,.71,1.18C66.91,36,66.59,36.34,66.2,36.21Zm0-2.24a1.25,1.25,0,0,1-.72-1.17c0-.53.32-.84.71-.72a1.27,1.27,0,0,1,.72,1.18C66.91,33.78,66.59,34.1,66.2,34Zm0-2.24a1.29,1.29,0,0,1-.72-1.17c0-.53.32-.84.72-.72A1.28,1.28,0,0,1,66.9,31C66.91,31.54,66.59,31.86,66.19,31.73Zm0-2.24a1.25,1.25,0,0,1-.72-1.17c0-.53.32-.85.71-.72a1.27,1.27,0,0,1,.72,1.18C66.9,29.3,66.58,29.62,66.19,29.49Zm0-2.24a1.27,1.27,0,0,1-.71-1.18c0-.52.32-.84.71-.71a1.28,1.28,0,0,1,.72,1.18C66.9,27.06,66.58,27.38,66.18,27.25Zm0-2.24a1.26,1.26,0,0,1-.72-1.18c0-.52.32-.84.72-.71a1.28,1.28,0,0,1,.71,1.18C66.89,24.82,66.57,25.14,66.18,25Zm0-2.24a1.26,1.26,0,0,1-.72-1.18c0-.52.32-.84.71-.71a1.27,1.27,0,0,1,.72,1.18C66.89,22.58,66.57,22.9,66.18,22.77Zm0-2.24a1.29,1.29,0,0,1-.72-1.18c0-.52.32-.84.72-.71a1.28,1.28,0,0,1,.71,1.18C66.89,20.34,66.57,20.66,66.17,20.53Zm1.76,36.4a1.28,1.28,0,0,1-.71-1.18c0-.52.31-.84.71-.71a1.28,1.28,0,0,1,.72,1.18C68.65,56.74,68.33,57.06,67.93,56.93Zm0-2.24a1.27,1.27,0,0,1-.72-1.18c0-.52.32-.84.72-.71A1.28,1.28,0,0,1,68.64,54C68.64,54.5,68.32,54.82,67.93,54.69Zm0-2.24a1.28,1.28,0,0,1-.71-1.18c0-.52.32-.84.71-.71a1.26,1.26,0,0,1,.72,1.18C68.64,52.26,68.32,52.58,67.92,52.45Zm0-2.24A1.28,1.28,0,0,1,67.2,49c0-.52.32-.84.72-.71a1.27,1.27,0,0,1,.71,1.18C68.63,50,68.32,50.34,67.92,50.21Zm0-2.24a1.27,1.27,0,0,1-.72-1.18c0-.52.32-.84.71-.71a1.26,1.26,0,0,1,.72,1.18C68.63,47.78,68.31,48.1,67.92,48Zm0-2.24a1.28,1.28,0,0,1-.71-1.18c0-.52.31-.84.71-.71A1.29,1.29,0,0,1,68.63,45C68.63,45.54,68.31,45.86,67.91,45.73Zm0-2.24a1.27,1.27,0,0,1-.72-1.18c0-.52.32-.84.71-.71a1.25,1.25,0,0,1,.72,1.17C68.62,43.3,68.3,43.61,67.91,43.49Zm0-2.24a1.28,1.28,0,0,1-.71-1.18c0-.52.32-.84.71-.71a1.25,1.25,0,0,1,.72,1.17C68.62,41.06,68.3,41.37,67.9,41.25Zm0-2.24a1.28,1.28,0,0,1-.72-1.18c0-.52.32-.84.72-.71a1.26,1.26,0,0,1,.71,1.17C68.61,38.82,68.29,39.13,67.9,39Zm0-2.24a1.27,1.27,0,0,1-.72-1.18c0-.52.32-.84.71-.71a1.24,1.24,0,0,1,.72,1.17C68.61,36.57,68.29,36.89,67.9,36.77Zm0-2.25a1.25,1.25,0,0,1-.71-1.17c0-.52.31-.84.71-.71a1.27,1.27,0,0,1,.72,1.17C68.61,34.33,68.29,34.65,67.89,34.52Zm0-2.24a1.24,1.24,0,0,1-.72-1.17c0-.52.32-.84.71-.71a1.24,1.24,0,0,1,.72,1.17C68.6,32.09,68.28,32.41,67.89,32.28Zm0-2.24a1.25,1.25,0,0,1-.71-1.17c0-.52.32-.84.71-.72a1.27,1.27,0,0,1,.72,1.18C68.6,29.85,68.28,30.17,67.88,30Zm0-2.24a1.25,1.25,0,0,1-.72-1.17c0-.53.32-.84.72-.72a1.28,1.28,0,0,1,.71,1.18C68.59,27.61,68.27,27.93,67.88,27.8Zm0-2.24a1.25,1.25,0,0,1-.72-1.17c0-.53.32-.84.71-.72a1.27,1.27,0,0,1,.72,1.18C68.59,25.37,68.27,25.69,67.88,25.56Zm0-2.24a1.29,1.29,0,0,1-.72-1.17c0-.53.32-.85.72-.72a1.28,1.28,0,0,1,.71,1.18C68.59,23.13,68.27,23.45,67.87,23.32Zm0-2.24a1.25,1.25,0,0,1-.72-1.17c0-.53.32-.85.71-.72a1.27,1.27,0,0,1,.72,1.18C68.58,20.89,68.26,21.21,67.87,21.08Zm1.76,36.4a1.26,1.26,0,0,1-.72-1.18c0-.52.32-.84.72-.71a1.28,1.28,0,0,1,.71,1.18C70.34,57.29,70,57.61,69.63,57.48Zm0-2.24a1.28,1.28,0,0,1-.71-1.18c0-.52.32-.84.71-.71a1.27,1.27,0,0,1,.72,1.18C70.34,55.05,70,55.37,69.62,55.24Zm0-2.24a1.28,1.28,0,0,1-.72-1.18c0-.52.32-.84.72-.71a1.28,1.28,0,0,1,.71,1.18C70.33,52.81,70,53.13,69.62,53Zm0-2.24a1.27,1.27,0,0,1-.72-1.18c0-.52.32-.84.71-.71a1.27,1.27,0,0,1,.72,1.18C70.33,50.57,70,50.89,69.62,50.76Zm0-2.24a1.28,1.28,0,0,1-.71-1.18c0-.52.31-.84.71-.71a1.3,1.3,0,0,1,.72,1.18C70.33,48.33,70,48.65,69.61,48.52Zm0-2.24a1.27,1.27,0,0,1-.72-1.18c0-.52.32-.84.71-.71a1.26,1.26,0,0,1,.72,1.18C70.32,46.09,70,46.41,69.61,46.28Zm0-2.24a1.28,1.28,0,0,1-.71-1.18c0-.52.32-.84.71-.71a1.26,1.26,0,0,1,.72,1.18C70.32,43.85,70,44.17,69.6,44Zm0-2.24a1.28,1.28,0,0,1-.72-1.18c0-.52.32-.84.72-.71a1.27,1.27,0,0,1,.71,1.18C70.31,41.61,70,41.93,69.6,41.8Zm0-2.24a1.27,1.27,0,0,1-.72-1.18c0-.52.32-.84.71-.71a1.25,1.25,0,0,1,.72,1.17C70.31,39.37,70,39.69,69.6,39.56Zm0-2.24a1.28,1.28,0,0,1-.71-1.18c0-.52.31-.84.71-.71a1.29,1.29,0,0,1,.72,1.17C70.31,37.13,70,37.44,69.59,37.32Zm0-2.24a1.27,1.27,0,0,1-.72-1.18c0-.52.32-.84.71-.71a1.25,1.25,0,0,1,.72,1.17C70.3,34.89,70,35.2,69.59,35.08Zm0-2.24a1.28,1.28,0,0,1-.71-1.18c0-.52.32-.84.71-.71a1.24,1.24,0,0,1,.72,1.17C70.3,32.65,70,33,69.58,32.84Zm0-2.25a1.24,1.24,0,0,1-.72-1.17c0-.52.32-.84.72-.71a1.25,1.25,0,0,1,.71,1.17C70.29,30.4,70,30.72,69.58,30.59Zm0-2.24a1.24,1.24,0,0,1-.72-1.17c0-.52.32-.84.71-.71a1.24,1.24,0,0,1,.72,1.17C70.29,28.16,70,28.48,69.58,28.35Zm0-2.24a1.27,1.27,0,0,1-.72-1.17c0-.52.32-.84.72-.71a1.25,1.25,0,0,1,.71,1.17C70.29,25.92,70,26.24,69.57,26.11Zm0-2.24a1.24,1.24,0,0,1-.72-1.17c0-.52.32-.84.71-.72a1.27,1.27,0,0,1,.72,1.18C70.28,23.68,70,24,69.57,23.87Zm0-2.24a1.26,1.26,0,0,1-.71-1.17c0-.53.31-.84.71-.72a1.28,1.28,0,0,1,.72,1.18C70.28,21.44,70,21.76,69.56,21.63ZM71.32,58a1.26,1.26,0,0,1-.71-1.17c0-.53.32-.85.71-.72A1.27,1.27,0,0,1,72,57.32C72,57.84,71.72,58.16,71.32,58Zm0-2.24a1.29,1.29,0,0,1-.72-1.18c0-.52.32-.84.72-.71A1.28,1.28,0,0,1,72,55.08C72,55.6,71.72,55.92,71.32,55.79Zm0-2.24a1.26,1.26,0,0,1-.72-1.18c0-.52.32-.84.71-.71A1.27,1.27,0,0,1,72,52.84C72,53.36,71.71,53.68,71.32,53.55Zm0-2.24a1.27,1.27,0,0,1-.71-1.18c0-.52.31-.84.71-.71A1.3,1.3,0,0,1,72,50.6C72,51.12,71.71,51.44,71.31,51.31Zm0-2.24a1.26,1.26,0,0,1-.72-1.18c0-.52.32-.84.71-.71A1.27,1.27,0,0,1,72,48.36C72,48.88,71.7,49.2,71.31,49.07Zm0-2.24a1.28,1.28,0,0,1-.71-1.18c0-.52.32-.84.71-.71A1.27,1.27,0,0,1,72,46.12C72,46.64,71.7,47,71.3,46.83Zm0-2.24a1.28,1.28,0,0,1-.72-1.18c0-.52.32-.84.72-.71A1.28,1.28,0,0,1,72,43.88C72,44.4,71.7,44.72,71.3,44.59Zm0-2.24a1.27,1.27,0,0,1-.72-1.18c0-.52.32-.84.71-.71A1.27,1.27,0,0,1,72,41.64C72,42.16,71.69,42.48,71.3,42.35Zm0-2.24a1.28,1.28,0,0,1-.71-1.18c0-.52.31-.84.71-.71A1.29,1.29,0,0,1,72,39.4C72,39.92,71.69,40.24,71.29,40.11Zm0-2.24a1.27,1.27,0,0,1-.72-1.18c0-.52.32-.84.71-.71A1.26,1.26,0,0,1,72,37.16C72,37.68,71.68,38,71.29,37.87Zm0-2.24a1.28,1.28,0,0,1-.71-1.18c0-.52.32-.84.71-.71A1.26,1.26,0,0,1,72,34.92C72,35.44,71.68,35.76,71.28,35.63Zm0-2.24a1.27,1.27,0,0,1-.72-1.18c0-.52.32-.84.72-.71A1.26,1.26,0,0,1,72,32.67C72,33.2,71.67,33.52,71.28,33.39Zm0-2.24A1.27,1.27,0,0,1,70.56,30c0-.52.32-.84.71-.71A1.25,1.25,0,0,1,72,30.43C72,31,71.67,31.27,71.28,31.15Zm0-2.24a1.3,1.3,0,0,1-.72-1.18c0-.52.32-.84.72-.71A1.26,1.26,0,0,1,72,28.19C72,28.72,71.67,29,71.27,28.91Zm0-2.24a1.27,1.27,0,0,1-.72-1.18c0-.52.32-.84.71-.71A1.25,1.25,0,0,1,72,26C72,26.48,71.66,26.79,71.27,26.67Zm0-2.24a1.28,1.28,0,0,1-.71-1.18c0-.52.32-.84.71-.71A1.26,1.26,0,0,1,72,23.71C72,24.23,71.66,24.55,71.26,24.43Zm0-2.25A1.24,1.24,0,0,1,70.54,21c0-.52.32-.84.72-.71A1.25,1.25,0,0,1,72,21.47C72,22,71.65,22.31,71.26,22.18Z"/><path class="cls-1" d="M83.11,19.88l.08,39,.66-.22a.86.86,0,0,1,.37-.27.49.49,0,0,1,.38,0l.94-.31a1,1,0,0,1,.38-.27.54.54,0,0,1,.38,0l.93-.3a.92.92,0,0,1,.38-.28.49.49,0,0,1,.38,0l.94-.31a.81.81,0,0,1,.38-.27.45.45,0,0,1,.38,0l.71-.24-.07-39Zm5.48,35.75a1.27,1.27,0,0,1,.71-1.18c.4-.13.72.18.72.71a1.28,1.28,0,0,1-.71,1.18C88.91,56.47,88.59,56.15,88.59,55.63Zm0-2.24a1.23,1.23,0,0,1,.71-1.18c.39-.13.71.18.71.71a1.24,1.24,0,0,1-.71,1.18C88.91,54.23,88.59,53.91,88.59,53.39Zm0-2.24A1.27,1.27,0,0,1,89.29,50c.4-.13.72.18.72.71a1.26,1.26,0,0,1-.71,1.17C88.9,52,88.58,51.67,88.58,51.15Zm0-2.25a1.26,1.26,0,0,1,.71-1.17c.39-.13.71.18.72.7a1.26,1.26,0,0,1-.72,1.18C88.9,49.74,88.58,49.43,88.58,48.9Zm0-2.24a1.27,1.27,0,0,1,.72-1.18c.39-.12.71.19.71.71a1.27,1.27,0,0,1-.71,1.18C88.9,47.5,88.57,47.19,88.57,46.66Zm0-2.24a1.28,1.28,0,0,1,.71-1.18c.4-.13.72.19.72.71a1.27,1.27,0,0,1-.71,1.18C88.89,45.26,88.57,45,88.57,44.42Zm0-2.24A1.24,1.24,0,0,1,89.28,41c.39-.13.71.19.71.71a1.25,1.25,0,0,1-.71,1.18C88.89,43,88.57,42.71,88.57,42.18Zm0-2.24a1.28,1.28,0,0,1,.71-1.18c.4-.13.72.19.72.71a1.28,1.28,0,0,1-.71,1.18C88.88,40.78,88.56,40.46,88.56,39.94Zm0-2.24a1.28,1.28,0,0,1,.71-1.18c.39-.13.71.19.72.71a1.27,1.27,0,0,1-.72,1.18C88.88,38.54,88.56,38.22,88.56,37.7Zm0-2.24a1.27,1.27,0,0,1,.72-1.18c.39-.13.71.19.71.71a1.28,1.28,0,0,1-.71,1.18C88.87,36.3,88.55,36,88.55,35.46Zm0-2.24A1.28,1.28,0,0,1,89.26,32c.4-.13.72.19.72.71a1.27,1.27,0,0,1-.72,1.18C88.87,34.06,88.55,33.74,88.55,33.22Zm0-2.24a1.27,1.27,0,0,1,.72-1.18c.39-.13.71.19.71.71a1.26,1.26,0,0,1-.71,1.18C88.87,31.82,88.55,31.5,88.54,31Zm0-2.24a1.28,1.28,0,0,1,.71-1.18c.4-.13.72.19.72.71a1.28,1.28,0,0,1-.71,1.18C88.86,29.58,88.54,29.26,88.54,28.74Zm0-2.24a1.26,1.26,0,0,1,.71-1.18c.39-.13.71.19.71.71a1.24,1.24,0,0,1-.71,1.18C88.86,27.34,88.54,27,88.54,26.5Zm0-2.24a1.27,1.27,0,0,1,.72-1.18c.39-.13.71.19.71.71A1.28,1.28,0,0,1,89.25,25C88.85,25.1,88.53,24.78,88.53,24.26Zm0-2.24a1.28,1.28,0,0,1,.71-1.18c.4-.13.72.19.72.71a1.27,1.27,0,0,1-.72,1.18C88.85,22.86,88.53,22.54,88.53,22Zm0-2.24a1.27,1.27,0,0,1,.72-1.18c.39-.13.71.19.71.71a1.28,1.28,0,0,1-.71,1.18C88.85,20.62,88.53,20.3,88.52,19.78ZM86.9,56.18A1.26,1.26,0,0,1,87.61,55c.39-.13.71.19.71.71a1.23,1.23,0,0,1-.71,1.18C87.22,57,86.9,56.71,86.9,56.18Zm0-2.24a1.28,1.28,0,0,1,.71-1.18c.4-.13.72.19.72.71a1.27,1.27,0,0,1-.71,1.18C87.21,54.78,86.89,54.47,86.89,53.94Zm0-2.24a1.28,1.28,0,0,1,.71-1.18c.39-.13.72.19.72.71a1.27,1.27,0,0,1-.72,1.18C87.21,52.54,86.89,52.22,86.89,51.7Zm0-2.24a1.27,1.27,0,0,1,.72-1.18c.39-.13.71.19.71.71a1.28,1.28,0,0,1-.71,1.18C87.21,50.3,86.88,50,86.88,49.46Zm0-2.24A1.28,1.28,0,0,1,87.59,46c.4-.13.72.19.72.71a1.28,1.28,0,0,1-.71,1.18C87.2,48.06,86.88,47.74,86.88,47.22Zm0-2.24a1.24,1.24,0,0,1,.71-1.18c.39-.13.71.19.71.71a1.26,1.26,0,0,1-.71,1.18C87.2,45.82,86.88,45.5,86.88,45Zm0-2.24a1.28,1.28,0,0,1,.71-1.18c.4-.13.72.19.72.71a1.28,1.28,0,0,1-.71,1.18C87.19,43.58,86.87,43.26,86.87,42.74Zm0-2.24a1.28,1.28,0,0,1,.71-1.18c.39-.13.71.19.72.71a1.27,1.27,0,0,1-.72,1.18C87.19,41.34,86.87,41,86.87,40.5Zm0-2.24a1.27,1.27,0,0,1,.72-1.18c.39-.13.71.19.71.71A1.28,1.28,0,0,1,87.58,39C87.18,39.1,86.86,38.78,86.86,38.26Zm0-2.24a1.28,1.28,0,0,1,.71-1.18c.4-.13.72.19.72.71a1.28,1.28,0,0,1-.71,1.18C87.18,36.86,86.86,36.54,86.86,36Zm0-2.24a1.24,1.24,0,0,1,.71-1.18c.39-.13.71.19.71.71a1.26,1.26,0,0,1-.71,1.18C87.18,34.62,86.86,34.3,86.86,33.78Zm0-2.24a1.28,1.28,0,0,1,.71-1.18c.4-.13.72.19.72.71a1.28,1.28,0,0,1-.71,1.18C87.17,32.38,86.85,32.06,86.85,31.54Zm0-2.24a1.26,1.26,0,0,1,.71-1.18c.39-.13.71.19.72.71A1.27,1.27,0,0,1,87.56,30C87.17,30.14,86.85,29.82,86.85,29.3Zm0-2.24a1.27,1.27,0,0,1,.72-1.18c.39-.13.71.19.71.71a1.28,1.28,0,0,1-.71,1.18C87.16,27.9,86.84,27.58,86.84,27.06Zm0-2.24a1.28,1.28,0,0,1,.71-1.18c.4-.13.72.19.72.71a1.27,1.27,0,0,1-.72,1.18C87.16,25.66,86.84,25.34,86.84,24.82Zm0-2.24a1.27,1.27,0,0,1,.72-1.18c.39-.13.71.19.71.71a1.28,1.28,0,0,1-.71,1.18C87.16,23.42,86.84,23.1,86.83,22.58Zm0-2.24a1.27,1.27,0,0,1,.71-1.18c.4-.13.72.18.72.71a1.28,1.28,0,0,1-.71,1.18C87.15,21.18,86.83,20.86,86.83,20.34ZM85.2,56.74a1.28,1.28,0,0,1,.71-1.18c.4-.13.72.19.72.71a1.28,1.28,0,0,1-.71,1.18C85.52,57.58,85.2,57.26,85.2,56.74Zm0-2.24a1.28,1.28,0,0,1,.71-1.18c.39-.13.72.19.72.71a1.27,1.27,0,0,1-.72,1.18C85.52,55.34,85.2,55,85.2,54.5Zm0-2.24a1.27,1.27,0,0,1,.72-1.18c.39-.13.71.19.71.71A1.28,1.28,0,0,1,85.91,53C85.52,53.1,85.19,52.78,85.19,52.26Zm0-2.24a1.28,1.28,0,0,1,.71-1.18c.4-.13.72.19.72.71a1.28,1.28,0,0,1-.71,1.18C85.51,50.86,85.19,50.54,85.19,50Zm0-2.24a1.24,1.24,0,0,1,.71-1.18c.39-.13.71.19.71.71a1.26,1.26,0,0,1-.71,1.18C85.51,48.62,85.19,48.3,85.19,47.78Zm0-2.24a1.28,1.28,0,0,1,.71-1.18c.4-.13.72.19.72.71a1.28,1.28,0,0,1-.71,1.18C85.5,46.38,85.18,46.06,85.18,45.54Zm0-2.24a1.28,1.28,0,0,1,.71-1.18c.39-.13.71.19.72.71A1.27,1.27,0,0,1,85.89,44C85.5,44.14,85.18,43.82,85.18,43.3Zm0-2.24a1.27,1.27,0,0,1,.72-1.18c.39-.13.71.19.71.71a1.28,1.28,0,0,1-.71,1.18C85.49,41.9,85.17,41.58,85.17,41.06Zm0-2.24a1.28,1.28,0,0,1,.71-1.18c.4-.13.72.19.72.71a1.28,1.28,0,0,1-.71,1.18C85.49,39.66,85.17,39.34,85.17,38.82Zm0-2.24a1.24,1.24,0,0,1,.71-1.18c.39-.13.71.19.71.71a1.26,1.26,0,0,1-.71,1.18C85.49,37.42,85.17,37.1,85.17,36.58Zm0-2.24a1.28,1.28,0,0,1,.71-1.18c.4-.13.72.19.72.71a1.28,1.28,0,0,1-.71,1.18C85.48,35.18,85.16,34.86,85.16,34.34Zm0-2.24a1.25,1.25,0,0,1,.71-1.18c.39-.13.71.18.72.71a1.27,1.27,0,0,1-.72,1.18C85.48,32.94,85.16,32.62,85.16,32.1Zm0-2.24a1.26,1.26,0,0,1,.72-1.18c.39-.13.71.18.71.71a1.28,1.28,0,0,1-.71,1.18C85.47,30.7,85.15,30.38,85.15,29.86Zm0-2.24a1.27,1.27,0,0,1,.71-1.18c.4-.13.72.18.72.71a1.25,1.25,0,0,1-.72,1.17C85.47,28.45,85.15,28.14,85.15,27.62Zm0-2.24a1.26,1.26,0,0,1,.72-1.18c.39-.13.71.18.71.7a1.25,1.25,0,0,1-.71,1.18C85.47,26.21,85.15,25.9,85.14,25.38Zm0-2.25A1.28,1.28,0,0,1,85.85,22c.4-.12.72.19.72.71a1.27,1.27,0,0,1-.71,1.18C85.46,24,85.14,23.66,85.14,23.13Zm0-2.24a1.26,1.26,0,0,1,.71-1.18c.39-.13.71.19.71.71a1.23,1.23,0,0,1-.71,1.18C85.46,21.73,85.14,21.42,85.14,20.89ZM83.51,57.3a1.28,1.28,0,0,1,.71-1.18c.39-.13.72.19.72.71A1.27,1.27,0,0,1,84.22,58C83.83,58.14,83.51,57.82,83.51,57.3Zm0-2.24a1.27,1.27,0,0,1,.72-1.18c.39-.13.71.19.71.71a1.28,1.28,0,0,1-.71,1.18C83.83,55.9,83.5,55.58,83.5,55.06Zm0-2.24a1.28,1.28,0,0,1,.71-1.18c.4-.13.72.19.72.71a1.28,1.28,0,0,1-.71,1.18C83.82,53.66,83.5,53.34,83.5,52.82Zm0-2.24a1.24,1.24,0,0,1,.71-1.18c.39-.13.71.19.71.71a1.26,1.26,0,0,1-.71,1.18C83.82,51.42,83.5,51.1,83.5,50.58Zm0-2.24a1.28,1.28,0,0,1,.71-1.18c.4-.13.72.19.72.71a1.28,1.28,0,0,1-.71,1.18C83.81,49.18,83.49,48.86,83.49,48.34Zm0-2.24a1.28,1.28,0,0,1,.71-1.18c.39-.13.71.18.72.71a1.27,1.27,0,0,1-.72,1.18C83.81,46.94,83.49,46.62,83.49,46.1Zm0-2.24a1.26,1.26,0,0,1,.72-1.18c.39-.13.71.18.71.71a1.28,1.28,0,0,1-.71,1.18C83.8,44.7,83.48,44.38,83.48,43.86Zm0-2.24a1.27,1.27,0,0,1,.71-1.18c.4-.13.72.18.72.71a1.28,1.28,0,0,1-.71,1.18C83.8,42.46,83.48,42.14,83.48,41.62Zm0-2.24a1.23,1.23,0,0,1,.71-1.18c.39-.13.71.18.71.71a1.23,1.23,0,0,1-.71,1.17C83.8,40.21,83.48,39.9,83.48,39.38Zm0-2.25A1.26,1.26,0,0,1,84.18,36c.4-.13.72.18.72.7a1.27,1.27,0,0,1-.71,1.18C83.79,38,83.47,37.66,83.47,37.13Zm0-2.24a1.28,1.28,0,0,1,.71-1.18c.39-.12.71.19.72.71a1.26,1.26,0,0,1-.72,1.18C83.79,35.73,83.47,35.42,83.47,34.89Zm0-2.24a1.27,1.27,0,0,1,.72-1.18c.39-.13.71.19.71.71a1.27,1.27,0,0,1-.71,1.18C83.78,33.49,83.46,33.18,83.46,32.65Zm0-2.24a1.28,1.28,0,0,1,.71-1.18c.4-.13.72.19.72.71a1.26,1.26,0,0,1-.72,1.18C83.78,31.25,83.46,30.94,83.46,30.41Zm0-2.24A1.27,1.27,0,0,1,84.17,27c.39-.13.71.19.71.71a1.26,1.26,0,0,1-.71,1.18C83.78,29,83.46,28.69,83.45,28.17Zm0-2.24a1.28,1.28,0,0,1,.71-1.18c.4-.13.72.19.72.71a1.28,1.28,0,0,1-.71,1.18C83.77,26.77,83.45,26.45,83.45,25.93Zm0-2.24a1.26,1.26,0,0,1,.71-1.18c.39-.13.71.19.71.71a1.24,1.24,0,0,1-.71,1.18C83.77,24.53,83.45,24.21,83.45,23.69Zm0-2.24a1.28,1.28,0,0,1,.71-1.18c.4-.13.72.19.72.71a1.28,1.28,0,0,1-.71,1.18C83.76,22.29,83.44,22,83.44,21.45Z"/><path class="cls-1" d="M81.88,84.74H73.8A13.11,13.11,0,0,1,60.67,71.67L60.56,15a12.53,12.53,0,0,1,3.83-9,15.06,15.06,0,0,1,9.25-4.08c1.11-.09,3.93-1,3.93-1.91h.23c0,.88,2.83,1.81,3.94,1.9a15,15,0,0,1,9.25,4,12.51,12.51,0,0,1,3.87,9L95,71.61A13.11,13.11,0,0,1,81.88,84.74ZM77.68.37c-.56,1-3.14,1.69-4,1.77-7.46.63-12.88,6-12.86,12.9l.1,56.63A12.9,12.9,0,0,0,73.8,84.53l8.08,0a12.9,12.9,0,0,0,12.86-12.9L94.64,15c0-6.85-5.45-12.26-12.92-12.86C80.83,2.05,78.25,1.33,77.68.37Z"/><path class="cls-1" d="M91,5.94a15,15,0,0,0-9.25-4C80.63,1.81,77.8.88,77.8,0h-.23a.68.68,0,0,1,0,.14.68.68,0,0,1,0-.14.74.74,0,0,1-.23.5,8,8,0,0,1-3.66,1.41A15.06,15.06,0,0,0,64.39,6a7.27,7.27,0,0,0-.54.57,12.41,12.41,0,0,0-2.44,3.81h0A12.71,12.71,0,0,0,60.56,15l.1,56.35.23,0L60.79,15a12.24,12.24,0,0,1,.89-4.66c5.08.27,10.45.42,16,.41s10.92-.17,16-.46a12.75,12.75,0,0,0-4.32-5.48A12.41,12.41,0,0,1,94.64,15l.1,55.77.22,0L94.86,15A12.51,12.51,0,0,0,91,5.94ZM77.67.39v0a1.61,1.61,0,0,0,.24.29A2.05,2.05,0,0,1,77.67.39ZM89.05,4.62l.29.21Z"/><path class="cls-1" d="M94.74,70.75v.86a12.9,12.9,0,0,1-12.86,12.9l-8.08,0A12.9,12.9,0,0,1,60.89,71.67v-.26l-.23,0v.28A13.11,13.11,0,0,0,73.8,84.75h8.08A13.11,13.11,0,0,0,95,71.61v-.89Z"/><line class="cls-1" x1="78.72" y1="58.36" x2="78.86" y2="71.97"/><line class="cls-1" x1="76.96" y1="71.98" x2="76.82" y2="58.36"/><path class="cls-1" d="M83.7,71.79V67.4a4,4,0,0,1,1.76-3.09L86,64a4.63,4.63,0,0,0,2.07-3.67l0-3.07.87-.28a.81.81,0,0,1,.38-.27.45.45,0,0,1,.38,0l.71-.24-.07-39-7.22,2.38.08,39,.66-.22.05-.05,0,1.74a3.94,3.94,0,0,1-1.73,3.08l-.58.34a4.66,4.66,0,0,0-2.09,3.67V72h.34l-.66,0-.14-13.25a.92.92,0,0,1,.39.14h1.23a1,1,0,0,1,1,0h.87l-.07-39L73,19.9l.07,39H74a.89.89,0,0,1,.5-.15,1,1,0,0,1,.51.14H76.2a1.39,1.39,0,0,1,.28-.12L76.62,72h.68l-.14-13.14,0,0h1.18L78.53,72h.33a166,166,0,0,1-18-.56v.26a12.9,12.9,0,0,0,7.35,11.61l0,7.71a.56.56,0,0,0,.56.56.57.57,0,0,0,.56-.57l0-7.23a12.71,12.71,0,0,0,3.81.76l0,6.47a.56.56,0,0,0,.56.56.57.57,0,0,0,.56-.57l0-6.44h3.48V91a.56.56,0,0,0,1.12,0V84.52h3.25V91a.56.56,0,1,0,1.12,0V84.44a13.17,13.17,0,0,0,3-.71V91a.56.56,0,1,0,1.12,0V83.26a12.9,12.9,0,0,0,7.34-11.65v-.86C91,71.26,87.26,71.59,83.7,71.79ZM81.12,20.62a.95.95,0,0,1,0,1.89.95.95,0,1,1,0-1.89Zm0,2.24a.95.95,0,1,1-.94.94A.95.95,0,0,1,81.12,22.86Zm0,2.24a.95.95,0,1,1-.94.94A.94.94,0,0,1,81.12,25.1Zm0,2.24a.95.95,0,1,1-.94.95A.94.94,0,0,1,81.13,27.34Zm0,2.24a.95.95,0,1,1-.94,1A.95.95,0,0,1,81.13,29.58Zm0,2.24a.95.95,0,1,1-1,1A.94.94,0,0,1,81.14,31.82Zm0,2.24a.95.95,0,1,1-.94.95A.95.95,0,0,1,81.14,34.06Zm0,2.24a.95.95,0,1,1-.94,1A.94.94,0,0,1,81.14,36.3Zm0,2.24a.95.95,0,1,1-.94,1A.94.94,0,0,1,81.15,38.54Zm0,2.24a1,1,0,0,1,.95.95.95.95,0,1,1-.95-.95Zm0,2.24a.95.95,0,0,1,0,1.89.95.95,0,1,1,0-1.89Zm0,2.24a.95.95,0,1,1,0,1.89.95.95,0,0,1,0-1.89Zm0,2.24a.95.95,0,1,1-.94,1A.94.94,0,0,1,81.16,47.5Zm0,2.24a1,1,0,0,1,1,.95.95.95,0,1,1-1-.95Zm0,2.24a1,1,0,0,1,1,1,.95.95,0,0,1-1.89,0A1,1,0,0,1,81.17,52Zm0,2.24a.95.95,0,1,1-1,1A1,1,0,0,1,81.18,54.22Zm0,2.25a.94.94,0,1,1-.94.94A.94.94,0,0,1,81.18,56.47Zm-2.3-35.85a.95.95,0,1,1-.95.95A1,1,0,0,1,78.88,20.62Zm0,2.24a.95.95,0,1,1,0,1.89.95.95,0,0,1,0-1.89Zm0,2.24a.95.95,0,1,1-.94.95A.94.94,0,0,1,78.88,25.1Zm0,2.24a.95.95,0,0,1,0,1.89.95.95,0,1,1,0-1.89Zm0,2.24a1,1,0,0,1,1,1,.95.95,0,1,1-1-1Zm0,2.24a.95.95,0,1,1-1,1A.95.95,0,0,1,78.9,31.82Zm0,2.25A.94.94,0,1,1,78,35,.94.94,0,0,1,78.9,34.07Zm0,2.24a.94.94,0,1,1-.94.94A.93.93,0,0,1,78.9,36.31Zm0,2.24a.94.94,0,1,1-.94.94A.93.93,0,0,1,78.91,38.55Zm0,2.24a.95.95,0,1,1-.94.94A.95.95,0,0,1,78.91,40.79Zm0,2.24a.94.94,0,0,1,.94.94A.95.95,0,1,1,78,44,.94.94,0,0,1,78.92,43Zm0,2.24a.95.95,0,1,1-.94.94A.95.95,0,0,1,78.92,45.27Zm0,2.24a.95.95,0,1,1-.94.94A.94.94,0,0,1,78.92,47.51Zm0,2.24a.95.95,0,1,1-.94.94A.94.94,0,0,1,78.93,49.75Zm0,2.24a.95.95,0,1,1-.94.94A.95.95,0,0,1,78.93,52Zm0,2.24a.95.95,0,0,1,0,1.89.95.95,0,1,1,0-1.89Zm-4.48,4.14a.95.95,0,1,1,1-.95A.94.94,0,0,1,74.46,58.37Zm0-2.24a.95.95,0,1,1,0-1.89.95.95,0,0,1,0,1.89Zm0-2.24a1,1,0,0,1-.95-1,.95.95,0,0,1,1.89,0A1,1,0,0,1,74.46,53.89Zm0-2.24a1,1,0,0,1-1-.95.95.95,0,1,1,1,.95Zm0-2.25a.94.94,0,1,1,.94-.94A.94.94,0,0,1,74.45,49.4Zm0-2.24a.94.94,0,0,1,0-1.88.94.94,0,1,1,0,1.88Zm0-2.24a.95.95,0,1,1,.94-.94A.95.95,0,0,1,74.44,44.92Zm0-2.24a.94.94,0,0,1-.94-.94.95.95,0,1,1,1.89,0A.94.94,0,0,1,74.43,42.68Zm0-2.24a.95.95,0,1,1,.94-.94A.94.94,0,0,1,74.43,40.44Zm0-2.24a.95.95,0,1,1,.94-.94A.94.94,0,0,1,74.43,38.2Zm0-2.24a.95.95,0,0,1,0-1.89.95.95,0,1,1,0,1.89Zm0-2.24a.95.95,0,1,1,.94-.94A.95.95,0,0,1,74.42,33.72Zm0-2.24a.95.95,0,1,1,1-.95A.94.94,0,0,1,74.41,31.48Zm0-2.24a.95.95,0,1,1,.94-.95A.95.95,0,0,1,74.41,29.24Zm0-2.24a.95.95,0,1,1,.94-.95A.94.94,0,0,1,74.41,27Zm0-2.24a.95.95,0,1,1,.94-1A.94.94,0,0,1,74.4,24.76Zm0-2.24a.95.95,0,1,1,.94-.95A.95.95,0,0,1,74.4,22.52Zm2.3,35.84a.95.95,0,0,1,0-1.89.95.95,0,1,1,0,1.89Zm0-2.24a.95.95,0,1,1,.94-.94A.95.95,0,0,1,76.7,56.12Zm0-2.24a.95.95,0,1,1,.94-.94A.94.94,0,0,1,76.7,53.88Zm0-2.24a.95.95,0,1,1,.94-1A.94.94,0,0,1,76.69,51.64Zm0-2.24a.95.95,0,1,1,.94-.95A.95.95,0,0,1,76.69,49.4Zm0-2.24a.95.95,0,1,1,.95-.95A.94.94,0,0,1,76.68,47.16Zm0-2.24a.95.95,0,1,1,.94-1A.95.95,0,0,1,76.68,44.92Zm0-2.24a.95.95,0,1,1,.94-1A.94.94,0,0,1,76.68,42.68Zm0-2.24a.95.95,0,1,1,.94-.95A.94.94,0,0,1,76.67,40.44Zm0-2.24a.95.95,0,1,1,.94-1A.95.95,0,0,1,76.67,38.2Zm0-2.24a.95.95,0,0,1,0-1.89.95.95,0,1,1,0,1.89Zm0-2.24a.95.95,0,1,1,0-1.89.95.95,0,0,1,0,1.89Zm0-2.24a.95.95,0,1,1,.95-.95A.94.94,0,0,1,76.65,31.48Zm0-2.24a.95.95,0,1,1,0-1.89.95.95,0,0,1,0,1.89Zm0-2.24a.95.95,0,1,1,.94-.95A.94.94,0,0,1,76.65,27Zm0-2.24a.95.95,0,1,1,1-1A1,1,0,0,1,76.64,24.76Zm0-2.24a1,1,0,0,1-1-.95.95.95,0,0,1,1.89,0A1,1,0,0,1,76.64,22.52Zm2.29,35.84a.95.95,0,1,1,1-1,.94.94,0,0,1-1,1ZM89.24,18.6c.39-.13.71.19.71.71a1.28,1.28,0,0,1-.71,1.18c-.39.13-.71-.19-.72-.71A1.27,1.27,0,0,1,89.24,18.6Zm0,2.24c.4-.13.72.19.72.71a1.27,1.27,0,0,1-.72,1.18c-.39.13-.71-.19-.71-.71A1.28,1.28,0,0,1,89.24,20.84Zm0,2.24c.39-.13.71.19.71.71A1.28,1.28,0,0,1,89.25,25c-.4.13-.72-.19-.72-.71A1.27,1.27,0,0,1,89.25,23.08Zm0,2.24c.39-.13.71.19.71.71a1.24,1.24,0,0,1-.71,1.18c-.39.13-.71-.19-.71-.71A1.26,1.26,0,0,1,89.25,25.32Zm0,2.24c.4-.13.72.19.72.71a1.28,1.28,0,0,1-.71,1.18c-.4.13-.72-.19-.72-.71A1.28,1.28,0,0,1,89.25,27.56Zm0,2.24c.39-.13.71.19.71.71a1.26,1.26,0,0,1-.71,1.18c-.39.13-.71-.19-.72-.71A1.27,1.27,0,0,1,89.26,29.8Zm0,2.24c.4-.13.72.19.72.71a1.27,1.27,0,0,1-.72,1.18c-.39.13-.71-.19-.71-.71A1.28,1.28,0,0,1,89.26,32Zm0,2.24c.39-.13.71.19.71.71a1.28,1.28,0,0,1-.71,1.18c-.4.13-.72-.19-.72-.71A1.27,1.27,0,0,1,89.27,34.28Zm0,2.24c.39-.13.71.19.72.71a1.27,1.27,0,0,1-.72,1.18c-.39.13-.71-.19-.71-.71A1.28,1.28,0,0,1,89.27,36.52Zm0,2.24c.4-.13.72.19.72.71a1.28,1.28,0,0,1-.71,1.18c-.4.13-.72-.19-.72-.71A1.28,1.28,0,0,1,89.27,38.76Zm0,2.24c.39-.13.71.19.71.71a1.25,1.25,0,0,1-.71,1.18c-.39.13-.71-.18-.71-.71A1.24,1.24,0,0,1,89.28,41Zm0,2.24c.4-.13.72.19.72.71a1.27,1.27,0,0,1-.71,1.18c-.4.13-.72-.18-.72-.71A1.28,1.28,0,0,1,89.28,43.24Zm0,2.24c.39-.12.71.19.71.71a1.27,1.27,0,0,1-.71,1.18c-.39.13-.72-.18-.72-.71A1.27,1.27,0,0,1,89.29,45.48Zm0,2.25c.39-.13.71.18.72.7a1.26,1.26,0,0,1-.72,1.18c-.39.13-.71-.18-.71-.71A1.26,1.26,0,0,1,89.29,47.73Zm0,2.24c.4-.13.72.18.72.71a1.26,1.26,0,0,1-.71,1.17c-.4.13-.72-.18-.72-.7A1.27,1.27,0,0,1,89.29,50Zm0,2.24c.39-.13.71.18.71.71a1.24,1.24,0,0,1-.71,1.18c-.39.13-.71-.19-.71-.71A1.23,1.23,0,0,1,89.3,52.21Zm0,2.24c.4-.13.72.18.72.71a1.28,1.28,0,0,1-.71,1.18c-.4.13-.72-.19-.72-.71A1.27,1.27,0,0,1,89.3,54.45ZM87.54,19.16c.4-.13.72.18.72.71a1.28,1.28,0,0,1-.71,1.18c-.4.13-.72-.19-.72-.71A1.27,1.27,0,0,1,87.54,19.16Zm0,2.24c.39-.13.71.19.71.71a1.28,1.28,0,0,1-.71,1.18c-.39.13-.71-.19-.72-.71A1.27,1.27,0,0,1,87.55,21.4Zm0,2.24c.4-.13.72.19.72.71a1.27,1.27,0,0,1-.72,1.18c-.39.13-.71-.19-.71-.71A1.28,1.28,0,0,1,87.55,23.64Zm0,2.24c.39-.13.71.19.71.71a1.28,1.28,0,0,1-.71,1.18c-.4.13-.72-.19-.72-.71A1.27,1.27,0,0,1,87.56,25.88Zm0,2.24c.39-.13.71.19.72.71A1.27,1.27,0,0,1,87.56,30c-.39.13-.71-.19-.71-.71A1.26,1.26,0,0,1,87.56,28.12Zm0,2.24c.4-.13.72.19.72.71a1.28,1.28,0,0,1-.71,1.18c-.4.13-.72-.19-.72-.71A1.28,1.28,0,0,1,87.56,30.36Zm0,2.24c.39-.13.71.19.71.71a1.26,1.26,0,0,1-.71,1.18c-.39.13-.71-.19-.71-.71A1.24,1.24,0,0,1,87.57,32.6Zm0,2.24c.4-.13.72.19.72.71a1.28,1.28,0,0,1-.71,1.18c-.4.13-.72-.19-.72-.71A1.28,1.28,0,0,1,87.57,34.84Zm0,2.24c.39-.13.71.19.71.71A1.28,1.28,0,0,1,87.58,39c-.4.13-.72-.19-.72-.71A1.27,1.27,0,0,1,87.58,37.08Zm0,2.24c.39-.13.71.19.72.71a1.27,1.27,0,0,1-.72,1.18c-.39.13-.71-.19-.71-.71A1.28,1.28,0,0,1,87.58,39.32Zm0,2.24c.4-.13.72.19.72.71a1.28,1.28,0,0,1-.71,1.18c-.4.13-.72-.19-.72-.71A1.28,1.28,0,0,1,87.58,41.56Zm0,2.24c.39-.13.71.19.71.71a1.26,1.26,0,0,1-.71,1.18c-.39.13-.71-.19-.71-.71A1.24,1.24,0,0,1,87.59,43.8Zm0,2.24c.4-.13.72.19.72.71a1.28,1.28,0,0,1-.71,1.18c-.4.13-.72-.19-.72-.71A1.28,1.28,0,0,1,87.59,46Zm0,2.24c.39-.13.71.19.71.71a1.28,1.28,0,0,1-.71,1.18c-.39.13-.72-.19-.72-.71A1.27,1.27,0,0,1,87.6,48.28Zm0,2.24c.39-.13.72.19.72.71a1.27,1.27,0,0,1-.72,1.18c-.39.13-.71-.19-.71-.71A1.28,1.28,0,0,1,87.6,50.52Zm0,2.24c.4-.13.72.19.72.71a1.27,1.27,0,0,1-.71,1.18c-.4.13-.72-.18-.72-.71A1.28,1.28,0,0,1,87.6,52.76Zm0,2.24c.39-.13.71.19.71.71a1.34,1.34,0,0,1-.49,1.06h-.44v.15c-.29,0-.49-.32-.49-.74A1.26,1.26,0,0,1,87.61,55ZM85.85,19.71c.39-.13.71.19.71.71a1.23,1.23,0,0,1-.71,1.18c-.39.13-.71-.18-.71-.71A1.26,1.26,0,0,1,85.85,19.71Zm0,2.24c.4-.12.72.19.72.71a1.27,1.27,0,0,1-.71,1.18c-.4.13-.72-.18-.72-.71A1.28,1.28,0,0,1,85.85,22Zm0,2.25c.39-.13.71.18.71.7a1.25,1.25,0,0,1-.71,1.18c-.39.13-.71-.18-.72-.7A1.26,1.26,0,0,1,85.86,24.2Zm0,2.24c.4-.13.72.18.72.71a1.25,1.25,0,0,1-.72,1.17c-.39.13-.71-.18-.71-.7A1.27,1.27,0,0,1,85.86,26.44Zm0,2.24c.39-.13.71.18.71.71a1.28,1.28,0,0,1-.71,1.18c-.4.13-.72-.19-.72-.71A1.26,1.26,0,0,1,85.87,28.68Zm0,2.24c.39-.13.71.18.72.71a1.27,1.27,0,0,1-.72,1.18c-.39.13-.71-.19-.71-.71A1.25,1.25,0,0,1,85.87,30.92Zm0,2.24c.4-.13.72.19.72.71a1.28,1.28,0,0,1-.71,1.18c-.4.13-.72-.19-.72-.71A1.28,1.28,0,0,1,85.87,33.16Zm0,2.24c.39-.13.71.19.71.71a1.26,1.26,0,0,1-.71,1.18c-.39.13-.71-.19-.71-.71A1.24,1.24,0,0,1,85.88,35.4Zm0,2.24c.4-.13.72.19.72.71a1.28,1.28,0,0,1-.71,1.18c-.4.13-.72-.19-.72-.71A1.28,1.28,0,0,1,85.88,37.64Zm0,2.24c.39-.13.71.19.71.71a1.28,1.28,0,0,1-.71,1.18c-.4.13-.72-.19-.72-.71A1.27,1.27,0,0,1,85.89,39.88Zm0,2.24c.39-.13.71.19.72.71A1.27,1.27,0,0,1,85.89,44c-.39.13-.71-.19-.71-.71A1.28,1.28,0,0,1,85.89,42.12Zm0,2.24c.4-.13.72.19.72.71a1.28,1.28,0,0,1-.71,1.18c-.4.13-.72-.19-.72-.71A1.28,1.28,0,0,1,85.89,44.36Zm0,2.24c.39-.13.71.19.71.71a1.26,1.26,0,0,1-.71,1.18c-.39.13-.71-.19-.71-.71A1.24,1.24,0,0,1,85.9,46.6Zm0,2.24c.4-.13.72.19.72.71a1.28,1.28,0,0,1-.71,1.18c-.4.13-.72-.19-.72-.71A1.28,1.28,0,0,1,85.9,48.84Zm0,2.24c.39-.13.71.19.71.71A1.28,1.28,0,0,1,85.91,53c-.39.13-.72-.19-.72-.71A1.27,1.27,0,0,1,85.91,51.08Zm0,2.24c.39-.13.72.19.72.71a1.27,1.27,0,0,1-.72,1.18c-.39.13-.71-.19-.71-.71A1.28,1.28,0,0,1,85.91,53.32Zm0,2.24c.4-.13.72.19.72.71a1.28,1.28,0,0,1-.71,1.18c-.4.13-.72-.19-.72-.71A1.28,1.28,0,0,1,85.91,55.56ZM84.15,20.27c.4-.13.72.19.72.71a1.28,1.28,0,0,1-.71,1.18c-.4.13-.72-.19-.72-.71A1.28,1.28,0,0,1,84.15,20.27Zm0,2.24c.39-.13.71.19.71.71a1.24,1.24,0,0,1-.71,1.18c-.39.13-.71-.19-.71-.71A1.26,1.26,0,0,1,84.16,22.51Zm0,2.24c.4-.13.72.19.72.71a1.28,1.28,0,0,1-.71,1.18c-.4.13-.72-.19-.72-.71A1.28,1.28,0,0,1,84.16,24.75Zm0,2.24c.39-.13.71.19.71.71a1.26,1.26,0,0,1-.71,1.18c-.39.13-.71-.19-.72-.71A1.27,1.27,0,0,1,84.17,27Zm0,2.24c.4-.13.72.19.72.71a1.26,1.26,0,0,1-.72,1.18c-.39.13-.71-.18-.71-.71A1.28,1.28,0,0,1,84.17,29.23Zm0,2.24c.39-.13.71.19.71.71a1.27,1.27,0,0,1-.71,1.18c-.4.13-.72-.18-.72-.71A1.27,1.27,0,0,1,84.18,31.47Zm0,2.24c.39-.12.71.19.72.71a1.26,1.26,0,0,1-.72,1.18c-.39.13-.71-.18-.71-.71A1.28,1.28,0,0,1,84.18,33.71Zm0,2.25c.4-.13.72.18.72.7a1.27,1.27,0,0,1-.71,1.18c-.4.13-.72-.18-.72-.71A1.26,1.26,0,0,1,84.18,36Zm0,2.24c.39-.13.71.18.71.71a1.23,1.23,0,0,1-.71,1.17c-.39.13-.71-.18-.71-.7A1.23,1.23,0,0,1,84.19,38.2Zm0,2.24c.4-.13.72.18.72.71a1.28,1.28,0,0,1-.71,1.18c-.4.13-.72-.19-.72-.71A1.27,1.27,0,0,1,84.19,40.44Zm0,2.24c.39-.13.71.18.71.71a1.28,1.28,0,0,1-.71,1.18c-.4.13-.72-.19-.72-.71A1.26,1.26,0,0,1,84.2,42.68Zm0,2.24c.39-.13.71.18.72.71a1.27,1.27,0,0,1-.72,1.18c-.39.13-.71-.19-.71-.71A1.28,1.28,0,0,1,84.2,44.92Zm0,2.24c.4-.13.72.19.72.71a1.28,1.28,0,0,1-.71,1.18c-.4.13-.72-.19-.72-.71A1.28,1.28,0,0,1,84.2,47.16Zm0,2.24c.39-.13.71.19.71.71a1.26,1.26,0,0,1-.71,1.18c-.39.13-.71-.19-.71-.71A1.24,1.24,0,0,1,84.21,49.4Zm0,2.24c.4-.13.72.19.72.71a1.28,1.28,0,0,1-.71,1.18c-.4.13-.72-.19-.72-.71A1.28,1.28,0,0,1,84.21,51.64Zm0,2.24c.39-.13.71.19.71.71a1.28,1.28,0,0,1-.71,1.18c-.39.13-.72-.19-.72-.71A1.27,1.27,0,0,1,84.22,53.88ZM83.91,58a.68.68,0,0,1-.4-.71,1.28,1.28,0,0,1,.71-1.18c.39-.13.72.19.72.71A1.27,1.27,0,0,1,84.22,58ZM83,67.4v4.42l-2.83.12V67.41A4,4,0,0,1,82,64.32l.58-.34a4.61,4.61,0,0,0,2.06-3.67l0-1.94h0l.94-.31a1,1,0,0,1,.38-.27.54.54,0,0,1,.38,0l.93-.3c0-.06.11-.11.16-.16l0,3a4,4,0,0,1-1.74,3.08l-.58.33A4.71,4.71,0,0,0,83,67.4Z"/><path class="cls-1" d="M66.24,56.73a.81.81,0,0,1,.38.27l.93.3.1,0,0,3.08A4.65,4.65,0,0,0,69.71,64l.58.33a4,4,0,0,1,1.78,3.08V72h.68V67.42a4.71,4.71,0,0,0-2.11-3.66l-.58-.34a3.93,3.93,0,0,1-1.75-3.07l0-2.8.93.31a.49.49,0,0,1,.38,0,.89.89,0,0,1,.38.27l.94.31a.36.36,0,0,1,.21,0l0,2A4.6,4.6,0,0,0,73.22,64l.57.34a4,4,0,0,1,1.78,3.07V72h.67V67.41a4.71,4.71,0,0,0-2.11-3.66l-.58-.33a4,4,0,0,1-1.74-3.07l0-1.66.54.18-.07-39-7.23-2.35.07,39,.72.23A.49.49,0,0,1,66.24,56.73Zm5-36.43A1.25,1.25,0,0,1,72,21.47c0,.52-.32.84-.71.71A1.24,1.24,0,0,1,70.54,21C70.54,20.49,70.86,20.17,71.26,20.3Zm0,2.24A1.26,1.26,0,0,1,72,23.71c0,.52-.32.84-.72.72a1.28,1.28,0,0,1-.71-1.18C70.55,22.73,70.87,22.41,71.26,22.54Zm0,2.24A1.25,1.25,0,0,1,72,26c0,.53-.32.84-.71.72a1.27,1.27,0,0,1-.72-1.18C70.55,25,70.87,24.65,71.26,24.78Zm0,2.24A1.26,1.26,0,0,1,72,28.19c0,.53-.31.84-.71.72a1.3,1.3,0,0,1-.72-1.18C70.55,27.21,70.87,26.89,71.27,27Zm0,2.24A1.25,1.25,0,0,1,72,30.43c0,.53-.32.84-.71.72A1.27,1.27,0,0,1,70.56,30C70.56,29.45,70.88,29.13,71.27,29.26Zm0,2.24A1.26,1.26,0,0,1,72,32.67c0,.53-.32.85-.71.72a1.27,1.27,0,0,1-.72-1.18C70.56,31.69,70.88,31.37,71.28,31.5Zm0,2.24A1.26,1.26,0,0,1,72,34.92c0,.52-.32.84-.72.71a1.28,1.28,0,0,1-.71-1.18C70.57,33.93,70.89,33.61,71.28,33.74Zm0,2.24A1.26,1.26,0,0,1,72,37.16c0,.52-.32.84-.71.71a1.27,1.27,0,0,1-.72-1.18C70.57,36.17,70.89,35.85,71.28,36Zm0,2.24A1.29,1.29,0,0,1,72,39.4c0,.52-.32.84-.72.71a1.28,1.28,0,0,1-.71-1.18C70.57,38.41,70.89,38.09,71.29,38.22Zm0,2.24A1.27,1.27,0,0,1,72,41.64c0,.52-.32.84-.71.71a1.27,1.27,0,0,1-.72-1.18C70.58,40.65,70.9,40.33,71.29,40.46Zm0,2.24A1.28,1.28,0,0,1,72,43.88c0,.52-.31.84-.71.71a1.28,1.28,0,0,1-.72-1.18C70.58,42.89,70.9,42.57,71.3,42.7Zm0,2.24A1.27,1.27,0,0,1,72,46.12c0,.52-.32.84-.72.71a1.28,1.28,0,0,1-.71-1.18C70.59,45.13,70.91,44.81,71.3,44.94Zm0,2.24A1.27,1.27,0,0,1,72,48.36c0,.52-.32.84-.71.71a1.26,1.26,0,0,1-.72-1.18C70.59,47.37,70.91,47.05,71.3,47.18Zm0,2.24A1.3,1.3,0,0,1,72,50.6c0,.52-.32.84-.72.71a1.27,1.27,0,0,1-.71-1.18C70.59,49.61,70.91,49.29,71.31,49.42Zm0,2.24A1.27,1.27,0,0,1,72,52.84c0,.52-.32.84-.71.71a1.26,1.26,0,0,1-.72-1.18C70.6,51.85,70.92,51.53,71.31,51.66Zm0,2.24A1.28,1.28,0,0,1,72,55.08c0,.52-.31.84-.71.71a1.29,1.29,0,0,1-.72-1.18C70.6,54.09,70.92,53.77,71.32,53.9Zm0,2.24A1.27,1.27,0,0,1,72,57.32a.68.68,0,0,1-.4.71h-.32a1.27,1.27,0,0,1-.71-1.17C70.61,56.33,70.93,56,71.32,56.14Zm-1.76-36.4a1.28,1.28,0,0,1,.72,1.18c0,.52-.32.84-.72.71a1.26,1.26,0,0,1-.71-1.17C68.85,19.93,69.16,19.62,69.56,19.74Zm0,2.24a1.27,1.27,0,0,1,.72,1.18c0,.52-.32.84-.71.71a1.24,1.24,0,0,1-.72-1.17C68.85,22.18,69.17,21.86,69.56,22Zm0,2.25a1.25,1.25,0,0,1,.71,1.17c0,.52-.31.84-.71.71a1.27,1.27,0,0,1-.72-1.17C68.85,24.42,69.17,24.1,69.57,24.23Zm0,2.24a1.24,1.24,0,0,1,.72,1.17c0,.52-.32.84-.71.71a1.24,1.24,0,0,1-.72-1.17C68.86,26.66,69.18,26.34,69.57,26.47Zm0,2.24a1.25,1.25,0,0,1,.71,1.17c0,.52-.32.84-.71.71a1.24,1.24,0,0,1-.72-1.17C68.86,28.9,69.18,28.58,69.58,28.71Zm0,2.24a1.24,1.24,0,0,1,.72,1.17c0,.53-.32.84-.72.72a1.28,1.28,0,0,1-.71-1.18C68.87,31.14,69.19,30.82,69.58,31Zm0,2.24a1.25,1.25,0,0,1,.72,1.17c0,.53-.32.84-.71.72a1.27,1.27,0,0,1-.72-1.18C68.87,33.38,69.19,33.06,69.58,33.19Zm0,2.24a1.29,1.29,0,0,1,.72,1.17c0,.53-.32.84-.72.72a1.28,1.28,0,0,1-.71-1.18C68.87,35.62,69.19,35.3,69.59,35.43Zm0,2.24a1.25,1.25,0,0,1,.72,1.17c0,.53-.32.85-.71.72a1.27,1.27,0,0,1-.72-1.18C68.88,37.86,69.2,37.54,69.59,37.67Zm0,2.24a1.27,1.27,0,0,1,.71,1.18c0,.52-.31.84-.71.71a1.28,1.28,0,0,1-.72-1.18C68.88,40.1,69.2,39.78,69.6,39.91Zm0,2.24a1.26,1.26,0,0,1,.72,1.18c0,.52-.32.84-.72.71a1.28,1.28,0,0,1-.71-1.18C68.89,42.34,69.21,42,69.6,42.15Zm0,2.24a1.26,1.26,0,0,1,.72,1.18c0,.52-.32.84-.71.71a1.27,1.27,0,0,1-.72-1.18C68.89,44.58,69.21,44.26,69.6,44.39Zm0,2.24a1.3,1.3,0,0,1,.72,1.18c0,.52-.32.84-.72.71a1.28,1.28,0,0,1-.71-1.18C68.89,46.82,69.21,46.5,69.61,46.63Zm0,2.24a1.27,1.27,0,0,1,.72,1.18c0,.52-.32.84-.71.71a1.27,1.27,0,0,1-.72-1.18C68.9,49.06,69.22,48.74,69.61,48.87Zm0,2.24a1.28,1.28,0,0,1,.71,1.18c0,.52-.31.84-.71.71a1.28,1.28,0,0,1-.72-1.18C68.9,51.3,69.22,51,69.62,51.11Zm0,2.24a1.27,1.27,0,0,1,.72,1.18c0,.52-.32.84-.72.71a1.28,1.28,0,0,1-.71-1.18C68.91,53.54,69.23,53.22,69.62,53.35Zm0,2.24a1.28,1.28,0,0,1,.71,1.18c0,.52-.32.84-.71.71a1.26,1.26,0,0,1-.72-1.18C68.91,55.78,69.23,55.46,69.63,55.59Zm-1.77-36.4a1.27,1.27,0,0,1,.72,1.18c0,.52-.32.84-.71.71a1.25,1.25,0,0,1-.72-1.17C67.15,19.38,67.47,19.06,67.86,19.19Zm0,2.24a1.28,1.28,0,0,1,.71,1.18c0,.52-.31.84-.71.71a1.29,1.29,0,0,1-.72-1.17C67.15,21.62,67.47,21.3,67.87,21.43Zm0,2.24a1.27,1.27,0,0,1,.72,1.18c0,.52-.32.84-.71.71a1.25,1.25,0,0,1-.72-1.17C67.16,23.86,67.48,23.55,67.87,23.67Zm0,2.24a1.28,1.28,0,0,1,.71,1.18c0,.52-.32.84-.71.71a1.25,1.25,0,0,1-.72-1.17C67.16,26.1,67.48,25.79,67.88,25.91Zm0,2.24a1.27,1.27,0,0,1,.72,1.18c0,.52-.32.84-.72.71a1.25,1.25,0,0,1-.71-1.17C67.17,28.35,67.49,28,67.88,28.15Zm0,2.25a1.24,1.24,0,0,1,.72,1.17c0,.52-.32.84-.71.71a1.24,1.24,0,0,1-.72-1.17C67.17,30.59,67.49,30.27,67.88,30.4Zm0,2.24a1.27,1.27,0,0,1,.72,1.17c0,.52-.32.84-.72.71a1.25,1.25,0,0,1-.71-1.17C67.17,32.83,67.49,32.51,67.89,32.64Zm0,2.24a1.24,1.24,0,0,1,.72,1.17c0,.52-.32.84-.71.72a1.27,1.27,0,0,1-.72-1.18C67.18,35.07,67.5,34.75,67.89,34.88Zm0,2.24a1.26,1.26,0,0,1,.71,1.17c0,.53-.32.84-.71.72a1.28,1.28,0,0,1-.72-1.18C67.18,37.31,67.5,37,67.9,37.12Zm0,2.24a1.25,1.25,0,0,1,.72,1.17c0,.53-.32.84-.72.72a1.28,1.28,0,0,1-.71-1.18C67.19,39.55,67.51,39.23,67.9,39.36Zm0,2.24a1.25,1.25,0,0,1,.72,1.17c0,.53-.32.84-.71.72a1.27,1.27,0,0,1-.72-1.18C67.19,41.79,67.51,41.47,67.9,41.6Zm0,2.24A1.29,1.29,0,0,1,68.63,45c0,.53-.32.85-.72.72a1.28,1.28,0,0,1-.71-1.18C67.19,44,67.51,43.71,67.91,43.84Zm0,2.24a1.26,1.26,0,0,1,.72,1.18c0,.52-.32.84-.71.71a1.27,1.27,0,0,1-.72-1.18C67.2,46.27,67.52,46,67.91,46.08Zm0,2.24a1.27,1.27,0,0,1,.71,1.18c0,.52-.31.84-.71.71A1.28,1.28,0,0,1,67.2,49C67.2,48.51,67.52,48.19,67.92,48.32Zm0,2.24a1.26,1.26,0,0,1,.72,1.18c0,.52-.32.84-.72.71a1.28,1.28,0,0,1-.71-1.18C67.21,50.75,67.53,50.43,67.92,50.56Zm0,2.24A1.28,1.28,0,0,1,68.64,54c0,.52-.32.84-.71.71a1.27,1.27,0,0,1-.72-1.18C67.21,53,67.53,52.67,67.93,52.8Zm0,2.24a1.28,1.28,0,0,1,.72,1.18.76.76,0,0,1-.32.68v-.09h-.62a1.34,1.34,0,0,1-.49-1C67.22,55.23,67.53,54.91,67.93,55Zm-1.76-36.4a1.28,1.28,0,0,1,.71,1.18c0,.52-.31.84-.71.71a1.29,1.29,0,0,1-.72-1.18C65.45,18.83,65.77,18.51,66.17,18.64Zm0,2.24a1.27,1.27,0,0,1,.72,1.18c0,.52-.32.84-.71.71a1.26,1.26,0,0,1-.72-1.18C65.46,21.07,65.78,20.75,66.17,20.88Zm0,2.24a1.28,1.28,0,0,1,.71,1.18c0,.52-.32.84-.71.71a1.26,1.26,0,0,1-.72-1.18C65.46,23.31,65.78,23,66.18,23.12Zm0,2.24a1.28,1.28,0,0,1,.72,1.18c0,.52-.32.84-.72.71a1.27,1.27,0,0,1-.71-1.18C65.47,25.55,65.79,25.23,66.18,25.36Zm0,2.24a1.27,1.27,0,0,1,.72,1.18c0,.52-.32.84-.71.71a1.25,1.25,0,0,1-.72-1.17C65.47,27.79,65.79,27.47,66.18,27.6Zm0,2.24A1.28,1.28,0,0,1,66.9,31c0,.52-.31.84-.71.71a1.29,1.29,0,0,1-.72-1.17C65.47,30,65.79,29.72,66.19,29.84Zm0,2.24a1.27,1.27,0,0,1,.72,1.18c0,.52-.32.84-.71.71a1.25,1.25,0,0,1-.72-1.17C65.48,32.27,65.8,32,66.19,32.08Zm0,2.24a1.28,1.28,0,0,1,.71,1.18c0,.52-.32.84-.71.71A1.24,1.24,0,0,1,65.48,35C65.48,34.52,65.8,34.2,66.2,34.32Zm0,2.25a1.24,1.24,0,0,1,.72,1.17c0,.52-.32.84-.72.71a1.25,1.25,0,0,1-.71-1.17C65.49,36.76,65.81,36.44,66.2,36.57Zm0,2.24A1.24,1.24,0,0,1,66.92,40c0,.52-.32.84-.71.71a1.24,1.24,0,0,1-.72-1.17C65.49,39,65.81,38.68,66.2,38.81Zm0,2.24a1.27,1.27,0,0,1,.72,1.17c0,.52-.32.84-.72.72a1.28,1.28,0,0,1-.71-1.18C65.49,41.24,65.81,40.92,66.21,41.05Zm0,2.24a1.24,1.24,0,0,1,.72,1.17c0,.53-.32.84-.71.72A1.27,1.27,0,0,1,65.5,44C65.5,43.48,65.82,43.16,66.21,43.29Zm0,2.24a1.26,1.26,0,0,1,.71,1.17c0,.53-.31.84-.71.72a1.28,1.28,0,0,1-.72-1.18C65.5,45.72,65.82,45.4,66.22,45.53Zm0,2.24a1.25,1.25,0,0,1,.72,1.17c0,.53-.32.84-.72.72a1.28,1.28,0,0,1-.71-1.18C65.51,48,65.83,47.64,66.22,47.77Zm0,2.24a1.26,1.26,0,0,1,.71,1.17c0,.53-.32.85-.71.72a1.27,1.27,0,0,1-.72-1.18C65.51,50.2,65.83,49.88,66.23,50Zm0,2.24A1.27,1.27,0,0,1,67,53.43c0,.52-.32.84-.72.71A1.28,1.28,0,0,1,65.52,53C65.52,52.44,65.83,52.12,66.23,52.25Zm0,2.24A1.26,1.26,0,0,1,67,55.67c0,.52-.32.84-.71.71a1.27,1.27,0,0,1-.72-1.18C65.52,54.68,65.84,54.36,66.23,54.49Z"/><polygon class="cls-1" points="99.27 56.13 120.82 34.58 120.52 34.27 99.27 55.52 99.27 56.13"/><polygon class="cls-1" points="99.28 60.34 125.22 39.52 124.95 39.18 99.28 59.79 99.28 60.34"/><polygon class="cls-1" points="99.24 38.64 107.14 24.24 106.76 24.03 99.24 37.74 99.24 38.64"/><polygon class="cls-1" points="99.26 50.89 115.91 30.14 115.58 29.87 99.26 50.2 99.26 50.89"/><polygon class="cls-1" points="99.29 65.73 99.29 65.73 99.29 65.77 131.07 48.34 130.86 47.95 99.29 65.28 99.29 65.73"/><path class="cls-1" d="M65.72,67.39l-.5-.4v.37Z"/><path class="cls-1" d="M98.9,75.24l39.21-4.3-.05-.43L99,74.79Z"/><polygon class="cls-1" points="99.29 68.65 133.91 54.31 133.74 53.91 99.29 68.18 99.29 68.65"/><polygon class="cls-1" points="99.22 26.11 101.18 21.35 100.78 21.19 99.21 24.98 99.22 26.11"/><polygon class="cls-1" points="99.3 71.28 136.08 60.56 135.96 60.14 99.3 70.83 99.3 71.28"/><path class="cls-1" d="M57.23,77.12H17.08v.43H57.39C57.34,77.4,57.27,77.26,57.23,77.12Z"/><polygon class="cls-1" points="56.32 68.22 21.78 53.91 21.62 54.31 56.33 68.69 56.32 68.22"/><polygon class="cls-1" points="56.32 65.32 24.67 47.95 24.46 48.34 56.32 65.82 56.32 65.32"/><polygon class="cls-1" points="56.33 70.86 19.57 60.14 19.45 60.56 56.33 71.31 56.33 70.86"/><path class="cls-1" d="M98.4,77.12c0,.14-.1.28-.16.43h40.2v-.43Z"/><path class="cls-1" d="M56.34,74.77,17.47,70.51l0,.43,38.92,4.27Z"/><polygon class="cls-1" points="56.3 55.56 35.01 34.27 34.7 34.58 56.3 56.18 56.3 55.56"/><polygon class="cls-1" points="56.31 59.84 30.57 39.18 30.3 39.52 56.31 60.39 56.31 59.84"/><polygon class="cls-1" points="56.29 50.23 39.95 29.87 39.61 30.14 56.29 50.93 56.29 50.23"/><polygon class="cls-1" points="56.27 37.7 48.77 24.03 48.38 24.24 56.27 38.61 56.27 37.7"/><polygon class="cls-1" points="56.24 24.82 54.74 21.19 54.34 21.35 56.25 25.95 56.24 24.82"/><rect class="cls-1" x="93.31" y="85.55" width="60.42" height="1"/><circle class="cls-1" cx="153.65" cy="86.05" r="1.88"/><rect class="cls-1" x="1.79" y="85.55" width="60.42" height="1"/><circle class="cls-1" cx="1.88" cy="86.05" r="1.88"/></g></g></svg>