<svg xmlns="http://www.w3.org/2000/svg" viewBox="0 0 217.98 43.26"><defs><style>.cls-1{fill:#fff;}</style></defs><title>icon-radio-round-sm-white</title><g id="Layer_2" data-name="Layer 2"><g id="Layer_1-2" data-name="Layer 1"><path class="cls-1" d="M126.91,36.8A14.87,14.87,0,0,1,122,38.67a19.7,19.7,0,0,1-5.64-.44v.12c0,.1-.06,2.42-.06,2.81,0,.75,1,1.61,1.73,1.77a8,8,0,0,0,1.91.2,10.86,10.86,0,0,0,2.5-.29,23.14,23.14,0,0,0,5.51-3c.21-.2,6.55-5.6,7.18-6.07.1-.08.19-.15.21-3v-.23C134.54,31.25,127.37,36.53,126.91,36.8Z"/><path class="cls-1" d="M135.1,5.7c-1.31-1.31-4.4-1.58-4.54-1.6h-.05l0,0c-3.62,1.58-12.07,5.26-12.3,5.48a6,6,0,0,0-1.58,3.78,29.58,29.58,0,0,0-.13,3.67,37,37,0,0,0,4.78.47A14.68,14.68,0,0,0,128,15.61c3.79-2,8.2-4.88,8.2-4.88s-.11,3.19-.25,7l.33-6.93C136.27,10.66,136.42,7,135.1,5.7Z"/><path class="cls-1" d="M120.79,39a40.9,40.9,0,0,1-8.92-1.55.21.21,0,0,1-.15-.2l-.09-21.09a.21.21,0,0,1,.09-.18.2.2,0,0,1,.2,0,44.83,44.83,0,0,0,9.26,1.39h0a14.68,14.68,0,0,0,6.65-1.88c3.74-2,8.14-4.85,8.19-4.88a.22.22,0,0,1,.22,0,.21.21,0,0,1,.1.19c-.68,19.75-.77,19.87-.82,19.94-.18.25-8.49,6.26-8.56,6.3a15,15,0,0,1-5,1.9A9.22,9.22,0,0,1,120.79,39ZM112.14,37c1,.28,6.86,1.84,9.81,1.42a14.93,14.93,0,0,0,4.85-1.84c.41-.24,7.71-5.61,8.41-6.17.1-1.06.56-13.86.75-19.32-1.11.71-4.73,3-7.88,4.67a15,15,0,0,1-6.85,1.93h0a49.21,49.21,0,0,1-9.13-1.32Z"/><path class="cls-1" d="M106.53,16.5a11.46,11.46,0,0,0-5.09-3.66.24.24,0,0,0,0-.2,5.87,5.87,0,0,0-2.26-.71.2.2,0,0,0-.13-.11c-1.81-.5-2.32-.42-2.5-.33-1.34-.2-2-.18-2.26.06a.49.49,0,0,0-.09.15,6.11,6.11,0,0,0-1.81.08,4.55,4.55,0,0,0-3.14,2.13,9.16,9.16,0,0,0-.59,6.64c.57,2.16,3.46,4.78,4.71,5.34.4.18,7.71,2.06,8.29,2.13a10.19,10.19,0,0,0,4.3-.49,4.78,4.78,0,0,0,2.44-3.81A8.91,8.91,0,0,0,106.53,16.5Zm-5.6-3.64a.19.19,0,0,0,.14.12h0l-.23,1.35h0A6.61,6.61,0,0,1,99,14a2.23,2.23,0,0,1,0-1.6A4.87,4.87,0,0,1,100.93,12.86Zm-2.24-.69a2.66,2.66,0,0,0-.17,1.66l-.31,0a5.47,5.47,0,0,1-1.58-.33,1.12,1.12,0,0,1-.17-.73,1.52,1.52,0,0,1,.19-.85S97,11.72,98.69,12.17Zm-4.16-.31c.06-.06.36-.16,1.65,0a2.74,2.74,0,0,0-.14.77,2.89,2.89,0,0,0,.08.71,9.45,9.45,0,0,1-1.52-.18c-.3-.94-.07-1.31-.07-1.31Zm12.08,12.62c-1.34,2.59-4.6,1.39-7.94.82-4.18-.7-5.07-1.64-6.45-3.18a7,7,0,0,1-1.35-6.7,3.19,3.19,0,0,1,2.49-2.1,6.12,6.12,0,0,1,.83-.06l0,.12c.12.33,1.74.38,2.14.39l0,0a4.59,4.59,0,0,0,1.77.41l.61.09h0a6.46,6.46,0,0,0,2,.44.2.2,0,0,0,.19-.17,10.88,10.88,0,0,0,1.23.19c1.33.16,3.13,2.33,3.85,3.48C106.51,18.89,107.89,22,106.61,24.48Z"/><path class="cls-1" d="M103.78,37.42c-1.53,0-11.57-2.48-11.71-3.52a.51.51,0,0,0-.34-.46.56.56,0,0,1-.4-.56c0-.54,0-2.67,0-3.19a2.31,2.31,0,0,1-.75-2c0-.93-.07-3.92-.07-3.92h.42s.06,3,.07,3.91c0,1.37.61,1.65.62,1.66a.23.23,0,0,1,.13.19s0,2.69,0,3.31c0,.1,0,.11.17.19a.88.88,0,0,1,.56.77C93,34.54,102.9,37.29,104,37c.05-.11.23-.28,1-.37l0-3.52A.2.2,0,0,1,105,33a.21.21,0,0,1,.15-.07c.26,0,.57-.08.57-.18,0-.39,0-5.17,0-5.17h.42s0,4.78,0,5.17-.38.55-.78.59l0,3.52a.21.21,0,0,1-.19.21,3.52,3.52,0,0,0-.84.16c-.08.24-.43.24-.55.24Z"/><path class="cls-1" d="M102.27,32.75a.93.93,0,0,1,1.18.51.74.74,0,0,1-.4,1,.8.8,0,0,1-1-.46A.78.78,0,0,1,102.27,32.75Z"/><path class="cls-1" d="M99.83,32.2a.93.93,0,0,1,1.18.51.73.73,0,0,1-.4,1,.8.8,0,0,1-1-.46A.79.79,0,0,1,99.83,32.2Z"/><path class="cls-1" d="M97.55,31.57a.93.93,0,0,1,1.18.51.73.73,0,0,1-.4,1,.88.88,0,0,1-.78-1.5Z"/><path class="cls-1" d="M95.33,31a.94.94,0,0,1,1.13.6.74.74,0,0,1-.47,1A.88.88,0,0,1,95.33,31Z"/><path class="cls-1" d="M93.05,30.39a.94.94,0,0,1,1.13.61.72.72,0,0,1-.47.95.88.88,0,0,1-.66-1.56Z"/><path class="cls-1" d="M134.09,27a.2.2,0,0,0-.21,0c-.07,0-6.87,4.42-8.16,5.21a11,11,0,0,1-5.79,1.5,22.78,22.78,0,0,1-3.4-.44c-1.91-.33-2.23-.36-2.39-.22s-.25.66-.25,1.54c0,1.17.15,1.29.21,1.34a28.45,28.45,0,0,0,6,1h.8a8.63,8.63,0,0,0,4.33-1.11c.08,0,8.79-5.78,8.93-6,0-.06.11-.17,0-2.64A.19.19,0,0,0,134.09,27Zm-14.17,7.14h0a11.37,11.37,0,0,0,6-1.56c.92-.56,4.61-2.93,6.7-4.28a10.93,10.93,0,0,1,0,1.18c-.59.49-7.74,5.25-8.17,5.49a10.17,10.17,0,0,1-4.88.91,29.16,29.16,0,0,1-4.4-.57,8.47,8.47,0,0,1,0-1.83l1.28.21A25.72,25.72,0,0,0,119.92,34.16Zm13.86-4.54c-.69.53-8.18,5.55-8.76,5.88a8.56,8.56,0,0,1-4.7,1h-.23a34.12,34.12,0,0,1-5.7-.89,7.43,7.43,0,0,1,0-2.21,1.68,1.68,0,0,1,.36,0,5.42,5.42,0,0,0,.09,2.12c.31.4,4.37.74,4.72.75l.54,0a9.84,9.84,0,0,0,4.56-1c.08,0,8.23-5.37,8.35-5.65a6.74,6.74,0,0,0,0-1.64l.74-.47C133.81,28.49,133.81,29.38,133.78,29.62Z"/><path class="cls-1" d="M134.32,22.75a.2.2,0,0,0-.21,0l-1,.59h0a.21.21,0,0,0-.17.13c-2,1.18-6,3.47-7,4.05a10.6,10.6,0,0,1-5.82,1.36,32.28,32.28,0,0,1-3.23-.4c-2.13-.32-2.49-.35-2.66-.21s-.24.19-.25,1.5c0,1,.06,1.52.2,1.65a31.49,31.49,0,0,0,6,.91h.68a9.3,9.3,0,0,0,4.64-1.15c.09-.05,8.71-5.41,8.84-5.62,0-.06.11-.17.08-2.64A.22.22,0,0,0,134.32,22.75Zm-14.25,6.54a10.92,10.92,0,0,0,6-1.42c.92-.55,4.64-2.7,6.74-3.91,0,.57,0,1.1,0,1.25-.58.45-7.53,4.79-8.22,5.17a8.49,8.49,0,0,1-4.78.9,34.63,34.63,0,0,1-4.61-.57,11.76,11.76,0,0,1,0-2.05l1.57.23C118,29.07,119.3,29.27,120.07,29.29ZM134,25.34c-.69.49-8,5.09-8.68,5.48a9.18,9.18,0,0,1-5,1.09h-.13a39,39,0,0,1-5.75-.81,8.66,8.66,0,0,1,0-2.49,2,2,0,0,1,.33,0,7.12,7.12,0,0,0,.09,2.36c.3.41,4.87.73,4.92.73.29,0,.56,0,.84,0a8.38,8.38,0,0,0,4.17-1c.08,0,8.26-5.05,8.4-5.33a7.47,7.47,0,0,0,.06-1.7l.74-.42C134,24.2,134,25.1,134,25.34Z"/><path class="cls-1" d="M134.36,18.39l-1.05.57h0a.2.2,0,0,0-.17.11c-2.07,1.13-6.1,3.33-7.07,3.93a11.2,11.2,0,0,1-5.83,1.36c-.71,0-1.93-.19-3.11-.34-2.33-.31-2.76-.34-2.93-.21s-.25.2-.29,1.41c0,.82,0,1.31.18,1.43a35.36,35.36,0,0,0,6.17,1h.56a9.76,9.76,0,0,0,4.54-1c.08,0,9-5.23,9.19-5.45,0-.06.12-.17.14-2.64a.2.2,0,0,0-.1-.18A.22.22,0,0,0,134.36,18.39ZM120.2,24.77a11.64,11.64,0,0,0,6.07-1.43c.91-.56,4.68-2.62,6.81-3.77,0,.56,0,1.11,0,1.26-.63.46-7.85,4.74-8.33,5a11,11,0,0,1-4.8.8,35.23,35.23,0,0,1-4.75-.67,9,9,0,0,1,0-1.77l1.86.23C118.24,24.58,119.47,24.75,120.2,24.77Zm14-3.79c-.7.46-8.3,4.94-9,5.32a9.64,9.64,0,0,1-4.88,1,43.36,43.36,0,0,1-5.89-.93,6.65,6.65,0,0,1,.07-2.18,2,2,0,0,1,.33,0,5.37,5.37,0,0,0,0,2.06c.29.41,5,.83,5.06.83l.59,0a10.93,10.93,0,0,0,4.44-.87c.08,0,8.36-4.89,8.5-5.16a7.82,7.82,0,0,0,.09-1.7l.75-.41C134.23,19.83,134.21,20.73,134.17,21Z"/><path class="cls-1" d="M134.73,13.67a.26.26,0,0,0-.21,0l-1,.57h0a.23.23,0,0,0-.18.12c-2.07,1.14-6.09,3.35-7.06,3.91a12.67,12.67,0,0,1-5.84,1.24A31.44,31.44,0,0,1,117,19c-2.23-.37-2.62-.41-2.78-.27s-.25.19-.28,1.52c0,.95,0,1.5.17,1.63a35.81,35.81,0,0,0,6.33,1H121a10.26,10.26,0,0,0,4.51-.94c.08,0,9-5.3,9.16-5.53,0-.06.11-.17.14-2.64A.23.23,0,0,0,134.73,13.67Zm-14.37,6.26a13.47,13.47,0,0,0,6.06-1.3c.93-.54,4.69-2.61,6.82-3.78,0,.57,0,1.11-.05,1.25-.62.47-7.84,4.75-8.32,5a11,11,0,0,1-4.8.8,38.36,38.36,0,0,1-4.91-.67,12,12,0,0,1,0-2l1.7.27C118.15,19.66,119.57,19.9,120.36,19.93Zm14-3.67c-.72.5-8.4,5.11-9,5.4a10.27,10.27,0,0,1-4.93.88,45.69,45.69,0,0,1-6-.93,9,9,0,0,1,.07-2.49,1.38,1.38,0,0,1,.33,0,6.94,6.94,0,0,0,0,2.36c.28.4,5.17.83,5.21.83l.6,0a10.85,10.85,0,0,0,4.43-.87c.08,0,8.37-4.89,8.51-5.16a7.82,7.82,0,0,0,.09-1.7l.75-.41C134.39,15.12,134.36,16,134.33,16.26Z"/><path class="cls-1" d="M88.83,29.07a2,2,0,0,0-1.4-.88,1.38,1.38,0,0,0-1.72,1.22.41.41,0,0,0,0,.11,1,1,0,0,0-.25.5.44.44,0,0,1,0,.1,1.62,1.62,0,0,0,.27,1.3,1.83,1.83,0,0,0,1.23.54.83.83,0,0,0,.31-.09.79.79,0,0,0,.22.06,1.52,1.52,0,0,0,1.75-1A2.45,2.45,0,0,0,88.83,29.07ZM86.06,31.2a1.26,1.26,0,0,1-.22-1,.69.69,0,0,0,0-.16,2.6,2.6,0,0,1,.5-.64.67.67,0,0,1,.48-.2,1.21,1.21,0,0,1,.68.26A1.89,1.89,0,0,1,88.06,31a8.26,8.26,0,0,1-1.13.52A1.5,1.5,0,0,1,86.06,31.2Zm2,.28.18-.09.09,0A.81.81,0,0,1,88.08,31.48Zm.72-.69a1,1,0,0,1-.42.56.27.27,0,0,0,.07-.08,2.36,2.36,0,0,0-.68-2.15,1.33,1.33,0,0,0-1.35-.25,1,1,0,0,1,1-.27,1.6,1.6,0,0,1,1.11.7A2,2,0,0,1,88.8,30.79Z"/><path class="cls-1" d="M94.25,27.13a2,2,0,0,0-1.4-.88,1.39,1.39,0,0,0-1.72,1.22s0,.08,0,.11a1.09,1.09,0,0,0-.25.51.51.51,0,0,1,0,.09,1.64,1.64,0,0,0,.28,1.3,1.82,1.82,0,0,0,1.23.54,1.15,1.15,0,0,0,.31-.08l.21,0,.3,0A1.52,1.52,0,0,0,94.63,29,2.39,2.39,0,0,0,94.25,27.13Zm-2.77,2.13a1.21,1.21,0,0,1-.21-1c0-.07,0-.13,0-.16a2.6,2.6,0,0,1,.5-.64.71.71,0,0,1,.48-.2,1.19,1.19,0,0,1,.68.26,1.9,1.9,0,0,1,.54,1.56,8.1,8.1,0,0,1-1.13.52A1.53,1.53,0,0,1,91.48,29.26Zm2,.29.17-.09a.24.24,0,0,0,.09,0A1.23,1.23,0,0,1,93.51,29.55Zm.71-.69a1,1,0,0,1-.42.55.18.18,0,0,0,.07-.08,2.35,2.35,0,0,0-.67-2.15,1.33,1.33,0,0,0-1.35-.25,1,1,0,0,1,.94-.26,1.62,1.62,0,0,1,1.12.69A2,2,0,0,1,94.22,28.86Z"/><path class="cls-1" d="M103.53,29.34a2,2,0,0,0-1.4-.88,1.39,1.39,0,0,0-1.72,1.22.49.49,0,0,0,0,.12.94.94,0,0,0-.25.5.58.58,0,0,1,0,.1,1.63,1.63,0,0,0,.27,1.3,1.83,1.83,0,0,0,1.23.54,1.09,1.09,0,0,0,.31-.09l.22.06.3,0a1.53,1.53,0,0,0,1.45-1.07A2.44,2.44,0,0,0,103.53,29.34Zm-2.77,2.13a1.26,1.26,0,0,1-.22-1,.61.61,0,0,0,0-.16,2.42,2.42,0,0,1,.5-.63.67.67,0,0,1,.48-.21,1.17,1.17,0,0,1,.68.27,1.87,1.87,0,0,1,.53,1.56,9.79,9.79,0,0,1-1.13.52A1.51,1.51,0,0,1,100.76,31.47Zm2,.29.18-.09a.16.16,0,0,0,.09,0A1.11,1.11,0,0,1,102.78,31.76Zm.72-.69a1,1,0,0,1-.42.55.27.27,0,0,0,.07-.08,2.37,2.37,0,0,0-.68-2.15,1.33,1.33,0,0,0-1.35-.25,1,1,0,0,1,.95-.26,1.57,1.57,0,0,1,1.11.7A2,2,0,0,1,103.5,31.07Z"/><path class="cls-1" d="M110.84,34.61a2,2,0,0,0-1.4-.88A1.39,1.39,0,0,0,107.72,35a.49.49,0,0,0,0,.12.94.94,0,0,0-.25.5.51.51,0,0,1,0,.09,1.67,1.67,0,0,0,.28,1.31,1.83,1.83,0,0,0,1.23.53,1,1,0,0,0,.3-.08l.22.06.3,0a1.52,1.52,0,0,0,1.45-1.06A2.43,2.43,0,0,0,110.84,34.61Zm-2.77,2.13a1.21,1.21,0,0,1-.21-1c0-.07,0-.13,0-.16a2.42,2.42,0,0,1,.5-.63.67.67,0,0,1,.48-.21,1.21,1.21,0,0,1,.68.26,1.9,1.9,0,0,1,.54,1.56,8.1,8.1,0,0,1-1.13.52A1.5,1.5,0,0,1,108.07,36.74Zm2,.29.18-.09.09,0A1.11,1.11,0,0,1,110.09,37Zm.72-.69a1,1,0,0,1-.42.55.27.27,0,0,0,.07-.08,2.37,2.37,0,0,0-.68-2.15,1.33,1.33,0,0,0-1.35-.25,1,1,0,0,1,.95-.26,1.59,1.59,0,0,1,1.11.69A2,2,0,0,1,110.81,36.34Z"/><path class="cls-1" d="M130.25,4C130,3.91,101.37,0,101.13,0a3.71,3.71,0,0,0-.44.05A13.63,13.63,0,0,0,98.15,0h-.48c-.11,0-11,3.24-11.06,3.27l-.2.06a7.46,7.46,0,0,0-1.87.78l0,0v0l-.05,0V4.11a2.16,2.16,0,0,0-.63.08,4,4,0,0,0-2.22,3.5c-.08,3.43.87,15.91,1.33,21.91.13,1.82.23,3.14.24,3.33,0,.41,0,1.61,1.2,1.66a2.27,2.27,0,0,0,1.15.65c.29.14,31,7.95,31.19,8l.33,0a6.87,6.87,0,0,0,1.5-.17h.07a.34.34,0,0,0,.14-.08.21.21,0,0,0,0-.24.23.23,0,0,0-.23-.08,4.74,4.74,0,0,1-1.27,0c-.49-.07-.6-.94-.61-1.23l0-.17a.21.21,0,0,0-.17-.24.21.21,0,0,0-.23.11h-.07c-.59-.1-28.59-7.28-29.07-7.45L87,33.58c0-.21,0-.76-.08-1.62a2.11,2.11,0,0,1-.43-.08c0,.75.07,1.33.09,1.61-.21,0-.56-.07-.93-.14h-.06l-.24-.05a3.64,3.64,0,0,1-1.08-.37h0l0,0c-.12-.67-1.33-19.19-1.47-21.81l0-.61c-.12-2.07-.17-3,.64-4.52a4.88,4.88,0,0,1,3.18-2.17l.23-.07C87.32,3.5,97.67.45,97.67.44h1.84c-2.42.77-8.68,2.75-9,2.93-.06,0-.38.16-.69.27a14.67,14.67,0,0,0-3.07,1.44c-1.34,1.1-1.4,4-1.42,5v.2c0,.6.45,9.56.94,18.18a1,1,0,0,1,.41-.18c-.37-6.56-1-17.35-.93-18V10c0-2.43.48-4,1.27-4.65A14,14,0,0,1,90,4a6.29,6.29,0,0,0,.75-.31c.36-.18,9.39-3.07,9.8-3.17a3.22,3.22,0,0,1,.57-.1c.45,0,28.81,3.89,29.07,3.93l.16,0a.21.21,0,0,0,.19.13h0a.21.21,0,0,0,.17-.25C130.74,4,130.51,4,130.25,4ZM84.38,33.43l.19.07.08,0,.26.08h0a10.62,10.62,0,0,0,1.6.28h.19a1.48,1.48,0,0,0,.21.13c.28.15,29,7.5,29.25,7.5h0a2,2,0,0,0,.48,1.27c-1.77-.44-30.38-7.71-31-7.94l-.12,0a1.82,1.82,0,0,1-1-.61l0,0,0-.09L84.45,34a1.07,1.07,0,0,1-.07-.15,1.82,1.82,0,0,1-.11-.43Z"/><path class="cls-1" d="M40.57,19.23l5.55-.29c3.33-.18,7.76-.32,12.2-.49l3.31-.16c1.09-.06,2.16-.11,3.2-.12s2,0,3,.09,1.86.11,2.69.19a45.08,45.08,0,0,1,5.54.78v.23a46.1,46.1,0,0,1-5.54.79c-.83.07-1.74.14-2.69.18s-2,.08-3,.09-2.11-.06-3.2-.12l-3.31-.15c-4.44-.18-8.87-.32-12.2-.5l-5.55-.29Z"/><path class="cls-1" d="M0,23.23l11.88-.29c7.14-.18,16.64-.32,26.15-.5l7.1-.15c2.34-.06,4.64-.11,6.87-.12s4.38,0,6.42.09,4,.11,5.76.18c7.13.29,11.88.79,11.88.79v.23s-4.75.5-11.88.78c-1.78.08-3.72.15-5.76.19s-4.2.08-6.42.09-4.53-.06-6.87-.12L38,24.24c-9.51-.17-19-.31-26.15-.5L0,23.46Z"/><path class="cls-1" d="M40.57,27.23l5.55-.29c3.33-.18,7.76-.32,12.2-.5l3.31-.15c1.09-.06,2.16-.11,3.2-.12s2,0,3,.09,1.86.11,2.69.18a46.1,46.1,0,0,1,5.54.79v.23a45.08,45.08,0,0,1-5.54.78c-.83.08-1.74.14-2.69.19s-2,.08-3,.09-2.11-.06-3.2-.12l-3.31-.16c-4.44-.17-8.87-.31-12.2-.5l-5.55-.28Z"/><path class="cls-1" d="M177.41,27.46l-5.54.28c-3.33.19-7.77.33-12.2.5l-3.31.16c-1.09.06-2.17.11-3.21.12s-2,0-3-.09-1.85-.11-2.68-.19a45.08,45.08,0,0,1-5.55-.78v-.23a46.09,46.09,0,0,1,5.55-.79c.83-.07,1.73-.14,2.68-.18s2-.09,3-.09,2.12.06,3.21.12l3.31.15c4.43.18,8.87.32,12.2.5l5.54.29Z"/><path class="cls-1" d="M218,23.46l-11.88.28c-7.13.18-16.64.32-26.15.5l-7.09.15c-2.34.06-4.64.11-6.87.12s-4.38,0-6.43-.09-4-.11-5.75-.18c-7.13-.28-11.89-.78-11.89-.78v-.23s4.76-.5,11.89-.78c1.78-.08,3.71-.14,5.75-.19s4.2-.08,6.43-.08,4.53.06,6.87.12l7.09.15c9.51.18,19,.32,26.15.5l11.88.28Z"/><path class="cls-1" d="M177.41,19.46l-5.54.29c-3.33.18-7.77.32-12.2.5l-3.31.15c-1.09.06-2.17.11-3.21.12s-2,0-3-.09-1.85-.11-2.68-.18a46.09,46.09,0,0,1-5.55-.79v-.23a45.08,45.08,0,0,1,5.55-.78c.83-.08,1.73-.15,2.68-.19s2-.08,3-.09,2.12.06,3.21.12l3.31.16c4.43.17,8.87.31,12.2.49l5.54.29Z"/></g></g></svg>