<svg xmlns="http://www.w3.org/2000/svg" viewBox="0 0 155.25 85.29"><defs><style>.cls-1{fill:#231f20;}.cls-2{fill:#222;}</style></defs><title>icon-mic-med</title><g id="Layer_2" data-name="Layer 2"><g id="Layer_1-2" data-name="Layer 1"><path class="cls-1" d="M83.52,68.32c-1,0-2.15-1-3.68-2.36-.89-.79-1.9-1.69-3.08-2.57a2.93,2.93,0,0,1-1-3.29,6.27,6.27,0,0,0-.09-1.47c-.08-.76-.19-1.8-.3-3.37-.23-3.42-5.41-24.69-6.09-26.23a4.32,4.32,0,0,0-1.7-2.2v-.67c.63,0,1.68,1.19,2.3,2.6s5.91,23,6.15,26.46c.1,1.55.21,2.58.3,3.33a6.48,6.48,0,0,1,.07,1.68,2.27,2.27,0,0,0,.78,2.63c1.2.9,2.22,1.8,3.12,2.6,1.43,1.26,2.54,2.26,3.32,2.19s6.35-5.92,6.88-6.88a30.61,30.61,0,0,0-1.92-3.55c-.58-1-1.08-1.84-1.28-2.3-.1-.23-9.57-26.6-9.46-27.29,0-.11,0-.22.05-.33,0-.47.11-.92.48-1.05l.21.63a.17.17,0,0,0,.07,0,2,2,0,0,0-.1.54c0,.12,0,.24,0,.35.14.92,8.91,25.78,9.41,26.92.18.42.7,1.31,1.24,2.24,1.8,3.06,2.14,3.81,1.93,4.2-.41.74-6.35,7.11-7.39,7.22Z"/><path class="cls-1" d="M72.21,60.8a8.27,8.27,0,0,1-.58,3.46c-.3,1-.62,2-.32,2.33,1.36,1.43,8.2,5.31,11.8,6.86a2.41,2.41,0,0,0,2.64-.36c3.32-3.06,11.12-12,11.4-12.76s-.92-1.36-2.93-2.1c-.62-.23-1.5-.59-2.43-1s-2.19-.92-3.2-1.29l.54.93c1.8,3.06,2.14,3.81,1.93,4.2-.41.74-6.35,7.11-7.39,7.22h-.15c-1,0-2.15-1-3.68-2.36-.89-.79-1.9-1.69-3.08-2.57a2.93,2.93,0,0,1-1-3.29,6.27,6.27,0,0,0-.09-1.47c0-.21,0-.45-.07-.71a3.79,3.79,0,0,1-.8,0c-.77-.1-14-4.33-16-5.42l-1,.87c.4.28,3.12,1.57,5.54,2.72C71.27,59.88,72.15,60.4,72.21,60.8Z"/><path class="cls-1" d="M75.5,57.26c0-.56-.11-1.21-.16-2a49,49,0,0,0-.87-4.92c-.77-.21-1.36-.36-1.68-.41a60.2,60.2,0,0,0-7.28-.61c-.61,0-3.19,0-4.55,1.22l-1.68,1.51c2.22,1.09,14.92,5.15,15.58,5.23A2.36,2.36,0,0,0,75.5,57.26Z"/><path class="cls-1" d="M102.29,62.49a1.73,1.73,0,0,1,0,.59C102,65.22,92.26,76.44,88.8,80A10.39,10.39,0,0,1,87,81.41c-.61.3-3,1.39-6.91-.84C77,78.83,60.43,66.44,59.44,65.2c-.4-.51,20.5,13.56,22.45,14.16,2.63.81,4.35.4,5.46-.41s14.57-16.08,14.47-17.19a.82.82,0,0,1,0-.35,4.1,4.1,0,0,0-1.09-1.32,5.48,5.48,0,0,1,.09,1.2c0,1.21-12.94,15.14-14.57,15.75a5,5,0,0,1-1.8.42A7.92,7.92,0,0,1,82,76.84c-1-.36-8.1-4.33-15.37-8.74-10.39-6.3-13.07-8.53-13.77-9.42a3.7,3.7,0,0,0,.08,2.93c.91,2,18.18,18.71,26.7,22.38,5.46,2.35,7.28,1.06,9.18-.31.2-.15.83-.83,1.24-1.26a194.41,194.41,0,0,0,12.33-15.65A6.77,6.77,0,0,0,102.29,62.49Z"/><path class="cls-1" d="M82.21,76.21c2,.7,2.31.77,3.81.21,1.32-.5,13.75-13.77,14.15-15.11,0-.76,0-1.53-.63-1.92l0,0A107.24,107.24,0,0,0,87.92,54.7c0,.1.11.23.18.37,1.15.39,2.6,1,4,1.56.92.39,1.79.75,2.4,1,1.64.6,3.88,1.43,3.33,3-.39,1.07-8.5,10.19-11.58,13a2.86,2.86,0,0,1-2,.78,3.65,3.65,0,0,1-1.39-.3c-3.33-1.42-10.52-5.43-12-7-.57-.61-.23-1.71.17-3A8.25,8.25,0,0,0,71.56,61c-.59-.51-5.34-2.75-8.5-4.26-4.11-1.94-5.39-2.55-5.75-2.87L54,56.91a5.33,5.33,0,0,0-.88,1.2h.15C53.64,59.89,79.48,75.26,82.21,76.21Z"/><path class="cls-1" d="M83.36,68.23l-.3-.6a7.47,7.47,0,0,0,0-3.09c-.18-1.19-8.7-33-9.39-35A3,3,0,0,1,74,27.1a.44.44,0,0,0,0-.09l.06,0L74,26.9c.13-.09.36-.24.57,0s.08.42,0,.57a2.31,2.31,0,0,0-.27,1.88c.7,2.08,9.24,33.94,9.42,35.14C83.75,64.47,84.23,67.79,83.36,68.23Z"/><path class="cls-1" d="M83.52,68.32c-1,0-2.15-1-3.68-2.36-.89-.79-1.9-1.69-3.08-2.57a2.93,2.93,0,0,1-1-3.29,6.27,6.27,0,0,0-.09-1.47c-.08-.76-.19-1.8-.3-3.37-.23-3.42-5.41-24.69-6.09-26.23a4.32,4.32,0,0,0-1.7-2.2v-.67c.63,0,1.68,1.19,2.3,2.6s5.91,23,6.15,26.46c.1,1.55.21,2.58.3,3.33a6.48,6.48,0,0,1,.07,1.68,2.27,2.27,0,0,0,.78,2.63c1.2.9,2.22,1.8,3.12,2.6,1.43,1.26,2.54,2.26,3.32,2.19s6.35-5.92,6.88-6.88a30.61,30.61,0,0,0-1.92-3.55c-.58-1-1.08-1.84-1.28-2.3-.1-.23-9.57-26.6-9.46-27.29,0-.11,0-.22.05-.33,0-.47.11-.92.48-1.05l.21.63a.17.17,0,0,0,.07,0,2,2,0,0,0-.1.54c0,.12,0,.24,0,.35.14.92,8.91,25.78,9.41,26.92.18.42.7,1.31,1.24,2.24,1.8,3.06,2.14,3.81,1.93,4.2-.41.74-6.35,7.11-7.39,7.22Z"/><path class="cls-1" d="M87.68,9.83c-1.25-7.4-6.46-9-8.42-9.6C78.11-.12,70.78,0,69.93.32a9.21,9.21,0,0,0-1.68,1c-.32-.28-1.57-.25-3.5.42-2.58.89-16.54,8-10.77,17.09,1,1.58,6.68,7.85,17,8.17a17.21,17.21,0,0,0,3.51.36c3.42,0,7.27-.9,9.64-3.13C85.7,22.73,89.15,18.42,87.68,9.83Zm-4,13.87c-3.63,3.4-10.87,3.52-14.26,2.1-3.2-1.33-5.66-6.7-5.72-12.48C63.66,7.37,66.08,2.74,70.2.93A27.84,27.84,0,0,1,75.09.67c.88,0,1.74,0,2.44,0C74,2.56,72.09,8.79,72.31,12.1h.12c-.16,5.59,2.6,11.61,6.43,10.69C83.26,21.71,86.44,11.4,81,6.09,79,4.18,75.81,4,74.46,5.63l-.29.4c1-2.54,2.69-4.83,5-5.13,1.9.58,6.7,2.14,7.88,9C88.47,18.44,84.84,22.62,83.69,23.7Zm-3.6-7c.74-.64.81-4.24.27-5.67a3.36,3.36,0,0,1,1,2c.31,2-.36,4.14-1.36,4.37a.83.83,0,0,1-.72-.2,3.85,3.85,0,0,1-1.2-2.72C78,13,78.57,11,79.41,10.83c.14,0,.26.28.3.36.6,1.42.31,4.68-.06,5Z"/><path class="cls-2" d="M106,60,130.9,46.34l-.21-.38L105.84,59.6A3.54,3.54,0,0,1,106,60Z"/><path class="cls-2" d="M102.4,55.72l22.66-18.19-.27-.34L102,55.45C102.17,55.53,102.28,55.63,102.4,55.72Z"/><path class="cls-2" d="M95.8,53l20-24.86-.34-.27-20,25Z"/><path class="cls-2" d="M90.85,51.16l.23.08,15.91-29-.38-.21L90.77,50.92A2.25,2.25,0,0,1,90.85,51.16Z"/><path class="cls-2" d="M106.92,63.42l26.82-11.11-.16-.4L106.85,63C106.88,63.13,106.9,63.28,106.92,63.42Z"/><path class="cls-2" d="M98.94,54.32l21.72-21.73-.3-.31L98.51,54.13Z"/><path class="cls-2" d="M101.78,55.66l.07,0,.12-.18Z"/><path class="cls-2" d="M103.45,72.71l34.49-3.77-.05-.44L103.8,72.24Z"/><path class="cls-2" d="M65.3,45,58.21,27.88l-.61-.34L64.84,45Z"/><path class="cls-2" d="M106.8,67l29.11-8.48-.12-.42-28.91,8.43C106.86,66.73,106.83,66.89,106.8,67Z"/><path class="cls-2" d="M68.6,45.13l.46,0L64.77,30.44l-.49-.12Z"/><path class="cls-2" d="M57.77,72.93,17.36,68.5l-.05.44,41,4.49Z"/><path class="cls-2" d="M89.47,47.29,101,19.37l-.4-.16L89.25,46.68C89.33,46.89,89.4,47.09,89.47,47.29Z"/><path class="cls-2" d="M49,63.43a2.34,2.34,0,0,1-.09-.24L21.67,51.91l-.16.4L49.17,63.77A2.87,2.87,0,0,1,49,63.43Z"/><path class="cls-2" d="M48.34,59,24.56,46l-.21.38L48.28,59.47C48.29,59.32,48.32,59.16,48.34,59Z"/><path class="cls-2" d="M101.62,75.11l-.33.43h37v-.43Z"/><path class="cls-2" d="M60.17,75.11H17v.43H60.65Z"/><path class="cls-2" d="M52.51,67.78l-33-9.64-.12.42L53.11,68.4Z"/><path class="cls-2" d="M61.51,45.5,48.64,22l-.38.21L61.09,45.63Z"/><path class="cls-2" d="M87.58,41.94,94.8,17.16,94.39,17l-7.06,24.2C87.42,41.47,87.5,41.71,87.58,41.94Z"/><path class="cls-2" d="M56.53,48.7,39.83,27.89l-.34.27L56.21,49Z"/><path class="cls-2" d="M53.66,51.32l.06-.21L34.89,32.28l-.3.31,18.89,18.9Z"/><path class="cls-2" d="M50.92,53.84l.13-.12h0L30.46,37.19l-.27.34L50.75,54Z"/><rect class="cls-2" x="95.7" y="82.15" width="57.76" height="1"/><circle class="cls-2" cx="153.37" cy="82.65" r="1.88"/><rect class="cls-2" x="1.79" y="82.15" width="67.15" height="1"/><circle class="cls-2" cx="1.88" cy="82.65" r="1.88"/></g></g></svg>