<svg xmlns="http://www.w3.org/2000/svg" viewBox="0 0 155.25 77.29"><defs><style>.cls-1{fill:#222;}</style></defs><title>icon-xylophone-med</title><g id="Layer_2" data-name="Layer 2"><g id="Layer_1-2" data-name="Layer 1"><path class="cls-1" d="M102.36,4.23a1.71,1.71,0,0,1,1.82,1l12,26.54a1.67,1.67,0,0,1-.52,2l-9,6.86L91.3,6.75l11-2.5Zm4.47,35.82,8.66-6.57a1.31,1.31,0,0,0,.4-1.59l-12-26.53a1.32,1.32,0,0,0-1.49-.74L91.83,7Z"/><path class="cls-1" d="M98.37,12.81a2.25,2.25,0,1,0,1.12-3A2.26,2.26,0,0,0,98.37,12.81Z"/><path class="cls-1" d="M107.2,32.25a2.25,2.25,0,1,0,1.12-3A2.25,2.25,0,0,0,107.2,32.25Z"/><path class="cls-1" d="M90.18,7l.06.14,15.53,34.19L95.64,49l-.09-.22-17.71-39ZM105.3,41.22,90,7.45,78.37,10.09,95.79,48.45Z"/><path class="cls-1" d="M96.15,40.6a2.25,2.25,0,1,0,1.12-3A2.25,2.25,0,0,0,96.15,40.6Z"/><path class="cls-1" d="M84.88,15.78a2.25,2.25,0,1,0,1.12-3A2.25,2.25,0,0,0,84.88,15.78Z"/><path class="cls-1" d="M76.72,10.09l.06.14L94.72,49.74,84.6,57.43,64.38,12.9ZM94.26,49.62,76.5,10.52,64.91,13.17,84.75,56.84Z"/><path class="cls-1" d="M85.12,49.08a2.26,2.26,0,1,0,1.12-3A2.26,2.26,0,0,0,85.12,49.08Z"/><path class="cls-1" d="M71.44,18.88a2.26,2.26,0,1,0,1.12-3A2.25,2.25,0,0,0,71.44,18.88Z"/><path class="cls-1" d="M63.26,13.16l.06.14L83.68,58.12l-10.12,7.7-.1-.21L50.92,16ZM83.21,58,63.05,13.6,51.46,16.24l22.24,49Z"/><path class="cls-1" d="M74.1,57.41a2.26,2.26,0,1,0,1.12-3A2.25,2.25,0,0,0,74.1,57.41Z"/><path class="cls-1" d="M58,21.92a2.26,2.26,0,1,0,1.12-3A2.26,2.26,0,0,0,58,21.92Z"/><path class="cls-1" d="M49.8,16.23l.06.14L72.64,66.52,64.2,72.93a1.69,1.69,0,0,1-1.44.29h0a1.65,1.65,0,0,1-1.12-.94L38.32,20.93a1.7,1.7,0,0,1,1.16-2.35ZM72.17,66.4,49.58,16.66,39.57,19a1.31,1.31,0,0,0-.89.7,1.35,1.35,0,0,0,0,1.13L62,72.13a1.35,1.35,0,0,0,.87.73h0A1.36,1.36,0,0,0,64,72.63Z"/><path class="cls-1" d="M63.08,65.82a2.26,2.26,0,1,0,1.12-3A2.25,2.25,0,0,0,63.08,65.82Z"/><path class="cls-1" d="M44.54,25a2.25,2.25,0,1,0,1.12-3A2.24,2.24,0,0,0,44.54,25Z"/><path class="cls-1" d="M101.63,28.59l3.92,8.65-1.59,1L100,29.62Zm3.45,8.51-3.62-8-.95.62,3.61,8Z"/><path class="cls-1" d="M78.69,43.49l3.92,8.65-1.59,1-3.93-8.65ZM82.14,52l-3.62-8-1,.62,3.61,7.95Z"/><path class="cls-1" d="M93.61,10.93l3.93,8.65-1.83.52-3.93-8.66Zm3.4,8.4L93.4,11.38l-1.1.31,3.62,8Z"/><path class="cls-1" d="M90.16,36l3.92,8.65-1.59,1-3.93-8.65Zm3.45,8.51-3.62-8-.95.63,3.61,8Z"/><path class="cls-1" d="M54.13,22.12l3.92,8.65-1.83.52L52.3,22.64Zm3.4,8.41-3.61-8-1.1.31,3.61,8Z"/><path class="cls-1" d="M34.78,18.9a1.69,1.69,0,0,1,1.82,1l2.91,6.41L41,25.85l3.92,8.65-1.46.41,11,24.32,1.28-.83,3.92,8.65-1.27.83,2.91,6.4a1.72,1.72,0,0,1,0,1.3,1.69,1.69,0,0,1-.88.94l-1.37.62a1.69,1.69,0,0,1-2.24-.84L32.15,21.89a1.68,1.68,0,0,1,0-1.3,1.63,1.63,0,0,1,.88-.94L34.36,19A1.55,1.55,0,0,1,34.78,18.9Zm4.52,7.82-3-6.7a1.31,1.31,0,0,0-1.74-.65L33.15,20a1.3,1.3,0,0,0-.69.73,1.36,1.36,0,0,0,0,1L57.2,76.14a1.32,1.32,0,0,0,1.74.66l1.37-.62a1.35,1.35,0,0,0,.69-.74,1.29,1.29,0,0,0,0-1l-3-6.7,1.28-.83L55.58,59l-1.27.82-.09-.2L42.91,34.67l1.46-.41-3.61-7.95Z"/><path class="cls-1" d="M67.22,51l3.92,8.65-1.59,1L65.62,52Zm3.45,8.51-3.62-8-1,.62,3.61,8Z"/><path class="cls-1" d="M80.45,14.66l3.93,8.65-1.84.52-3.92-8.65Zm3.4,8.4-3.61-7.95-1.1.31,3.61,8Z"/><path class="cls-1" d="M107.09,0a1.62,1.62,0,0,1,.87.09,1.66,1.66,0,0,1,.94.88l14.2,31.27a1.65,1.65,0,0,1,0,1.29,1.71,1.71,0,0,1-.88,1l-1.37.62a1.7,1.7,0,0,1-2.24-.84L116.71,30l-1.3.84-3.93-8.65,1.3-.84L110.33,16l-1.49.42-3.93-8.65,1.49-.42L104.46,3a1.65,1.65,0,0,1,0-1.29,1.69,1.69,0,0,1,.89-.95l1.36-.62A2.35,2.35,0,0,1,107.09,0ZM120.4,34.88a1.35,1.35,0,0,0,.34-.11l1.36-.62a1.27,1.27,0,0,0,.69-.73,1.36,1.36,0,0,0,0-1L108.56,1.15a1.32,1.32,0,0,0-.74-.69,1.29,1.29,0,0,0-1,0l-1.37.62a1.25,1.25,0,0,0-.68.73,1.27,1.27,0,0,0,0,1l2.13,4.68L105.44,8l3.61,8,1.49-.42,2.71,6-1.29.84,3.61,8,1.3-.85L119,34.12a1.27,1.27,0,0,0,.73.69A1.4,1.4,0,0,0,120.4,34.88Z"/><path class="cls-1" d="M67.29,18.39,71.21,27l-1.83.52-3.92-8.65Zm3.4,8.41-3.61-8-1.1.31,3.61,8Z"/><path class="cls-1" d="M107.59,45.41l-.15.12L118.6,39.4a5.16,5.16,0,0,1-.52-.16l0,0-8.26,4.53Z"/><polygon class="cls-1" points="87.36 60.79 137.94 55.25 137.89 54.82 88.03 60.28 87.36 60.79"/><polygon class="cls-1" points="91.13 57.93 135.91 44.87 135.79 44.46 92.09 57.2 91.13 57.93"/><polygon class="cls-1" points="37.84 44.92 21.68 38.23 21.51 38.63 38.1 45.5 37.84 44.92"/><polygon class="cls-1" points="34.59 37.78 24.56 32.27 24.35 32.66 34.89 38.44 34.59 37.78"/><polygon class="cls-1" points="56.56 10.23 54.62 5.52 54.22 5.69 56.14 10.33 56.56 10.23"/><polygon class="cls-1" points="50.43 11.62 48.64 8.36 48.26 8.57 49.99 11.72 50.43 11.62"/><polygon class="cls-1" points="40.4 50.56 19.46 44.46 19.34 44.87 40.63 51.08 40.4 50.56"/><polygon class="cls-1" points="43.64 57.7 17.36 54.82 17.31 55.25 43.85 58.16 43.64 57.7"/><polygon class="cls-1" points="86.53 61.42 85.96 61.85 138.28 61.85 138.28 61.42 86.53 61.42"/><polygon class="cls-1" points="45.33 61.42 16.98 61.42 16.98 61.85 45.53 61.85 45.33 61.42"/><polygon class="cls-1" points="62.47 8.88 60.86 3.35 60.45 3.47 62.05 8.97 62.47 8.88"/><polygon class="cls-1" points="96.03 54.21 95.9 54.3 133.74 38.63 133.57 38.23 97.26 53.27 96.03 54.21"/><polygon class="cls-1" points="124.32 24.44 125.06 23.84 124.79 23.51 124.14 24.03 124.32 24.44"/><path class="cls-1" d="M127.37,34.59l3.53-1.93-.21-.38L127.5,34A5.07,5.07,0,0,1,127.37,34.59Z"/><path class="cls-1" d="M61.17,59.62h-.1l0,.06Z"/><polygon class="cls-1" points="71.68 6.78 71.68 6.77 71.83 6.74 71.24 1.32 70.81 1.37 71.41 6.84 71.68 6.78"/><polygon class="cls-1" points="77.84 5.37 77.84 0.99 77.41 0.99 77.41 5.47 77.84 5.37"/><polygon class="cls-1" points="84.16 3.92 84.44 1.37 84.01 1.32 83.72 4.03 84.16 3.92"/><line class="cls-1" x1="78.35" y1="69.22" x2="155.25" y2="69.22"/><rect class="cls-1" x="78.35" y="68.72" width="75.12" height="1"/><circle class="cls-1" cx="153.37" cy="69.22" r="1.88"/><line class="cls-1" y1="69.22" x2="46.87" y2="69.22"/><rect class="cls-1" x="1.79" y="68.72" width="45.09" height="1"/><circle class="cls-1" cx="1.88" cy="69.22" r="1.88"/></g></g></svg>