<svg xmlns="http://www.w3.org/2000/svg" viewBox="0 0 155.25 81.62"><defs><style>.cls-1{fill:#222;}</style></defs><title>icon-theremin-med</title><g id="Layer_2" data-name="Layer 2"><g id="Layer_1-2" data-name="Layer 1"><path class="cls-1" d="M113.71,71.8H41.12V54.57h72.59Zm-72.19-.4H113.3V55H41.52Z"/><path class="cls-1" d="M47.54,71.6H44.11l.76,3a1.13,1.13,0,0,0,1.09.86h3.15a1.14,1.14,0,0,0,1.1-.86l.76-3Z"/><path class="cls-1" d="M107.29,71.56h-3.43l.76,3a1.12,1.12,0,0,0,1.1.86h3.14a1.13,1.13,0,0,0,1.1-.86l.76-3Z"/><path class="cls-1" d="M113.5,59.49h.89a3.07,3.07,0,0,1,3.07,3.07v.61a3.07,3.07,0,0,1-3.07,3.07h-.89a0,0,0,0,1,0,0V59.49A0,0,0,0,1,113.5,59.49Z"/><path class="cls-1" d="M77.41,55.06,40.88,55l7.37-8.3h58.33L114,55Zm-35.64-.49,35.64.08,35.65-.08-6.66-7.49h-58Z"/><path class="cls-1" d="M54.93,56.93V71.6h.84V59.05A1.21,1.21,0,0,1,57,57.83H97.84a1.22,1.22,0,0,1,1.22,1.22V71.6h.81V56.93Z"/><path class="cls-1" d="M64.05,66.38a1.67,1.67,0,0,1,0-3.33,1.67,1.67,0,1,1,0,3.33Zm0-2.58a.92.92,0,1,0,.91.92A.92.92,0,0,0,64.05,63.8Z"/><path class="cls-1" d="M61.53,67.72H57.6v-6h3.93ZM58,67.32h3.13V62.11H58Zm2.82-.16H58V62.37h2.8Zm-2.39-.41h2v-4h-2Z"/><path class="cls-1" d="M70.44,67.4a3,3,0,1,1,3-3A3,3,0,0,1,70.44,67.4Zm0-5.61a2.61,2.61,0,1,0,2.6,2.6A2.6,2.6,0,0,0,70.44,61.79Zm0,5a2.42,2.42,0,1,1,2.42-2.42A2.43,2.43,0,0,1,70.44,66.81Zm0-4.43a2,2,0,1,0,2,2A2,2,0,0,0,70.44,62.38Z"/><path class="cls-1" d="M70.44,66.36a2,2,0,1,1,2-2A2,2,0,0,1,70.44,66.36Z"/><path class="cls-1" d="M78.4,67.4a3,3,0,1,1,3-3A3,3,0,0,1,78.4,67.4Zm0-5.61a2.61,2.61,0,1,0,2.6,2.6A2.61,2.61,0,0,0,78.4,61.79Zm0,5a2.42,2.42,0,1,1,2.42-2.42A2.42,2.42,0,0,1,78.4,66.81Zm0-4.43a2,2,0,1,0,2,2A2,2,0,0,0,78.4,62.38Z"/><path class="cls-1" d="M78.4,66.36a2,2,0,1,1,2-2A2,2,0,0,1,78.4,66.36Z"/><path class="cls-1" d="M86.36,67.4a3,3,0,1,1,3-3A3,3,0,0,1,86.36,67.4Zm0-5.61a2.61,2.61,0,1,0,2.6,2.6A2.61,2.61,0,0,0,86.36,61.79Zm0,5a2.42,2.42,0,1,1,2.42-2.42A2.42,2.42,0,0,1,86.36,66.81Zm0-4.43a2,2,0,1,0,2,2A2,2,0,0,0,86.36,62.38Z"/><path class="cls-1" d="M86.36,66.36a2,2,0,1,1,2-2A2,2,0,0,1,86.36,66.36Z"/><path class="cls-1" d="M94.32,67.4a3,3,0,1,1,3-3A3,3,0,0,1,94.32,67.4Zm0-5.61a2.61,2.61,0,1,0,2.6,2.6A2.61,2.61,0,0,0,94.32,61.79Zm0,5a2.42,2.42,0,1,1,2.41-2.42A2.42,2.42,0,0,1,94.32,66.81Zm0-4.43a2,2,0,1,0,2,2A2,2,0,0,0,94.32,62.38Z"/><path class="cls-1" d="M94.32,66.36a2,2,0,1,1,2-2A2,2,0,0,1,94.32,66.36Z"/><path class="cls-1" d="M97.39,70.64H84v-2h13.4Zm-13-.4H97V69H84.39Z"/><path class="cls-1" d="M38.7,63.77H36.25a.21.21,0,0,1-.2-.15l-.22-.89a.17.17,0,0,1,0-.1l.22-.9a.21.21,0,0,1,.2-.15H38.7a.21.21,0,0,1,.2.15l.25.89a.2.2,0,0,1,0,.11l-.25.9A.22.22,0,0,1,38.7,63.77Zm-2.29-.4h2.14l.19-.69-.19-.7H36.41l-.18.7Z"/><path class="cls-1" d="M38.7,62H36.25a.2.2,0,0,1-.15-.07.22.22,0,0,1-.05-.17l.05-.26a.21.21,0,0,1,.07-.11l.31-.27a.21.21,0,0,1,.13-.05h2.45a.21.21,0,0,1,.16.08.19.19,0,0,1,0,.16l0,.27a.19.19,0,0,1-.07.11l-.31.26A.15.15,0,0,1,38.7,62Zm-2.16-.4h2.09l.14-.12H36.69Z"/><path class="cls-1" d="M39.17,64.64H36.71a.21.21,0,0,1-.15-.07l-.36-.44a.12.12,0,0,1,0-.08l-.11-.43a.21.21,0,0,1,.2-.25H38.7a.24.24,0,0,1,.16.07l.36.44a.2.2,0,0,1,0,.08l.1.43a.18.18,0,0,1,0,.17A.18.18,0,0,1,39.17,64.64Zm-2.36-.4h2.1l0-.14-.27-.33H36.5l0,.14Z"/><path class="cls-1" d="M39.17,64.64h0a.22.22,0,0,1-.16-.16l-.09-.38-.33-.4a.2.2,0,0,1,0-.18l.23-.84-.23-.85a.19.19,0,0,1,.06-.2l.26-.22,0-.19a.18.18,0,0,1,.13-.15.17.17,0,0,1,.19,0l.36.3a.19.19,0,0,1,.08.15l0,2.45a.27.27,0,0,1,0,.12l-.29.43A.18.18,0,0,1,39.17,64.64Zm-.24-1.11.29.35,0,0,0-2.27,0,0a.12.12,0,0,1,0,.05l-.21.18.22.77a.2.2,0,0,1,0,.11Z"/><rect class="cls-1" x="40.12" y="61.1" width="1.2" height="3.63" rx="0.55" ry="0.55"/><rect class="cls-1" x="39.17" y="61.52" width="0.96" height="2.81" rx="0.43" ry="0.43"/><path class="cls-1" d="M116.29,59.69H114v-.2L114.32.93h-.11l0-.16c0-.08,0-.14,0-.17,0-.34.42-.6,1-.6s1,.26,1,.6c0,0,0,.17,0,.17l0,.16h-.12Zm-1.93-.4h1.52L115.51.53h.12a1.07,1.07,0,0,0-1,0h.12v.2Z"/><path class="cls-1" d="M14.73,66.34a15.36,15.36,0,0,1-4.94-.74c-2.68-.93-4-2-4.31-3.39-.28-1.55.93-2.82,2.27-4C9.68,56.65,13.84,56,17,55.81h0c1.29-.09,15.8-.05,24.33,0h.2v2.08h-.2c-6.85,0-22.93-.07-24.18,0-4,.29-6.89,1-8,2s-1.63,1.59-1.56,2c0,.14.29.88,2.94,1.8,3.11,1.07,7.46.79,12.91-.85l.05,0,.37-.1a72.84,72.84,0,0,1,8-1.11l4.43,0h.25l0,.24-.22.87.25,1h-1l-3.65,0a75.43,75.43,0,0,0-7.49,1l-.35.11A32.84,32.84,0,0,1,14.73,66.34ZM17,56.22c-3.09.22-7.16.81-9,2.35-1.25,1.06-2.38,2.22-2.13,3.57s1.51,2.2,4,3.08c3.44,1.18,8.17.9,13.94-.83l.37-.11a74.54,74.54,0,0,1,7.59-1.05H36l-.15-.57L36,62l-4.17,0a73.43,73.43,0,0,0-7.92,1.1l-.35.1-.05,0c-5.54,1.66-10,1.94-13.16.84-2.62-.9-3.13-1.71-3.2-2.11C7,61.19,8,60.27,8.83,59.55c1.22-1,4.24-1.77,8.28-2.06,1.25-.09,17-.05,24,0V56.19c-7,0-22.79-.07-24.1,0Z"/><path class="cls-1" d="M119.76,67.59l18.34-2,0-.43-18,2A3.54,3.54,0,0,1,119.76,67.59Z"/><polygon class="cls-1" points="100.48 43.85 111.31 30.36 111.31 29.66 99.93 43.85 100.48 43.85"/><polygon class="cls-1" points="105.45 43.85 106.07 43.85 111.26 38.66 111.26 38.04 105.45 43.85"/><polygon class="cls-1" points="109.72 45.95 110.01 46.27 111.22 45.3 111.22 44.74 109.72 45.95"/><polygon class="cls-1" points="80.92 43.85 84.46 11.55 84.03 11.51 80.49 43.85 80.92 43.85"/><polygon class="cls-1" points="66.2 43.85 54.55 15.71 54.15 15.88 65.74 43.85 66.2 43.85"/><polygon class="cls-1" points="49.8 43.85 34.77 28.83 34.47 29.13 49.18 43.85 49.8 43.85"/><polygon class="cls-1" points="55.32 43.85 39.73 24.42 39.39 24.69 54.77 43.85 55.32 43.85"/><polygon class="cls-1" points="62.44 43.85 48.56 18.56 48.18 18.77 61.94 43.85 62.44 43.85"/><polygon class="cls-1" points="74.76 43.85 71.22 11.51 70.79 11.55 74.33 43.85 74.76 43.85"/><polygon class="cls-1" points="69.65 43.85 60.81 13.54 60.4 13.66 69.2 43.85 69.65 43.85"/><rect class="cls-1" x="116.53" y="71.77" width="21.91" height="0.43"/><rect class="cls-1" x="16.81" y="71.77" width="21.49" height="0.43"/><polygon class="cls-1" points="45.29 45.75 30.33 33.75 30.06 34.09 45 46.08 45.29 45.75"/><rect class="cls-1" x="77.41" y="11.17" width="0.43" height="32.68"/><path class="cls-1" d="M32.21,52.94,21.52,48.51l-.17.4,9.72,4Z"/><polygon class="cls-1" points="40.36 51.29 24.41 42.54 24.2 42.92 40.07 51.63 40.36 51.29"/><polygon class="cls-1" points="86.05 43.85 94.85 13.66 94.44 13.54 85.6 43.85 86.05 43.85"/><polygon class="cls-1" points="119.08 55.05 133.9 48.91 133.73 48.51 119.08 54.58 119.08 55.05"/><path class="cls-1" d="M38.3,67.47H36.71a3,3,0,0,1-1.38-.34l-4.91-.53-1.81.23L38.3,67.9Z"/><path class="cls-1" d="M120.29,59.78l15.78-4.61-.12-.41-15.71,4.58A3.12,3.12,0,0,1,120.29,59.78Z"/><polygon class="cls-1" points="89.51 43.85 101.1 15.88 100.7 15.71 89.05 43.85 89.51 43.85"/><polygon class="cls-1" points="93.31 43.85 107.07 18.77 106.69 18.56 92.81 43.85 93.31 43.85"/><polygon class="cls-1" points="119.05 49.51 131.05 42.92 130.84 42.54 119.05 49.01 119.05 49.51"/><polygon class="cls-1" points="118.98 39.07 125.19 34.09 124.92 33.75 118.98 38.51 118.98 39.07"/><polygon class="cls-1" points="118.93 30.98 120.78 29.13 120.47 28.83 118.93 30.37 118.93 30.98"/><rect class="cls-1" x="1.79" y="79.24" width="151.68" height="1"/><circle class="cls-1" cx="1.88" cy="79.74" r="1.88"/><circle class="cls-1" cx="153.37" cy="79.74" r="1.88"/></g></g></svg>