<svg xmlns="http://www.w3.org/2000/svg" viewBox="0 0 206.75 42.42"><defs><style>.cls-1{fill:#fff;}</style></defs><title>icon-headphones-sm-white</title><g id="Layer_2" data-name="Layer 2"><g id="Layer_1-2" data-name="Layer 1"><path class="cls-1" d="M95.14,6h0a3.5,3.5,0,0,1-2.24-.68l.22-.24a3.14,3.14,0,0,0,2,.6h0a5.09,5.09,0,0,0,1.21-.22,25.23,25.23,0,0,1,14.1,0,5.25,5.25,0,0,0,1.22.22h0a3.16,3.16,0,0,0,2-.6l.21.24a3.45,3.45,0,0,1-2.23.68h0a5.38,5.38,0,0,1-1.3-.23,24.82,24.82,0,0,0-13.93,0A5.38,5.38,0,0,1,95.14,6Z"/><path class="cls-1" d="M110,4.55a5.32,5.32,0,0,1-1-.15,20.73,20.73,0,0,0-11.05,0,5,5,0,0,1-1,.15A3.14,3.14,0,0,1,95,4.1l.19-.26a2.85,2.85,0,0,0,1.6.39h0a5.06,5.06,0,0,0,1-.14,21.12,21.12,0,0,1,11.21,0,6,6,0,0,0,1,.14,2.81,2.81,0,0,0,1.59-.39l.19.26a3.08,3.08,0,0,1-1.78.45Z"/><path class="cls-1" d="M89.19,9.87l-2-1,.1-.15a21,21,0,0,1,3.37-4,17,17,0,0,1,5.67-3.49,21.71,21.71,0,0,1,14.06,0,17,17,0,0,1,5.68,3.49,22,22,0,0,1,3.36,4l.09.15-2,1-.08-.12A15.89,15.89,0,0,0,103.4,2.11,15.91,15.91,0,0,0,89.27,9.75Zm-1.5-1.16,1.4.74A16.18,16.18,0,0,1,103.4,1.79a16.15,16.15,0,0,1,14.3,7.65l1.4-.75a21.19,21.19,0,0,0-3.21-3.8,16.84,16.84,0,0,0-5.57-3.42,21.4,21.4,0,0,0-13.84,0,16.8,16.8,0,0,0-5.56,3.42A21.08,21.08,0,0,0,87.69,8.71Z"/><path class="cls-1" d="M84.34,42.42h0a1,1,0,0,1-.44-.1,1,1,0,0,1-.52-1.4l.07-.15a.76.76,0,0,0,0-.11.3.3,0,0,0,0-.1.78.78,0,0,0,0-.16.51.51,0,0,0,0-.13l0-.25c0-.26-.08-.51-.13-.77l-.12-.62.3.15.79.45,0,.15c0,.15.06.29.1.44l.08.23,0,.11a.57.57,0,0,0,.08.13s0,0,.06.05a.13.13,0,0,0,.06,0,1.06,1.06,0,0,1-.42,2Zm-.67-3.2c0,.25.09.5.12.76l0,.24c0,.06,0,.11,0,.16a1,1,0,0,1,0,.25.5.5,0,0,1,0,.13.78.78,0,0,1-.05.14l-.07.15A.74.74,0,0,0,84,42a.67.67,0,0,0,.31.07h0a.74.74,0,0,0,.31-1.41l-.16-.1-.09-.09a1.48,1.48,0,0,1-.13-.21s0-.1,0-.14l-.07-.25a3.43,3.43,0,0,1-.11-.46h0ZM82.52,27.43l0-.61c0-.15,0-.29,0-.44,0-.52.09-1,.14-1.57l0-.26c0-.18,0-.36,0-.53L83,22.44a.65.65,0,0,0,0-.14,1.59,1.59,0,0,0-.07-.2.8.8,0,0,1-.11-.53.5.5,0,0,1,0-.13l0-.06,0-.11L83,20.8c.07-.25.15-.51.22-.77l.3-1a1,1,0,0,1-.45-.81L83,16a1,1,0,0,1,.76-1.06,1.46,1.46,0,0,0,.75-.61l.07-.1,2.94.8,0,.14a10.66,10.66,0,0,0-.21,2.7V18c0,.23-.16.41-.39.67a4.87,4.87,0,0,0-.77,1l-.26,1c0,.24-.11.49-.16.73l-.09.44a.36.36,0,0,0,0,.1s0,.05,0,.07a.49.49,0,0,1,0,.12.77.77,0,0,1-.32.43l-.06.05-.08.08a.32.32,0,0,0,0,.13q-.12.36-.21.72c-.07.25-.13.49-.19.74s-.11.49-.15.73-.12.68-.18,1v.06Zm1.27-12.18a.72.72,0,0,0-.51.72l.12,2.25a.74.74,0,0,0,.4.61l.13.06-.05.13c-.11.37-.23.73-.33,1.1s-.15.51-.22.77l-.12.45a.5.5,0,0,1,0,.13.37.37,0,0,1,0,.11l0,.07a.62.62,0,0,0,.1.32,1.58,1.58,0,0,1,.09.26.7.7,0,0,1,0,.25l-.16,1.57-.06.53,0,.26c-.05.52-.1,1-.14,1.57,0,.12,0,.25,0,.38L84,26c0-.32.1-.65.16-1s.11-.5.16-.74.12-.5.19-.75l.21-.74a.75.75,0,0,1,.11-.22.41.41,0,0,1,.09-.1l.1-.09c.09-.07.2-.16.21-.23v-.19l0-.12.09-.44c0-.24.11-.49.16-.73s.18-.72.28-1.08a5.67,5.67,0,0,1,.82-1.11c.17-.18.32-.34.32-.43v-.15a11,11,0,0,1,.19-2.63l-2.44-.66a1.83,1.83,0,0,1-.85.65Z"/><path class="cls-1" d="M90.17,41.46l0-.19s0-.05,0-.07l-1-17.14a.18.18,0,0,0,0-.06l-.06-.19,1.26-.06h.11A2.62,2.62,0,0,1,93,26.34a70.13,70.13,0,0,0,.69,12.21,2.86,2.86,0,0,1-.7,2.07,2.3,2.3,0,0,1-1.6.78Zm-.6-17.35,1,17,.89-.05a2,2,0,0,0,1.38-.67,2.52,2.52,0,0,0,.61-1.83,70.41,70.41,0,0,1-.68-12.24,2.3,2.3,0,0,0-2.27-2.27Z"/><path class="cls-1" d="M87.79,42.12c-.59,0-1-.32-1.07-.75l-1-17.13a.63.63,0,0,1,.18-.48,1.21,1.21,0,0,1,.87-.37l1.69-.08c.58,0,1,.32,1.06.74l1,17.14a.62.62,0,0,1-.18.47,1.21,1.21,0,0,1-.87.37Zm.71-18.5h-.06l-1.61.07a1,1,0,0,0-.65.27.37.37,0,0,0-.11.25l1,17.14c0,.24.35.44.75.44h.06l1.61-.08a1,1,0,0,0,.65-.27.36.36,0,0,0,.1-.25l-1-17.14C89.23,23.82,88.9,23.62,88.5,23.62Z"/><path class="cls-1" d="M90.18,40.7l-.91-16.13.65,0H90a2.38,2.38,0,0,1,2.19,2.39,68,68,0,0,0,.62,11.14A2.67,2.67,0,0,1,92.18,40a2,2,0,0,1-1.36.67Zm-.57-15.83.87,15.5.33,0A1.66,1.66,0,0,0,92,39.79a2.33,2.33,0,0,0,.55-1.7,68.3,68.3,0,0,1-.62-11.17A2.06,2.06,0,0,0,90,24.85Z"/><path class="cls-1" d="M83.46,18.55l-.88-.27L82.46,16l.85-.36ZM82.89,18l.23.07-.1-2-.23.1Z"/><path class="cls-1" d="M85.73,15.87a.46.46,0,0,1,.48.39l.06,1.09a.46.46,0,0,1-.47.44l-1.29.07h0a.46.46,0,0,1-.48-.39l0-1.09a.45.45,0,0,1,.47-.44l1.29-.07Zm0-.31h0l-1.29.06a.81.81,0,0,0-.54.23.69.69,0,0,0-.23.55l0,1.09a.79.79,0,0,0,.8.69h0l1.29-.07a.81.81,0,0,0,.54-.23.68.68,0,0,0,.23-.55l0-1.08a.77.77,0,0,0-.8-.69Z"/><path class="cls-1" d="M87.36,15.3h-.07l-2.87-.77a.33.33,0,0,1-.18-.15.44.44,0,0,1,0-.34l.53-1.95a.4.4,0,0,1,.36-.31h.08l2.86.77a.35.35,0,0,1,.19.15.49.49,0,0,1,0,.34l-.53,2A.4.4,0,0,1,87.36,15.3Zm-2.28-3.22s0,0,0,.08l-.53,2c0,.05,0,.09,0,.09l2.84.77a.11.11,0,0,0,0-.08l.53-2a.16.16,0,0,0,0-.1Z"/><path class="cls-1" d="M87.9,12.85l-2.61-.71L86.7,8.66a.39.39,0,0,1,.53-.19l2.16,1.15a.35.35,0,0,1,.19.24.36.36,0,0,1,0,.3A21.64,21.64,0,0,0,88,12.73Zm-2.18-.92,2,.54A20.46,20.46,0,0,1,89.27,10a0,0,0,0,0,0,0s0,0,0,0L87.08,8.75s-.07,0-.08,0Z"/><path class="cls-1" d="M86.86,14.6H86.8l-1.6-.44a.27.27,0,0,1-.15-.11.31.31,0,0,1,0-.25l.29-1.09a.31.31,0,0,1,.27-.23h.06l1.61.44a.28.28,0,0,1,.17.35l-.3,1.1A.31.31,0,0,1,86.86,14.6Zm-1.52-.74,1.49.4.29-1-1.49-.41Z"/><path class="cls-1" d="M88.5,23.47c.49,0,.88.25.9.59l1,17.13c0,.36-.39.66-.91.69L87.85,42h-.06c-.49,0-.89-.26-.91-.59l-1-17.14c0-.35.38-.66.9-.68l1.61-.08Zm-1.91,2.34,2.33-.16-.08-1.51-2.34.16.09,1.51ZM86.71,28,89,27.86,89,26.35l-2.33.16L86.71,28Zm.12,2.21,2.34-.15-.09-1.51-2.33.15.08,1.51ZM87,32.45l2.34-.16-.09-1.51-2.33.16L87,32.45Zm.12,2.21,2.34-.16L89.33,33,87,33.15l.08,1.51Zm.13,2.21,2.33-.15-.08-1.51-2.34.15.09,1.51Zm.12,2.22,2.33-.16-.08-1.51-2.33.16.08,1.51Zm.12,2.21,2.34-.16-.09-1.51-2.33.16.08,1.51ZM88.5,23.15h-.09l-1.61.08a1.41,1.41,0,0,0-1,.42.79.79,0,0,0-.22.59l1,17.14a1.11,1.11,0,0,0,1.23.89h.08l1.61-.08a1.39,1.39,0,0,0,1-.42.76.76,0,0,0,.22-.59L89.72,24a1.1,1.1,0,0,0-1.22-.89Zm-1.66,1.44,1.7-.11,0,.87-1.7.12,0-.88ZM87,26.81l1.7-.12,0,.88-1.7.11L87,26.81ZM87.08,29l1.7-.12,0,.88-1.7.11,0-.87Zm.12,2.21,1.71-.11L89,32l-1.7.12,0-.88Zm.13,2.22,1.7-.12,0,.88-1.7.11,0-.87Zm.12,2.21,1.7-.12,0,.88-1.7.11,0-.87Zm.12,2.21,1.7-.11,0,.87-1.7.12-.05-.88Zm.12,2.21,1.7-.11,0,.88-1.7.11,0-.88Z"/><path class="cls-1" d="M85.62,25.26c.17,0,.25.17.07.3l-.73.53.76,13.54.79.45a.16.16,0,0,1-.09.3.4.4,0,0,1-.2-.07l-3.44-2a1.29,1.29,0,0,1-.65-.91l-.49-8.81a1.25,1.25,0,0,1,.54-1l3.2-2.3a.45.45,0,0,1,.24-.09Zm0-.31a.75.75,0,0,0-.43.15L82,27.4a1.57,1.57,0,0,0-.68,1.24l.5,8.81a1.58,1.58,0,0,0,.8,1.16l3.44,2a.7.7,0,0,0,.36.1.49.49,0,0,0,.49-.35.47.47,0,0,0-.24-.53L86,39.44l-.74-13.2.6-.43a.48.48,0,0,0,.21-.54.47.47,0,0,0-.47-.32Z"/><path class="cls-1" d="M82.88,28l.56,10-.21-.12a.76.76,0,0,1-.34-.44l-.49-8.81a.68.68,0,0,1,.28-.47l.2-.14Zm.29-.6-.67.49a1,1,0,0,0-.42.74l.5,8.81a1,1,0,0,0,.49.7l.72.41-.62-11.15Z"/><path class="cls-1" d="M84.36,26.9l.67,12-.6-.35L83.8,27.31l.56-.41Zm.29-.59-1.17.84.64,11.56,1.26.73-.73-13.13Z"/><path class="cls-1" d="M122.42,42.42h0a1.06,1.06,0,0,1-.45-2,.21.21,0,0,0,.08,0l.06-.06.09-.13,0-.11,0-.06a1,1,0,0,0,0-.18c0-.14.07-.28.1-.43l0-.15,1.1-.63-.13.66c0,.25-.09.5-.12.76l0,.25s0,.09,0,.13a1,1,0,0,0,0,.17.32.32,0,0,0,0,.09.76.76,0,0,0,0,.11l.07.15a1.06,1.06,0,0,1-.52,1.4A1,1,0,0,1,122.42,42.42Zm.3-3h0c0,.16-.06.31-.1.46l-.06.19v0a.94.94,0,0,1-.06.15.67.67,0,0,1-.12.2l-.1.1a.68.68,0,0,1-.14.09.74.74,0,0,0,.3,1.42h0a.7.7,0,0,0,.31-.07.74.74,0,0,0,.36-1L123,40.9l-.06-.14,0-.13a1,1,0,0,1,0-.24.78.78,0,0,1,0-.16l0-.25c0-.26.08-.51.13-.76Zm1.51-12-1.78-1.28v-.06c0-.35-.1-.69-.17-1s-.1-.49-.16-.74-.12-.48-.18-.73l-.21-.72c0-.05,0-.09,0-.13l-.06-.06-.08-.07a.8.8,0,0,1-.33-.42V22l-.11-.54c0-.24-.11-.49-.17-.73s-.17-.71-.27-1.06a5.07,5.07,0,0,0-.75-1c-.24-.26-.41-.44-.4-.67v-.16a11.62,11.62,0,0,0-.21-2.69l0-.14,2.94-.8.06.1a1.5,1.5,0,0,0,.75.61h0a1,1,0,0,1,.76,1.05l-.12,2.24a1,1,0,0,1-.46.81q.17.5.3,1c.08.26.15.51.22.77l.13.46,0,.11a.15.15,0,0,0,0,.07.5.5,0,0,1,0,.13.79.79,0,0,1-.11.53,1.14,1.14,0,0,0-.07.19.38.38,0,0,0,0,.15L124,24l.06.56,0,.23c0,.53.11,1.05.14,1.57,0,.15,0,.29,0,.44ZM122.75,26l1.13.82c0-.13,0-.26,0-.38,0-.53-.09-1.05-.14-1.57l0-.23c0-.18,0-.37,0-.56l-.17-1.57a.58.58,0,0,1,0-.26.84.84,0,0,1,.09-.25.6.6,0,0,0,.09-.32s0,0,0-.07a.37.37,0,0,1,0-.11l0-.13-.12-.45c-.07-.26-.15-.51-.22-.77s-.22-.73-.34-1.1l0-.13.12-.06a.7.7,0,0,0,.4-.61l.12-2.25a.71.71,0,0,0-.52-.73,1.76,1.76,0,0,1-.88-.65l-2.43.66a11.4,11.4,0,0,1,.19,2.62V18c0,.09.14.25.31.43a5.09,5.09,0,0,1,.81,1.08c.11.39.21.75.29,1.11s.12.49.17.73l.09.45a.52.52,0,0,1,0,.11.62.62,0,0,1,0,.13.06.06,0,0,0,0,.06c0,.07.12.16.21.23l.07.07a.67.67,0,0,1,.12.12.52.52,0,0,1,.1.23c.08.24.15.48.21.73s.13.49.19.74.11.5.16.75S122.7,25.65,122.75,26Z"/><path class="cls-1" d="M116.59,41.46l-1.26-.06a2.31,2.31,0,0,1-1.6-.78,2.83,2.83,0,0,1-.69-2,70.4,70.4,0,0,0,.68-12.22,2.6,2.6,0,0,1,2.6-2.6l1.26.06-.06.19a.35.35,0,0,1,0,.06l-1,17.14a.2.2,0,0,0,0,.07Zm-.38-17.4a2.31,2.31,0,0,0-2.17,2.3,69.72,69.72,0,0,1-.69,12.24,2.51,2.51,0,0,0,.62,1.81,2,2,0,0,0,1.38.67l.88.05,1-17-.88,0Z"/><path class="cls-1" d="M119,42.12h-.08L117.28,42a1.23,1.23,0,0,1-.87-.37.62.62,0,0,1-.18-.47l1-17.14c0-.43.48-.74,1.07-.74h.07l1.61.08a1.23,1.23,0,0,1,.88.37.67.67,0,0,1,.18.48l-1,17.13C120,41.8,119.55,42.12,119,42.12Zm-.71-18.5c-.4,0-.74.2-.75.45l-1,17.13a.32.32,0,0,0,.1.25,1,1,0,0,0,.65.27l1.67.08c.4,0,.73-.2.75-.44l1-17.14a.32.32,0,0,0-.1-.25,1,1,0,0,0-.65-.27Z"/><path class="cls-1" d="M116.58,40.7l-.65,0a2,2,0,0,1-1.36-.67,2.71,2.71,0,0,1-.64-1.93,67,67,0,0,0,.63-11.14,2.36,2.36,0,0,1,2.27-2.4l.65,0Zm.16-15.85a2,2,0,0,0-1.86,2.09,67.27,67.27,0,0,1-.63,11.16,2.33,2.33,0,0,0,.56,1.69,1.64,1.64,0,0,0,1.14.56l.33,0,.87-15.5Z"/><path class="cls-1" d="M123.29,18.55l.15-2.9.85.36-.11,2.27Zm.45-2.43-.11,2,.24-.07.1-1.82Z"/><path class="cls-1" d="M121,15.87h0l1.29.07a.46.46,0,0,1,.47.44l-.06,1.09a.45.45,0,0,1-.48.39h0L121,17.79a.46.46,0,0,1-.47-.44l.06-1.09a.45.45,0,0,1,.48-.39Zm0-.31a.77.77,0,0,0-.8.69l-.06,1.08a.68.68,0,0,0,.23.55.83.83,0,0,0,.54.23l1.29.07h0a.77.77,0,0,0,.8-.69l.06-1.09a.69.69,0,0,0-.23-.55.83.83,0,0,0-.54-.23l-1.29-.06Z"/><path class="cls-1" d="M119.39,15.3A.39.39,0,0,1,119,15l-.53-2a.44.44,0,0,1,0-.34.32.32,0,0,1,.19-.15l2.94-.78a.39.39,0,0,1,.35.31l.53,1.95a.38.38,0,0,1-.22.49Zm2.27-3.22-2.85.78a.23.23,0,0,0,0,.09l.53,2s0,.08,0,.08l2.86-.77a.23.23,0,0,0,0-.09l-.53-1.95A.18.18,0,0,0,121.66,12.08Z"/><path class="cls-1" d="M118.85,12.85l0-.12a20.24,20.24,0,0,0-1.57-2.56.44.44,0,0,1-.06-.31.41.41,0,0,1,.19-.24l2.17-1.15a.38.38,0,0,1,.52.19l1.42,3.48Zm.86-4.11-2.2,1.16s0,0,0,0a.06.06,0,0,0,0,0A21,21,0,0,1,119,12.47l2-.54-1.28-3.15A.07.07,0,0,0,119.71,8.74Z"/><path class="cls-1" d="M119.89,14.6a.28.28,0,0,1-.26-.23l-.3-1.1a.27.27,0,0,1,.17-.35l1.66-.45a.29.29,0,0,1,.27.23l.3,1.09a.35.35,0,0,1,0,.25.22.22,0,0,1-.14.11Zm-.25-1.39.29,1.06,1.49-.41-.29-1.06Z"/><path class="cls-1" d="M118.26,23.47h.07l1.61.08c.51,0,.92.33.9.68l-1,17.14c0,.33-.42.59-.91.59h-.07l-1.61-.07c-.52,0-.92-.33-.9-.69l1-17.13c0-.34.42-.59.91-.59Zm1.91,2.34.08-1.51-2.33-.16-.09,1.51,2.34.16ZM120.05,28l.08-1.51-2.33-.16-.09,1.51,2.34.16Zm-.12,2.21.08-1.51-2.34-.15-.08,1.51,2.34.15Zm-.13,2.22.09-1.51-2.34-.16-.08,1.51,2.33.16Zm-.12,2.21.08-1.51L117.43,33l-.08,1.51,2.33.16Zm-.12,2.21.08-1.51-2.33-.15-.09,1.51,2.34.15Zm-.12,2.22.08-1.51-2.33-.16-.09,1.51,2.34.16Zm-.12,2.21.08-1.51-2.34-.16L117,41.14l2.34.16Zm-1.06-18.15c-.67,0-1.2.38-1.22.89l-1,17.14a.84.84,0,0,0,.22.59,1.44,1.44,0,0,0,1,.42l1.61.08H119c.67,0,1.2-.38,1.22-.89l1-17.14a.8.8,0,0,0-.23-.59,1.39,1.39,0,0,0-1-.42l-1.61-.08Zm-.09,2.2,0-.87,1.7.11,0,.88-1.7-.12Zm-.12,2.22,0-.88,1.71.12,0,.87-1.7-.11Zm-.13,2.21,0-.88,1.7.12,0,.87-1.71-.11ZM117.8,32l0-.87,1.7.11,0,.88L117.8,32Zm-.12,2.22,0-.88,1.7.12-.05.87-1.7-.11Zm-.12,2.21,0-.88,1.7.12,0,.87-1.7-.11Zm-.12,2.21,0-.87,1.7.11,0,.88-1.7-.12Zm-.13,2.22,0-.88,1.7.11,0,.88-1.71-.11Z"/><path class="cls-1" d="M121.14,25.26a.45.45,0,0,1,.24.09l3.2,2.3a1.31,1.31,0,0,1,.54,1l-.5,8.81a1.28,1.28,0,0,1-.64.91l-3.44,2a.4.4,0,0,1-.21.07.16.16,0,0,1-.08-.3l.79-.45.76-13.54-.74-.53c-.17-.13-.1-.3.08-.3Zm0-.31a.46.46,0,0,0-.26.86l.59.43-.74,13.2-.64.37a.46.46,0,0,0-.24.53.48.48,0,0,0,.48.35.76.76,0,0,0,.37-.1l3.43-2a1.56,1.56,0,0,0,.81-1.16l.49-8.81a1.56,1.56,0,0,0-.67-1.24l-3.2-2.3a.7.7,0,0,0-.42-.15Z"/><path class="cls-1" d="M123.87,28l.2.14a.75.75,0,0,1,.29.47l-.5,8.81a.69.69,0,0,1-.34.44l-.21.12.56-10Zm-.28-.6L123,38.52l.72-.41a1,1,0,0,0,.5-.7l.49-8.81a1,1,0,0,0-.41-.74l-.67-.49Z"/><path class="cls-1" d="M122.39,26.9l.56.41-.63,11.21-.6.35.67-12Zm-.28-.59-.74,13.13,1.26-.73.65-11.56-1.17-.84Z"/><path class="cls-1" d="M40.57,30.51l5.55-.29c3.33-.18,7.76-.32,12.2-.5l3.31-.15c1.09-.06,2.16-.11,3.2-.12s2,0,3,.09,1.86.11,2.69.18a46.1,46.1,0,0,1,5.54.79v.23a45.08,45.08,0,0,1-5.54.78c-.83.08-1.74.14-2.69.19s-2,.08-3,.08-2.11-.05-3.2-.11l-3.31-.16c-4.44-.17-8.87-.31-12.2-.5l-5.55-.28Z"/><path class="cls-1" d="M0,34.51l11.88-.29C19,34,28.52,33.9,38,33.72l7.1-.15c2.34-.06,4.64-.11,6.87-.12s4.38,0,6.42.08,4,.11,5.76.19c7.13.28,11.88.79,11.88.79v.22s-4.75.51-11.88.79c-1.78.08-3.72.14-5.76.19s-4.2.08-6.42.08-4.53,0-6.87-.11L38,35.52c-9.51-.17-19-.32-26.15-.5L0,34.73Z"/><path class="cls-1" d="M40.57,38.51l5.55-.29c3.33-.18,7.76-.32,12.2-.5l3.31-.15c1.09-.07,2.16-.11,3.2-.12s2,0,3,.08,1.86.11,2.69.19a43.73,43.73,0,0,1,5.54.79v.22a43.73,43.73,0,0,1-5.54.79c-.83.08-1.74.14-2.69.19s-2,.08-3,.08-2.11,0-3.2-.12l-3.31-.15c-4.44-.17-8.87-.32-12.2-.5l-5.55-.29Z"/><path class="cls-1" d="M166.18,38.73l-5.54.29c-3.33.18-7.76.33-12.2.5l-3.31.15c-1.09.07-2.17.11-3.21.12s-2,0-3-.08-1.86-.11-2.69-.19a43.73,43.73,0,0,1-5.55-.79v-.22a43.73,43.73,0,0,1,5.55-.79c.83-.08,1.73-.14,2.69-.19s1.95-.08,3-.08,2.12,0,3.21.12l3.31.15c4.44.18,8.87.32,12.2.5l5.54.29Z"/><path class="cls-1" d="M206.75,34.73,194.87,35c-7.13.18-16.64.32-26.15.49l-7.09.16c-2.34.06-4.64.1-6.87.11s-4.38,0-6.43-.08-4-.11-5.75-.19c-7.13-.28-11.89-.78-11.89-.78v-.22s4.76-.5,11.89-.78c1.78-.08,3.71-.14,5.75-.19s4.2-.08,6.43-.08,4.53,0,6.87.12l7.09.15c9.51.17,19,.31,26.15.49l11.88.29Z"/><path class="cls-1" d="M166.18,30.74l-5.54.28c-3.33.19-7.76.33-12.2.5l-3.31.16c-1.09.06-2.17.1-3.21.11s-2,0-3-.08-1.86-.11-2.69-.19a45.08,45.08,0,0,1-5.55-.78v-.23a46.09,46.09,0,0,1,5.55-.79c.83-.07,1.73-.14,2.69-.18s1.95-.09,3-.09,2.12.06,3.21.12l3.31.15c4.44.18,8.87.32,12.2.5l5.54.29Z"/></g></g></svg>