<svg xmlns="http://www.w3.org/2000/svg" viewBox="0 0 193.75 27.59"><defs><style>.cls-1{fill:#fff;}</style></defs><title>icon-jack-sm-white</title><g id="Layer_2" data-name="Layer 2"><g id="Layer_1-2" data-name="Layer 1"><path class="cls-1" d="M40.57,9.68l5.55-.28c3.33-.19,7.76-.33,12.2-.5l3.31-.16c1.09-.06,2.16-.11,3.2-.11s2,0,3,.08,1.86.11,2.69.19a45.08,45.08,0,0,1,5.54.78v.23a46.1,46.1,0,0,1-5.54.79c-.83.07-1.74.14-2.69.18s-2,.09-3,.09-2.11-.06-3.2-.12l-3.31-.15c-4.44-.18-8.87-.32-12.2-.5l-5.55-.29Z"/><path class="cls-1" d="M0,13.68l11.88-.28c7.14-.19,16.64-.33,26.15-.5l7.1-.16c2.34-.06,4.64-.11,6.87-.12s4.38,0,6.42.09,4,.11,5.76.19c7.13.28,11.88.78,11.88.78v.23s-4.75.5-11.88.79c-1.78.07-3.72.14-5.76.18S54.22,15,52,15s-4.53-.06-6.87-.12L38,14.7c-9.51-.18-19-.32-26.15-.5L0,13.91Z"/><path class="cls-1" d="M40.57,17.68l5.55-.29c3.33-.18,7.76-.32,12.2-.5l3.31-.15c1.09-.06,2.16-.11,3.2-.12s2,0,3,.09,1.86.11,2.69.18a46.1,46.1,0,0,1,5.54.79v.23a45.08,45.08,0,0,1-5.54.78c-.83.08-1.74.15-2.69.19s-2,.08-3,.09-2.11-.06-3.2-.12l-3.31-.16c-4.44-.17-8.87-.31-12.2-.49l-5.55-.29Z"/><path class="cls-1" d="M153.18,17.91l-5.54.29c-3.33.18-7.76.32-12.2.49l-3.31.16c-1.09.06-2.17.11-3.21.12s-2,0-3-.09-1.86-.11-2.69-.19a45.08,45.08,0,0,1-5.55-.78v-.23a46.09,46.09,0,0,1,5.55-.79c.83-.07,1.73-.14,2.69-.18s1.95-.08,3-.09,2.12.06,3.21.12l3.31.15c4.44.18,8.87.32,12.2.5l5.54.29Z"/><path class="cls-1" d="M193.75,13.91l-11.88.28c-7.13.18-16.64.32-26.15.5l-7.09.15c-2.34.06-4.64.11-6.87.12s-4.38,0-6.43-.09-4-.1-5.75-.18c-7.13-.28-11.89-.78-11.89-.78v-.23s4.76-.5,11.89-.78c1.78-.07,3.71-.14,5.75-.18s4.2-.08,6.43-.09,4.53.06,6.87.12l7.09.15c9.51.18,19,.32,26.15.5l11.88.28Z"/><path class="cls-1" d="M153.18,9.91l-5.54.29c-3.33.18-7.76.32-12.2.5l-3.31.15c-1.09.06-2.17.11-3.21.12s-2,0-3-.09-1.86-.11-2.69-.18a46.09,46.09,0,0,1-5.55-.79V9.68a45.08,45.08,0,0,1,5.55-.78c.83-.08,1.73-.14,2.69-.19s1.95-.08,3-.08,2.12,0,3.21.11l3.31.16c4.44.17,8.87.31,12.2.5l5.54.28Z"/><path class="cls-1" d="M103.91,26H89.85l-7-12.17,7-12.18h14.06l7,12.18ZM90.55,24.75h12.66l6.32-10.95-6.32-11H90.55l-6.33,11Z"/><path class="cls-1" d="M104.85,27.59H88.91L81,13.8l8-13.8h15.94l8,13.8ZM89.62,26.37h14.52L111.4,13.8,104.14,1.22H89.62L82.35,13.8Z"/><path class="cls-1" d="M96.88,23a9.42,9.42,0,1,1,9.41-9.42A9.42,9.42,0,0,1,96.88,23Zm0-17.62a8.2,8.2,0,1,0,8.19,8.2A8.21,8.21,0,0,0,96.88,5.4Z"/><path class="cls-1" d="M90.08,13.6a6.8,6.8,0,1,1,6.8,6.81A6.8,6.8,0,0,1,90.08,13.6Z"/></g></g></svg>