<svg xmlns="http://www.w3.org/2000/svg" viewBox="0 0 220.21 45.25"><defs><style>.cls-1{fill:#fff;}</style></defs><title>icon-xylophone-sm-white</title><g id="Layer_2" data-name="Layer 2"><g id="Layer_1-2" data-name="Layer 1"><path class="cls-1" d="M91.46,43a1.13,1.13,0,0,1-1.09-.83l-5-18.66a1.13,1.13,0,0,1,.56-1.28l6.65-3.5L99,42.56,91.52,43Zm1-23.9-6.37,3.36a.86.86,0,0,0-.44,1l5,18.65a.88.88,0,0,0,.89.65l7.14-.43Z"/><path class="cls-1" d="M95,37.84a1.5,1.5,0,1,0-1.06,1.83A1.5,1.5,0,0,0,95,37.84Z"/><path class="cls-1" d="M91.33,24.16a1.49,1.49,0,1,0-1,1.83A1.49,1.49,0,0,0,91.33,24.16Z"/><path class="cls-1" d="M99.72,42.52l0-.1-6.44-24,7.45-3.93,0,.15L108.1,42Zm-6.17-24,6.36,23.74,7.87-.47-7.23-27Z"/><path class="cls-1" d="M99.46,19.91a1.49,1.49,0,1,0-1,1.83A1.49,1.49,0,0,0,99.46,19.91Z"/><path class="cls-1" d="M104.14,37.36a1.5,1.5,0,1,0-1.06,1.83A1.49,1.49,0,0,0,104.14,37.36Z"/><path class="cls-1" d="M108.86,42l0-.1-7.44-27.78,7.45-3.93,8.39,31.3Zm-7.18-27.75,7.37,27.48,7.86-.47-8.23-30.7Z"/><path class="cls-1" d="M107.59,15.56a1.49,1.49,0,1,0-1,1.83A1.49,1.49,0,0,0,107.59,15.56Z"/><path class="cls-1" d="M113.26,36.79a1.5,1.5,0,1,0-1.06,1.83A1.49,1.49,0,0,0,113.26,36.79Z"/><path class="cls-1" d="M118,41.42l0-.1L109.52,9.8,117,5.87,117,6l9.35,34.9ZM109.81,9.93l8.37,31.23,7.86-.48L116.81,6.24Z"/><path class="cls-1" d="M115.7,11.31a1.49,1.49,0,1,0-1,1.83A1.49,1.49,0,0,0,115.7,11.31Z"/><path class="cls-1" d="M122.39,36.26a1.5,1.5,0,1,0-1.06,1.83A1.5,1.5,0,0,0,122.39,36.26Z"/><path class="cls-1" d="M127.12,40.87l0-.1L117.65,5.51l6.21-3.27a1.14,1.14,0,0,1,1,0h0a1.13,1.13,0,0,1,.64.74L135.14,39a1.13,1.13,0,0,1-1,1.41ZM117.94,5.64l9.37,35,6.8-.41a.85.85,0,0,0,.65-.36.83.83,0,0,0,.14-.73L125.22,3a.84.84,0,0,0-.49-.57h0a.89.89,0,0,0-.75,0Z"/><path class="cls-1" d="M123.82,7a1.5,1.5,0,0,0-2.89.78,1.5,1.5,0,0,0,1.84,1A1.49,1.49,0,0,0,123.82,7Z"/><path class="cls-1" d="M131.51,35.72a1.49,1.49,0,0,0-1.82-1.06,1.5,1.5,0,1,0,.77,2.89A1.48,1.48,0,0,0,131.51,35.72Z"/><path class="cls-1" d="M94.58,27.17,93,21.09l1.15-.51,1.63,6.08Zm-1.33-5.94,1.5,5.59.69-.3-1.5-5.59Z"/><path class="cls-1" d="M111.2,19.91l-1.63-6.08,1.15-.5,1.63,6.08ZM109.86,14l1.5,5.6.69-.31-1.5-5.59Z"/><path class="cls-1" d="M97.91,39.58,96.28,33.5l1.25-.14,1.63,6.08Zm-1.32-5.86,1.5,5.59.75-.08-1.5-5.6Z"/><path class="cls-1" d="M102.89,23.54l-1.63-6.08,1.15-.51L104,23Zm-1.33-5.94,1.49,5.59.7-.3-1.5-5.59Z"/><path class="cls-1" d="M124.93,36.55l-1.63-6.08,1.26-.14,1.63,6.08Zm-1.31-5.87,1.5,5.6.75-.09-1.5-5.59Z"/><path class="cls-1" d="M137.23,40.76a1.12,1.12,0,0,1-1.08-.83l-1.21-4.51-1,.12-1.63-6.08,1-.11-4.58-17.1-.92.4-1.63-6.08.92-.4-1.2-4.5A1.1,1.1,0,0,1,126,.82a1.08,1.08,0,0,1,.68-.52l1-.26A1.11,1.11,0,0,1,129,.83l10.26,38.26a1.15,1.15,0,0,1-.12.85,1.09,1.09,0,0,1-.68.52l-1,.26A.92.92,0,0,1,137.23,40.76Zm-2.1-5.61,1.26,4.71a.88.88,0,0,0,1.07.62l1-.26a.87.87,0,0,0,.53-.41.84.84,0,0,0,.08-.66L128.78.9a.87.87,0,0,0-1.06-.62l-1,.26a.83.83,0,0,0-.53.4.85.85,0,0,0-.09.66l1.26,4.71-.92.41,1.5,5.59.92-.4,0,.14,4.69,17.51-1,.11,1.5,5.59Z"/><path class="cls-1" d="M119.5,16.28l-1.63-6.08L119,9.7l1.63,6.08Zm-1.33-5.94,1.5,5.6.69-.3-1.5-5.6Z"/><path class="cls-1" d="M106.92,38.57l-1.63-6.08,1.25-.14,1.63,6.08Zm-1.32-5.86,1.5,5.59.75-.08-1.5-5.6Z"/><path class="cls-1" d="M87.91,45.25a1.09,1.09,0,0,1-.56-.15,1.11,1.11,0,0,1-.52-.68l-5.89-22a1.1,1.1,0,0,1,.11-.85,1.08,1.08,0,0,1,.68-.52l1-.26a1.1,1.1,0,0,1,.85.11,1.13,1.13,0,0,1,.53.68l.8,3,.94-.41,1.63,6.09-.94.41,1,3.79,1-.12,1.63,6.08-1,.12.8,3a1.1,1.1,0,0,1-.11.85,1.08,1.08,0,0,1-.68.52l-1,.26A1,1,0,0,1,87.91,45.25ZM83,21a.85.85,0,0,0-.23,0l-1,.26a.83.83,0,0,0-.53.4.85.85,0,0,0-.09.66l5.89,22a.82.82,0,0,0,.41.53.85.85,0,0,0,.66.09l1-.26a.85.85,0,0,0,.61-1.06l-.88-3.3,1-.11-1.5-5.6-1,.12-1.12-4.21.93-.41-1.49-5.59-.94.41-.89-3.29a.88.88,0,0,0-.4-.54A1,1,0,0,0,83,21Z"/><path class="cls-1" d="M115.92,37.56l-1.62-6.08,1.25-.14,1.63,6.08Zm-1.31-5.86,1.5,5.59.75-.09-1.5-5.59Z"/><path class="cls-1" d="M40.57,25.72l5.55-.29c3.33-.18,7.76-.33,12.2-.5l3.31-.16c1.09-.06,2.16-.1,3.2-.11s2,0,3,.08,1.86.11,2.69.19a43.73,43.73,0,0,1,5.54.79v.22a43.73,43.73,0,0,1-5.54.79c-.83.08-1.74.14-2.69.19s-2,.08-3,.08-2.11-.06-3.2-.12l-3.31-.15c-4.44-.18-8.87-.32-12.2-.5l-5.55-.29Z"/><path class="cls-1" d="M0,29.71l11.88-.28c7.14-.19,16.64-.33,26.15-.5l7.1-.16c2.34-.06,4.64-.1,6.87-.11s4.38,0,6.42.08,4,.11,5.76.19c7.13.28,11.88.78,11.88.78v.23s-4.75.5-11.88.79c-1.78.07-3.72.14-5.76.19S54.22,31,52,31s-4.53-.06-6.87-.12L38,30.73c-9.51-.18-19-.32-26.15-.5L0,29.94Z"/><path class="cls-1" d="M40.57,33.71l5.55-.28c3.33-.19,7.76-.33,12.2-.5l3.31-.16c1.09-.06,2.16-.11,3.2-.12s2,0,3,.09,1.86.11,2.69.19a45.08,45.08,0,0,1,5.54.78v.23a46.1,46.1,0,0,1-5.54.79c-.83.07-1.74.14-2.69.18s-2,.09-3,.09-2.11-.06-3.2-.12l-3.31-.15c-4.44-.18-8.87-.32-12.2-.5l-5.55-.29Z"/><path class="cls-1" d="M179.64,33.94l-5.54.29c-3.33.18-7.77.32-12.2.5l-3.31.15c-1.09.06-2.17.11-3.21.12s-2,0-3-.09-1.85-.11-2.68-.18a46.09,46.09,0,0,1-5.55-.79v-.23a45.08,45.08,0,0,1,5.55-.78c.83-.08,1.73-.14,2.68-.19s2-.08,3-.09,2.12.06,3.21.12l3.31.16c4.43.17,8.87.31,12.2.5l5.54.28Z"/><path class="cls-1" d="M220.21,29.94l-11.88.28c-7.13.19-16.64.33-26.15.5l-7.09.15c-2.34.06-4.64.11-6.87.12s-4.38,0-6.43-.08-4-.11-5.75-.19c-7.13-.28-11.89-.78-11.89-.78v-.22s4.76-.51,11.89-.79c1.78-.07,3.71-.14,5.75-.18s4.2-.08,6.43-.09,4.53.06,6.87.12l7.09.15c9.51.18,19,.32,26.15.5l11.88.29Z"/><path class="cls-1" d="M179.64,25.94l-5.54.29c-3.33.18-7.77.32-12.2.5l-3.31.15c-1.09.06-2.17.11-3.21.12s-2,0-3-.08-1.85-.11-2.68-.19a43.73,43.73,0,0,1-5.55-.79v-.22a43.73,43.73,0,0,1,5.55-.79c.83-.08,1.73-.14,2.68-.19s2-.08,3-.08,2.12.05,3.21.11l3.31.16c4.43.17,8.87.32,12.2.5l5.54.29Z"/></g></g></svg>