<svg xmlns="http://www.w3.org/2000/svg" viewBox="0 0 239 99"><defs><style>.cls-1{fill:#fff;}</style></defs><title>icon-mic-lg-white</title><g id="Layer_2" data-name="Layer 2"><g id="Layer_1-2" data-name="Layer 1"><path class="cls-1" d="M136.93,41.81s.9-.18.92-4-.92-3.83-.92-3.83h2.34c.44,0,.8,1.76.8,3.93s-.36,3.92-.8,3.92Z"/><path class="cls-1" d="M135.54,39.9s.46-.1.46-2.06-.46-2-.46-2h.88c.22,0,.41.9.41,2s-.19,2-.41,2Z"/><path class="cls-1" d="M134.82,40.35h-1.26V35.27h1.26Zm-1-.24h.78v-4.6h-.78Z"/><path class="cls-1" d="M136.62,41.93c-.47,0-.71-1.1-.83-2v-.13h.63a3.89,3.89,0,0,0,.29-1.89,3.88,3.88,0,0,0-.29-1.89h-.63v-.14c.12-.92.36-2,.83-2,.63,0,1,2.06,1,4S137.25,41.93,136.62,41.93ZM136.05,40c.17,1.21.44,1.67.57,1.67s.76-1.34.76-3.8-.5-3.81-.76-3.81-.4.46-.57,1.68h.37c.51,0,.53,1.91.53,2.13s0,2.13-.53,2.13Z"/><path class="cls-1" d="M135.34,40.14V35.63l.21.21a3.77,3.77,0,0,1,.4,2,3.8,3.8,0,0,1-.4,2Zm.24-3.58v2.65a7.38,7.38,0,0,0,0-2.65Z"/><path class="cls-1" d="M119.51,94.46c-4.7,0-4.9-1.15-4.9-1.15v3.88h0v.4c0,.65,2.19,1.41,4.9,1.41s4.91-.76,4.91-1.41V93.31S124.31,94.44,119.51,94.46Z"/><path class="cls-1" d="M121.23,68.78c0,.23-.77.45-1.72.45s-1.71-.22-1.71-.45.76-.42,1.71-.42S121.23,68.55,121.23,68.78Z"/><path class="cls-1" d="M119.51,69.2c-1.64,0-1.71-.4-1.71-.4v1.44h0v.23c0,.23.76.41,1.71.41s1.72-.18,1.72-.41V68.8S121.19,69.19,119.51,69.2Z"/><path class="cls-1" d="M121.07,66.87H118a11.32,11.32,0,0,1-11.31-11.31V43.64l.16,0c2.4.73,7.26,1.18,12.7,1.18s10.31-.45,12.71-1.18l.15,0V55.56A11.32,11.32,0,0,1,121.07,66.87ZM106.89,44v11.6A11.08,11.08,0,0,0,118,66.62h3.11a11.07,11.07,0,0,0,11.06-11.06V44c-2.47.71-7.27,1.15-12.62,1.15S109.36,44.67,106.89,44Z"/><path class="cls-1" d="M119.51,36.9c-7.65,0-13.89-1.09-14.18-2.28,0,.75,0,7.18,0,7.5v.74c0,1.18,6.35,2.13,14.19,2.13s14.2-1,14.2-2.13V34.55h0C133.63,35.77,127.31,36.9,119.51,36.9Z"/><path class="cls-1" d="M106.1,35.42l-.17-.09c-.49-.25-.73-.51-.73-.8s.24-.53.73-.77l.17-.09Zm-.24-1.35c-.28.16-.42.32-.42.46s.14.32.42.48Z"/><path class="cls-1" d="M132.92,35.42V33.67l.17.09c.5.24.74.49.74.77s-.24.55-.73.8Zm.24-1.35V35c.28-.16.43-.33.43-.48S133.44,34.23,133.16,34.07Z"/><path class="cls-1" d="M115.55,36.92h0c-4.45-.23-8.14-.84-9.61-1.59l-.07,0V13.92a13.65,13.65,0,1,1,27.3,0V35.29l-.06,0c-1.48.75-5.16,1.36-9.62,1.59Zm0-.24h7.93c4.35-.22,8-.81,9.44-1.54V13.92a13.41,13.41,0,1,0-26.82,0V35.14C107.59,35.87,111.19,36.46,115.55,36.68Z"/><path class="cls-1" d="M102.07,41.81s-.9-.18-.92-4,.92-3.83.92-3.83H99.73c-.44,0-.8,1.76-.8,3.93s.36,3.92.8,3.92Z"/><path class="cls-1" d="M103.46,39.9s-.46-.1-.46-2.06.46-2,.46-2h-.88c-.22,0-.41.9-.41,2s.19,2,.41,2Z"/><path class="cls-1" d="M105.44,40.35h-1.26V35.27h1.26Zm-1-.24h.78v-4.6h-.78Z"/><path class="cls-1" d="M102.38,41.93c-.63,0-1-2.06-1-4s.37-4,1-4c.47,0,.71,1.1.83,2V36h-.64a4.1,4.1,0,0,0-.28,1.89,3.89,3.89,0,0,0,.29,1.89h.63v.13C103.09,40.83,102.85,41.93,102.38,41.93Zm0-7.85c-.26,0-.76,1.35-.76,3.81s.5,3.8.76,3.8.4-.46.57-1.67h-.37c-.51,0-.53-1.91-.53-2.13s0-2.13.53-2.13H103C102.78,34.54,102.51,34.08,102.38,34.08Z"/><path class="cls-1" d="M103.66,40.14l-.21-.2a3.8,3.8,0,0,1-.4-2,3.77,3.77,0,0,1,.4-2l.21-.21Zm-.24-3.58a6.82,6.82,0,0,0,0,2.65Z"/><path class="cls-1" d="M123.76,72.52h-8.5a11.8,11.8,0,0,1-11.84-11.74V35.59h1v4.52h.1V60.62a10.81,10.81,0,0,0,10.74,9.32h8.5a10.82,10.82,0,0,0,10.75-9.33V40.11h.07V35.59h1V60.78A11.8,11.8,0,0,1,123.76,72.52Zm-20.1-36.69v25a11.56,11.56,0,0,0,11.6,11.5h8.5a11.57,11.57,0,0,0,11.61-11.5v-25h-.55v4.52h-.07V60.63a11.06,11.06,0,0,1-11,9.55h-8.5a11,11,0,0,1-11-9.54V40.35h-.1V35.83Z"/><path class="cls-1" d="M119.51,94.66c-2.41,0-5-.54-5-1.41,0-.35.43-.66,1.28-.9l.16,0v.19a.83.83,0,0,0,.28.58,6.55,6.55,0,0,0,3.23.63,7.81,7.81,0,0,0,3.41-.66c.25-.12.26-.54.26-.55v-.19l.15,0c.85.24,1.28.55,1.28.9C124.54,94.12,121.93,94.66,119.51,94.66Zm-3.81-2c-.61.19-1,.43-1,.63,0,.48,1.86,1.17,4.78,1.17s4.79-.69,4.79-1.17c0-.2-.36-.43-1-.62a.8.8,0,0,1-.38.64,8.08,8.08,0,0,1-3.52.68,7,7,0,0,1-3.35-.66A1,1,0,0,1,115.7,92.62Z"/><path class="cls-1" d="M123.76,72.4h0c-.29.24-1.21.65-4.24.66s-3.93-.42-4.22-.66h-.13c0,.19,0,.49,0,.58h0v.28c0,.47,1.95.84,4.36.84s4.36-.37,4.36-.84V72.4Z"/><path class="cls-1" d="M119.44,94a7,7,0,0,1-3.35-.66,1,1,0,0,1-.4-.78v-19l.15,0a13.82,13.82,0,0,0,3.67.39,14.23,14.23,0,0,0,3.68-.39l.16,0v19a.9.9,0,0,1-.39.77A8.08,8.08,0,0,1,119.44,94Zm-3.51-20.07V92.5a.83.83,0,0,0,.28.58,6.55,6.55,0,0,0,3.23.63,7.81,7.81,0,0,0,3.41-.66c.25-.12.26-.54.26-.55V73.87a14.85,14.85,0,0,1-3.6.36A15.38,15.38,0,0,1,115.93,73.88Z"/><polygon class="cls-1" points="127.08 86.23 127.48 88.12 127.92 88.02 127.08 84.08 127.08 86.23"/><polygon class="cls-1" points="136.89 19.82 139.41 15.46 139.02 15.24 136.89 18.93 136.89 19.82"/><polygon class="cls-1" points="136.89 25.94 142.86 17.73 142.5 17.47 136.89 25.18 136.89 25.94"/><polygon class="cls-1" points="102.13 18.97 99.98 15.24 99.59 15.46 102.13 19.87 102.13 18.97"/><path class="cls-1" d="M95.36,35.3l-9.9-5.71-.22.39L95.3,35.79Z"/><path class="cls-1" d="M96.24,32.33l-8.51-6.19-.26.36L96,32.73A3.73,3.73,0,0,1,96.24,32.33Z"/><polygon class="cls-1" points="102.13 25.22 96.5 17.47 96.14 17.73 102.13 25.98 102.13 25.22"/><path class="cls-1" d="M95.21,38.44,83.57,33.26l-.18.41,11.84,5.27C95.22,38.77,95.22,38.61,95.21,38.44Z"/><path class="cls-1" d="M95.53,41.48,82.07,37.1l-.14.43L95.65,42C95.61,41.82,95.56,41.65,95.53,41.48Z"/><path class="cls-1" d="M98.61,30.39,90.35,23l-.3.33,8.09,7.28C98.3,30.49,98.46,30.44,98.61,30.39Z"/><path class="cls-1" d="M102.13,30.12v-.24l-8.85-9.83-.33.3,8.83,9.81Z"/><path class="cls-1" d="M143.35,42l13.72-4.46-.14-.43-13.46,4.38C143.44,41.65,143.39,41.82,143.35,42Z"/><path class="cls-1" d="M143,32.73l8.57-6.23-.26-.36-8.51,6.19A3.73,3.73,0,0,1,143,32.73Z"/><path class="cls-1" d="M143.7,35.79,153.76,30l-.22-.39-9.9,5.71Z"/><path class="cls-1" d="M143.77,38.94l11.84-5.27-.18-.41-11.64,5.18C143.78,38.61,143.78,38.77,143.77,38.94Z"/><path class="cls-1" d="M143.9,47.16l14.84-1.56-.05-.44-14.84,1.56C143.87,46.86,143.88,47,143.9,47.16Z"/><path class="cls-1" d="M143.53,44.62l14.59-3.1-.1-.44-14.59,3.11C143.46,44.33,143.5,44.47,143.53,44.62Z"/><path class="cls-1" d="M140.86,30.56,149,23.28l-.3-.33-8.26,7.44C140.54,30.44,140.7,30.49,140.86,30.56Z"/><path class="cls-1" d="M136.89,30.12l.33,0,8.83-9.81-.33-.3-8.83,9.8Z"/><polygon class="cls-1" points="111.08 88.02 111.52 88.12 111.96 86.06 111.96 83.91 111.08 88.02"/><path class="cls-1" d="M105.69,73l-6.1,10.57.39.22,6.07-10.52Z"/><path class="cls-1" d="M139.2,64.09l12.07,8.77.26-.36-12.07-8.78Z"/><path class="cls-1" d="M135.11,71.36l7.39,10.17.36-.26L135.42,71Z"/><path class="cls-1" d="M138.18,66.62l10.47,9.43.3-.33-10.59-9.54Z"/><path class="cls-1" d="M136.87,69.12,145.72,79l.33-.3-8.93-9.92Z"/><path class="cls-1" d="M133,73.25,139,83.76l.39-.22L133.32,73C133.2,73.07,133.08,73.17,133,73.25Z"/><path class="cls-1" d="M130.49,74.72l4.84,10.89.41-.18-4.85-10.9Z"/><path class="cls-1" d="M143.85,52.28l14.84,1.56.05-.44L143.9,51.84C143.88,52,143.87,52.14,143.85,52.28Z"/><path class="cls-1" d="M127.78,75.72l3.69,11.35.43-.14L128.21,75.6Z"/><path class="cls-1" d="M143.43,54.81,158,57.92l.1-.44-14.59-3.1C143.5,54.52,143.46,54.67,143.43,54.81Z"/><path class="cls-1" d="M144,49.28v.44h14.92v-.44Z"/><path class="cls-1" d="M95.57,44.19,81,41.08l-.1.44,14.59,3.1C95.5,44.47,95.54,44.33,95.57,44.19Z"/><path class="cls-1" d="M141.8,59.67l13.63,6.07.18-.41L142,59.27C141.93,59.4,141.86,59.54,141.8,59.67Z"/><path class="cls-1" d="M140.61,62l12.93,7.46.22-.39-12.92-7.46Z"/><path class="cls-1" d="M142.74,57.29l14.19,4.61.14-.43-14.18-4.61Z"/><path class="cls-1" d="M95.47,54.38l-14.59,3.1.1.44,14.59-3.11C95.54,54.67,95.5,54.52,95.47,54.38Z"/><path class="cls-1" d="M96.11,56.86,81.93,61.47l.14.43,14.19-4.61Z"/><path class="cls-1" d="M95.1,51.84,80.26,53.4l0,.44,14.84-1.56C95.13,52.14,95.12,52,95.1,51.84Z"/><path class="cls-1" d="M110.79,75.59,107.1,86.93l.43.14,3.69-11.36C111.07,75.68,110.93,75.63,110.79,75.59Z"/><path class="cls-1" d="M95,49.5v-.22H80.07v.44H95Z"/><path class="cls-1" d="M95.15,46.72,80.31,45.16l0,.44L95.1,47.16C95.12,47,95.13,46.86,95.15,46.72Z"/><path class="cls-1" d="M97,59.27,83.39,65.33l.18.41L97.2,59.67C97.14,59.54,97.07,59.4,97,59.27Z"/><path class="cls-1" d="M103.59,71,96.14,81.27l.36.26,7.4-10.18C103.8,71.24,103.69,71.13,103.59,71Z"/><path class="cls-1" d="M101.9,68.71l-9,9.94.33.3,8.86-9.84Z"/><path class="cls-1" d="M98.16,61.56,85.24,69l.22.39L98.39,62Z"/><path class="cls-1" d="M108.12,74.52l-4.86,10.91.41.18,4.85-10.9Z"/><path class="cls-1" d="M99.54,63.72,87.47,72.5l.26.36L99.8,64.09Z"/><path class="cls-1" d="M100.66,66.16,90.05,75.72l.3.33,10.48-9.44Z"/><rect class="cls-1" x="1.79" y="49" width="70.21" height="1"/><circle class="cls-1" cx="1.88" cy="49.5" r="1.88"/><rect class="cls-1" x="167" y="49" width="70.21" height="1"/><circle class="cls-1" cx="237.12" cy="49.5" r="1.88"/></g></g></svg>