<svg xmlns="http://www.w3.org/2000/svg" viewBox="0 0 189.1 42.01"><defs><style>.cls-1{fill:#fff;}</style></defs><title>icon-radio-box-xs-white</title><g id="Layer_2" data-name="Layer 2"><g id="Layer_1-2" data-name="Layer 1"><path class="cls-1" d="M13.75,16.9l5.54-.29c3.33-.18,7.77-.33,12.2-.5L34.8,16c1.09-.06,2.17-.1,3.21-.11s2,0,3,.08,1.85.11,2.68.19a43.73,43.73,0,0,1,5.55.79v.22a43.73,43.73,0,0,1-5.55.79c-.83.08-1.73.14-2.68.19s-2,.08-3,.08-2.12-.06-3.21-.12l-3.31-.15c-4.43-.18-8.87-.32-12.2-.5l-5.54-.29Z"/><path class="cls-1" d="M0,20.89l7.69-.28c4.62-.19,10.77-.33,16.93-.5L29.21,20c1.51-.06,3-.1,4.45-.11s2.83,0,4.16.08,2.57.11,3.72.19c4.62.28,7.7.78,7.7.78v.23s-3.08.5-7.7.79c-1.15.07-2.4.14-3.72.19s-2.72.08-4.16.08-2.94-.06-4.45-.12l-4.59-.15c-6.16-.18-12.31-.32-16.93-.5L0,21.12Z"/><path class="cls-1" d="M13.75,24.89l5.54-.28c3.33-.19,7.77-.33,12.2-.5L34.8,24c1.09-.06,2.17-.11,3.21-.12s2,0,3,.09,1.85.11,2.68.19a45.08,45.08,0,0,1,5.55.78v.23a46.09,46.09,0,0,1-5.55.79c-.83.07-1.73.14-2.68.18s-2,.09-3,.09-2.12-.06-3.21-.12l-3.31-.15c-4.43-.18-8.87-.32-12.2-.5l-5.54-.29Z"/><path class="cls-1" d="M175.36,25.12l-5.55.29c-3.32.18-7.76.32-12.2.5l-3.31.15c-1.09.06-2.16.11-3.2.12s-2,0-3-.09-1.86-.11-2.69-.18a46.1,46.1,0,0,1-5.54-.79v-.23a45.08,45.08,0,0,1,5.54-.78c.83-.08,1.74-.14,2.69-.19s2-.08,3-.09,2.11.06,3.2.12l3.31.16c4.44.17,8.88.31,12.2.5l5.55.28Z"/><path class="cls-1" d="M189.1,21.12l-7.69.29c-4.61.18-10.77.32-16.92.5l-4.6.15c-1.51.06-3,.11-4.44.12s-2.84,0-4.16-.08-2.58-.12-3.73-.19c-4.61-.29-7.69-.79-7.69-.79v-.23s3.08-.5,7.69-.78c1.15-.08,2.4-.14,3.73-.19s2.71-.08,4.16-.08,2.93.05,4.44.11l4.6.16c6.15.17,12.31.31,16.92.5l7.69.28Z"/><path class="cls-1" d="M175.36,17.12l-5.55.29c-3.32.18-7.76.32-12.2.5l-3.31.15c-1.09.06-2.16.11-3.2.12s-2,0-3-.08-1.86-.11-2.69-.19a43.73,43.73,0,0,1-5.54-.79V16.9a43.73,43.73,0,0,1,5.54-.79c.83-.08,1.74-.14,2.69-.19s2-.08,3-.08,2.11.05,3.2.11l3.31.16c4.44.17,8.88.32,12.2.5l5.55.29Z"/><path class="cls-1" d="M126.94,42c-3.49,0-19.84-.78-57.87-2.76-7.19-.38-12.39-.65-12.64-.65a.35.35,0,0,1-.33-.27c-.84-2-1.94-36.31-1.19-37.06h0C55.27.92,82.24.45,90.5.31s35.45-.54,37-.12a.27.27,0,0,1,.23.21c.11.41.3,11.13.39,20.84.18,20.43-.2,20.62-.43,20.74A4,4,0,0,1,126.94,42ZM56.55,38.1l12.55.65c18.24,1,55.84,2.9,58.28,2.78C128,39,127.31,3.16,127.22.65c-3.35-.39-68.29.52-71.94,1C54.78,4.27,55.89,36.23,56.55,38.1Z"/><path class="cls-1" d="M127.61,42l-.12-.49a59.33,59.33,0,0,0,6.45-5.64v-.33c0-15.81,0-32.9-.14-35-1,.08-4.41.14-6,.16V.21c2.22,0,5.83-.11,6.12-.17l.12,0,.1.08c.16.11.35.25.28,35.46v.39C134.43,36.66,127.68,42,127.61,42Z"/><path class="cls-1" d="M57,38.14c0-.16-.16-4.14-.54-16.84-.26-9-.56-19.3-.62-19.72l.24,0-.25-.05.27-.21c.09,0,.15,0,.2.3h0c.08.52.13,2,.26,6.22.12,3.74.26,8.68.4,13.49.24,8.06.49,16.4.53,16.75Z"/><path class="cls-1" d="M126.09,41.61l-.49-.07c.17-1.09-.17-40.42-.18-40.81h0l.13-.23.26,0s0,0,.07.2h0c.07.7.09,3.92.2,20C126.16,34.09,126.17,41.12,126.09,41.61Z"/><path class="cls-1" d="M59.22,6.12c-.15,0-.37-.27-1.35-1.48-.68-.83-1.81-2.22-2-2.36L56,2.1v0h-.26l.17-.24c.23-.09.25-.1,2.36,2.5.47.58,1,1.25,1.1,1.33l-.16.18h0l.23-.12-.08.35A.27.27,0,0,1,59.22,6.12Z"/><path class="cls-1" d="M57.28,38l-.34,0c-.16-.18-.16-.18.56-1.08A19.71,19.71,0,0,0,60,33.35l.48.15a19.44,19.44,0,0,1-2.54,3.72c-.25.31-.5.63-.54.7l-.2-.12h0Z"/><path class="cls-1" d="M110.08,11.21a9.37,9.37,0,0,0-9,9.67c.13,3.09,2.21,8.43,7.47,9.49a1.77,1.77,0,0,1,.72-.13,2.43,2.43,0,0,1,1.06.3l.42,0c.33,0,.65,0,1-.08a3.43,3.43,0,0,0-2.53-1.31l-.35,0v0c-.13,0,1.84-.17,2.33-.14a2.61,2.61,0,0,1,1.8,1.25,9.23,9.23,0,0,0,7.12-9C120,17.48,117.43,11,110.08,11.21ZM110.44,29c-1.88-.09-7.52-1.89-7.43-8a7.23,7.23,0,0,1,7.43-7.52,7.51,7.51,0,0,1,7.7,7.88C118,27.15,112.32,29,110.44,29Z"/><path class="cls-1" d="M109.63,18.11a3.53,3.53,0,0,0-3.22,3.67,3.38,3.38,0,0,0,3.4,3.31,3.2,3.2,0,0,0,3.32-3.49A3.54,3.54,0,0,0,109.63,18.11Z"/><path class="cls-1" d="M110,25.23h-.17a3.51,3.51,0,0,1-3.53-3.44A3.86,3.86,0,0,1,107.36,19a3.13,3.13,0,0,1,2.27-1,3.67,3.67,0,0,1,3.63,3.63,3.78,3.78,0,0,1-1.08,2.78A3.12,3.12,0,0,1,110,25.23Zm-.35-7a2.86,2.86,0,0,0-2.07,1,3.64,3.64,0,0,0-1,2.58A3.25,3.25,0,0,0,109.82,25H110a2.8,2.8,0,0,0,2-.78,3.47,3.47,0,0,0,1-2.58A3.4,3.4,0,0,0,109.63,18.24Z"/><path class="cls-1" d="M109,16.67s.05-3,.5-3,.89,2.6.89,2.86A13,13,0,0,1,109,16.67Z"/><path class="cls-1" d="M109,16.81v-.14h-.13c.07-3.09.49-3.09.63-3.09.66,0,1,3,1,3s0,.18-1.52.23Zm.49-3a7,7,0,0,0-.35,2.69l1.11-.06C110.15,15.9,109.73,13.93,109.45,13.85Z"/><path class="cls-1" d="M109.14,29.17A3.34,3.34,0,0,0,106,32.48a3.42,3.42,0,0,0,3.18,3.41,3.29,3.29,0,0,0,3.23-3.5A3.36,3.36,0,0,0,109.14,29.17Zm.18,5.55a2.29,2.29,0,0,1-2.24-2.33,2.15,2.15,0,0,1,2.15-2.15,2.17,2.17,0,0,1,2.15,2.24A2,2,0,0,1,109.32,34.72Z"/><path class="cls-1" d="M62.41,11.35a4.71,4.71,0,0,1-1.61-.14l0,0V11.1c0-.2.06-2.4.07-2.49V8.48l3.9.07-.08,2.74h-.12C63.82,11.33,63.06,11.35,62.41,11.35ZM61,11a27.88,27.88,0,0,0,3.36,0l.06-2.23-3.36-.06C61.07,9.2,61,10.64,61,11Z"/><path class="cls-1" d="M67.25,11.35a4.71,4.71,0,0,1-1.61-.14l0,0V11.1c0-.2.07-2.4.07-2.49V8.48l3.9.07-.08,2.74h-.12C68.66,11.33,67.9,11.35,67.25,11.35ZM65.86,11a27.88,27.88,0,0,0,3.36,0l.06-2.23-3.36-.06C65.91,9.2,65.87,10.64,65.86,11Z"/><path class="cls-1" d="M71.82,11.35a4.79,4.79,0,0,1-1.61-.14l0,0V11.1c0-.2.07-2.4.07-2.49V8.48l3.9.07-.07,2.74h-.13C73.23,11.33,72.47,11.35,71.82,11.35ZM70.43,11a27.88,27.88,0,0,0,3.36,0l.06-2.23L70.5,8.75C70.48,9.2,70.44,10.64,70.43,11Z"/><path class="cls-1" d="M76.39,11.35a4.79,4.79,0,0,1-1.61-.14l0,0V11.1c0-.2.07-2.4.07-2.49V8.48l3.9.07-.07,2.74H78.5C77.8,11.33,77,11.35,76.39,11.35ZM75,11a28.06,28.06,0,0,0,3.37,0l.06-2.23-3.36-.06C75.05,9.2,75,10.64,75,11Z"/><path class="cls-1" d="M80.69,11.35a4.67,4.67,0,0,1-1.6-.14l0,0V11.1c0-.2.06-2.4.06-2.49V8.48L83,8.55l-.07,2.74H82.8C82.11,11.33,81.35,11.35,80.69,11.35ZM79.31,11a27.88,27.88,0,0,0,3.36,0l.06-2.23-3.36-.06C79.36,9.2,79.31,10.64,79.31,11Z"/><path class="cls-1" d="M85.26,11.35a4.67,4.67,0,0,1-1.6-.14l0,0V11.1c0-.2.06-2.4.07-2.49V8.48l3.9.07-.08,2.74h-.12C86.68,11.33,85.92,11.35,85.26,11.35ZM83.88,11a27.88,27.88,0,0,0,3.36,0l.06-2.23-3.36-.06C83.93,9.2,83.89,10.64,83.88,11Z"/><path class="cls-1" d="M90.11,11.35a4.71,4.71,0,0,1-1.61-.14l0,0V11.1c0-.2.06-2.4.07-2.49V8.48l3.9.07-.08,2.74h-.12C91.52,11.33,90.76,11.35,90.11,11.35ZM88.72,11a27.88,27.88,0,0,0,3.36,0l.06-2.23-3.36-.06C88.77,9.2,88.73,10.64,88.72,11Z"/><path class="cls-1" d="M95,11.35a4.71,4.71,0,0,1-1.61-.14l0,0V11.1c0-.2.07-2.4.07-2.49V8.48l3.9.07-.08,2.74h-.12C96.36,11.33,95.6,11.35,95,11.35ZM93.56,11a27.88,27.88,0,0,0,3.36,0L97,8.81l-3.36-.06C93.61,9.2,93.57,10.64,93.56,11Z"/><path class="cls-1" d="M63,15.48a6.65,6.65,0,0,1-2-.15l0,0v-.08c0-.2.09-2.39.09-2.49v-.13h.13L65,12.7l-.1,2.75h-.13C64.2,15.47,63.59,15.48,63,15.48Zm-1.75-.34a30.28,30.28,0,0,0,3.36,0L64.72,13l-3.36-.09C61.35,13.31,61.29,14.76,61.28,15.14Z"/><path class="cls-1" d="M67.86,15.53a6.52,6.52,0,0,1-2-.15l0-.05v-.07c0-.2.09-2.39.09-2.49v-.13h.13l3.76.11-.1,2.75h-.13C69,15.52,68.43,15.53,67.86,15.53Zm-1.74-.34a30.28,30.28,0,0,0,3.36.05L69.56,13l-3.36-.09C66.19,13.37,66.13,14.81,66.12,15.19Z"/><path class="cls-1" d="M72.45,15.58a6.12,6.12,0,0,1-2-.16l0,0v-.07c0-.2.09-2.4.09-2.49v-.13h.13l3.76.11-.1,2.75h-.13C73.62,15.57,73,15.58,72.45,15.58Zm-1.76-.35a27.19,27.19,0,0,0,3.36.06l.08-2.23L70.78,13C70.76,13.41,70.7,14.86,70.69,15.23Z"/><path class="cls-1" d="M77,15.62a6.22,6.22,0,0,1-2-.15l0,0v-.07c0-.2.09-2.4.09-2.49v-.13h.13l3.77.11-.11,2.74h-.12Zm-1.75-.34a25.86,25.86,0,0,0,3.36.05l.09-2.22L75.35,13C75.33,13.46,75.27,14.9,75.26,15.28Z"/><path class="cls-1" d="M81.32,15.67a6.17,6.17,0,0,1-2-.16l0,0V15.4c0-.2.09-2.39.1-2.49v-.13h.14l3.76.11-.11,2.75h-.12C82.49,15.66,81.88,15.67,81.32,15.67Zm-1.76-.34a30.28,30.28,0,0,0,3.36.05L83,13.15l-3.36-.09C79.63,13.5,79.58,15,79.56,15.33Z"/><path class="cls-1" d="M85.89,15.72a6.17,6.17,0,0,1-2-.16l0,0v-.07c0-.2.09-2.4.09-2.49v-.13h.14l3.76.11-.1,2.75h-.13Zm-1.76-.27Zm0-.08a25.8,25.8,0,0,0,3.36.05l.08-2.22-3.36-.1C84.2,13.55,84.15,15,84.14,15.37Z"/><path class="cls-1" d="M90.73,15.77a6.17,6.17,0,0,1-2-.16l0,0V15.5c0-.2.08-2.4.09-2.49v-.13h.14L92.7,13l-.1,2.75h-.13ZM89,15.42a25.8,25.8,0,0,0,3.36.05l.08-2.22-3.36-.1C89,13.6,89,15,89,15.42Z"/><path class="cls-1" d="M95.57,15.82a6.17,6.17,0,0,1-2-.16l0,0v-.07c0-.2.09-2.4.09-2.49v-.13h.14l3.76.11-.1,2.75h-.13Zm-1.75-.35a25.86,25.86,0,0,0,3.36,0l.08-2.22-3.36-.1C93.88,13.65,93.83,15.09,93.82,15.47Z"/><path class="cls-1" d="M63,19.51a6.2,6.2,0,0,1-2-.16l0,0v-.07c0-.2.09-2.39.09-2.49v-.13h.13l3.76.11-.1,2.75h-.13C64.21,19.5,63.6,19.51,63,19.51Zm-1.76-.34a30.28,30.28,0,0,0,3.36,0L64.72,17l-3.36-.09C61.35,17.34,61.29,18.79,61.28,19.17Z"/><path class="cls-1" d="M67.87,19.56a6.56,6.56,0,0,1-2-.15l0,0v-.08c0-.2.09-2.39.09-2.49v-.13h.13l3.76.12-.1,2.74h-.13C69,19.55,68.43,19.56,67.87,19.56Zm-1.75-.34a30.28,30.28,0,0,0,3.36.05L69.56,17,66.2,17C66.19,17.4,66.13,18.84,66.12,19.22Z"/><path class="cls-1" d="M72.45,19.61a6.17,6.17,0,0,1-2-.16l0,0v-.07c0-.2.09-2.39.09-2.49v-.13h.13l3.76.11-.1,2.75h-.13C73.62,19.6,73,19.61,72.45,19.61Zm-1.76-.34a30.28,30.28,0,0,0,3.36.05l.08-2.23L70.78,17C70.76,17.44,70.7,18.89,70.69,19.27Z"/><path class="cls-1" d="M77,19.66a6.12,6.12,0,0,1-2-.16l0,0v-.07c0-.2.09-2.4.09-2.49v-.13h.13l3.77.11-.11,2.75h-.12C78.19,19.65,77.58,19.66,77,19.66Zm-1.76-.35a27.19,27.19,0,0,0,3.36.06l.09-2.23L75.35,17C75.33,17.49,75.27,18.94,75.26,19.31Z"/><path class="cls-1" d="M81.33,19.7a6.34,6.34,0,0,1-2-.15l0,0v-.07c0-.21.09-2.4.1-2.49v-.14h.14l3.76.11-.11,2.74h-.12Zm-1.77-.34a25.86,25.86,0,0,0,3.36.05L83,17.19l-3.36-.1C79.63,17.54,79.58,19,79.56,19.36Z"/><path class="cls-1" d="M85.89,19.75a6.65,6.65,0,0,1-2-.15l0,0v-.08c0-.2.09-2.39.09-2.49v-.13h.14l3.76.11-.1,2.74h-.13C87.06,19.74,86.45,19.75,85.89,19.75Zm-1.76-.27h0Zm0-.07a27.83,27.83,0,0,0,3.36.05l.08-2.22-3.36-.1C84.2,17.59,84.15,19,84.14,19.41Z"/><path class="cls-1" d="M90.74,19.8a6.34,6.34,0,0,1-2-.15l0,0v-.07c0-.21.08-2.4.09-2.49v-.14h.14L92.7,17l-.1,2.74h-.13ZM89,19.46a25.8,25.8,0,0,0,3.36.05l.08-2.22-3.36-.1C89,17.64,89,19.08,89,19.46Z"/><path class="cls-1" d="M95.57,19.85a6.3,6.3,0,0,1-2-.15l0,0v-.07c0-.21.09-2.4.09-2.49V17h.13l3.76.11-.1,2.74h-.13Zm-1.75-.34a25.8,25.8,0,0,0,3.36,0l.08-2.22-3.36-.1C93.89,17.69,93.83,19.13,93.82,19.51Z"/><path class="cls-1" d="M63.83,23.64a8.79,8.79,0,0,1-2.52-.18l0,0v-.07c0-.2.11-2.4.12-2.49v-.13l3.9.15-.14,2.75H63.83Zm-2.29-.37a27,27,0,0,0,3.36.09L65,21.14,61.65,21C61.62,21.45,61.55,22.9,61.54,23.27Z"/><path class="cls-1" d="M68.67,23.74a8.79,8.79,0,0,1-2.52-.18l0,0v-.07c0-.2.11-2.39.12-2.49v-.13l3.9.16L70,23.73H68.67Zm-2.29-.36a25.72,25.72,0,0,0,3.36.08l.11-2.22-3.36-.13C66.46,21.56,66.39,23,66.38,23.38Z"/><path class="cls-1" d="M73.25,23.84a8.88,8.88,0,0,1-2.53-.18l0,0v-.07c0-.2.11-2.4.12-2.49v-.13l3.9.15-.14,2.75H73.25ZM71,23.48a25.8,25.8,0,0,0,3.36.08l.11-2.22-3.36-.13C71,21.65,71,23.1,71,23.48Z"/><path class="cls-1" d="M77.82,23.94a8.88,8.88,0,0,1-2.53-.18l0,0v-.07c0-.2.11-2.4.12-2.49V21l3.9.15-.14,2.75H77.82Zm-2.3-.37a25.19,25.19,0,0,0,3.36.09L79,21.44l-3.36-.14C75.61,21.75,75.53,23.2,75.52,23.57Zm0,.08Z"/><path class="cls-1" d="M82.12,24a8.75,8.75,0,0,1-2.52-.18l0,0v-.07c0-.2.11-2.4.12-2.49v-.13l3.89.15L83.44,24H82.12Zm-2.3-.36a25.88,25.88,0,0,0,3.36.08l.11-2.22-3.36-.13C79.91,21.84,79.84,23.29,79.82,23.67Zm0,.07Z"/><path class="cls-1" d="M86.69,24.13A8.75,8.75,0,0,1,84.17,24l0,0v-.07c0-.2.12-2.4.12-2.49v-.13l3.89.15L88,24.12H86.69Zm-2.3-.37a25.27,25.27,0,0,0,3.36.09l.11-2.22L84.5,21.5C84.48,21.94,84.41,23.39,84.39,23.76Z"/><path class="cls-1" d="M91.53,24.23A8.79,8.79,0,0,1,89,24.05l0,0v-.07c0-.2.12-2.39.12-2.49v-.13l3.89.16-.13,2.74H91.53Zm-2.3-.36a27.21,27.21,0,0,0,3.36.09l.11-2.23-3.36-.13C89.32,22.05,89.25,23.49,89.23,23.87Z"/><path class="cls-1" d="M96.37,24.34a8.75,8.75,0,0,1-2.52-.18l0,0V24c0-.2.11-2.39.12-2.48v-.14l3.89.16-.13,2.74H96.37ZM94.07,24a27.12,27.12,0,0,0,3.36.09l.11-2.22-3.36-.14C94.16,22.15,94.09,23.59,94.07,24Z"/><path class="cls-1" d="M63.64,27.73a7.9,7.9,0,0,1-2.32-.17l0,0v-.08c0-.2.11-2.39.11-2.49v-.13l3.89.14-.12,2.75H65Zm-2.1-.36a27.91,27.91,0,0,0,3.36.08l.1-2.23-3.36-.12C61.62,25.55,61.55,27,61.54,27.37Z"/><path class="cls-1" d="M68.5,27.81a7.66,7.66,0,0,1-2.34-.17l0,0v-.07c0-.2.11-2.39.11-2.49v-.13l3.89.14L70,27.8H68.5Zm-2.12-.35a26.51,26.51,0,0,0,3.36.07l.1-2.22-3.36-.12C66.46,25.63,66.39,27.08,66.38,27.46Z"/><path class="cls-1" d="M73.05,27.9a7.9,7.9,0,0,1-2.32-.17l0,0v-.08c0-.2.11-2.39.11-2.49V25l3.89.14-.12,2.75h-.13ZM71,27.54a28,28,0,0,0,3.36.08l.1-2.23-3.36-.12C71,25.72,71,27.16,71,27.54Zm0,.08Z"/><path class="cls-1" d="M77.64,28a8,8,0,0,1-2.34-.17l0,0v-.08c0-.2.11-2.39.11-2.48v-.14l3.89.15L79.14,28H79Zm-2.12-.36a27.91,27.91,0,0,0,3.36.08l.1-2.23-3.36-.12C75.6,25.8,75.54,27.24,75.52,27.62Zm0,.08Z"/><path class="cls-1" d="M81.93,28.06a7.48,7.48,0,0,1-2.33-.18l0,0v-.07c0-.2.11-2.39.12-2.49v-.13l3.9.14L83.44,28h-.12Zm-2.11-.36a28,28,0,0,0,3.36.08l.11-2.23-3.36-.12C79.91,25.88,79.84,27.32,79.82,27.7Z"/><path class="cls-1" d="M86.51,28.14A8,8,0,0,1,84.17,28l0,0v-.07c0-.21.11-2.4.12-2.49v-.14l3.9.15L88,28.12h-.12Zm-2.12-.36a27.91,27.91,0,0,0,3.36.08l.11-2.23-3.36-.12C84.48,26,84.41,27.4,84.39,27.78Z"/><path class="cls-1" d="M91.34,28.23A7.48,7.48,0,0,1,89,28.05l0,0v-.07c0-.2.11-2.39.12-2.49v-.13l3.9.14-.13,2.75h-.12Zm-2.1-.36a27.72,27.72,0,0,0,3.35.08l.11-2.23-3.36-.12C89.32,26.05,89.25,27.49,89.24,27.87Zm0,.08Z"/><path class="cls-1" d="M96.19,28.31a7.66,7.66,0,0,1-2.34-.17l0,0V28c0-.2.11-2.4.12-2.49v-.13l3.9.14-.13,2.75h-1.5ZM94.08,28a26.44,26.44,0,0,0,3.36.07l.1-2.22-3.36-.12C94.16,26.13,94.09,27.58,94.08,28Z"/><path class="cls-1" d="M64,31.66a9.6,9.6,0,0,1-2.7-.19l0,0v-.07c0-.2.13-2.39.13-2.49v-.13l3.89.17-.14,2.74H64Zm-2.47-.37a28.48,28.48,0,0,0,3.36.1L65,29.17,61.65,29C61.63,29.47,61.55,30.91,61.54,31.29Z"/><path class="cls-1" d="M68.85,31.78a9.51,9.51,0,0,1-2.7-.19l0,0v-.07c0-.2.13-2.4.13-2.49v-.13l3.89.17L70,31.77H68.85Zm-2.48-.37a27.21,27.21,0,0,0,3.36.09l.12-2.22-3.36-.14C66.47,29.59,66.39,31,66.37,31.41Z"/><path class="cls-1" d="M73.42,31.89a9.56,9.56,0,0,1-2.7-.19l0,0v-.07c0-.2.13-2.39.13-2.49V29l3.89.17-.14,2.74H73.42ZM71,31.52a28.38,28.38,0,0,0,3.35.1l.12-2.23-3.36-.14C71,29.7,71,31.14,71,31.52Z"/><path class="cls-1" d="M78,32a10.22,10.22,0,0,1-2.7-.18l0-.05V31.7c0-.2.13-2.39.13-2.49v-.13l3.89.17L79.13,32H78Zm-2.47-.37a26.45,26.45,0,0,0,3.36.1L79,29.51l-3.36-.15C75.61,29.81,75.53,31.25,75.52,31.63Z"/><path class="cls-1" d="M82.29,32.11a9.6,9.6,0,0,1-2.7-.19l0,0v-.07c0-.2.13-2.4.13-2.49v-.13l3.89.16-.14,2.75H82.29Zm-2.47-.37a27.12,27.12,0,0,0,3.36.09l.11-2.22-3.36-.14C79.91,29.91,79.83,31.36,79.82,31.74Z"/><path class="cls-1" d="M86.87,32.22A9.65,9.65,0,0,1,84.16,32l0,0v-.07c0-.2.12-2.4.12-2.49V29.3l3.89.16L88,32.21H86.87Zm-2.48-.37a27.12,27.12,0,0,0,3.36.09l.11-2.22-3.36-.14C84.48,30,84.4,31.47,84.39,31.85Z"/><path class="cls-1" d="M91.71,32.34A9.65,9.65,0,0,1,89,32.15l0,0V32c0-.21.12-2.4.12-2.49v-.13l3.89.16-.14,2.75H91.71ZM89.23,32a24.61,24.61,0,0,0,3.36.1l.11-2.22-3.36-.14C89.32,30.14,89.24,31.59,89.23,32Z"/><path class="cls-1" d="M96.53,32.45a10.12,10.12,0,0,1-2.69-.18l0,0v-.08c0-.2.13-2.39.13-2.48v-.14l3.89.17-.14,2.74H96.53Zm-2.46-.37a26.36,26.36,0,0,0,3.36.1L97.54,30l-3.36-.15C94.16,30.26,94.08,31.7,94.07,32.08Z"/><path class="cls-1" d="M111,29.3h.11c1.09.08,2.15,1.61,2.22,2.75a3.23,3.23,0,0,1-1.64,3l0,0a3.78,3.78,0,0,0,1-2.69,3.55,3.55,0,0,0-2-3.08H111m0-.27c-.58,0-2,.15-2.18.15h0v0l.32,0h0a3.37,3.37,0,0,1,.93,6.57v.06a5.32,5.32,0,0,0,1.7-.49,3.51,3.51,0,0,0,1.8-3.27c-.08-1.26-1.21-2.92-2.47-3Zm-2.2.14Z"/><path class="cls-1" d="M111.62,34.66c-17.29-.57-47.33-1.78-51.48-2.15,0,.31,0,.51,0,.56.12.43,31.34,1.73,50.5,2.39A3,3,0,0,0,111.62,34.66Z"/><path class="cls-1" d="M125.13,5.66c0-.09-65.3.18-65.66.44A3.6,3.6,0,0,0,59.4,7c4.55-.16,64.21-.14,64.39.29s.89,27.41,0,27.68c-.24.07-4.71-.05-11.19-.26a2.82,2.82,0,0,1-.82.62l-.43.18c8.07.27,13.85.43,14,.35C125.67,35.57,125.49,6.55,125.13,5.66Z"/><path class="cls-1" d="M123.28,35.09c-1.06,0-3.72-.05-10.58-.27l-.52,0,.34-.4a3.36,3.36,0,0,0,.81-2.35c-.08-1.15-1.14-2.69-2.24-2.77h-.49a3.56,3.56,0,0,1,2,3.1,3.78,3.78,0,0,1-.69,2.29l-.08.11h-.13c-9.29-.31-22.19-.79-32.88-1.24-19.11-.8-19.17-.93-19.26-1.12S58.74,7,59.09,6.7c0-.06.23-.24,31.77-.18,9.51,0,31.77.09,33.07.36l.13,0,.11.15c.06.15,1,25.89.06,27.8a.4.4,0,0,1-.22.21A3.52,3.52,0,0,1,123.28,35.09Zm-10.08-.76c8.34.27,10.21.27,10.6.25.58-1.59.22-24.8-.08-27.23-3.4-.42-60.68-.3-64.23-.24-.1,2.19.34,23,.53,25,2.46.31,33.7,1.57,51.58,2.17a3.39,3.39,0,0,0,.52-1.88,3.11,3.11,0,0,0-3-3,1.24,1.24,0,0,0-.3,0l-.24,0,0-.18a.51.51,0,0,0,0-.09l0-.21.49-.17v.07l.39,0a15.62,15.62,0,0,1,1.75-.09c1.39.09,2.61,1.85,2.7,3.23A3.9,3.9,0,0,1,113.2,34.33Z"/></g></g></svg>