<svg xmlns="http://www.w3.org/2000/svg" viewBox="0 0 140.1 27.59"><defs><style>.cls-1{fill:#222;}</style></defs><title>icon-jack-xs</title><g id="Layer_2" data-name="Layer 2"><g id="Layer_1-2" data-name="Layer 1"><path class="cls-1" d="M13.75,9.68l5.54-.28c3.33-.19,7.77-.33,12.2-.5l3.31-.16C35.89,8.68,37,8.63,38,8.63s2,0,3,.08,1.85.11,2.68.19a45.08,45.08,0,0,1,5.55.78v.23a46.09,46.09,0,0,1-5.55.79c-.83.07-1.73.14-2.68.18s-2,.09-3,.09-2.12-.06-3.21-.12l-3.31-.15c-4.43-.18-8.87-.32-12.2-.5l-5.54-.29Z"/><path class="cls-1" d="M0,13.68l7.69-.28c4.62-.19,10.77-.33,16.93-.5l4.59-.16c1.51-.06,3-.11,4.45-.12s2.83,0,4.16.09,2.57.11,3.72.19c4.62.28,7.7.78,7.7.78v.23s-3.08.5-7.7.79c-1.15.07-2.4.14-3.72.18S35.1,15,33.66,15s-2.94-.06-4.45-.12l-4.59-.15c-6.16-.18-12.31-.32-16.93-.5L0,13.91Z"/><path class="cls-1" d="M13.75,17.68l5.54-.29c3.33-.18,7.77-.32,12.2-.5l3.31-.15c1.09-.06,2.17-.11,3.21-.12s2,0,3,.09,1.85.11,2.68.18a46.09,46.09,0,0,1,5.55.79v.23a45.08,45.08,0,0,1-5.55.78c-.83.08-1.73.15-2.68.19s-2,.08-3,.09-2.12-.06-3.21-.12l-3.31-.16c-4.43-.17-8.87-.31-12.2-.49l-5.54-.29Z"/><path class="cls-1" d="M126.36,17.91l-5.55.29c-3.32.18-7.76.32-12.2.49l-3.31.16c-1.09.06-2.16.11-3.2.12s-2,0-3-.09-1.86-.11-2.69-.19a45.08,45.08,0,0,1-5.54-.78v-.23a46.1,46.1,0,0,1,5.54-.79c.83-.07,1.74-.14,2.69-.18s2-.08,3-.09,2.11.06,3.2.12l3.31.15c4.44.18,8.88.32,12.2.5l5.55.29Z"/><path class="cls-1" d="M140.1,13.91l-7.69.29c-4.61.18-10.77.32-16.92.5l-4.6.15c-1.51.06-3,.11-4.44.12s-2.84,0-4.16-.09-2.58-.11-3.73-.18c-4.61-.29-7.69-.79-7.69-.79v-.23s3.08-.5,7.69-.78c1.15-.08,2.4-.15,3.73-.19s2.71-.08,4.16-.09,2.93.06,4.44.12l4.6.16c6.15.17,12.31.31,16.92.5l7.69.28Z"/><path class="cls-1" d="M126.36,9.91l-5.55.29c-3.32.18-7.76.32-12.2.5l-3.31.15c-1.09.06-2.16.11-3.2.12s-2,0-3-.09-1.86-.11-2.69-.18a46.1,46.1,0,0,1-5.54-.79V9.68a45.08,45.08,0,0,1,5.54-.78c.83-.08,1.74-.14,2.69-.19s2-.08,3-.08,2.11,0,3.2.11l3.31.16c4.44.17,8.88.31,12.2.5l5.55.28Z"/><path class="cls-1" d="M77.08,26H63L56,13.8,63,1.62H77.08l7,12.18ZM63.73,24.75H76.38L82.71,13.8l-6.33-11H63.73l-6.33,11Z"/><path class="cls-1" d="M78,27.59H62.09l-8-13.79,8-13.8H78l8,13.8ZM62.79,26.37H77.32L84.58,13.8,77.32,1.22H62.79L55.53,13.8Z"/><path class="cls-1" d="M70.05,23a9.42,9.42,0,1,1,9.42-9.42A9.42,9.42,0,0,1,70.05,23Zm0-17.62a8.2,8.2,0,1,0,8.2,8.2A8.2,8.2,0,0,0,70.05,5.4Z"/><path class="cls-1" d="M63.25,13.6a6.81,6.81,0,1,1,6.8,6.81A6.8,6.8,0,0,1,63.25,13.6Z"/></g></g></svg>