<svg xmlns="http://www.w3.org/2000/svg" viewBox="0 0 220.21 40.49"><defs><style>.cls-1{fill:#fff;}</style></defs><title>icon-tambourine-sm-white</title><g id="Layer_2" data-name="Layer 2"><g id="Layer_1-2" data-name="Layer 1"><path class="cls-1" d="M96.33,35.87c-2.26,0-4.17-1.33-4.17-2.91v0l0,0a2.79,2.79,0,0,0,.46-.86,1.91,1.91,0,0,1,.51-.87l.07-.06.08.05.49.29.33.19a27.08,27.08,0,0,0,4.81,2.29l.77.26.35.12-.11.13A4.76,4.76,0,0,1,96.33,35.87ZM92.4,33c0,1.43,1.82,2.63,3.93,2.63a4.68,4.68,0,0,0,3.32-1.23h0c-.26-.09-.53-.17-.77-.27A27.18,27.18,0,0,1,94,31.83l-.33-.2c-.14-.08-.29-.16-.42-.25a1.81,1.81,0,0,0-.39.72A3.13,3.13,0,0,1,92.4,33Z"/><path class="cls-1" d="M96.45,35.14c-1.67,0-3-1-3-2.18a1.83,1.83,0,0,1,.62-1.32l.07-.06.07,0A26.35,26.35,0,0,0,99,33.91l.16.06L99,34.1A3.37,3.37,0,0,1,96.45,35.14Zm-2.3-3.27A1.55,1.55,0,0,0,93.67,33c0,1.07,1.24,1.94,2.78,1.94a3.25,3.25,0,0,0,2.27-.83A26.41,26.41,0,0,1,94.15,31.87Z"/><path class="cls-1" d="M100.38,34.51l-.53-.15a4.71,4.71,0,0,1-3.52,1.39c-2.17,0-4-1.25-4-2.79v2.12c0,1.54,1.88,2.79,4,2.79s4-1.25,4-2.79Z"/><path class="cls-1" d="M114.33,35.73h0Z"/><path class="cls-1" d="M110.23,38.49a5.32,5.32,0,0,1-1.2-.13l-.18,0-.19,0a3.14,3.14,0,0,1-2.47-2.52v-.14l.14,0,1.05.1a35.37,35.37,0,0,0,5.73,0l1-.11h.14v.14a2.38,2.38,0,0,1-.06.37,1,1,0,0,1,0,.14,1.8,1.8,0,0,1-.08.21l-.06.14-.12.2a.47.47,0,0,1-.09.12,2,2,0,0,1-.3.36,3.83,3.83,0,0,1-.88.64l-.24.12-.26.11-.17.06A5.29,5.29,0,0,1,110.23,38.49Zm-3.79-2.61A3,3,0,0,0,108.73,38l.18.05.18,0a5.45,5.45,0,0,0,2.8-.14l.17-.06.24-.1.22-.11a3.76,3.76,0,0,0,.83-.6,2.73,2.73,0,0,0,.28-.33.83.83,0,0,0,.08-.12,1.74,1.74,0,0,0,.11-.18l.06-.13.07-.18,0-.13a1.06,1.06,0,0,0,0-.19l-.9.09a34.74,34.74,0,0,1-5.77,0Z"/><path class="cls-1" d="M110.23,37.76c-1.51,0-2.8-.82-3-1.89l0-.15h.16a35.37,35.37,0,0,0,5.73,0l.15,0,0,.15C113,36.94,111.75,37.76,110.23,37.76ZM107.51,36A3.17,3.17,0,0,0,113,36,35.42,35.42,0,0,1,107.51,36Z"/><path class="cls-1" d="M114.16,35.73v2c0,1.54-1.78,2.79-4,2.79s-4-1.25-4-2.79v-2h0a3,3,0,0,0,2.41,2.41l.18.05.19,0a5.52,5.52,0,0,0,1.17.12,5.41,5.41,0,0,0,1.7-.27l.17-.06.25-.11.23-.11a3.45,3.45,0,0,0,.85-.62,3.27,3.27,0,0,0,.3-.35.83.83,0,0,0,.08-.12,1.18,1.18,0,0,0,.11-.19l.06-.13a1.19,1.19,0,0,0,.08-.2l0-.13a1.41,1.41,0,0,0,.05-.35Z"/><path class="cls-1" d="M123.84,35.86h-.29a4.37,4.37,0,0,1-3.06-1.47l-.1-.13.15-.06.93-.32a27.11,27.11,0,0,0,4.75-2.3l.76-.49.07,0,.07.06a2.49,2.49,0,0,1,.95,1.87,1.62,1.62,0,0,1,0,.31.89.89,0,0,1,0,.14l0,.14a.56.56,0,0,1,0,.12l0,.06h0a3.58,3.58,0,0,1-3.35,2l-.14,0-.2,0h-.38Zm-3.06-1.5a4.23,4.23,0,0,0,2.79,1.25h.35l.19,0h.1a.35.35,0,0,0,.14,0,.76.76,0,0,1,.21,0,3.36,3.36,0,0,0,3.15-1.92l0-.06a.19.19,0,0,0,0-.07l0-.12,0-.13a2.45,2.45,0,0,0,0-.27,2.24,2.24,0,0,0-.81-1.64c-.22.16-.45.3-.69.45a27.22,27.22,0,0,1-4.79,2.32C121.29,34.19,121,34.28,120.78,34.36Z"/><path class="cls-1" d="M124,35.14a3.38,3.38,0,0,1-2.6-1.08l-.11-.13.16-.06a27.11,27.11,0,0,0,4.75-2.3l.07-.05.07.06A1.86,1.86,0,0,1,127,33C127,34.16,125.69,35.14,124,35.14ZM121.71,34a3.22,3.22,0,0,0,2.31.87c1.54,0,2.78-.87,2.78-1.94a1.54,1.54,0,0,0-.54-1.14A27.39,27.39,0,0,1,121.71,34Z"/><path class="cls-1" d="M128,33v2.12c0,1.54-1.83,2.79-4,2.79s-4-1.25-4-2.79v-.61s.47-.1.63-.16a4.25,4.25,0,0,0,3.21,1.44h.42a3.85,3.85,0,0,0,3.62-2.11h0s0-.08,0-.11,0,0,0-.06a.64.64,0,0,1,0-.07.78.78,0,0,0,0-.14A1.42,1.42,0,0,0,128,33Z"/><polygon class="cls-1" points="128.87 22.99 128.87 22.98 129.11 22.98 128.87 22.99"/><path class="cls-1" d="M133.06,25.89h-.72l.14-.18c.15-.24.3-.47.44-.71l.2.12c-.11.19-.22.37-.34.55a5.28,5.28,0,0,0,1.05,0,4.51,4.51,0,0,0,.53-.1l.16-.05a4,4,0,0,0,1.49-.78l.17-.15a2.88,2.88,0,0,0,.28-.33,1.58,1.58,0,0,0,.15-.24.76.76,0,0,0,.09-.18,1.8,1.8,0,0,0,.17-.78,2.75,2.75,0,0,0-2-2.36c0,.21-.09.43-.14.64l-.23-.06c.06-.25.12-.5.16-.76l0-.13.13,0A3,3,0,0,1,137.11,23a2.2,2.2,0,0,1-.19.87,2,2,0,0,1-.1.21,1.92,1.92,0,0,1-.17.26q-.14.18-.3.36l-.18.16a4.41,4.41,0,0,1-1.58.83l-.18.05-.55.11A5.29,5.29,0,0,1,133.06,25.89Z"/><path class="cls-1" d="M133.06,25.16H133l0-.23h0c1.53,0,2.78-.87,2.78-1.94a1.89,1.89,0,0,0-1.3-1.64l.1-.22A2.13,2.13,0,0,1,136.07,23C136.07,24.19,134.72,25.16,133.06,25.16Z"/><path class="cls-1" d="M137,24.24V23a2,2,0,0,1-.18.83l-.09.19c-.05.08-.1.17-.16.25a3.17,3.17,0,0,1-.3.34,1.29,1.29,0,0,1-.17.16,4.22,4.22,0,0,1-1.53.81l-.17,0a5.37,5.37,0,0,1-1.34.17l-.4,0h-.08l-1.37,1.8a5.4,5.4,0,0,0,2.67.27,3.71,3.71,0,0,0,3-2A4.41,4.41,0,0,0,137,24.24Z"/><path class="cls-1" d="M87.24,25.9h-.09l-.61,0c-2-.22-3.43-1.43-3.43-2.88a3,3,0,0,1,2.41-2.66l.13,0,0,.13c0,.24.1.49.16.75A14.46,14.46,0,0,0,87.4,25l.18.29c.09.14.17.27.26.43l-.1.06v.12h-.5Zm-1.77-5.31A2.77,2.77,0,0,0,83.34,23c0,1.31,1.39,2.44,3.23,2.64a4.34,4.34,0,0,0,.58,0h.39l-.16-.24-.18-.3a14.24,14.24,0,0,1-1.59-3.89C85.55,21,85.51,20.8,85.47,20.59Z"/><path class="cls-1" d="M87.16,25.16c-1.67,0-3-1-3-2.17a2.19,2.19,0,0,1,1.54-1.9L85.8,21l0,.13A14,14,0,0,0,87.4,25l.1.17h-.34Zm-1.52-3.8A1.91,1.91,0,0,0,84.38,23c0,1.05,1.21,1.91,2.72,1.94A14.21,14.21,0,0,1,85.64,21.36Z"/><path class="cls-1" d="M87.74,25.78a7.38,7.38,0,0,0,1.36,1.76,5.2,5.2,0,0,1-2,.36c-2.17,0-3.95-1.26-3.95-2.8,0-.73,0-2.11,0-2.11,0,1.39,1.42,2.55,3.31,2.76a5.88,5.88,0,0,0,.6,0,4.3,4.3,0,0,0,.51,0Z"/><path class="cls-1" d="M86.17,25.81h0a4.71,4.71,0,0,1-.91-.25l-.08,0v-.25l.16.06a4.31,4.31,0,0,0,.87.24h0Z"/><path class="cls-1" d="M126.87,35l-.14-.19a2.76,2.76,0,0,0,1-1.22l0-.06.11,0,.06,0,.1,0-.06.1A2.86,2.86,0,0,1,126.87,35Z"/><path class="cls-1" d="M87.74,25.9h-.08v-.13l-.05-.09h0a.27.27,0,0,1,.09,0v.23Z"/><path class="cls-1" d="M107.28,39.44l-.32,0a35.83,35.83,0,0,1-8.76-1.77l-.31-.11.3-.11a2.76,2.76,0,0,0,2.07-2.34V34.6l-.16,0-.29-.08-.17-.06h0l-.77-.26-.16,0h0a26.93,26.93,0,0,1-4.58-2.21h0l-.1,0,0-.13-.06.11-.33-.2c-.14-.08-.29-.16-.42-.25a1.81,1.81,0,0,0-.39.72,3.13,3.13,0,0,1-.47.9v1.91l-.19-.11a16.13,16.13,0,0,1-6.33-7l-.08-.21.22,0a5.46,5.46,0,0,0,2.88-.17l-.24-.25a5.69,5.69,0,0,1-1-1.39h0c-.09-.16-.17-.29-.26-.42l-.18-.3L87.1,25h0a14.44,14.44,0,0,1-1.5-3.72c-.06-.21-.1-.43-.14-.64l-.27.11-.16.07V16.05h.23a7.73,7.73,0,0,0,1,3.73c2.87,6.8,12.69,11.56,23.89,11.57h.07c13.44,0,24.56-6.86,24.77-15.31h.23s0,1.52,0,4.55v.18l-.16-.07-.19-.08c0,.21-.09.43-.14.64l-1.58,3.82q-.23.38-.45.72l-1.29,1.7a5.25,5.25,0,0,0,2.47.2h0a2.29,2.29,0,0,0,.36-.07l.23-.05-.09.21a16.05,16.05,0,0,1-6.34,7l-.18.11V33a2.24,2.24,0,0,0-.81-1.64c-.22.16-.45.3-.69.45a27.22,27.22,0,0,1-4.79,2.32c-.26.1-.51.19-.77.27a4.23,4.23,0,0,0,2.79,1.25h.35l.19,0h.1a.35.35,0,0,0,.14,0,.76.76,0,0,1,.21,0,3.78,3.78,0,0,0,1.3-.23l.09.22a5.5,5.5,0,0,1-1.74.35h-.42a4.45,4.45,0,0,1-3.25-1.42l-.47.12v.51a2.73,2.73,0,0,0,2,2.33l.3.11-.3.11a36.17,36.17,0,0,1-8.6,1.77l-.32,0,.22-.22a2.15,2.15,0,0,0,.67-1.5V35.86l-.92.09a34.74,34.74,0,0,1-5.77,0l-.91-.08A3,3,0,0,0,108.73,38l.18.05.18,0a5.31,5.31,0,0,0,1.14.12v.24h-.1a5.8,5.8,0,0,1-1.1-.13l-.19,0-.19,0a3.6,3.6,0,0,1-2.28-1.76V37.7a2.12,2.12,0,0,0,.68,1.51Zm-8.71-1.93a35.89,35.89,0,0,0,8.11,1.64,2.28,2.28,0,0,1-.55-1.45V35.62h.05l.21,0,1,.09a35.37,35.37,0,0,0,5.73,0l1-.11.15,0,0,.16v2a2.26,2.26,0,0,1-.54,1.43,35.24,35.24,0,0,0,8-1.63,2.83,2.83,0,0,1-1.87-2.42v-.7l.09,0,.49-.12.13-.05.93-.32a27.11,27.11,0,0,0,4.75-2.3l.76-.49.07,0,.07.06a2.49,2.49,0,0,1,.95,1.87v1.52a15.8,15.8,0,0,0,6-6.56l-.16,0h0a5.46,5.46,0,0,1-2.73-.28l-.15-.05,1.47-1.94c.15-.23.3-.46.44-.7l1.56-3.78c.06-.24.12-.49.16-.75l0-.13.13,0,.17.06c0-.93,0-1.71,0-2.35-.78,3.41-3.28,6.54-7.22,9a33.67,33.67,0,0,1-17.53,4.53h-.1c-11.27,0-21.17-4.84-24.07-11.71a8.46,8.46,0,0,1-.79-2v2.5l.25-.08.13,0,0,.13c0,.25.1.5.16.75A14.41,14.41,0,0,0,87.4,25l.11.18h0l.08.13.23.37h0l0,.07a5.08,5.08,0,0,0,1,1.35c.11.12.23.25.34.39l.11.12-.15.06a5.57,5.57,0,0,1-3,.29,15.86,15.86,0,0,0,6,6.54V32.92l0,0a2.79,2.79,0,0,0,.46-.86,1.91,1.91,0,0,1,.51-.87l.07-.06.08.05.49.29.29.17h0l.1,0A26.35,26.35,0,0,0,99,33.91l.16.06h0l.6.2.34.11h0l.11,0,.25.07.08,0v.65A2.84,2.84,0,0,1,98.57,37.51Z"/><path class="cls-1" d="M110.23,31.59c-13.79,0-25-7.09-25-15.79S96.44,0,110.23,0s25,7.09,25,15.8S124,31.59,110.23,31.59Zm0-31.35c-13.66,0-24.78,7-24.78,15.56s11.12,15.55,24.78,15.55S135,24.37,135,15.8,123.89.24,110.23.24Zm0,29.66a31.91,31.91,0,0,1-16.77-4.35c-4.22-2.66-6.55-6.13-6.55-9.75S89.24,8.7,93.46,6a31.91,31.91,0,0,1,16.77-4.35A31.88,31.88,0,0,1,127,6c4.23,2.66,6.56,6.13,6.56,9.76s-2.33,7.09-6.56,9.75l-.06-.1.06.1A31.88,31.88,0,0,1,110.23,29.9Zm0-28A31.61,31.61,0,0,0,93.59,6.24c-4.16,2.62-6.45,6-6.45,9.56s2.29,6.93,6.45,9.55a31.61,31.61,0,0,0,16.64,4.31,31.58,31.58,0,0,0,16.63-4.31h0c4.16-2.62,6.45-6,6.45-9.55S131,8.86,126.86,6.24A31.58,31.58,0,0,0,110.23,1.93Z"/><path class="cls-1" d="M40.57,16.13l5.55-.29c3.33-.18,7.76-.32,12.2-.5l3.31-.15c1.09-.06,2.16-.11,3.2-.12s2,0,3,.09,1.86.11,2.69.18a46.1,46.1,0,0,1,5.54.79v.23a45.08,45.08,0,0,1-5.54.78c-.83.08-1.74.15-2.69.19s-2,.08-3,.09-2.11-.06-3.2-.12l-3.31-.16c-4.44-.17-8.87-.31-12.2-.5l-5.55-.28Z"/><path class="cls-1" d="M0,20.13l11.88-.29c7.14-.18,16.64-.32,26.15-.5l7.1-.15c2.34-.06,4.64-.11,6.87-.12s4.38,0,6.42.08,4,.12,5.76.19c7.13.29,11.88.79,11.88.79v.23s-4.75.5-11.88.78c-1.78.08-3.72.14-5.76.19s-4.2.08-6.42.08-4.53-.05-6.87-.11L38,21.14c-9.51-.17-19-.31-26.15-.5L0,20.36Z"/><path class="cls-1" d="M40.57,24.13l5.55-.29c3.33-.18,7.76-.32,12.2-.5l3.31-.15c1.09-.06,2.16-.11,3.2-.12s2,0,3,.08,1.86.11,2.69.19a43.73,43.73,0,0,1,5.54.79v.22a43.73,43.73,0,0,1-5.54.79c-.83.08-1.74.14-2.69.19s-2,.08-3,.08-2.11-.05-3.2-.11l-3.31-.16c-4.44-.17-8.87-.32-12.2-.5l-5.55-.29Z"/><path class="cls-1" d="M179.64,24.35l-5.54.29c-3.33.18-7.77.33-12.2.5l-3.31.16c-1.09.06-2.17.1-3.21.11s-2,0-3-.08-1.85-.11-2.68-.19a43.73,43.73,0,0,1-5.55-.79v-.22a43.73,43.73,0,0,1,5.55-.79c.83-.08,1.73-.14,2.68-.19s2-.08,3-.08,2.12.06,3.21.12l3.31.15c4.43.18,8.87.32,12.2.5l5.54.29Z"/><path class="cls-1" d="M220.21,20.35l-11.88.29c-7.13.18-16.64.32-26.15.5l-7.09.15c-2.34.06-4.64.11-6.87.12s-4.38,0-6.43-.09-4-.11-5.75-.18c-7.13-.28-11.89-.79-11.89-.79v-.22s4.76-.5,11.89-.78c1.78-.08,3.71-.14,5.75-.19s4.2-.08,6.43-.08,4.53.06,6.87.12l7.09.15c9.51.17,19,.32,26.15.5l11.88.28Z"/><path class="cls-1" d="M179.64,16.36l-5.54.28c-3.33.19-7.77.33-12.2.5l-3.31.16c-1.09.06-2.17.11-3.21.12s-2,0-3-.09-1.85-.11-2.68-.19a45.08,45.08,0,0,1-5.55-.78v-.23a46.09,46.09,0,0,1,5.55-.79c.83-.07,1.73-.14,2.68-.18s2-.09,3-.09,2.12.06,3.21.12l3.31.15c4.43.18,8.87.32,12.2.5l5.54.29Z"/></g></g></svg>