<svg xmlns="http://www.w3.org/2000/svg" viewBox="0 0 175.24 52.46"><defs><style>.cls-1{fill:#fff;}</style></defs><title>icon-radio-round-xs-white</title><g id="Layer_2" data-name="Layer 2"><g id="Layer_1-2" data-name="Layer 1"><path class="cls-1" d="M13.75,22.12l5.54-.29c3.33-.18,7.77-.32,12.2-.5l3.31-.15c1.09-.07,2.17-.11,3.21-.12s2,0,3,.08,1.85.11,2.68.19a43.73,43.73,0,0,1,5.55.79v.22a43.73,43.73,0,0,1-5.55.79c-.83.08-1.73.14-2.68.19s-2,.08-3,.08-2.12,0-3.21-.12l-3.31-.15c-4.43-.18-8.87-.32-12.2-.5l-5.54-.29Z"/><path class="cls-1" d="M0,26.12l7.69-.29c4.62-.18,10.77-.33,16.93-.5l4.59-.16c1.51-.06,3-.1,4.45-.11s2.83,0,4.16.08,2.57.11,3.72.19c4.62.28,7.7.79,7.7.79v.22s-3.08.51-7.7.79c-1.15.08-2.4.14-3.72.19s-2.72.08-4.16.08-2.94-.06-4.45-.12l-4.59-.15c-6.16-.18-12.31-.32-16.93-.5L0,26.34Z"/><path class="cls-1" d="M13.75,30.11l5.54-.28c3.33-.19,7.77-.33,12.2-.5l3.31-.16c1.09-.06,2.17-.1,3.21-.11s2,0,3,.08,1.85.11,2.68.19a45.08,45.08,0,0,1,5.55.78v.23a46.09,46.09,0,0,1-5.55.79c-.83.07-1.73.14-2.68.19s-2,.08-3,.08-2.12-.06-3.21-.12l-3.31-.15c-4.43-.18-8.87-.32-12.2-.5l-5.54-.29Z"/><path class="cls-1" d="M161.49,30.34l-5.55.29c-3.32.18-7.76.32-12.19.5l-3.31.15c-1.1.06-2.17.11-3.21.12s-2,0-3-.08-1.85-.12-2.68-.19a46.09,46.09,0,0,1-5.55-.79v-.23a45.08,45.08,0,0,1,5.55-.78c.83-.08,1.73-.14,2.68-.19s2-.08,3-.08,2.11.05,3.21.11l3.31.16c4.43.17,8.87.31,12.19.5l5.55.28Z"/><path class="cls-1" d="M175.24,26.34l-7.7.29c-4.61.18-10.77.32-16.92.5l-4.59.15c-1.52.06-3,.11-4.45.12s-2.84,0-4.16-.08-2.57-.11-3.73-.19c-4.61-.28-7.69-.79-7.69-.79v-.22s3.08-.51,7.69-.79c1.16-.08,2.41-.14,3.73-.19s2.72-.08,4.16-.08,2.93.05,4.45.11l4.59.16c6.15.17,12.31.32,16.92.5l7.7.29Z"/><path class="cls-1" d="M161.49,22.34l-5.55.29c-3.32.18-7.76.32-12.19.5l-3.31.15q-1.65.11-3.21.12c-1,0-2,0-3-.08s-1.85-.11-2.68-.19a43.73,43.73,0,0,1-5.55-.79v-.22a43.73,43.73,0,0,1,5.55-.79c.83-.08,1.73-.14,2.68-.19s2-.08,3-.08,2.11.05,3.21.12l3.31.15c4.43.18,8.87.32,12.19.5l5.55.29Z"/><path class="cls-1" d="M109.34,44.63a18.1,18.1,0,0,1-6,2.26,23.61,23.61,0,0,1-6.83-.53v.14c0,.12-.08,2.94-.08,3.41,0,.91,1.27,2,2.1,2.15a10.13,10.13,0,0,0,2.32.24,13.43,13.43,0,0,0,3-.35c2.06-.48,6.41-3.31,6.69-3.59s7.94-6.79,8.7-7.37c.12-.08.23-.17.25-3.58v-.28C118.6,37.89,109.9,44.29,109.34,44.63Z"/><path class="cls-1" d="M119.27,6.91C117.69,5.32,113.94,5,113.78,5h-.07l-.06,0C109.26,6.91,99,11.37,98.74,11.65a7.18,7.18,0,0,0-1.92,4.57,37.05,37.05,0,0,0-.16,4.46,44.79,44.79,0,0,0,5.8.57,17.82,17.82,0,0,0,8.18-2.32c4.6-2.41,10-5.92,10-5.92s-.13,3.87-.3,8.5l.39-8.4C120.69,12.92,120.88,8.51,119.27,6.91Z"/><path class="cls-1" d="M101.92,47.24c-4.21,0-10.52-1.8-10.82-1.89a.26.26,0,0,1-.18-.24l-.11-25.58a.24.24,0,0,1,.12-.21.23.23,0,0,1,.24,0c1.2.55,8.38,1.69,11.22,1.69h.07a17.68,17.68,0,0,0,8.06-2.28c4.53-2.38,9.88-5.88,9.93-5.91a.24.24,0,0,1,.26,0,.24.24,0,0,1,.13.23c-.83,24-.93,24.1-1,24.18-.23.31-10.29,7.6-10.38,7.65a18.3,18.3,0,0,1-6.07,2.29A9.75,9.75,0,0,1,101.92,47.24ZM91.43,44.91c1.23.34,8.32,2.24,11.9,1.73a18.09,18.09,0,0,0,5.88-2.23c.5-.3,9.36-6.81,10.2-7.49.12-1.27.68-16.8.91-23.43-1.35.87-5.74,3.66-9.56,5.67a18.18,18.18,0,0,1-8.3,2.34h-.06a60.33,60.33,0,0,1-11.08-1.6Z"/><path class="cls-1" d="M84.63,20a13.9,13.9,0,0,0-6.17-4.44.29.29,0,0,0-.06-.24,7,7,0,0,0-2.74-.86.25.25,0,0,0-.16-.14c-2.19-.6-2.81-.5-3-.4-1.62-.24-2.42-.22-2.73.08a.71.71,0,0,0-.11.17,7.47,7.47,0,0,0-2.19.11,5.53,5.53,0,0,0-3.82,2.57c-1.6,2.72-1.2,6.22-.71,8.06.7,2.62,4.19,5.8,5.72,6.48.48.22,9.34,2.5,10,2.57a12.18,12.18,0,0,0,5.21-.59,5.77,5.77,0,0,0,3-4.62A10.78,10.78,0,0,0,84.63,20ZM77.84,15.6a.24.24,0,0,0,.17.14h0l-.27,1.64h0a8.18,8.18,0,0,1-2.21-.45,2.8,2.8,0,0,1,0-1.95A6,6,0,0,1,77.84,15.6Zm-2.72-.84a3.3,3.3,0,0,0-.2,2l-.38,0a6.53,6.53,0,0,1-1.91-.41,1.32,1.32,0,0,1-.21-.88,1.84,1.84,0,0,1,.23-1S73.06,14.22,75.12,14.76Zm-5-.38c.08-.07.43-.2,2,0a2.94,2.94,0,0,0-.16.93,2.87,2.87,0,0,0,.09.86A11.56,11.56,0,0,1,70.16,16c-.35-1.14-.08-1.59-.08-1.59Zm14.65,15.3c-1.62,3.15-5.58,1.69-9.63,1-5.07-.85-6.14-2-7.82-3.86a8.46,8.46,0,0,1-1.64-8.12,3.87,3.87,0,0,1,3-2.55c.28-.07.77,0,1-.08a.94.94,0,0,0,0,.16c.13.4,2.11.46,2.59.47l0,0a5.56,5.56,0,0,0,2.16.5c.31,0,.64.08.73.11h0a7.9,7.9,0,0,0,2.47.54.27.27,0,0,0,.24-.21,11.13,11.13,0,0,0,1.48.23c1.62.19,3.79,2.83,4.68,4.22C84.61,22.91,86.28,26.67,84.73,29.68Z"/><path class="cls-1" d="M81.3,45.38c-1.86,0-14-3-14.21-4.27a.58.58,0,0,0-.4-.55.72.72,0,0,1-.49-.69c0-.66,0-3.23,0-3.87a2.79,2.79,0,0,1-.9-2.38c0-1.12-.09-4.74-.09-4.74h.51s.07,3.62.09,4.74c0,1.67.74,2,.74,2a.26.26,0,0,1,.16.23s0,3.27,0,4c0,.12,0,.14.2.23a1.07,1.07,0,0,1,.69.94c.57.85,12.63,4.18,13.92,3.82,0-.14.27-.34,1.2-.45l0-4.28a.26.26,0,0,1,.07-.18.3.3,0,0,1,.18-.08c.31,0,.7-.1.7-.21,0-.48,0-6.27,0-6.27h.51s0,5.8,0,6.28-.46.66-.94.71l0,4.26a.26.26,0,0,1-.24.26,4.07,4.07,0,0,0-1,.2c-.09.28-.52.29-.66.29Z"/><path class="cls-1" d="M79.47,39.71a1.13,1.13,0,0,1,1.42.62.89.89,0,0,1-.48,1.2,1.06,1.06,0,0,1-.94-1.82Z"/><path class="cls-1" d="M76.51,39a1.14,1.14,0,0,1,1.43.62.9.9,0,0,1-.48,1.2A1.06,1.06,0,0,1,76.51,39Z"/><path class="cls-1" d="M73.75,38.28a1.13,1.13,0,0,1,1.42.62.89.89,0,0,1-.48,1.2,1.06,1.06,0,0,1-.94-1.82Z"/><path class="cls-1" d="M71.05,37.57a1.13,1.13,0,0,1,1.37.73.88.88,0,0,1-.56,1.16,1.07,1.07,0,0,1-.81-1.89Z"/><path class="cls-1" d="M68.29,36.86c.37-.23,1.2.13,1.37.73a.9.9,0,0,1-.57,1.16A1,1,0,0,1,68,38.1,1,1,0,0,1,68.29,36.86Z"/><path class="cls-1" d="M118.06,32.76a.3.3,0,0,0-.26,0c-.09.06-8.34,5.37-9.9,6.32a13.25,13.25,0,0,1-7,1.83,30.39,30.39,0,0,1-4.12-.54c-2.32-.4-2.7-.43-2.9-.26s-.31.8-.3,1.86c0,1.41.18,1.57.25,1.63a35.15,35.15,0,0,0,7.26,1.2h1a10.53,10.53,0,0,0,5.25-1.34c.1-.05,10.65-7,10.83-7.3.05-.07.13-.21.06-3.21A.26.26,0,0,0,118.06,32.76Zm-17.19,8.67h0a13.87,13.87,0,0,0,7.28-1.9c1.11-.68,5.59-3.55,8.13-5.18,0,.63,0,1.25,0,1.42-.72.59-9.4,6.36-9.92,6.66a12.45,12.45,0,0,1-5.91,1.11,35.74,35.74,0,0,1-5.33-.7,9.34,9.34,0,0,1,0-2.21l1.54.25A30.58,30.58,0,0,0,100.87,41.43Zm16.81-5.51c-.84.64-9.93,6.73-10.63,7.13a10.45,10.45,0,0,1-5.7,1.26h-.27a41.09,41.09,0,0,1-6.92-1.08,9,9,0,0,1,0-2.69,2.86,2.86,0,0,1,.44,0,6.93,6.93,0,0,0,.1,2.58c.37.48,5.3.89,5.72.91h.66a12.12,12.12,0,0,0,5.54-1.19c.09,0,10-6.52,10.12-6.85a8.79,8.79,0,0,0,0-2l.89-.58C117.71,34.54,117.71,35.63,117.68,35.92Z"/><path class="cls-1" d="M118.33,27.59a.23.23,0,0,0-.25,0l-1.25.72,0,0h0a.27.27,0,0,0-.21.16c-2.48,1.43-7.3,4.21-8.46,4.91A12.82,12.82,0,0,1,101.06,35c-.9,0-2.5-.27-3.92-.48-2.57-.4-3-.43-3.22-.26s-.29.24-.31,1.82a3.94,3.94,0,0,0,.25,2,37.72,37.72,0,0,0,7.32,1.1H102a11.36,11.36,0,0,0,5.63-1.39c.1-.06,10.55-6.56,10.71-6.81.05-.07.14-.21.11-3.2A.25.25,0,0,0,118.33,27.59Zm-17.28,7.93a13.31,13.31,0,0,0,7.33-1.72c1.12-.67,5.62-3.27,8.17-4.74,0,.68,0,1.33,0,1.51-.71.55-9.14,5.81-10,6.27a10.27,10.27,0,0,1-5.79,1.09,38.47,38.47,0,0,1-5.59-.7,13.49,13.49,0,0,1,0-2.47c.56.07,1.27.17,1.9.27A38.49,38.49,0,0,0,101.05,35.52Zm16.86-4.79c-.83.59-9.7,6.17-10.53,6.65a11.13,11.13,0,0,1-6,1.31h-.17a46.16,46.16,0,0,1-7-1,10.55,10.55,0,0,1,0-3,2.07,2.07,0,0,1,.4,0,8.3,8.3,0,0,0,.11,2.86c.37.49,5.91.88,6,.88l1,0a10.28,10.28,0,0,0,5.06-1.18c.1,0,10-6.13,10.18-6.47a8.54,8.54,0,0,0,.08-2.05l.89-.52C118,29.35,117.94,30.44,117.91,30.73Z"/><path class="cls-1" d="M118.38,22.3l-1.27.69h0a.23.23,0,0,0-.2.14c-2.52,1.36-7.4,4-8.58,4.75a13.48,13.48,0,0,1-7.07,1.65c-.86,0-2.34-.22-3.77-.41-2.82-.37-3.35-.41-3.56-.24s-.29.24-.34,1.7q0,1.5.21,1.74a42.19,42.19,0,0,0,7.49,1.25l.68,0a11.87,11.87,0,0,0,5.5-1.24c.1-.05,11-6.34,11.15-6.61,0-.07.14-.21.17-3.2a.26.26,0,0,0-.12-.22A.27.27,0,0,0,118.38,22.3ZM101.21,30a14,14,0,0,0,7.36-1.72c1.11-.68,5.68-3.18,8.26-4.58,0,.68,0,1.35-.06,1.52-.76.57-9.51,5.76-10.09,6.07a13.16,13.16,0,0,1-5.82,1,43.82,43.82,0,0,1-5.76-.81,9.83,9.83,0,0,1,0-2.14c.64.06,1.5.18,2.25.28C98.83,29.81,100.33,30,101.21,30Zm16.94-4.59c-.85.56-10.06,6-11,6.45a11.65,11.65,0,0,1-5.92,1.16,51.87,51.87,0,0,1-7.15-1.12,8.42,8.42,0,0,1,.09-2.65,3.09,3.09,0,0,1,.41,0,6.6,6.6,0,0,0,.05,2.5c.36.5,6.08,1,6.14,1,.21,0,.45,0,.71,0a13.26,13.26,0,0,0,5.39-1.06c.09-.05,10.14-5.93,10.3-6.26a8.59,8.59,0,0,0,.12-2.06l.9-.49C118.23,24.05,118.19,25.14,118.15,25.44Z"/><path class="cls-1" d="M118.83,16.58a.27.27,0,0,0-.26,0l-1.26.69h0a.23.23,0,0,0-.21.15c-2.51,1.38-7.39,4.06-8.56,4.74a15.53,15.53,0,0,1-7.09,1.5,41.64,41.64,0,0,1-4.13-.56c-2.7-.45-3.17-.49-3.38-.33s-.29.24-.34,1.84c0,1.16,0,1.83.21,2,.34.31,5.94,1.18,7.68,1.26l.75,0a12.48,12.48,0,0,0,5.47-1.14c.1,0,10.92-6.43,11.11-6.71,0-.08.14-.21.17-3.21A.27.27,0,0,0,118.83,16.58ZM101.4,24.16a16.33,16.33,0,0,0,7.36-1.57c1.12-.65,5.68-3.16,8.26-4.58,0,.69,0,1.34,0,1.52-.76.56-9.52,5.76-10.1,6.07a13.3,13.3,0,0,1-5.82,1,47,47,0,0,1-6-.82,14.88,14.88,0,0,1,0-2.48c.61.08,1.38.21,2.07.32A39.18,39.18,0,0,0,101.4,24.16Zm16.94-4.44c-.88.6-10.18,6.19-10.89,6.54a12.47,12.47,0,0,1-6,1.07,52.64,52.64,0,0,1-7.33-1.13,10.93,10.93,0,0,1,.08-3l.41,0a8.57,8.57,0,0,0,.05,2.87c.35.49,6.27,1,6.33,1s.45,0,.72,0a13.41,13.41,0,0,0,5.38-1.05c.1-.05,10.14-5.94,10.31-6.26a9.67,9.67,0,0,0,.11-2.06l.9-.49C118.42,18.33,118.38,19.42,118.34,19.72Z"/><path class="cls-1" d="M63.17,35.25a2.44,2.44,0,0,0-1.7-1.07,1.68,1.68,0,0,0-2.09,1.48.66.66,0,0,0,0,.14,1.26,1.26,0,0,0-.31.61s0,.07,0,.11a1.92,1.92,0,0,0,.33,1.58,2.19,2.19,0,0,0,1.49.66,1.16,1.16,0,0,0,.37-.11,1.34,1.34,0,0,0,.27.07,1.47,1.47,0,0,0,.36,0,1.83,1.83,0,0,0,1.75-1.3A2.91,2.91,0,0,0,63.17,35.25Zm-3.36,2.58a1.44,1.44,0,0,1-.26-1.21c0-.09,0-.16,0-.2a3.41,3.41,0,0,1,.61-.77.84.84,0,0,1,.59-.24,1.45,1.45,0,0,1,.82.31,2.32,2.32,0,0,1,.65,1.9,10.65,10.65,0,0,1-1.37.63A1.85,1.85,0,0,1,59.81,37.83Zm2.45.35.22-.11.1,0A1.34,1.34,0,0,1,62.26,38.18Zm.87-.84a1.23,1.23,0,0,1-.51.67.16.16,0,0,0,.08-.1,2.83,2.83,0,0,0-.82-2.6,1.59,1.59,0,0,0-1.63-.3,1.19,1.19,0,0,1,1.15-.32,1.92,1.92,0,0,1,1.35.84A2.46,2.46,0,0,1,63.13,37.34Z"/><path class="cls-1" d="M69.74,32.9a2.4,2.4,0,0,0-1.69-1.07A1.68,1.68,0,0,0,66,33.31a.66.66,0,0,0,0,.14,1.18,1.18,0,0,0-.31.61.52.52,0,0,1,0,.11A2,2,0,0,0,66,35.75a2.18,2.18,0,0,0,1.49.66,1.16,1.16,0,0,0,.37-.11,1.25,1.25,0,0,0,.26.07,2.47,2.47,0,0,0,.36,0,1.83,1.83,0,0,0,1.76-1.3A2.87,2.87,0,0,0,69.74,32.9Zm-3.35,2.58a1.44,1.44,0,0,1-.26-1.21c0-.09,0-.16,0-.2a3.41,3.41,0,0,1,.61-.77.82.82,0,0,1,.59-.24,1.45,1.45,0,0,1,.82.31,2.32,2.32,0,0,1,.65,1.9,10.65,10.65,0,0,1-1.37.63A1.8,1.8,0,0,1,66.39,35.48Zm2.45.35.22-.11.1,0A1.55,1.55,0,0,1,68.84,35.83Zm.87-.84a1.23,1.23,0,0,1-.51.67.27.27,0,0,0,.08-.1,2.83,2.83,0,0,0-.82-2.6,1.59,1.59,0,0,0-1.63-.3A1.22,1.22,0,0,1,68,32.33a1.91,1.91,0,0,1,1.34.85A2.42,2.42,0,0,1,69.71,35Z"/><path class="cls-1" d="M81,35.58a2.42,2.42,0,0,0-1.7-1.07A1.68,1.68,0,0,0,77.21,36s0,.1,0,.14a1.23,1.23,0,0,0-.3.61.74.74,0,0,1,0,.12,2,2,0,0,0,.33,1.58,2.25,2.25,0,0,0,1.5.65,1.47,1.47,0,0,0,.37-.1l.26.07.36,0a1.83,1.83,0,0,0,1.76-1.29A2.89,2.89,0,0,0,81,35.58Zm-3.36,2.58A1.52,1.52,0,0,1,77.37,37a.89.89,0,0,0,0-.19A3.2,3.2,0,0,1,78,36a.82.82,0,0,1,.58-.25,1.43,1.43,0,0,1,.82.32A2.28,2.28,0,0,1,80.07,38a11.34,11.34,0,0,1-1.37.63A1.79,1.79,0,0,1,77.63,38.16Zm2.46.35.21-.11a.23.23,0,0,0,.11,0A1.3,1.3,0,0,1,80.09,38.51Zm.86-.83a1.23,1.23,0,0,1-.5.67.39.39,0,0,0,.08-.1,2.84,2.84,0,0,0-.82-2.61,1.61,1.61,0,0,0-1.64-.3A1.23,1.23,0,0,1,79.22,35a1.91,1.91,0,0,1,1.35.85A2.36,2.36,0,0,1,81,37.68Z"/><path class="cls-1" d="M89.86,42a2.44,2.44,0,0,0-1.7-1.07,1.68,1.68,0,0,0-2.08,1.48s0,.09,0,.14a1.23,1.23,0,0,0-.3.61.74.74,0,0,1,0,.12,1.92,1.92,0,0,0,.33,1.58,2.22,2.22,0,0,0,1.49.65,1.09,1.09,0,0,0,.37-.11,1.34,1.34,0,0,0,.27.07,1.47,1.47,0,0,0,.36,0,1.85,1.85,0,0,0,1.76-1.3A3,3,0,0,0,89.86,42ZM86.5,44.55a1.44,1.44,0,0,1-.26-1.21,1,1,0,0,0,0-.2,2.87,2.87,0,0,1,.6-.76.81.81,0,0,1,.59-.25,1.41,1.41,0,0,1,.82.32,2.27,2.27,0,0,1,.65,1.89,10.65,10.65,0,0,1-1.37.63A1.85,1.85,0,0,1,86.5,44.55ZM89,44.9l.22-.11a.29.29,0,0,0,.1,0A1.34,1.34,0,0,1,89,44.9Zm.87-.84a1.18,1.18,0,0,1-.51.67.2.2,0,0,0,.09-.09A2.9,2.9,0,0,0,88.58,42a1.61,1.61,0,0,0-1.64-.3,1.2,1.2,0,0,1,1.15-.32,1.92,1.92,0,0,1,1.35.84A2.47,2.47,0,0,1,89.82,44.06Z"/><path class="cls-1" d="M113.39,4.79c-.33,0-35-4.77-35.3-4.77a3.48,3.48,0,0,0-.54.07A16,16,0,0,0,74.48,0h-.59C73.76,0,60.6,4,60.48,4l-.25.07A8.89,8.89,0,0,0,58,5l0,0V5l-.06,0,0-.09a2.83,2.83,0,0,0-.75.1,4.82,4.82,0,0,0-2.7,4.25c-.09,4.16,1.06,19.29,1.61,26.56.17,2.22.29,3.82.29,4,0,.49.06,1.94,1.46,2a2.68,2.68,0,0,0,1.4.79c.35.18,37.52,9.65,37.82,9.7a2,2,0,0,0,.4,0,8.42,8.42,0,0,0,1.82-.21h.08a.35.35,0,0,0,.17-.1.26.26,0,0,0,0-.29.29.29,0,0,0-.28-.1,5.19,5.19,0,0,1-1.54-.05c-.59-.08-.72-1.13-.73-1.48l0-.22a.25.25,0,0,0-.2-.28.24.24,0,0,0-.28.14h-.09c-.71-.12-34.67-8.82-35.26-9l-.14-.1c0-.25-.05-.92-.11-2a3.67,3.67,0,0,1-.52-.1c.05.91.09,1.61.11,2a10.34,10.34,0,0,1-1.12-.17h-.08L59,40.36a5.05,5.05,0,0,1-1.31-.43l0,0,0,0c-.14-.81-1.62-23.27-1.79-26.44l0-.75c-.15-2.5-.21-3.65.77-5.47a6,6,0,0,1,3.86-2.65,1.83,1.83,0,0,0,.27-.08C61.34,4.24,73.89.54,73.89.53h2.23c-2.93.93-10.52,3.34-10.88,3.55-.07,0-.46.19-.83.33a17.48,17.48,0,0,0-3.72,1.74C59.06,7.47,59,11,59,12.15v.25c-.05.73.55,11.58,1.13,22a1.48,1.48,0,0,1,.5-.21c-.44-7.95-1.18-21-1.12-21.79v-.27c.06-2.95.58-4.84,1.54-5.63a17.36,17.36,0,0,1,3.58-1.66,9.16,9.16,0,0,0,.91-.37C65.93,4.29,76.88.78,77.39.65a4.36,4.36,0,0,1,.68-.12c.55,0,34.94,4.72,35.25,4.76l.2,0a.25.25,0,0,0,.23.15h0a.26.26,0,0,0,.21-.3C114,4.87,113.71,4.83,113.39,4.79ZM57.77,40.53l.23.1.1,0,.31.09,0,0a11.2,11.2,0,0,0,1.94.33h.24a1.2,1.2,0,0,0,.25.16c.34.17,35.13,9.09,35.46,9.09h0A2.53,2.53,0,0,0,97,51.91c-2.15-.54-36.84-9.36-37.59-9.63l-.15-.05A2.13,2.13,0,0,1,58,41.5l0-.06-.07-.11-.08-.14L57.77,41a2.08,2.08,0,0,1-.13-.52Z"/></g></g></svg>