<svg xmlns="http://www.w3.org/2000/svg" viewBox="0 0 239 94.31"><defs><style>.cls-1{fill:#fff;}</style></defs><title>icon-tube-lg-white</title><g id="Layer_2" data-name="Layer 2"><g id="Layer_1-2" data-name="Layer 1"><rect class="cls-1" x="1.79" y="46.65" width="70.21" height="1"/><circle class="cls-1" cx="1.88" cy="47.15" r="1.88"/><rect class="cls-1" x="167" y="46.65" width="70.21" height="1"/><circle class="cls-1" cx="237.12" cy="47.15" r="1.88"/><path class="cls-1" d="M127,69.61l-13.89,0a5.38,5.38,0,0,1-5.38-5.36l-.13-58.87A5.38,5.38,0,0,1,112.91,0l13.88,0a5.37,5.37,0,0,1,5.38,5.35l.13,58.88A5.38,5.38,0,0,1,127,69.61ZM112.91.35a5.05,5.05,0,0,0-5,5.06L108,64.28a5,5,0,0,0,5,5l13.89,0a5,5,0,0,0,5-5l-.13-58.88a5.06,5.06,0,0,0-5.06-5Z"/><path class="cls-1" d="M131.85,6.51V5.35a5.06,5.06,0,0,0-5.06-5l-13.88,0a5.05,5.05,0,0,0-5,5.06V6.56l7.83,0v5.18H111v8.34l18.42,0,0-8.34h-5.1V6.52Zm-8.2,5.19-7.28,0V6.54h7.28Z"/><rect class="cls-1" x="126.52" y="56.01" width="0.65" height="13.6" transform="translate(-0.14 0.28) rotate(-0.13)"/><path class="cls-1" d="M126.51,67.83l-1.77-3.22V60.16l1.63-3.5h1.92l-.07-35-16.84,0,.08,35h1.62l0,11.16-7,0,0,14h5.34l0,8.82a.65.65,0,0,0,1.3,0l0-8.82h1.62l0,9.31a.65.65,0,1,0,1.29,0l0-9.31h.89l0,10.52a2,2,0,0,0,1.95,1.94h2.35a1.94,1.94,0,0,0,1.94-1.94l0-10.52h1.78l0,9.31a.65.65,0,1,0,1.3,0l0-9.31h1.46l0,8.82a.64.64,0,0,0,.64.64.65.65,0,0,0,.65-.64l0-8.83h4.21l0-14Zm-2.42-4.4-.48-.87.47-1Zm-7.62-4V56.68h1.88L116.78,60Zm-.65-1.19-.88-1.6h.88Zm3.24-1.61h.57l.89,1.61v8.57l-3.36-6.11Zm1.31,0h.14v.26Zm.8,2.79,1.72,3.13-1.71,3.67Zm0-1.35V56.67h2.91V60l-.86,1.84Zm3.57.52v-2h.92Zm-10.48-2,0,0,1.61,2.93v2.46l-2.09,4.51,0-9.92Zm-.38,11.17,2-4.23v4.23Zm2.62,0V62.23l.35-.76,3.51,6.37Zm4.69,0v0l2.09-4.5.82,1.49v3Zm3.57,0V66l1,1.87Z"/><polygon class="cls-1" points="103.38 11.23 103.28 11.28 103.38 11.49 103.38 11.23"/><path class="cls-1" d="M101.46,30.61l-11.07-10-.3.33,11.08,10Z"/><polygon class="cls-1" points="103.4 24.62 96.54 15.17 96.18 15.43 103.41 25.38 103.4 24.62"/><polygon class="cls-1" points="103.39 18.81 100.01 12.94 99.62 13.17 103.39 19.7 103.39 18.81"/><path class="cls-1" d="M99.83,32.59l-12-8.76-.27.36L99.57,33Z"/><path class="cls-1" d="M95.61,41.85,81,38.75l-.09.44,14.57,3.09C95.54,42.14,95.58,42,95.61,41.85Z"/><path class="cls-1" d="M95.19,44.38,80.36,42.82l0,.44,14.82,1.56C95.15,44.67,95.17,44.52,95.19,44.38Z"/><path class="cls-1" d="M98.42,34.72,85.51,27.27l-.22.39,12.9,7.45Z"/><path class="cls-1" d="M96.29,39.38l-14.17-4.6L82,35.2l14.17,4.6C96.19,39.66,96.24,39.52,96.29,39.38Z"/><path class="cls-1" d="M97.23,37,83.62,30.94l-.18.4L97.05,37.4Z"/><path class="cls-1" d="M140.81,35.11l12.9-7.45-.22-.39-12.91,7.45Z"/><path class="cls-1" d="M142,37.4l13.61-6.06-.18-.4L141.77,37Z"/><path class="cls-1" d="M142.85,39.8,157,35.2l-.14-.42-14.17,4.6C142.76,39.52,142.81,39.66,142.85,39.8Z"/><polygon class="cls-1" points="136.39 18.34 139.38 13.17 138.99 12.94 136.39 17.45 136.39 18.34"/><path class="cls-1" d="M143.86,44.82l14.82-1.56-.05-.44-14.82,1.56C143.83,44.52,143.85,44.67,143.86,44.82Z"/><path class="cls-1" d="M143.49,42.28l14.57-3.09-.09-.44-14.58,3.1C143.42,42,143.46,42.14,143.49,42.28Z"/><path class="cls-1" d="M95,47.15c0-.07,0-.14,0-.22H80.13v.45H95C95,47.3,95,47.23,95,47.15Z"/><polygon class="cls-1" points="136.4 24.27 142.82 15.43 142.46 15.17 136.4 23.51 136.4 24.27"/><polygon class="cls-1" points="136.41 28.7 146.01 18.04 145.68 17.74 136.41 28.04 136.41 28.7"/><path class="cls-1" d="M137.83,31l11.08-10-.3-.33-11.07,10Z"/><path class="cls-1" d="M139.43,33l12.06-8.76-.27-.36-12.05,8.76Z"/><path class="cls-1" d="M103.29,28.82l-10-11.08L93,18l10,11.08Z"/><path class="cls-1" d="M140.58,59.58,153.49,67l.22-.38-12.9-7.45C140.73,59.33,140.66,59.46,140.58,59.58Z"/><polygon class="cls-1" points="137.04 71.67 142.46 79.14 142.82 78.88 137.04 70.91 137.04 71.67"/><path class="cls-1" d="M139.17,61.72l12.05,8.76.27-.36-12.06-8.76Z"/><path class="cls-1" d="M95.14,49.49,80.32,51.05l0,.44,14.83-1.56C95.17,49.79,95.15,49.64,95.14,49.49Z"/><polygon class="cls-1" points="137.03 66.96 145.68 76.56 146.01 76.27 137.03 66.29 137.03 66.96"/><path class="cls-1" d="M141.77,57.31l13.61,6.06.18-.4L142,56.91Z"/><path class="cls-1" d="M144,46.93c0,.08,0,.15,0,.22s0,.15,0,.23h14.9v-.45Z"/><path class="cls-1" d="M143.81,49.93l14.82,1.56.05-.44-14.82-1.56C143.85,49.64,143.83,49.79,143.81,49.93Z"/><path class="cls-1" d="M142.71,54.93l14.17,4.6.14-.42-14.17-4.6C142.81,54.65,142.76,54.79,142.71,54.93Z"/><path class="cls-1" d="M143.39,52.46,158,55.56l.09-.44L143.49,52C143.46,52.17,143.42,52.32,143.39,52.46Z"/><path class="cls-1" d="M137.54,63.7l11.07,10,.3-.33-11.08-10Z"/><path class="cls-1" d="M98.19,59.2l-12.9,7.45.22.38,12.91-7.45C98.34,59.46,98.27,59.33,98.19,59.2Z"/><path class="cls-1" d="M97.05,56.91,83.44,63l.18.4,13.61-6.06Z"/><path class="cls-1" d="M96.15,54.51,82,59.11l.14.42,14.17-4.6C96.24,54.79,96.19,54.65,96.15,54.51Z"/><path class="cls-1" d="M95.51,52,80.94,55.12l.09.44,14.58-3.1C95.58,52.32,95.54,52.17,95.51,52Z"/><polygon class="cls-1" points="137.05 78 138.99 81.36 139.38 81.14 137.05 77.11 137.05 78"/><path class="cls-1" d="M99.57,61.36,87.51,70.12l.27.36,12-8.76Z"/><path class="cls-1" d="M101.17,63.36l-11.08,10,.3.33,11.07-10Z"/><polygon class="cls-1" points="101.96 77.09 99.62 81.14 100.01 81.36 101.96 77.98 101.96 77.09"/><polygon class="cls-1" points="101.94 70.94 96.18 78.88 96.54 79.14 101.95 71.69 101.94 70.94"/><polygon class="cls-1" points="101.94 66.33 92.99 76.27 93.32 76.56 101.94 66.99 101.94 66.33"/></g></g></svg>