<svg xmlns="http://www.w3.org/2000/svg" viewBox="0 0 239 98.54"><defs><style>.cls-1{fill:#222;}</style></defs><title>icon-xlr-lg</title><g id="Layer_2" data-name="Layer 2"><g id="Layer_1-2" data-name="Layer 1"><rect class="cls-1" x="1.79" y="48.77" width="70.21" height="1"/><circle class="cls-1" cx="1.88" cy="49.27" r="1.88"/><rect class="cls-1" x="167" y="48.77" width="70.21" height="1"/><circle class="cls-1" cx="237.12" cy="49.27" r="1.88"/><path class="cls-1" d="M106.19,21.58h0a2.21,2.21,0,0,1,2.21-2.21h22.43a2.21,2.21,0,0,1,2.2,2.21V35.91a1.34,1.34,0,0,1-1.33,1.34H107.53a1.34,1.34,0,0,1-1.34-1.33Zm26.35,0a1.72,1.72,0,0,0-1.71-1.72H108.4a1.72,1.72,0,0,0-1.72,1.72V35.91a.85.85,0,0,0,.85.85H131.7a.85.85,0,0,0,.84-.85Z"/><path class="cls-1" d="M106.19,39.6h0a1.34,1.34,0,0,1,1.34-1.34H131.7A1.34,1.34,0,0,1,133,39.6V59.55a20.58,20.58,0,0,1-.45,3.93l-1.69,7.25a2.83,2.83,0,0,1-2.64,2.1H111a2.85,2.85,0,0,1-2.65-2.1l-1.69-7.25a21.61,21.61,0,0,1-.45-3.93Zm26.35,0a.85.85,0,0,0-.84-.85H107.53a.85.85,0,0,0-.85.85V59.55a20.42,20.42,0,0,0,.44,3.82l1.69,7.25A2.34,2.34,0,0,0,111,72.34h17.27a2.33,2.33,0,0,0,2.16-1.72l1.69-7.25a20.23,20.23,0,0,0,.44-3.82Z"/><path class="cls-1" d="M107.59,36.76h24v2h-24Zm23.56.49H108.08v1h23.07Z"/><path class="cls-1" d="M107.59,36.76h24v2h-24Zm23.56.49H108.08v1h23.07Z"/><path class="cls-1" d="M109.31,8.77V1.89a.79.79,0,0,1,.79-.79h1V9.56h-1A.79.79,0,0,1,109.31,8.77Zm1.25-7.18h-.46a.29.29,0,0,0-.3.3V8.77a.3.3,0,0,0,.3.3h.46Z"/><path class="cls-1" d="M128.07,9.56V1.1h1a.79.79,0,0,1,.79.79V8.77a.79.79,0,0,1-.79.79Zm.49-8V9.07H129a.31.31,0,0,0,.3-.3V1.89a.29.29,0,0,0-.3-.3Z"/><path class="cls-1" d="M130.83,19.86v-.49h2.26a1.27,1.27,0,0,1,.9.38,1.23,1.23,0,0,1,.38.9v7.66a1.28,1.28,0,0,1-1.28,1.28h-.55v-8A1.72,1.72,0,0,0,130.83,19.86Zm3,.79a.75.75,0,0,0-.23-.55.8.8,0,0,0-.56-.24h-.88a2.22,2.22,0,0,1,.82,1.72V29.1h.06a.79.79,0,0,0,.79-.79Z"/><path class="cls-1" d="M110.56,19.86V1.34C110.56,0,111.73,0,112.77,0h13.58c1,0,2.21,0,2.21,1.34V19.86ZM128.07,1.34c0-.78-.47-.85-1.72-.85H112.77c-1.25,0-1.72.07-1.72.85h0v18h17Z"/><path class="cls-1" d="M115.18,98.54V89H124v9.54Zm.49-9.05v8.56h7.88V89.49Z"/><path class="cls-1" d="M110,72.12l.4.12a1.81,1.81,0,0,0,.58.1h17.27a1.91,1.91,0,0,0,.58-.1l.39-.12-.08.41c-.08.41-.17.84-.26,1.27l0,.19H110.41l-.06-.19c-.09-.43-.18-.86-.26-1.27Zm18.58.69-.33,0H111l-.34,0,.15.69h17.65C128.49,73.27,128.53,73,128.58,72.81Zm-18.11,1.53h18.29l-.07.3c-.1.48-.21,1-.32,1.46l0,.2h-.21l-.06-.25v.25H110.91l0-.19c-.12-.49-.22-1-.33-1.46Zm17.68.49H111.08l.21,1h16.65ZM111,76.64h17.27l-.07.3c-.11.48-.22,1-.34,1.45l0,.2H111.43l-.05-.19-.33-1.45Zm16.65.49h-16c.08.32.15.64.23,1h15.59C127.48,77.77,127.56,77.45,127.63,77.13Zm-16.12,1.8h16.21l-.47,2H112l0-.18c-.12-.48-.23-1-.35-1.46Zm15.59.49h-15c.08.32.16.65.23,1h14.5Zm-15,1.8h15.1l-.09.39c-.11.47-.23.93-.34,1.38l0,.19H112.54l-.1-.41q-.15-.6-.3-1.23Zm14.48.5H112.69c.07.31.15.62.23.93v0H126.3Zm-13.91,1.8h14l-.08.3c-.13.52-.25,1-.37,1.46l-.05.19h-.19l-.06-.24v.24H113.12l-.05-.18c-.12-.46-.24-.94-.37-1.46ZM126,84H113.26q.12.49.24,1h12.23Q125.85,84.51,126,84Zm-12.76,1.8H126l-.53,2.07-.24-.06a1,1,0,0,0-.28,0H113.72Zm12.18.49H113.84l.26,1h11Zm-11.6,1.78H125l.41,0-.12.43a1.7,1.7,0,0,1-1.68,1h-8.07a1.7,1.7,0,0,1-1.68-1Zm10.94.49H114.49a1.51,1.51,0,0,0,1.09.43h8.07A1.48,1.48,0,0,0,124.73,88.57Z"/><path class="cls-1" d="M113.07,88.05v-.23c0-.31.38-.53.92-.53h11c.54,0,.92.22.92.53v.23c0,.31-.38.52-.92.52H114C113.45,88.57,113.07,88.36,113.07,88.05Zm.49-.18V88a1,1,0,0,0,.43.08h11a1,1,0,0,0,.43-.08v-.13a.82.82,0,0,0-.43-.09H114A.82.82,0,0,0,113.56,87.87Z"/><path class="cls-1" d="M112.15,85.76v-.25c0-.32.39-.54,1-.54h12.74c.57,0,1,.22,1,.54v.25c0,.32-.39.54-1,.54H113.11C112.54,86.3,112.15,86.08,112.15,85.76Zm.49-.2v.15a.86.86,0,0,0,.47.1h12.74a.86.86,0,0,0,.47-.1v-.15a.86.86,0,0,0-.47-.1H113.11A.86.86,0,0,0,112.64,85.56Z"/><path class="cls-1" d="M111.64,83.47h0v-.25c0-.32.4-.54,1-.54H126.4a1.22,1.22,0,0,1,.84.25.4.4,0,0,1,.13.29v.25a.4.4,0,0,1-.13.29,1.22,1.22,0,0,1-.84.25H112.61a1.57,1.57,0,0,1-.6-.11C111.69,83.77,111.64,83.57,111.64,83.47Zm.49-.2v.15a.94.94,0,0,0,.48.1H126.4a.94.94,0,0,0,.48-.1v-.15a.94.94,0,0,0-.48-.1H112.61A.94.94,0,0,0,112.13,83.27Z"/><path class="cls-1" d="M111.14,81.17v-.24c0-.32.4-.55,1-.55H127c.57,0,1,.23,1,.55v.24c0,.33-.39.55-1,.55H112.11c-.48,0-1-.17-1-.55Zm.49-.2v.16a1.11,1.11,0,0,0,.48.09H127a1,1,0,0,0,.47-.09V81a1,1,0,0,0-.47-.1H112.11A1.06,1.06,0,0,0,111.63,81Z"/><path class="cls-1" d="M110.63,78.88v-.25c0-.32.4-.54,1-.54h15.9c.48,0,1,.17,1,.54v.25c0,.32-.4.54-1,.54h-15.9C111.12,79.42,110.63,79.25,110.63,78.88Zm.5-.2v.15a.88.88,0,0,0,.48.1h15.9a1,1,0,0,0,.49-.1v-.15a1,1,0,0,0-.49-.1h-15.9A.88.88,0,0,0,111.13,78.68Z"/><path class="cls-1" d="M110.13,76.58v-.24c0-.38.49-.54,1-.54h17c.49,0,1,.16,1,.54v.24c0,.38-.49.55-1,.55h-17C110.62,77.13,110.13,77,110.13,76.58Zm.49-.19v.15a1.08,1.08,0,0,0,.49.1h17a1,1,0,0,0,.49-.1v-.15a.92.92,0,0,0-.49-.1h-17A1,1,0,0,0,110.62,76.39Z"/><path class="cls-1" d="M109.62,74.29V74c0-.37.5-.54,1-.54h18c.58,0,1,.22,1,.54v.25c0,.38-.49.54-1,.54h-18c-.47,0-1-.16-1-.54Zm.5-.2v.15a1,1,0,0,0,.5.1h18a1,1,0,0,0,.49-.1v-.15a1.08,1.08,0,0,0-.49-.1h-18A1,1,0,0,0,110.12,74.09Z"/><path class="cls-1" d="M137.56,18.43l1.76-3-.39-.22L137.31,18C137.4,18.13,137.48,18.28,137.56,18.43Z"/><path class="cls-1" d="M138.08,28.31A5.52,5.52,0,0,1,138,29l7.9-8.77-.33-.3-7.52,8.35Z"/><path class="cls-1" d="M134.6,15.9l1.07-2.39-.41-.19-1.09,2.46A3.45,3.45,0,0,1,134.6,15.9Z"/><polygon class="cls-1" points="138.08 24.07 142.75 17.65 142.39 17.39 138.08 23.32 138.08 24.07"/><path class="cls-1" d="M101.52,32.78l-11-9.94-.3.33,11,9.94Z"/><path class="cls-1" d="M99.89,34.75,87.88,26l-.26.36,12,8.73Z"/><path class="cls-1" d="M98.48,36.88,85.62,29.45l-.22.39,12.86,7.43Z"/><path class="cls-1" d="M105.2,16.61l-1.46-3.29-.41.19,1.5,3.36C105,16.78,105.07,16.69,105.2,16.61Z"/><path class="cls-1" d="M102.75,19.82l-2.68-4.65-.39.22,2.91,5C102.64,20.22,102.69,20,102.75,19.82Z"/><polygon class="cls-1" points="102.48 30.04 93.4 19.95 93.07 20.25 102.48 30.7 102.48 30.04"/><polygon class="cls-1" points="102.48 25.47 96.61 17.39 96.25 17.65 102.48 26.22 102.48 25.47"/><path class="cls-1" d="M97.3,39.15l-13.57-6-.18.41,13.57,6Z"/><path class="cls-1" d="M141.88,39.55l13.57-6-.18-.41-13.57,6Z"/><path class="cls-1" d="M140.74,37.27l12.86-7.43-.22-.39-12.86,7.43Z"/><path class="cls-1" d="M139.36,35.11l12-8.73-.26-.36-12,8.73Z"/><path class="cls-1" d="M143.41,44.42l14.53-3.09-.09-.44L143.32,44Z"/><path class="cls-1" d="M142.78,41.94l14.12-4.59-.14-.42-14.13,4.59Z"/><path class="cls-1" d="M143.79,46.94l14.77-1.55-.05-.44L143.74,46.5C143.75,46.65,143.77,46.79,143.79,46.94Z"/><path class="cls-1" d="M137.78,33.11l11-9.94-.3-.33-11,9.94Z"/><path class="cls-1" d="M135.66,67.55l9.94,11,.33-.3-9.94-11Z"/><polygon class="cls-1" points="134.73 70.61 142.39 81.16 142.75 80.89 134.86 70.04 134.73 70.61"/><path class="cls-1" d="M133.44,73.86l5.49,9.51.39-.22-5.6-9.7C133.63,73.59,133.54,73.73,133.44,73.86Z"/><path class="cls-1" d="M137.48,65.76l11,9.94.3-.33-11-9.94Z"/><path class="cls-1" d="M132.28,78.51l3,6.71.41-.18L132.52,78A4.41,4.41,0,0,1,132.28,78.51Z"/><path class="cls-1" d="M108,84l-.81,2.5.42.14.6-1.83A3.71,3.71,0,0,1,108,84Z"/><path class="cls-1" d="M139.11,63.79l12,8.73.26-.36-12-8.73Z"/><path class="cls-1" d="M130.83,84.86l.59,1.81.42-.14-.8-2.47A3.78,3.78,0,0,1,130.83,84.86Z"/><path class="cls-1" d="M142.63,57l14.13,4.59.14-.42L142.78,56.6Z"/><path class="cls-1" d="M140.52,61.66l12.86,7.43.22-.39-12.86-7.42Z"/><path class="cls-1" d="M143.32,54.56l14.53,3.09.09-.44-14.53-3.08Z"/><path class="cls-1" d="M143.89,49.05c0,.07,0,.15,0,.22s0,.15,0,.22h14.86v-.44Z"/><path class="cls-1" d="M143.74,52l14.77,1.56.05-.45L143.79,51.6C143.77,51.75,143.75,51.9,143.74,52Z"/><path class="cls-1" d="M96.37,41.52,82.24,36.93l-.14.42,14.12,4.59Z"/><path class="cls-1" d="M141.7,59.4l13.57,6,.18-.41-13.57-6Z"/><path class="cls-1" d="M106.58,77.74,103.33,85l.41.18,3.06-6.89A4.19,4.19,0,0,1,106.58,77.74Z"/><path class="cls-1" d="M95.21,51.6,80.44,53.15l0,.45L95.26,52C95.25,51.9,95.23,51.75,95.21,51.6Z"/><path class="cls-1" d="M95.59,54.13,81.06,57.21l.09.44,14.53-3.09Z"/><path class="cls-1" d="M95.1,49.27c0-.07,0-.15,0-.22H80.25v.44H95.11C95.11,49.42,95.1,49.35,95.1,49.27Z"/><path class="cls-1" d="M95.68,44,81.15,40.89l-.09.44,14.53,3.09Z"/><path class="cls-1" d="M95.26,46.5,80.49,45l0,.44,14.77,1.55C95.23,46.79,95.25,46.65,95.26,46.5Z"/><path class="cls-1" d="M105.39,73.26l-5.71,9.89.39.22,5.59-9.69C105.57,73.55,105.48,73.4,105.39,73.26Z"/><path class="cls-1" d="M96.22,56.6,82.1,61.19l.14.42L96.37,57Z"/><path class="cls-1" d="M103,67.25l-9.94,11,.33.3,9.94-11Z"/><path class="cls-1" d="M101.22,65.43l-11,9.94.3.33,11-9.94Z"/><path class="cls-1" d="M97.12,59,83.55,65l.18.41,13.57-6Z"/><polygon class="cls-1" points="104.31 69.81 96.25 80.89 96.61 81.16 104.44 70.38 104.31 69.81"/><path class="cls-1" d="M98.26,61.28,85.4,68.7l.22.39,12.86-7.43Z"/><path class="cls-1" d="M99.63,63.43l-12,8.73.26.36,12-8.73Z"/></g></g></svg>