<svg xmlns="http://www.w3.org/2000/svg" viewBox="0 0 513.77 28.37"><defs><style>.cls-1{fill:#fff;}</style></defs><title>icon-maracas-xl-white</title><g id="Layer_2" data-name="Layer 2"><g id="Layer_1-2" data-name="Layer 1"><path class="cls-1" d="M237.35,17a16,16,0,0,1-2.86-1.16,13.41,13.41,0,0,1-3.94-3.11A64,64,0,0,0,237.11.27a13.51,13.51,0,0,1,4.81,1.49,16.65,16.65,0,0,1,2.56,1.69A72.18,72.18,0,0,1,237.35,17Z"/><path class="cls-1" d="M245.16,4c.42.37.83.76,1.21,1.16a74.55,74.55,0,0,1-6.53,12.41c-.55-.09-1.1-.2-1.64-.34A73.86,73.86,0,0,0,245.16,4Z"/><path class="cls-1" d="M242.15,28.36a2.14,2.14,0,0,1-2.11-1c-1-1.88,1.7-4.51,8-7.84a93.91,93.91,0,0,1,9.07-3.92l2.05-.81a9.7,9.7,0,0,0,4.45-4.28c.09-.29.21-.61.34-.94a17.08,17.08,0,0,1,7.5-7.93l.49-.25h0l.22-.1a13.78,13.78,0,0,1,3.29-1h0c4.12-.73,7.76.67,9.28,3.56a7.2,7.2,0,0,1-.11,6.56A12.69,12.69,0,0,1,279,16a17.62,17.62,0,0,1-9.64,1.88h-.06l-.3,0-.1,0-.26,0,.27.28-.68-.3s-3.31-1.41-8.15,1.67c-.78.51-1.58,1.05-2.4,1.6A75.89,75.89,0,0,1,251,25.17Q245,28.37,242.15,28.36ZM272.08,1.65l-.48.24a16.76,16.76,0,0,0-7.37,7.78,9.61,9.61,0,0,0-.33.94,10.06,10.06,0,0,1-4.6,4.44l-2.07.81a96.19,96.19,0,0,0-9,3.91c-7.64,4-8.51,6.27-7.89,7.44s2.95,1.72,10.6-2.3a76.55,76.55,0,0,0,6.63-4.14l2.41-1.6c3.92-2.5,6.8-2.16,7.92-1.87l.41.08.33.07.36.06h.11l.28,0h.06a17.37,17.37,0,0,0,9.47-1.85,12.32,12.32,0,0,0,5.48-5.49,6.94,6.94,0,0,0,.12-6.3c-1.46-2.77-5-4.11-9-3.4h0a13.4,13.4,0,0,0-3.19,1Z"/><path class="cls-1" d="M276.09,17A16,16,0,0,0,279,15.85a13.41,13.41,0,0,0,3.94-3.11A64,64,0,0,1,276.33.27a13.47,13.47,0,0,0-4.8,1.49A16.73,16.73,0,0,0,269,3.45,72.18,72.18,0,0,0,276.09,17Z"/><path class="cls-1" d="M268.29,4a16.66,16.66,0,0,0-1.21,1.16,74.5,74.5,0,0,0,6.52,12.41c.55-.09,1.1-.2,1.64-.34A73.18,73.18,0,0,1,268.29,4Z"/><path class="cls-1" d="M251.26,18.31l-.06,0c-3.65-1.55-6-.55-6-.54l-.67.29.26-.27-.27,0-.1,0-.29,0h-.07A17.71,17.71,0,0,1,234.42,16a12.62,12.62,0,0,1-5.6-5.62,7.2,7.2,0,0,1-.12-6.56c1.38-2.62,4.49-4,8.12-3.71L236.6,0,238,.24a13.55,13.55,0,0,1,3.26,1l.25.11.49.25a17.08,17.08,0,0,1,7.5,7.93,10.19,10.19,0,0,1,.35,1,9.74,9.74,0,0,0,4.45,4.27l2,.77.89.34-.36.14c-1.67.66-3.61,1.43-5.46,2.24Zm-4-1.2a10.25,10.25,0,0,1,4,.87c1.71-.75,3.49-1.46,5.07-2.08l-.18-.07-2-.78a10,10,0,0,1-4.61-4.42,9.9,9.9,0,0,0-.34-1,16.78,16.78,0,0,0-7.36-7.78c-.16-.08-.32-.17-.49-.24l-.21-.1,0,0a13.47,13.47,0,0,0-3.18-1h0c-4-.71-7.52.63-9,3.4a6.94,6.94,0,0,0,.12,6.3,12.32,12.32,0,0,0,5.48,5.49A17.37,17.37,0,0,0,244,17.57h.06l.29,0h.1l.36-.06.33-.07.47-.1h0A6.91,6.91,0,0,1,247.25,17.11Z"/><path class="cls-1" d="M271.28,28.37a6.09,6.09,0,0,1-.82-.06c-1.86-.25-4.57-1.31-8-3.14a65.89,65.89,0,0,1-5.77-3.56l-.18-.12,1.09-.73c.81-.55,1.61-1.09,2.4-1.59A13.85,13.85,0,0,1,262.13,18l.06,0,.06,0c1.22.54,2.24,1,3.14,1.5h0c6.31,3.33,9,6,8,7.84A2.18,2.18,0,0,1,271.28,28.37ZM257,21.49c1.71,1.14,3.68,2.43,5.56,3.42A27.1,27.1,0,0,0,270.5,28c1.37.18,2.27-.09,2.65-.81.61-1.17-.26-3.41-7.9-7.44-.87-.46-1.88-.94-3.06-1.46a14.81,14.81,0,0,0-2.08,1.1L257.72,21Z"/><path class="cls-1" d="M326.92,17.79l-5.55.29c-3.32.18-7.76.32-12.2.49l-3.3.16c-1.1.06-2.17.11-3.21.12s-2.05,0-3-.09-1.85-.11-2.68-.19a45.08,45.08,0,0,1-5.55-.78v-.23a46.09,46.09,0,0,1,5.55-.79c.83-.07,1.73-.14,2.68-.18s2-.08,3-.09,2.11.06,3.21.12l3.3.15c4.44.18,8.88.32,12.2.5l5.55.29Z"/><path class="cls-1" d="M340.67,13.79l-7.7.29c-4.61.18-10.77.32-16.92.5l-4.59.15c-1.52.06-3,.11-4.45.12s-2.84,0-4.16-.09-2.57-.11-3.73-.18c-4.61-.29-7.69-.79-7.69-.79v-.23s3.08-.5,7.69-.78c1.16-.08,2.41-.15,3.73-.19s2.72-.08,4.16-.09,2.93.06,4.45.12l4.59.16c6.15.17,12.31.31,16.92.49l7.7.29Z"/><path class="cls-1" d="M326.92,9.79l-5.55.29c-3.32.18-7.76.32-12.2.5l-3.3.15c-1.1.06-2.17.11-3.21.12s-2.05,0-3-.09-1.85-.11-2.68-.18a46.09,46.09,0,0,1-5.55-.79V9.56A45.08,45.08,0,0,1,297,8.78c.83-.08,1.73-.14,2.68-.19s2-.08,3-.08,2.11.05,3.21.11l3.3.16c4.44.17,8.88.31,12.2.5l5.55.28Z"/><rect class="cls-1" x="350.25" y="13.18" width="161.74" height="1"/><circle class="cls-1" cx="511.89" cy="13.68" r="1.88"/><path class="cls-1" d="M186.9,9.56l5.54-.28c3.33-.19,7.77-.33,12.2-.5L208,8.62c1.1-.06,2.17-.11,3.21-.11s2,0,3,.08,1.85.11,2.68.19a45.08,45.08,0,0,1,5.55.78v.23a46.09,46.09,0,0,1-5.55.79c-.83.07-1.73.14-2.68.18s-2,.09-3,.09-2.11-.06-3.21-.12l-3.31-.15c-4.43-.18-8.87-.32-12.2-.5l-5.54-.29Z"/><path class="cls-1" d="M173.15,13.56l7.7-.29c4.61-.18,10.77-.32,16.92-.49l4.59-.16c1.52-.06,3-.11,4.45-.12s2.84,0,4.16.09,2.57.11,3.73.19c4.61.28,7.69.78,7.69.78v.23s-3.08.5-7.69.79c-1.16.07-2.41.14-3.73.18s-2.72.08-4.16.09-2.93-.06-4.45-.12l-4.59-.15c-6.15-.18-12.31-.32-16.92-.5l-7.7-.29Z"/><path class="cls-1" d="M186.9,17.56l5.54-.29c3.33-.18,7.77-.32,12.2-.5l3.31-.15c1.1-.06,2.17-.11,3.21-.12s2,0,3,.09,1.85.11,2.68.18a46.09,46.09,0,0,1,5.55.79v.23a45.08,45.08,0,0,1-5.55.78c-.83.08-1.73.15-2.68.19s-2,.08-3,.09-2.11-.06-3.21-.12l-3.31-.16c-4.43-.17-8.87-.31-12.2-.49l-5.54-.29Z"/><rect class="cls-1" x="4.79" y="13.18" width="159.64" height="1"/><circle class="cls-1" cx="1.88" cy="13.68" r="1.88"/></g></g></svg>