<svg xmlns="http://www.w3.org/2000/svg" viewBox="0 0 131.5 25.82"><defs><style>.cls-1{fill:#fff;}</style></defs><title>icon-xlr-xs-white</title><g id="Layer_2" data-name="Layer 2"><g id="Layer_1-2" data-name="Layer 1"><path class="cls-1" d="M13.75,8.8l5.54-.29c3.33-.18,7.77-.32,12.2-.5l3.31-.15C35.89,7.79,37,7.75,38,7.74s2,0,3,.08,1.85.11,2.68.19a43.73,43.73,0,0,1,5.55.79V9a43.73,43.73,0,0,1-5.55.79C42.86,9.89,42,10,41,10s-2,.08-3,.08S35.89,10,34.8,10l-3.31-.15c-4.43-.18-8.87-.32-12.2-.5L13.75,9Z"/><path class="cls-1" d="M0,12.8l7.69-.29c4.62-.18,10.77-.33,16.93-.5l4.59-.16c1.51-.06,3-.1,4.45-.11s2.83,0,4.16.08,2.57.11,3.72.19c4.62.28,7.7.79,7.7.79V13s-3.08.51-7.7.79c-1.15.08-2.4.14-3.72.19s-2.72.08-4.16.08S30.72,14,29.21,14l-4.59-.15c-6.16-.18-12.31-.32-16.93-.5L0,13Z"/><path class="cls-1" d="M13.75,16.79l5.54-.28c3.33-.19,7.77-.33,12.2-.5l3.31-.16c1.09-.06,2.17-.1,3.21-.11s2,0,3,.08,1.85.11,2.68.19a45.08,45.08,0,0,1,5.55.78V17a46.09,46.09,0,0,1-5.55.79C42.86,17.88,42,18,41,18s-2,.08-3,.08S35.89,18,34.8,18l-3.31-.15c-4.43-.18-8.87-.32-12.2-.5L13.75,17Z"/><path class="cls-1" d="M117.75,17l-5.54.29c-3.33.18-7.77.32-12.2.5L96.7,18c-1.09.06-2.17.11-3.21.12s-2,0-3-.08-1.85-.12-2.68-.19A46.09,46.09,0,0,1,82.26,17v-.23A45.08,45.08,0,0,1,87.81,16c.83-.08,1.73-.14,2.68-.19s2-.08,3-.08,2.12,0,3.21.11L100,16c4.43.17,8.87.31,12.2.5l5.54.28Z"/><path class="cls-1" d="M131.5,13l-7.69.29c-4.62.18-10.77.32-16.93.5l-4.59.15c-1.52.06-3,.11-4.45.12s-2.84,0-4.16-.08-2.57-.11-3.72-.19c-4.62-.28-7.7-.79-7.7-.79V12.8s3.08-.51,7.7-.79c1.15-.08,2.4-.14,3.72-.19s2.72-.08,4.16-.08,2.93,0,4.45.11l4.59.16c6.16.17,12.31.32,16.93.5l7.69.29Z"/><path class="cls-1" d="M117.75,9l-5.54.29c-3.33.18-7.77.32-12.2.5L96.7,10c-1.09.07-2.17.11-3.21.12s-2,0-3-.08-1.85-.11-2.68-.19A43.73,43.73,0,0,1,82.26,9V8.8A43.73,43.73,0,0,1,87.81,8c.83-.08,1.73-.14,2.68-.19s2-.08,3-.08,2.12,0,3.21.12L100,8c4.43.18,8.87.32,12.2.5l5.54.29Z"/><path class="cls-1" d="M65.75,25.82A12.91,12.91,0,1,1,78.66,12.91,12.92,12.92,0,0,1,65.75,25.82ZM65.75.5A12.41,12.41,0,1,0,78.16,12.91,12.43,12.43,0,0,0,65.75.5Zm0,24.08a11.79,11.79,0,0,1-5.86-22l.22-.12,1.25,2.19-.22.13a9.27,9.27,0,1,0,9.21,0l-.22-.13L71.4,2.44l.21.12a11.79,11.79,0,0,1-5.86,22ZM59.92,3.12a11.29,11.29,0,1,0,11.66,0l-.77,1.33a9.77,9.77,0,1,1-10.13,0Zm5.83,17.46A7.8,7.8,0,0,1,60,7.51l.07-.08H71.44l.07.08a7.8,7.8,0,0,1-5.76,13.07ZM60.28,7.93a7.32,7.32,0,1,0,10.93,0Z"/><path class="cls-1" d="M61.77,14.11a1.34,1.34,0,1,1,1.34-1.34A1.34,1.34,0,0,1,61.77,14.11Z"/><path class="cls-1" d="M65.75,18.05a1.34,1.34,0,1,1,1.34-1.34A1.34,1.34,0,0,1,65.75,18.05Z"/><path class="cls-1" d="M69.73,14.11a1.34,1.34,0,1,1,1.34-1.34A1.34,1.34,0,0,1,69.73,14.11Z"/><path class="cls-1" d="M65.75,24.58a11.79,11.79,0,0,1-5.86-22l.22-.12,1.25,2.19-.22.13a9.27,9.27,0,1,0,9.21,0l-.22-.13L71.4,2.44l.21.12a11.79,11.79,0,0,1-5.86,22ZM59.92,3.12a11.29,11.29,0,1,0,11.66,0l-.77,1.33a9.77,9.77,0,1,1-10.13,0Z"/><path class="cls-1" d="M65.75,20.58A7.8,7.8,0,0,1,60,7.51l.07-.08H71.44l.07.08a7.8,7.8,0,0,1-5.76,13.07ZM60.28,7.93a7.32,7.32,0,1,0,10.93,0Z"/></g></g></svg>