<svg xmlns="http://www.w3.org/2000/svg" viewBox="0 0 93.94 93.94"><defs><style>.cls-1{fill:#d0d0d0;}</style></defs><title>mob-spinner</title><g id="Layer_2" data-name="Layer 2"><g id="Layer_1-2" data-name="Layer 1"><path class="cls-1" d="M15.15,47A7.31,7.31,0,0,1,13,52.37a7.33,7.33,0,0,1-5.39,2.18,7.64,7.64,0,0,1-5.4-13,7.34,7.34,0,0,1,5.4-2.18A7.33,7.33,0,0,1,13,41.57,7.3,7.3,0,0,1,15.15,47Zm4-35.42a7.42,7.42,0,0,1,5.3,2.18A7,7,0,0,1,26.7,19a7.34,7.34,0,0,1-2.27,5.4A7.34,7.34,0,0,1,19,26.7a7,7,0,0,1-5.3-2.27A7.53,7.53,0,0,1,11.55,19a7.22,7.22,0,0,1,2.18-5.3A7.34,7.34,0,0,1,19.13,11.55Zm0,55.68a7.24,7.24,0,0,1,5.3,2.28A7.33,7.33,0,0,1,26.7,74.9a7,7,0,0,1-2.27,5.31A7.53,7.53,0,0,1,19,82.39a7.44,7.44,0,0,1-7.48-7.49,7.52,7.52,0,0,1,2.18-5.39A7.16,7.16,0,0,1,19.13,67.23ZM54.54,7.58a7.63,7.63,0,0,0-13-5.4,7.34,7.34,0,0,0-2.18,5.4A7.33,7.33,0,0,0,41.57,13a7.78,7.78,0,0,0,10.8,0A7.32,7.32,0,0,0,54.54,7.58ZM47,78.79A7.45,7.45,0,1,1,41.57,81,7.3,7.3,0,0,1,47,78.79ZM74.81,67.23a7.16,7.16,0,0,1,5.4,2.28,7.52,7.52,0,0,1,2.18,5.39,7.44,7.44,0,0,1-7.49,7.49,7.52,7.52,0,0,1-5.39-2.18,7.06,7.06,0,0,1-2.28-5.31,7.34,7.34,0,0,1,2.28-5.39A7.24,7.24,0,0,1,74.81,67.23ZM93.94,47a7.45,7.45,0,1,1-2.18-5.4A7.35,7.35,0,0,1,93.94,47Z"/></g></g></svg>