<svg xmlns="http://www.w3.org/2000/svg" viewBox="0 0 553 171.6"><defs><style>.cls-1{fill:#222;}</style></defs><title>mobtown-studios-logo</title><g id="Layer_2" data-name="Layer 2"><g id="Layer_1-2" data-name="Layer 1"><path class="cls-1" d="M145.61,46.82c24.27-18.25,53.7-33,80.21-33.74,10.5,0,15.32,5.51,15.32,11.19,0,6.54-5,12.39-12.39,14.11-.69-2.41-4.48-3.78-7.23-3.78-30.64,0-56.11,71.08-56.11,89.5,0,5.33,1.72,9.29,6.37,9.29a5,5,0,0,0,5-4.82,4.62,4.62,0,0,0-.86-2.23c9-1.73,16.86,6,16.86,17.9,0,10.67-8.43,27.36-29.77,27.36-16.18,0-27.89-13.08-27.89-31.15,0-13.43,7.58-34.77,18.77-56.28,10.5-20.14,25-40.28,41.3-51.47C178,38.9,159.73,50.26,144.75,62.13c-.17,11.54,0,23.93-2.58,34.77-4,14.63-15.49,29.26-31.84,29.26-5.68,0-15.15-3.61-15.15-16.86,0-10.85,12.74-29.26,31.67-47,1.72-10.5,4.48-21,10.33-27.89C121,45.1,108.09,68,103.79,76.08,88.3,105.17,69,137.87,35.46,137.87c-18.76,0-35.46-12.4-35.46-31C0,94.84,10,83,23.93,83c7.22,0,13.59,3.1,15.83,8.44-2.41,0-4.13,1.54-4.13,3.61,0,3.79,3.27,5.68,7.23,5.68,36.83,0,53.35-61.62,90.53-73.84-6.71-1.2-14.28-2.93-21.34-2.93-13.43,0-27.37,6.89-27.37,18.25,0,3.27,1.72,6,5.34,6.54-2.41,2.75-7.92,4.48-13.77,4.48-10.5,0-21.69-7.23-21.69-21C54.56,11.88,73.15,0,93.46,0c27.71,0,45.61,21.34,62.14,26C149.05,30,146.82,38,145.61,46.82Zm-21,34.25c-5.68,6.54-9.3,12.22-9.64,16.52-.18,1.55.68,2.76,1.72,2.76C121.86,100.35,123.41,92.08,124.62,81.07Z"/><path class="cls-1" d="M241.48,82.62c-4.65,16-11.19,24.95-21.69,25.47-7.4,9.3-16.52,15.84-25.3,15.84-12.39,0-17-9-16.52-21,1-19.62,20.65-49.74,44.75-49.74,8.43,0,13.6,6.71,13.6,15.66,0,7.23-2.76,16.18-7.06,24.61,5.85-.52,10-7.23,11.87-10.67Zm-31,19.1a13,13,0,0,1,1.72-10.32c2.07-3.28,5.85-5.17,10.16-5.86,4.47-9.12,6.19-18.41.85-18.41-7.74,0-26.5,36.66-17.72,36.66A8.22,8.22,0,0,0,210.5,101.72Z"/><path class="cls-1" d="M250.43,112.57l-4,9a61.85,61.85,0,0,0-11.88-.86,50.25,50.25,0,0,0-15.49,3.44c10.84-18.25,42-86.75,50.6-106.2,7.92,2.58,14.63,1,22.21-1.55L274,55.77l-5.34,10h1.38C275.21,58.35,282.1,53,289,53c7.57,0,12.56,6.72,12.56,14.29,0,22.2-23.06,58.17-42.68,55.94C253.35,122.55,251.12,117.9,250.43,112.57ZM259,97.42c-.69,2.07-.17,4.13,1.38,4.13,6.2,0,21.17-31.33,14.11-31.33-1.2,0-3.27,1.73-5.85,5.86A92.61,92.61,0,0,0,259,97.42Z"/><path class="cls-1" d="M312.9,54.91h4.82l10.5-21.86c6.71,2.75,18.24.69,24.1-1.55l-11,23.41h7.23L346,60.24h-7.23L326,87.44c-1.55,3.27-4.82,9.46-4.82,12.39,0,1.89,1,3.61,3.27,3.61,4,0,7.75-4.82,11.19-10.84l-.86,2.93c-4.47,11-14.28,27.88-28.23,27.88-18.93,0-12.56-20.31-5.16-34.42l13.77-28.75h-5Z"/><path class="cls-1" d="M394.48,82.62c-4.64,16-11.18,24.95-21.68,25.47-7.4,9.3-16.53,15.84-25.3,15.84-12.4,0-17-9-16.53-21,1-19.62,20.66-49.74,44.75-49.74,8.44,0,13.6,6.71,13.6,15.66,0,7.23-2.75,16.18-7.06,24.61,5.86-.52,10-7.23,11.88-10.67Zm-31,19.1a13.08,13.08,0,0,1,1.72-10.32c2.07-3.28,5.86-5.17,10.16-5.86,4.47-9.12,6.2-18.41.86-18.41-7.75,0-26.51,36.66-17.73,36.66A8.2,8.2,0,0,0,363.5,101.72Z"/><path class="cls-1" d="M461.78,54.91l-14.46,32.7c-4.47,10-5,13.42-1.37,13.42,8.26,0,23.58-38.38,22.54-47.16,6.37-2.75,20.31-2.23,20.31,11,0,9.12-4.82,20.83-10.33,29.6-9.81,16.35-24.43,28.75-38.89,28.75-10.85,0-17.39-6.37-15.67-17.73-5.85,9.47-13.94,17.73-23.23,17.73-18.94,0-17.73-19.62-10.67-33.57l17.9-34.76h21.51l-15.14,32.7c-4.48,10-5,13.42-1.38,13.42,2.58,0,6.19-4.47,9.47-10l.68-1.38,16.53-34.76Z"/><path class="cls-1" d="M522.54,123.41c-8.95,0-11.88-5.34-11.88-11.88,0-14.63,15.49-32,15.49-38.38a1.7,1.7,0,0,0-1.89-1.89c-4.48,0-11.19,12.39-16.7,24.27l-11.7,26a64.49,64.49,0,0,0-12.4-.86A50.32,50.32,0,0,0,468,124.1c10.85-18.25,26.51-49.74,35.12-69.19H524.6l-6.37,10.84h1.55C525,58,532.35,53.19,540.44,53.19,549.39,53.19,553,58,553,64.54c0,12.57-14.28,27-14.28,35.63,0,1.55.86,2.76,2.4,2.76,4.31,0,7.41-4.13,11-10.33C548.18,104.65,537.17,123.41,522.54,123.41Z"/><path class="cls-1" d="M343.26,162.6a12.53,12.53,0,0,1-4.58-2.34l1.72-3.87a13.36,13.36,0,0,0,4.05,2.12,14.65,14.65,0,0,0,4.8.83,8.29,8.29,0,0,0,4.47-1,2.9,2.9,0,0,0,1.47-2.53,2.45,2.45,0,0,0-.82-1.9,5.92,5.92,0,0,0-2.09-1.16c-.84-.29-2-.6-3.45-1a40,40,0,0,1-5-1.46,8.12,8.12,0,0,1-3.26-2.28,6.16,6.16,0,0,1-1.36-4.19,7.22,7.22,0,0,1,1.21-4.05A8.13,8.13,0,0,1,344.1,137a14.67,14.67,0,0,1,6-1.07,19.26,19.26,0,0,1,4.83.61,13.58,13.58,0,0,1,4.1,1.76l-1.57,3.87a15.63,15.63,0,0,0-3.68-1.57A13.69,13.69,0,0,0,350,140a7.81,7.81,0,0,0-4.39,1,3.1,3.1,0,0,0-1.43,2.65,2.37,2.37,0,0,0,.82,1.87,5.91,5.91,0,0,0,2.09,1.15q1.26.42,3.45,1a36.14,36.14,0,0,1,4.9,1.44,8.45,8.45,0,0,1,3.28,2.28,6,6,0,0,1,1.36,4.14,7,7,0,0,1-1.21,4,8.12,8.12,0,0,1-3.66,2.87,14.8,14.8,0,0,1-6,1.08A20.72,20.72,0,0,1,343.26,162.6Z"/><path class="cls-1" d="M373.93,140.48H365v-4.21h22.77v4.21h-8.89v22.61h-5Z"/><path class="cls-1" d="M418.08,136.27v26.82h-4.79v-3.41c-1.82,2.53-4.62,3.8-8.43,3.8a9.61,9.61,0,0,1-7.47-3c-1.82-2-2.72-4.79-2.72-8.41V136.27h5V151.9a7.6,7.6,0,0,0,1.7,5.39,6.14,6.14,0,0,0,4.7,1.82,6.91,6.91,0,0,0,5.13-1.94q1.92-1.93,1.92-5.76V136.27Z"/><path class="cls-1" d="M429.12,136.27h11.72a16.89,16.89,0,0,1,7.63,1.67,12.36,12.36,0,0,1,5.17,4.71,14.35,14.35,0,0,1,0,14.06,12.38,12.38,0,0,1-5.17,4.72,16.89,16.89,0,0,1-7.63,1.66H429.12Zm11.49,22.61a11.4,11.4,0,0,0,5.19-1.13,8,8,0,0,0,3.45-3.22,10.33,10.33,0,0,0,0-9.7,8,8,0,0,0-3.45-3.21,11.27,11.27,0,0,0-5.19-1.14H434.1v18.4Z"/><path class="cls-1" d="M464.6,136.27h5v26.82h-5Z"/><path class="cls-1" d="M485.79,161.7a13.17,13.17,0,0,1-5.17-4.95,14.23,14.23,0,0,1,0-14.14,13.15,13.15,0,0,1,5.17-4.94,16.25,16.25,0,0,1,14.79,0,13.33,13.33,0,0,1,5.18,4.92,14.38,14.38,0,0,1,0,14.18,13.28,13.28,0,0,1-5.18,4.93,16.25,16.25,0,0,1-14.79,0ZM498,157.9a8.69,8.69,0,0,0,3.38-3.37,10.25,10.25,0,0,0,0-9.7,8.76,8.76,0,0,0-3.38-3.37,10.23,10.23,0,0,0-9.65,0,8.73,8.73,0,0,0-3.37,3.37,10.18,10.18,0,0,0,0,9.7,8.66,8.66,0,0,0,3.37,3.37,10.23,10.23,0,0,0,9.65,0Z"/><path class="cls-1" d="M519.07,162.6a12.61,12.61,0,0,1-4.58-2.34l1.73-3.87a13.3,13.3,0,0,0,4,2.12,14.71,14.71,0,0,0,4.81.83,8.28,8.28,0,0,0,4.46-1,2.89,2.89,0,0,0,1.48-2.53,2.46,2.46,0,0,0-.83-1.9,5.79,5.79,0,0,0-2.08-1.16c-.85-.29-2-.6-3.45-1a40.25,40.25,0,0,1-5-1.46,8,8,0,0,1-3.25-2.28,6.11,6.11,0,0,1-1.36-4.19,7.21,7.21,0,0,1,1.2-4.05,8.17,8.17,0,0,1,3.65-2.89,14.62,14.62,0,0,1,6-1.07,19.15,19.15,0,0,1,4.83.61,13.47,13.47,0,0,1,4.1,1.76l-1.57,3.87a15.45,15.45,0,0,0-3.68-1.57,13.62,13.62,0,0,0-3.71-.53,7.81,7.81,0,0,0-4.39,1,3.09,3.09,0,0,0-1.44,2.65,2.4,2.4,0,0,0,.82,1.87,5.91,5.91,0,0,0,2.09,1.15q1.27.42,3.45,1a36.33,36.33,0,0,1,4.91,1.44,8.42,8.42,0,0,1,3.27,2.28,6,6,0,0,1,1.36,4.14,7.09,7.09,0,0,1-1.2,4,8.23,8.23,0,0,1-3.66,2.87,14.83,14.83,0,0,1-6,1.08A20.74,20.74,0,0,1,519.07,162.6Z"/></g></g></svg>